<?xml version="1.0" encoding="utf-8" standalone="no"?>
<!DOCTYPE svg PUBLIC "-//W3C//DTD SVG 1.1//EN"
  "http://www.w3.org/Graphics/SVG/1.1/DTD/svg11.dtd">
<svg xmlns:xlink="http://www.w3.org/1999/xlink" width="576pt" height="432pt" viewBox="0 0 576 432" xmlns="http://www.w3.org/2000/svg" version="1.1">
 <metadata>
  <rdf:RDF xmlns:dc="http://purl.org/dc/elements/1.1/" xmlns:cc="http://creativecommons.org/ns#" xmlns:rdf="http://www.w3.org/1999/02/22-rdf-syntax-ns#">
   <cc:Work>
    <dc:type rdf:resource="http://purl.org/dc/dcmitype/StillImage"/>
    <dc:date>2023-10-30T16:17:35.955263</dc:date>
    <dc:format>image/svg+xml</dc:format>
    <dc:creator>
     <cc:Agent>
      <dc:title>Matplotlib v3.5.1, https://matplotlib.org/</dc:title>
     </cc:Agent>
    </dc:creator>
   </cc:Work>
  </rdf:RDF>
 </metadata>
 <defs>
  <style type="text/css">*{stroke-linejoin: round; stroke-linecap: butt}</style>
 </defs>
 <g id="figure_1">
  <g id="patch_1">
   <path d="M 0 432 
L 576 432 
L 576 0 
L 0 0 
z
" style="fill: #ffffff"/>
  </g>
  <g id="axes_1">
   <g id="patch_2">
    <path d="M 72 384.48 
L 518.4 384.48 
L 518.4 51.84 
L 72 51.84 
z
" style="fill: #ffffff"/>
   </g>
   <g id="patch_3">
    <path d="M 72 384.48 
L 79.1424 384.48 
L 79.1424 384.48 
L 72 384.48 
z
" clip-path="url(#p70d44c533b)" style="fill: #348abd"/>
   </g>
   <g id="patch_4">
    <path d="M 79.1424 384.48 
L 86.2848 384.48 
L 86.2848 384.48 
L 79.1424 384.48 
z
" clip-path="url(#p70d44c533b)" style="fill: #348abd"/>
   </g>
   <g id="patch_5">
    <path d="M 86.2848 384.48 
L 93.4272 384.48 
L 93.4272 384.48 
L 86.2848 384.48 
z
" clip-path="url(#p70d44c533b)" style="fill: #348abd"/>
   </g>
   <g id="patch_6">
    <path d="M 93.4272 384.48 
L 100.5696 384.48 
L 100.5696 384.48 
L 93.4272 384.48 
z
" clip-path="url(#p70d44c533b)" style="fill: #348abd"/>
   </g>
   <g id="patch_7">
    <path d="M 100.5696 384.48 
L 107.712 384.48 
L 107.712 384.48 
L 100.5696 384.48 
z
" clip-path="url(#p70d44c533b)" style="fill: #348abd"/>
   </g>
   <g id="patch_8">
    <path d="M 107.712 384.48 
L 114.8544 384.48 
L 114.8544 384.48 
L 107.712 384.48 
z
" clip-path="url(#p70d44c533b)" style="fill: #348abd"/>
   </g>
   <g id="patch_9">
    <path d="M 114.8544 384.48 
L 121.9968 384.48 
L 121.9968 384.48 
L 114.8544 384.48 
z
" clip-path="url(#p70d44c533b)" style="fill: #348abd"/>
   </g>
   <g id="patch_10">
    <path d="M 121.9968 384.48 
L 129.1392 384.48 
L 129.1392 384.48 
L 121.9968 384.48 
z
" clip-path="url(#p70d44c533b)" style="fill: #348abd"/>
   </g>
   <g id="patch_11">
    <path d="M 129.1392 384.48 
L 136.2816 384.48 
L 136.2816 384.48 
L 129.1392 384.48 
z
" clip-path="url(#p70d44c533b)" style="fill: #348abd"/>
   </g>
   <g id="patch_12">
    <path d="M 136.2816 384.48 
L 143.424 384.48 
L 143.424 384.48 
L 136.2816 384.48 
z
" clip-path="url(#p70d44c533b)" style="fill: #348abd"/>
   </g>
   <g id="patch_13">
    <path d="M 143.424 384.48 
L 150.5664 384.48 
L 150.5664 383.81472 
L 143.424 383.81472 
z
" clip-path="url(#p70d44c533b)" style="fill: #348abd"/>
   </g>
   <g id="patch_14">
    <path d="M 150.5664 384.48 
L 157.7088 384.48 
L 157.7088 383.81472 
L 150.5664 383.81472 
z
" clip-path="url(#p70d44c533b)" style="fill: #348abd"/>
   </g>
   <g id="patch_15">
    <path d="M 157.7088 384.48 
L 164.8512 384.48 
L 164.8512 383.81472 
L 157.7088 383.81472 
z
" clip-path="url(#p70d44c533b)" style="fill: #348abd"/>
   </g>
   <g id="patch_16">
    <path d="M 164.8512 384.48 
L 171.9936 384.48 
L 171.9936 384.48 
L 164.8512 384.48 
z
" clip-path="url(#p70d44c533b)" style="fill: #348abd"/>
   </g>
   <g id="patch_17">
    <path d="M 171.9936 384.48 
L 179.136 384.48 
L 179.136 381.1536 
L 171.9936 381.1536 
z
" clip-path="url(#p70d44c533b)" style="fill: #348abd"/>
   </g>
   <g id="patch_18">
    <path d="M 179.136 384.48 
L 186.2784 384.48 
L 186.2784 378.49248 
L 179.136 378.49248 
z
" clip-path="url(#p70d44c533b)" style="fill: #348abd"/>
   </g>
   <g id="patch_19">
    <path d="M 186.2784 384.48 
L 193.4208 384.48 
L 193.4208 371.83968 
L 186.2784 371.83968 
z
" clip-path="url(#p70d44c533b)" style="fill: #348abd"/>
   </g>
   <g id="patch_20">
    <path d="M 193.4208 384.48 
L 200.5632 384.48 
L 200.5632 366.51744 
L 193.4208 366.51744 
z
" clip-path="url(#p70d44c533b)" style="fill: #348abd"/>
   </g>
   <g id="patch_21">
    <path d="M 200.5632 384.48 
L 207.7056 384.48 
L 207.7056 363.19104 
L 200.5632 363.19104 
z
" clip-path="url(#p70d44c533b)" style="fill: #348abd"/>
   </g>
   <g id="patch_22">
    <path d="M 207.7056 384.48 
L 214.848 384.48 
L 214.848 329.26176 
L 207.7056 329.26176 
z
" clip-path="url(#p70d44c533b)" style="fill: #348abd"/>
   </g>
   <g id="patch_23">
    <path d="M 214.848 384.48 
L 221.9904 384.48 
L 221.9904 311.96448 
L 214.848 311.96448 
z
" clip-path="url(#p70d44c533b)" style="fill: #348abd"/>
   </g>
   <g id="patch_24">
    <path d="M 221.9904 384.48 
L 229.1328 384.48 
L 229.1328 274.7088 
L 221.9904 274.7088 
z
" clip-path="url(#p70d44c533b)" style="fill: #348abd"/>
   </g>
   <g id="patch_25">
    <path d="M 229.1328 384.48 
L 236.2752 384.48 
L 236.2752 265.39488 
L 229.1328 265.39488 
z
" clip-path="url(#p70d44c533b)" style="fill: #348abd"/>
   </g>
   <g id="patch_26">
    <path d="M 236.2752 384.48 
L 243.4176 384.48 
L 243.4176 182.90016 
L 236.2752 182.90016 
z
" clip-path="url(#p70d44c533b)" style="fill: #348abd"/>
   </g>
   <g id="patch_27">
    <path d="M 243.4176 384.48 
L 250.56 384.48 
L 250.56 174.25152 
L 243.4176 174.25152 
z
" clip-path="url(#p70d44c533b)" style="fill: #348abd"/>
   </g>
   <g id="patch_28">
    <path d="M 250.56 384.48 
L 257.7024 384.48 
L 257.7024 146.30976 
L 250.56 146.30976 
z
" clip-path="url(#p70d44c533b)" style="fill: #348abd"/>
   </g>
   <g id="patch_29">
    <path d="M 257.7024 384.48 
L 264.8448 384.48 
L 264.8448 126.35136 
L 257.7024 126.35136 
z
" clip-path="url(#p70d44c533b)" style="fill: #348abd"/>
   </g>
   <g id="patch_30">
    <path d="M 264.8448 384.48 
L 271.9872 384.48 
L 271.9872 89.09568 
L 264.8448 89.09568 
z
" clip-path="url(#p70d44c533b)" style="fill: #348abd"/>
   </g>
   <g id="patch_31">
    <path d="M 271.9872 384.48 
L 279.1296 384.48 
L 279.1296 108.3888 
L 271.9872 108.3888 
z
" clip-path="url(#p70d44c533b)" style="fill: #348abd"/>
   </g>
   <g id="patch_32">
    <path d="M 279.1296 384.48 
L 286.272 384.48 
L 286.272 129.67776 
L 279.1296 129.67776 
z
" clip-path="url(#p70d44c533b)" style="fill: #348abd"/>
   </g>
   <g id="patch_33">
    <path d="M 286.272 384.48 
L 293.4144 384.48 
L 293.4144 170.25984 
L 286.272 170.25984 
z
" clip-path="url(#p70d44c533b)" style="fill: #348abd"/>
   </g>
   <g id="patch_34">
    <path d="M 293.4144 384.48 
L 300.5568 384.48 
L 300.5568 176.91264 
L 293.4144 176.91264 
z
" clip-path="url(#p70d44c533b)" style="fill: #348abd"/>
   </g>
   <g id="patch_35">
    <path d="M 300.5568 384.48 
L 307.6992 384.48 
L 307.6992 217.49472 
L 300.5568 217.49472 
z
" clip-path="url(#p70d44c533b)" style="fill: #348abd"/>
   </g>
   <g id="patch_36">
    <path d="M 307.6992 384.48 
L 314.8416 384.48 
L 314.8416 239.44896 
L 307.6992 239.44896 
z
" clip-path="url(#p70d44c533b)" style="fill: #348abd"/>
   </g>
   <g id="patch_37">
    <path d="M 314.8416 384.48 
L 321.984 384.48 
L 321.984 274.7088 
L 314.8416 274.7088 
z
" clip-path="url(#p70d44c533b)" style="fill: #348abd"/>
   </g>
   <g id="patch_38">
    <path d="M 321.984 384.48 
L 329.1264 384.48 
L 329.1264 313.29504 
L 321.984 313.29504 
z
" clip-path="url(#p70d44c533b)" style="fill: #348abd"/>
   </g>
   <g id="patch_39">
    <path d="M 329.1264 384.48 
L 336.2688 384.48 
L 336.2688 319.28256 
L 329.1264 319.28256 
z
" clip-path="url(#p70d44c533b)" style="fill: #348abd"/>
   </g>
   <g id="patch_40">
    <path d="M 336.2688 384.48 
L 343.4112 384.48 
L 343.4112 337.24512 
L 336.2688 337.24512 
z
" clip-path="url(#p70d44c533b)" style="fill: #348abd"/>
   </g>
   <g id="patch_41">
    <path d="M 343.4112 384.48 
L 350.5536 384.48 
L 350.5536 342.56736 
L 343.4112 342.56736 
z
" clip-path="url(#p70d44c533b)" style="fill: #348abd"/>
   </g>
   <g id="patch_42">
    <path d="M 350.5536 384.48 
L 357.696 384.48 
L 357.696 363.19104 
L 350.5536 363.19104 
z
" clip-path="url(#p70d44c533b)" style="fill: #348abd"/>
   </g>
   <g id="patch_43">
    <path d="M 357.696 384.48 
L 364.8384 384.48 
L 364.8384 365.18688 
L 357.696 365.18688 
z
" clip-path="url(#p70d44c533b)" style="fill: #348abd"/>
   </g>
   <g id="patch_44">
    <path d="M 364.8384 384.48 
L 371.9808 384.48 
L 371.9808 369.84384 
L 364.8384 369.84384 
z
" clip-path="url(#p70d44c533b)" style="fill: #348abd"/>
   </g>
   <g id="patch_45">
    <path d="M 371.9808 384.48 
L 379.1232 384.48 
L 379.1232 373.17024 
L 371.9808 373.17024 
z
" clip-path="url(#p70d44c533b)" style="fill: #348abd"/>
   </g>
   <g id="patch_46">
    <path d="M 379.1232 384.48 
L 386.2656 384.48 
L 386.2656 372.50496 
L 379.1232 372.50496 
z
" clip-path="url(#p70d44c533b)" style="fill: #348abd"/>
   </g>
   <g id="patch_47">
    <path d="M 386.2656 384.48 
L 393.408 384.48 
L 393.408 377.8272 
L 386.2656 377.8272 
z
" clip-path="url(#p70d44c533b)" style="fill: #348abd"/>
   </g>
   <g id="patch_48">
    <path d="M 393.408 384.48 
L 400.5504 384.48 
L 400.5504 379.15776 
L 393.408 379.15776 
z
" clip-path="url(#p70d44c533b)" style="fill: #348abd"/>
   </g>
   <g id="patch_49">
    <path d="M 400.5504 384.48 
L 407.6928 384.48 
L 407.6928 380.48832 
L 400.5504 380.48832 
z
" clip-path="url(#p70d44c533b)" style="fill: #348abd"/>
   </g>
   <g id="patch_50">
    <path d="M 407.6928 384.48 
L 414.8352 384.48 
L 414.8352 383.14944 
L 407.6928 383.14944 
z
" clip-path="url(#p70d44c533b)" style="fill: #348abd"/>
   </g>
   <g id="patch_51">
    <path d="M 414.8352 384.48 
L 421.9776 384.48 
L 421.9776 383.14944 
L 414.8352 383.14944 
z
" clip-path="url(#p70d44c533b)" style="fill: #348abd"/>
   </g>
   <g id="patch_52">
    <path d="M 421.9776 384.48 
L 429.12 384.48 
L 429.12 382.48416 
L 421.9776 382.48416 
z
" clip-path="url(#p70d44c533b)" style="fill: #348abd"/>
   </g>
   <g id="patch_53">
    <path d="M 72 384.48 
L 72 384.48 
L 79.1424 384.48 
L 79.1424 384.48 
L 86.2848 384.48 
L 86.2848 384.48 
L 93.4272 384.48 
L 93.4272 384.48 
L 100.5696 384.48 
L 100.5696 384.48 
L 107.712 384.48 
L 107.712 384.48 
L 114.8544 384.48 
L 114.8544 384.48 
L 121.9968 384.48 
L 121.9968 384.48 
L 129.1392 384.48 
L 129.1392 384.48 
L 136.2816 384.48 
L 136.2816 384.48 
L 143.424 384.48 
L 143.424 384.48 
L 150.5664 384.48 
L 150.5664 384.48 
L 157.7088 384.48 
L 157.7088 383.81472 
L 164.8512 383.81472 
L 164.8512 383.81472 
L 171.9936 383.81472 
L 171.9936 382.48416 
L 179.136 382.48416 
L 179.136 379.82304 
L 186.2784 379.82304 
L 186.2784 371.83968 
L 193.4208 371.83968 
L 193.4208 364.5216 
L 200.5632 364.5216 
L 200.5632 355.20768 
L 207.7056 355.20768 
L 207.7056 339.90624 
L 214.848 339.90624 
L 214.848 302.65056 
L 221.9904 302.65056 
L 221.9904 278.0352 
L 229.1328 278.0352 
L 229.1328 254.08512 
L 236.2752 254.08512 
L 236.2752 168.92928 
L 243.4176 168.92928 
L 243.4176 176.91264 
L 250.56 176.91264 
L 250.56 115.0416 
L 257.7024 115.0416 
L 257.7024 127.68192 
L 264.8448 127.68192 
L 264.8448 98.4096 
L 271.9872 98.4096 
L 271.9872 90.42624 
L 279.1296 90.42624 
L 279.1296 127.01664 
L 286.272 127.01664 
L 286.272 169.59456 
L 293.4144 169.59456 
L 293.4144 191.5488 
L 300.5568 191.5488 
L 300.5568 214.16832 
L 307.6992 214.16832 
L 307.6992 263.39904 
L 314.8416 263.39904 
L 314.8416 274.04352 
L 321.984 274.04352 
L 321.984 313.96032 
L 329.1264 313.96032 
L 329.1264 330.59232 
L 336.2688 330.59232 
L 336.2688 332.58816 
L 343.4112 332.58816 
L 343.4112 353.21184 
L 350.5536 353.21184 
L 350.5536 363.85632 
L 357.696 363.85632 
L 357.696 367.848 
L 364.8384 367.848 
L 364.8384 371.83968 
L 371.9808 371.83968 
L 371.9808 371.1744 
L 379.1232 371.1744 
L 379.1232 375.83136 
L 386.2656 375.83136 
L 386.2656 379.15776 
L 393.408 379.15776 
L 393.408 380.48832 
L 400.5504 380.48832 
L 400.5504 381.81888 
L 407.6928 381.81888 
L 407.6928 382.48416 
L 414.8352 382.48416 
L 414.8352 383.14944 
L 421.9776 383.14944 
L 421.9776 383.14944 
L 429.12 383.14944 
L 429.12 384.48 
" clip-path="url(#p70d44c533b)" style="fill: none; stroke-dasharray: 7.4,3.2; stroke-dashoffset: 0; stroke: #000000; stroke-width: 2; stroke-linejoin: miter"/>
   </g>
   <g id="patch_54">
    <path d="M 72 384.48 
L 72 51.84 
" style="fill: none; stroke: #000000; stroke-width: 1.2; stroke-linejoin: miter; stroke-linecap: square"/>
   </g>
   <g id="patch_55">
    <path d="M 518.4 384.48 
L 518.4 51.84 
" style="fill: none; stroke: #000000; stroke-width: 1.2; stroke-linejoin: miter; stroke-linecap: square"/>
   </g>
   <g id="patch_56">
    <path d="M 72 384.48 
L 518.4 384.48 
" style="fill: none; stroke: #000000; stroke-width: 1.2; stroke-linejoin: miter; stroke-linecap: square"/>
   </g>
   <g id="patch_57">
    <path d="M 72 51.84 
L 518.4 51.84 
" style="fill: none; stroke: #000000; stroke-width: 1.2; stroke-linejoin: miter; stroke-linecap: square"/>
   </g>
   <g id="matplotlib.axis_1">
    <g id="xtick_1">
     <g id="line2d_1">
      <defs>
       <path id="m44f8bde78d" d="M 0 0 
L 0 -6 
" style="stroke: #1a1a1a; stroke-width: 0.8"/>
      </defs>
      <g>
       <use xlink:href="#m44f8bde78d" x="72" y="384.48" style="fill: #1a1a1a; stroke: #1a1a1a; stroke-width: 0.8"/>
      </g>
     </g>
     <g id="text_1">
      <!-- $\mathdefault{−0.10}$ -->
      <g style="fill: #1a1a1a" transform="translate(48.975 401.877656)scale(0.15 -0.15)">
       <defs>
        <path id="DejaVuSans-2212" d="M 678 2272 
L 4684 2272 
L 4684 1741 
L 678 1741 
L 678 2272 
z
" transform="scale(0.015625)"/>
        <path id="DejaVuSans-30" d="M 2034 4250 
Q 1547 4250 1301 3770 
Q 1056 3291 1056 2328 
Q 1056 1369 1301 889 
Q 1547 409 2034 409 
Q 2525 409 2770 889 
Q 3016 1369 3016 2328 
Q 3016 3291 2770 3770 
Q 2525 4250 2034 4250 
z
M 2034 4750 
Q 2819 4750 3233 4129 
Q 3647 3509 3647 2328 
Q 3647 1150 3233 529 
Q 2819 -91 2034 -91 
Q 1250 -91 836 529 
Q 422 1150 422 2328 
Q 422 3509 836 4129 
Q 1250 4750 2034 4750 
z
" transform="scale(0.015625)"/>
        <path id="DejaVuSans-2e" d="M 684 794 
L 1344 794 
L 1344 0 
L 684 0 
L 684 794 
z
" transform="scale(0.015625)"/>
        <path id="DejaVuSans-31" d="M 794 531 
L 1825 531 
L 1825 4091 
L 703 3866 
L 703 4441 
L 1819 4666 
L 2450 4666 
L 2450 531 
L 3481 531 
L 3481 0 
L 794 0 
L 794 531 
z
" transform="scale(0.015625)"/>
       </defs>
       <use xlink:href="#DejaVuSans-2212" transform="translate(0 0.78125)"/>
       <use xlink:href="#DejaVuSans-30" transform="translate(83.789062 0.78125)"/>
       <use xlink:href="#DejaVuSans-2e" transform="translate(147.412109 0.78125)"/>
       <use xlink:href="#DejaVuSans-31" transform="translate(179.199219 0.78125)"/>
       <use xlink:href="#DejaVuSans-30" transform="translate(242.822266 0.78125)"/>
      </g>
     </g>
    </g>
    <g id="xtick_2">
     <g id="line2d_2">
      <g>
       <use xlink:href="#m44f8bde78d" x="161.28" y="384.48" style="fill: #1a1a1a; stroke: #1a1a1a; stroke-width: 0.8"/>
      </g>
     </g>
     <g id="text_2">
      <!-- $\mathdefault{−0.05}$ -->
      <g style="fill: #1a1a1a" transform="translate(138.255 401.877656)scale(0.15 -0.15)">
       <defs>
        <path id="DejaVuSans-35" d="M 691 4666 
L 3169 4666 
L 3169 4134 
L 1269 4134 
L 1269 2991 
Q 1406 3038 1543 3061 
Q 1681 3084 1819 3084 
Q 2600 3084 3056 2656 
Q 3513 2228 3513 1497 
Q 3513 744 3044 326 
Q 2575 -91 1722 -91 
Q 1428 -91 1123 -41 
Q 819 9 494 109 
L 494 744 
Q 775 591 1075 516 
Q 1375 441 1709 441 
Q 2250 441 2565 725 
Q 2881 1009 2881 1497 
Q 2881 1984 2565 2268 
Q 2250 2553 1709 2553 
Q 1456 2553 1204 2497 
Q 953 2441 691 2322 
L 691 4666 
z
" transform="scale(0.015625)"/>
       </defs>
       <use xlink:href="#DejaVuSans-2212" transform="translate(0 0.78125)"/>
       <use xlink:href="#DejaVuSans-30" transform="translate(83.789062 0.78125)"/>
       <use xlink:href="#DejaVuSans-2e" transform="translate(147.412109 0.78125)"/>
       <use xlink:href="#DejaVuSans-30" transform="translate(179.199219 0.78125)"/>
       <use xlink:href="#DejaVuSans-35" transform="translate(242.822266 0.78125)"/>
      </g>
     </g>
    </g>
    <g id="xtick_3">
     <g id="line2d_3">
      <g>
       <use xlink:href="#m44f8bde78d" x="250.56" y="384.48" style="fill: #1a1a1a; stroke: #1a1a1a; stroke-width: 0.8"/>
      </g>
     </g>
     <g id="text_3">
      <!-- $\mathdefault{0.00}$ -->
      <g style="fill: #1a1a1a" transform="translate(233.835 401.877656)scale(0.15 -0.15)">
       <use xlink:href="#DejaVuSans-30" transform="translate(0 0.78125)"/>
       <use xlink:href="#DejaVuSans-2e" transform="translate(63.623047 0.78125)"/>
       <use xlink:href="#DejaVuSans-30" transform="translate(95.410156 0.78125)"/>
       <use xlink:href="#DejaVuSans-30" transform="translate(159.033203 0.78125)"/>
      </g>
     </g>
    </g>
    <g id="xtick_4">
     <g id="line2d_4">
      <g>
       <use xlink:href="#m44f8bde78d" x="339.84" y="384.48" style="fill: #1a1a1a; stroke: #1a1a1a; stroke-width: 0.8"/>
      </g>
     </g>
     <g id="text_4">
      <!-- $\mathdefault{0.05}$ -->
      <g style="fill: #1a1a1a" transform="translate(323.115 401.877656)scale(0.15 -0.15)">
       <use xlink:href="#DejaVuSans-30" transform="translate(0 0.78125)"/>
       <use xlink:href="#DejaVuSans-2e" transform="translate(63.623047 0.78125)"/>
       <use xlink:href="#DejaVuSans-30" transform="translate(95.410156 0.78125)"/>
       <use xlink:href="#DejaVuSans-35" transform="translate(159.033203 0.78125)"/>
      </g>
     </g>
    </g>
    <g id="xtick_5">
     <g id="line2d_5">
      <g>
       <use xlink:href="#m44f8bde78d" x="429.12" y="384.48" style="fill: #1a1a1a; stroke: #1a1a1a; stroke-width: 0.8"/>
      </g>
     </g>
     <g id="text_5">
      <!-- $\mathdefault{0.10}$ -->
      <g style="fill: #1a1a1a" transform="translate(412.395 401.877656)scale(0.15 -0.15)">
       <use xlink:href="#DejaVuSans-30" transform="translate(0 0.78125)"/>
       <use xlink:href="#DejaVuSans-2e" transform="translate(63.623047 0.78125)"/>
       <use xlink:href="#DejaVuSans-31" transform="translate(95.410156 0.78125)"/>
       <use xlink:href="#DejaVuSans-30" transform="translate(159.033203 0.78125)"/>
      </g>
     </g>
    </g>
    <g id="xtick_6">
     <g id="line2d_6">
      <g>
       <use xlink:href="#m44f8bde78d" x="518.4" y="384.48" style="fill: #1a1a1a; stroke: #1a1a1a; stroke-width: 0.8"/>
      </g>
     </g>
     <g id="text_6">
      <!-- $\mathdefault{0.15}$ -->
      <g style="fill: #1a1a1a" transform="translate(501.675 401.877656)scale(0.15 -0.15)">
       <use xlink:href="#DejaVuSans-30" transform="translate(0 0.78125)"/>
       <use xlink:href="#DejaVuSans-2e" transform="translate(63.623047 0.78125)"/>
       <use xlink:href="#DejaVuSans-31" transform="translate(95.410156 0.78125)"/>
       <use xlink:href="#DejaVuSans-35" transform="translate(159.033203 0.78125)"/>
      </g>
     </g>
    </g>
    <g id="xtick_7">
     <g id="line2d_7">
      <defs>
       <path id="m69ec5bc313" d="M 0 0 
L 0 -3 
" style="stroke: #1a1a1a; stroke-width: 0.6"/>
      </defs>
      <g>
       <use xlink:href="#m69ec5bc313" x="89.856" y="384.48" style="fill: #1a1a1a; stroke: #1a1a1a; stroke-width: 0.6"/>
      </g>
     </g>
    </g>
    <g id="xtick_8">
     <g id="line2d_8">
      <g>
       <use xlink:href="#m69ec5bc313" x="107.712" y="384.48" style="fill: #1a1a1a; stroke: #1a1a1a; stroke-width: 0.6"/>
      </g>
     </g>
    </g>
    <g id="xtick_9">
     <g id="line2d_9">
      <g>
       <use xlink:href="#m69ec5bc313" x="125.568" y="384.48" style="fill: #1a1a1a; stroke: #1a1a1a; stroke-width: 0.6"/>
      </g>
     </g>
    </g>
    <g id="xtick_10">
     <g id="line2d_10">
      <g>
       <use xlink:href="#m69ec5bc313" x="143.424" y="384.48" style="fill: #1a1a1a; stroke: #1a1a1a; stroke-width: 0.6"/>
      </g>
     </g>
    </g>
    <g id="xtick_11">
     <g id="line2d_11">
      <g>
       <use xlink:href="#m69ec5bc313" x="179.136" y="384.48" style="fill: #1a1a1a; stroke: #1a1a1a; stroke-width: 0.6"/>
      </g>
     </g>
    </g>
    <g id="xtick_12">
     <g id="line2d_12">
      <g>
       <use xlink:href="#m69ec5bc313" x="196.992" y="384.48" style="fill: #1a1a1a; stroke: #1a1a1a; stroke-width: 0.6"/>
      </g>
     </g>
    </g>
    <g id="xtick_13">
     <g id="line2d_13">
      <g>
       <use xlink:href="#m69ec5bc313" x="214.848" y="384.48" style="fill: #1a1a1a; stroke: #1a1a1a; stroke-width: 0.6"/>
      </g>
     </g>
    </g>
    <g id="xtick_14">
     <g id="line2d_14">
      <g>
       <use xlink:href="#m69ec5bc313" x="232.704" y="384.48" style="fill: #1a1a1a; stroke: #1a1a1a; stroke-width: 0.6"/>
      </g>
     </g>
    </g>
    <g id="xtick_15">
     <g id="line2d_15">
      <g>
       <use xlink:href="#m69ec5bc313" x="268.416" y="384.48" style="fill: #1a1a1a; stroke: #1a1a1a; stroke-width: 0.6"/>
      </g>
     </g>
    </g>
    <g id="xtick_16">
     <g id="line2d_16">
      <g>
       <use xlink:href="#m69ec5bc313" x="286.272" y="384.48" style="fill: #1a1a1a; stroke: #1a1a1a; stroke-width: 0.6"/>
      </g>
     </g>
    </g>
    <g id="xtick_17">
     <g id="line2d_17">
      <g>
       <use xlink:href="#m69ec5bc313" x="304.128" y="384.48" style="fill: #1a1a1a; stroke: #1a1a1a; stroke-width: 0.6"/>
      </g>
     </g>
    </g>
    <g id="xtick_18">
     <g id="line2d_18">
      <g>
       <use xlink:href="#m69ec5bc313" x="321.984" y="384.48" style="fill: #1a1a1a; stroke: #1a1a1a; stroke-width: 0.6"/>
      </g>
     </g>
    </g>
    <g id="xtick_19">
     <g id="line2d_19">
      <g>
       <use xlink:href="#m69ec5bc313" x="357.696" y="384.48" style="fill: #1a1a1a; stroke: #1a1a1a; stroke-width: 0.6"/>
      </g>
     </g>
    </g>
    <g id="xtick_20">
     <g id="line2d_20">
      <g>
       <use xlink:href="#m69ec5bc313" x="375.552" y="384.48" style="fill: #1a1a1a; stroke: #1a1a1a; stroke-width: 0.6"/>
      </g>
     </g>
    </g>
    <g id="xtick_21">
     <g id="line2d_21">
      <g>
       <use xlink:href="#m69ec5bc313" x="393.408" y="384.48" style="fill: #1a1a1a; stroke: #1a1a1a; stroke-width: 0.6"/>
      </g>
     </g>
    </g>
    <g id="xtick_22">
     <g id="line2d_22">
      <g>
       <use xlink:href="#m69ec5bc313" x="411.264" y="384.48" style="fill: #1a1a1a; stroke: #1a1a1a; stroke-width: 0.6"/>
      </g>
     </g>
    </g>
    <g id="xtick_23">
     <g id="line2d_23">
      <g>
       <use xlink:href="#m69ec5bc313" x="446.976" y="384.48" style="fill: #1a1a1a; stroke: #1a1a1a; stroke-width: 0.6"/>
      </g>
     </g>
    </g>
    <g id="xtick_24">
     <g id="line2d_24">
      <g>
       <use xlink:href="#m69ec5bc313" x="464.832" y="384.48" style="fill: #1a1a1a; stroke: #1a1a1a; stroke-width: 0.6"/>
      </g>
     </g>
    </g>
    <g id="xtick_25">
     <g id="line2d_25">
      <g>
       <use xlink:href="#m69ec5bc313" x="482.688" y="384.48" style="fill: #1a1a1a; stroke: #1a1a1a; stroke-width: 0.6"/>
      </g>
     </g>
    </g>
    <g id="xtick_26">
     <g id="line2d_26">
      <g>
       <use xlink:href="#m69ec5bc313" x="500.544" y="384.48" style="fill: #1a1a1a; stroke: #1a1a1a; stroke-width: 0.6"/>
      </g>
     </g>
    </g>
    <g id="text_7">
     <!-- dz[cm] -->
     <g style="fill: #1a1a1a" transform="translate(257.097031 427.71375)scale(0.22 -0.22)">
      <defs>
       <path id="DejaVuSans-64" d="M 2906 2969 
L 2906 4863 
L 3481 4863 
L 3481 0 
L 2906 0 
L 2906 525 
Q 2725 213 2448 61 
Q 2172 -91 1784 -91 
Q 1150 -91 751 415 
Q 353 922 353 1747 
Q 353 2572 751 3078 
Q 1150 3584 1784 3584 
Q 2172 3584 2448 3432 
Q 2725 3281 2906 2969 
z
M 947 1747 
Q 947 1113 1208 752 
Q 1469 391 1925 391 
Q 2381 391 2643 752 
Q 2906 1113 2906 1747 
Q 2906 2381 2643 2742 
Q 2381 3103 1925 3103 
Q 1469 3103 1208 2742 
Q 947 2381 947 1747 
z
" transform="scale(0.015625)"/>
       <path id="DejaVuSans-7a" d="M 353 3500 
L 3084 3500 
L 3084 2975 
L 922 459 
L 3084 459 
L 3084 0 
L 275 0 
L 275 525 
L 2438 3041 
L 353 3041 
L 353 3500 
z
" transform="scale(0.015625)"/>
       <path id="DejaVuSans-5b" d="M 550 4863 
L 1875 4863 
L 1875 4416 
L 1125 4416 
L 1125 -397 
L 1875 -397 
L 1875 -844 
L 550 -844 
L 550 4863 
z
" transform="scale(0.015625)"/>
       <path id="DejaVuSans-63" d="M 3122 3366 
L 3122 2828 
Q 2878 2963 2633 3030 
Q 2388 3097 2138 3097 
Q 1578 3097 1268 2742 
Q 959 2388 959 1747 
Q 959 1106 1268 751 
Q 1578 397 2138 397 
Q 2388 397 2633 464 
Q 2878 531 3122 666 
L 3122 134 
Q 2881 22 2623 -34 
Q 2366 -91 2075 -91 
Q 1284 -91 818 406 
Q 353 903 353 1747 
Q 353 2603 823 3093 
Q 1294 3584 2113 3584 
Q 2378 3584 2631 3529 
Q 2884 3475 3122 3366 
z
" transform="scale(0.015625)"/>
       <path id="DejaVuSans-6d" d="M 3328 2828 
Q 3544 3216 3844 3400 
Q 4144 3584 4550 3584 
Q 5097 3584 5394 3201 
Q 5691 2819 5691 2113 
L 5691 0 
L 5113 0 
L 5113 2094 
Q 5113 2597 4934 2840 
Q 4756 3084 4391 3084 
Q 3944 3084 3684 2787 
Q 3425 2491 3425 1978 
L 3425 0 
L 2847 0 
L 2847 2094 
Q 2847 2600 2669 2842 
Q 2491 3084 2119 3084 
Q 1678 3084 1418 2786 
Q 1159 2488 1159 1978 
L 1159 0 
L 581 0 
L 581 3500 
L 1159 3500 
L 1159 2956 
Q 1356 3278 1631 3431 
Q 1906 3584 2284 3584 
Q 2666 3584 2933 3390 
Q 3200 3197 3328 2828 
z
" transform="scale(0.015625)"/>
       <path id="DejaVuSans-5d" d="M 1947 4863 
L 1947 -844 
L 622 -844 
L 622 -397 
L 1369 -397 
L 1369 4416 
L 622 4416 
L 622 4863 
L 1947 4863 
z
" transform="scale(0.015625)"/>
      </defs>
      <use xlink:href="#DejaVuSans-64"/>
      <use xlink:href="#DejaVuSans-7a" x="63.476562"/>
      <use xlink:href="#DejaVuSans-5b" x="115.966797"/>
      <use xlink:href="#DejaVuSans-63" x="154.980469"/>
      <use xlink:href="#DejaVuSans-6d" x="209.960938"/>
      <use xlink:href="#DejaVuSans-5d" x="307.373047"/>
     </g>
    </g>
   </g>
   <g id="matplotlib.axis_2">
    <g id="ytick_1">
     <g id="line2d_27">
      <defs>
       <path id="m1288a0dc8f" d="M 0 0 
L 6 0 
" style="stroke: #1a1a1a; stroke-width: 0.8"/>
      </defs>
      <g>
       <use xlink:href="#m1288a0dc8f" x="72" y="384.48" style="fill: #1a1a1a; stroke: #1a1a1a; stroke-width: 0.8"/>
      </g>
     </g>
     <g id="text_8">
      <!-- $\mathdefault{0}$ -->
      <g style="fill: #1a1a1a" transform="translate(56.4 390.178828)scale(0.15 -0.15)">
       <use xlink:href="#DejaVuSans-30" transform="translate(0 0.78125)"/>
      </g>
     </g>
    </g>
    <g id="ytick_2">
     <g id="line2d_28">
      <g>
       <use xlink:href="#m1288a0dc8f" x="72" y="317.952" style="fill: #1a1a1a; stroke: #1a1a1a; stroke-width: 0.8"/>
      </g>
     </g>
     <g id="text_9">
      <!-- $\mathdefault{100}$ -->
      <g style="fill: #1a1a1a" transform="translate(37.35 323.650828)scale(0.15 -0.15)">
       <use xlink:href="#DejaVuSans-31" transform="translate(0 0.78125)"/>
       <use xlink:href="#DejaVuSans-30" transform="translate(63.623047 0.78125)"/>
       <use xlink:href="#DejaVuSans-30" transform="translate(127.246094 0.78125)"/>
      </g>
     </g>
    </g>
    <g id="ytick_3">
     <g id="line2d_29">
      <g>
       <use xlink:href="#m1288a0dc8f" x="72" y="251.424" style="fill: #1a1a1a; stroke: #1a1a1a; stroke-width: 0.8"/>
      </g>
     </g>
     <g id="text_10">
      <!-- $\mathdefault{200}$ -->
      <g style="fill: #1a1a1a" transform="translate(37.35 257.122828)scale(0.15 -0.15)">
       <defs>
        <path id="DejaVuSans-32" d="M 1228 531 
L 3431 531 
L 3431 0 
L 469 0 
L 469 531 
Q 828 903 1448 1529 
Q 2069 2156 2228 2338 
Q 2531 2678 2651 2914 
Q 2772 3150 2772 3378 
Q 2772 3750 2511 3984 
Q 2250 4219 1831 4219 
Q 1534 4219 1204 4116 
Q 875 4013 500 3803 
L 500 4441 
Q 881 4594 1212 4672 
Q 1544 4750 1819 4750 
Q 2544 4750 2975 4387 
Q 3406 4025 3406 3419 
Q 3406 3131 3298 2873 
Q 3191 2616 2906 2266 
Q 2828 2175 2409 1742 
Q 1991 1309 1228 531 
z
" transform="scale(0.015625)"/>
       </defs>
       <use xlink:href="#DejaVuSans-32" transform="translate(0 0.78125)"/>
       <use xlink:href="#DejaVuSans-30" transform="translate(63.623047 0.78125)"/>
       <use xlink:href="#DejaVuSans-30" transform="translate(127.246094 0.78125)"/>
      </g>
     </g>
    </g>
    <g id="ytick_4">
     <g id="line2d_30">
      <g>
       <use xlink:href="#m1288a0dc8f" x="72" y="184.896" style="fill: #1a1a1a; stroke: #1a1a1a; stroke-width: 0.8"/>
      </g>
     </g>
     <g id="text_11">
      <!-- $\mathdefault{300}$ -->
      <g style="fill: #1a1a1a" transform="translate(37.35 190.594828)scale(0.15 -0.15)">
       <defs>
        <path id="DejaVuSans-33" d="M 2597 2516 
Q 3050 2419 3304 2112 
Q 3559 1806 3559 1356 
Q 3559 666 3084 287 
Q 2609 -91 1734 -91 
Q 1441 -91 1130 -33 
Q 819 25 488 141 
L 488 750 
Q 750 597 1062 519 
Q 1375 441 1716 441 
Q 2309 441 2620 675 
Q 2931 909 2931 1356 
Q 2931 1769 2642 2001 
Q 2353 2234 1838 2234 
L 1294 2234 
L 1294 2753 
L 1863 2753 
Q 2328 2753 2575 2939 
Q 2822 3125 2822 3475 
Q 2822 3834 2567 4026 
Q 2313 4219 1838 4219 
Q 1578 4219 1281 4162 
Q 984 4106 628 3988 
L 628 4550 
Q 988 4650 1302 4700 
Q 1616 4750 1894 4750 
Q 2613 4750 3031 4423 
Q 3450 4097 3450 3541 
Q 3450 3153 3228 2886 
Q 3006 2619 2597 2516 
z
" transform="scale(0.015625)"/>
       </defs>
       <use xlink:href="#DejaVuSans-33" transform="translate(0 0.78125)"/>
       <use xlink:href="#DejaVuSans-30" transform="translate(63.623047 0.78125)"/>
       <use xlink:href="#DejaVuSans-30" transform="translate(127.246094 0.78125)"/>
      </g>
     </g>
    </g>
    <g id="ytick_5">
     <g id="line2d_31">
      <g>
       <use xlink:href="#m1288a0dc8f" x="72" y="118.368" style="fill: #1a1a1a; stroke: #1a1a1a; stroke-width: 0.8"/>
      </g>
     </g>
     <g id="text_12">
      <!-- $\mathdefault{400}$ -->
      <g style="fill: #1a1a1a" transform="translate(37.35 124.066828)scale(0.15 -0.15)">
       <defs>
        <path id="DejaVuSans-34" d="M 2419 4116 
L 825 1625 
L 2419 1625 
L 2419 4116 
z
M 2253 4666 
L 3047 4666 
L 3047 1625 
L 3713 1625 
L 3713 1100 
L 3047 1100 
L 3047 0 
L 2419 0 
L 2419 1100 
L 313 1100 
L 313 1709 
L 2253 4666 
z
" transform="scale(0.015625)"/>
       </defs>
       <use xlink:href="#DejaVuSans-34" transform="translate(0 0.78125)"/>
       <use xlink:href="#DejaVuSans-30" transform="translate(63.623047 0.78125)"/>
       <use xlink:href="#DejaVuSans-30" transform="translate(127.246094 0.78125)"/>
      </g>
     </g>
    </g>
    <g id="ytick_6">
     <g id="line2d_32">
      <g>
       <use xlink:href="#m1288a0dc8f" x="72" y="51.84" style="fill: #1a1a1a; stroke: #1a1a1a; stroke-width: 0.8"/>
      </g>
     </g>
     <g id="text_13">
      <!-- $\mathdefault{500}$ -->
      <g style="fill: #1a1a1a" transform="translate(37.35 57.538828)scale(0.15 -0.15)">
       <use xlink:href="#DejaVuSans-35" transform="translate(0 0.78125)"/>
       <use xlink:href="#DejaVuSans-30" transform="translate(63.623047 0.78125)"/>
       <use xlink:href="#DejaVuSans-30" transform="translate(127.246094 0.78125)"/>
      </g>
     </g>
    </g>
    <g id="ytick_7">
     <g id="line2d_33">
      <defs>
       <path id="m6aa076ffde" d="M 0 0 
L 3 0 
" style="stroke: #1a1a1a; stroke-width: 0.6"/>
      </defs>
      <g>
       <use xlink:href="#m6aa076ffde" x="72" y="371.1744" style="fill: #1a1a1a; stroke: #1a1a1a; stroke-width: 0.6"/>
      </g>
     </g>
    </g>
    <g id="ytick_8">
     <g id="line2d_34">
      <g>
       <use xlink:href="#m6aa076ffde" x="72" y="357.8688" style="fill: #1a1a1a; stroke: #1a1a1a; stroke-width: 0.6"/>
      </g>
     </g>
    </g>
    <g id="ytick_9">
     <g id="line2d_35">
      <g>
       <use xlink:href="#m6aa076ffde" x="72" y="344.5632" style="fill: #1a1a1a; stroke: #1a1a1a; stroke-width: 0.6"/>
      </g>
     </g>
    </g>
    <g id="ytick_10">
     <g id="line2d_36">
      <g>
       <use xlink:href="#m6aa076ffde" x="72" y="331.2576" style="fill: #1a1a1a; stroke: #1a1a1a; stroke-width: 0.6"/>
      </g>
     </g>
    </g>
    <g id="ytick_11">
     <g id="line2d_37">
      <g>
       <use xlink:href="#m6aa076ffde" x="72" y="304.6464" style="fill: #1a1a1a; stroke: #1a1a1a; stroke-width: 0.6"/>
      </g>
     </g>
    </g>
    <g id="ytick_12">
     <g id="line2d_38">
      <g>
       <use xlink:href="#m6aa076ffde" x="72" y="291.3408" style="fill: #1a1a1a; stroke: #1a1a1a; stroke-width: 0.6"/>
      </g>
     </g>
    </g>
    <g id="ytick_13">
     <g id="line2d_39">
      <g>
       <use xlink:href="#m6aa076ffde" x="72" y="278.0352" style="fill: #1a1a1a; stroke: #1a1a1a; stroke-width: 0.6"/>
      </g>
     </g>
    </g>
    <g id="ytick_14">
     <g id="line2d_40">
      <g>
       <use xlink:href="#m6aa076ffde" x="72" y="264.7296" style="fill: #1a1a1a; stroke: #1a1a1a; stroke-width: 0.6"/>
      </g>
     </g>
    </g>
    <g id="ytick_15">
     <g id="line2d_41">
      <g>
       <use xlink:href="#m6aa076ffde" x="72" y="238.1184" style="fill: #1a1a1a; stroke: #1a1a1a; stroke-width: 0.6"/>
      </g>
     </g>
    </g>
    <g id="ytick_16">
     <g id="line2d_42">
      <g>
       <use xlink:href="#m6aa076ffde" x="72" y="224.8128" style="fill: #1a1a1a; stroke: #1a1a1a; stroke-width: 0.6"/>
      </g>
     </g>
    </g>
    <g id="ytick_17">
     <g id="line2d_43">
      <g>
       <use xlink:href="#m6aa076ffde" x="72" y="211.5072" style="fill: #1a1a1a; stroke: #1a1a1a; stroke-width: 0.6"/>
      </g>
     </g>
    </g>
    <g id="ytick_18">
     <g id="line2d_44">
      <g>
       <use xlink:href="#m6aa076ffde" x="72" y="198.2016" style="fill: #1a1a1a; stroke: #1a1a1a; stroke-width: 0.6"/>
      </g>
     </g>
    </g>
    <g id="ytick_19">
     <g id="line2d_45">
      <g>
       <use xlink:href="#m6aa076ffde" x="72" y="171.5904" style="fill: #1a1a1a; stroke: #1a1a1a; stroke-width: 0.6"/>
      </g>
     </g>
    </g>
    <g id="ytick_20">
     <g id="line2d_46">
      <g>
       <use xlink:href="#m6aa076ffde" x="72" y="158.2848" style="fill: #1a1a1a; stroke: #1a1a1a; stroke-width: 0.6"/>
      </g>
     </g>
    </g>
    <g id="ytick_21">
     <g id="line2d_47">
      <g>
       <use xlink:href="#m6aa076ffde" x="72" y="144.9792" style="fill: #1a1a1a; stroke: #1a1a1a; stroke-width: 0.6"/>
      </g>
     </g>
    </g>
    <g id="ytick_22">
     <g id="line2d_48">
      <g>
       <use xlink:href="#m6aa076ffde" x="72" y="131.6736" style="fill: #1a1a1a; stroke: #1a1a1a; stroke-width: 0.6"/>
      </g>
     </g>
    </g>
    <g id="ytick_23">
     <g id="line2d_49">
      <g>
       <use xlink:href="#m6aa076ffde" x="72" y="105.0624" style="fill: #1a1a1a; stroke: #1a1a1a; stroke-width: 0.6"/>
      </g>
     </g>
    </g>
    <g id="ytick_24">
     <g id="line2d_50">
      <g>
       <use xlink:href="#m6aa076ffde" x="72" y="91.7568" style="fill: #1a1a1a; stroke: #1a1a1a; stroke-width: 0.6"/>
      </g>
     </g>
    </g>
    <g id="ytick_25">
     <g id="line2d_51">
      <g>
       <use xlink:href="#m6aa076ffde" x="72" y="78.4512" style="fill: #1a1a1a; stroke: #1a1a1a; stroke-width: 0.6"/>
      </g>
     </g>
    </g>
    <g id="ytick_26">
     <g id="line2d_52">
      <g>
       <use xlink:href="#m6aa076ffde" x="72" y="65.1456" style="fill: #1a1a1a; stroke: #1a1a1a; stroke-width: 0.6"/>
      </g>
     </g>
    </g>
    <g id="text_14">
     <!-- Events -->
     <g style="fill: #1a1a1a" transform="translate(26.774687 255.403594)rotate(-90)scale(0.22 -0.22)">
      <defs>
       <path id="DejaVuSans-45" d="M 628 4666 
L 3578 4666 
L 3578 4134 
L 1259 4134 
L 1259 2753 
L 3481 2753 
L 3481 2222 
L 1259 2222 
L 1259 531 
L 3634 531 
L 3634 0 
L 628 0 
L 628 4666 
z
" transform="scale(0.015625)"/>
       <path id="DejaVuSans-76" d="M 191 3500 
L 800 3500 
L 1894 563 
L 2988 3500 
L 3597 3500 
L 2284 0 
L 1503 0 
L 191 3500 
z
" transform="scale(0.015625)"/>
       <path id="DejaVuSans-65" d="M 3597 1894 
L 3597 1613 
L 953 1613 
Q 991 1019 1311 708 
Q 1631 397 2203 397 
Q 2534 397 2845 478 
Q 3156 559 3463 722 
L 3463 178 
Q 3153 47 2828 -22 
Q 2503 -91 2169 -91 
Q 1331 -91 842 396 
Q 353 884 353 1716 
Q 353 2575 817 3079 
Q 1281 3584 2069 3584 
Q 2775 3584 3186 3129 
Q 3597 2675 3597 1894 
z
M 3022 2063 
Q 3016 2534 2758 2815 
Q 2500 3097 2075 3097 
Q 1594 3097 1305 2825 
Q 1016 2553 972 2059 
L 3022 2063 
z
" transform="scale(0.015625)"/>
       <path id="DejaVuSans-6e" d="M 3513 2113 
L 3513 0 
L 2938 0 
L 2938 2094 
Q 2938 2591 2744 2837 
Q 2550 3084 2163 3084 
Q 1697 3084 1428 2787 
Q 1159 2491 1159 1978 
L 1159 0 
L 581 0 
L 581 3500 
L 1159 3500 
L 1159 2956 
Q 1366 3272 1645 3428 
Q 1925 3584 2291 3584 
Q 2894 3584 3203 3211 
Q 3513 2838 3513 2113 
z
" transform="scale(0.015625)"/>
       <path id="DejaVuSans-74" d="M 1172 4494 
L 1172 3500 
L 2356 3500 
L 2356 3053 
L 1172 3053 
L 1172 1153 
Q 1172 725 1289 603 
Q 1406 481 1766 481 
L 2356 481 
L 2356 0 
L 1766 0 
Q 1100 0 847 248 
Q 594 497 594 1153 
L 594 3053 
L 172 3053 
L 172 3500 
L 594 3500 
L 594 4494 
L 1172 4494 
z
" transform="scale(0.015625)"/>
       <path id="DejaVuSans-73" d="M 2834 3397 
L 2834 2853 
Q 2591 2978 2328 3040 
Q 2066 3103 1784 3103 
Q 1356 3103 1142 2972 
Q 928 2841 928 2578 
Q 928 2378 1081 2264 
Q 1234 2150 1697 2047 
L 1894 2003 
Q 2506 1872 2764 1633 
Q 3022 1394 3022 966 
Q 3022 478 2636 193 
Q 2250 -91 1575 -91 
Q 1294 -91 989 -36 
Q 684 19 347 128 
L 347 722 
Q 666 556 975 473 
Q 1284 391 1588 391 
Q 1994 391 2212 530 
Q 2431 669 2431 922 
Q 2431 1156 2273 1281 
Q 2116 1406 1581 1522 
L 1381 1569 
Q 847 1681 609 1914 
Q 372 2147 372 2553 
Q 372 3047 722 3315 
Q 1072 3584 1716 3584 
Q 2034 3584 2315 3537 
Q 2597 3491 2834 3397 
z
" transform="scale(0.015625)"/>
      </defs>
      <use xlink:href="#DejaVuSans-45"/>
      <use xlink:href="#DejaVuSans-76" x="63.183594"/>
      <use xlink:href="#DejaVuSans-65" x="122.363281"/>
      <use xlink:href="#DejaVuSans-6e" x="183.886719"/>
      <use xlink:href="#DejaVuSans-74" x="247.265625"/>
      <use xlink:href="#DejaVuSans-73" x="286.474609"/>
     </g>
    </g>
   </g>
   <g id="legend_1">
    <g id="patch_58">
     <path d="M 350.55 76.737656 
L 380.55 76.737656 
L 380.55 66.237656 
L 350.55 66.237656 
z
" style="fill: #348abd"/>
    </g>
    <g id="text_15">
     <!-- $J/\psi$ vertex -->
     <g style="fill: #1a1a1a" transform="translate(392.55 76.737656)scale(0.15 -0.15)">
      <defs>
       <path id="DejaVuSans-Oblique-4a" d="M 1069 4666 
L 1703 4666 
L 856 325 
Q 691 -522 298 -901 
Q -94 -1281 -800 -1281 
L -1050 -1281 
L -947 -750 
L -750 -750 
Q -328 -750 -109 -509 
Q 109 -269 225 325 
L 1069 4666 
z
" transform="scale(0.015625)"/>
       <path id="DejaVuSans-2f" d="M 1625 4666 
L 2156 4666 
L 531 -594 
L 0 -594 
L 1625 4666 
z
" transform="scale(0.015625)"/>
       <path id="DejaVuSans-Oblique-3c8" d="M 1591 -78 
Q 891 38 616 341 
Q 278 713 425 1472 
L 819 3500 
L 1400 3500 
L 1009 1494 
Q 900 922 1119 684 
Q 1313 478 1691 434 
L 2284 3500 
L 2856 3500 
L 2263 438 
Q 2681 481 2928 688 
Q 3247 950 3353 1497 
L 3741 3500 
L 4322 3500 
L 3928 1475 
Q 3775 688 3300 344 
Q 2872 34 2163 -75 
L 1919 -1331 
L 1347 -1331 
L 1591 -78 
z
" transform="scale(0.015625)"/>
       <path id="DejaVuSans-20" transform="scale(0.015625)"/>
       <path id="DejaVuSans-72" d="M 2631 2963 
Q 2534 3019 2420 3045 
Q 2306 3072 2169 3072 
Q 1681 3072 1420 2755 
Q 1159 2438 1159 1844 
L 1159 0 
L 581 0 
L 581 3500 
L 1159 3500 
L 1159 2956 
Q 1341 3275 1631 3429 
Q 1922 3584 2338 3584 
Q 2397 3584 2469 3576 
Q 2541 3569 2628 3553 
L 2631 2963 
z
" transform="scale(0.015625)"/>
       <path id="DejaVuSans-78" d="M 3513 3500 
L 2247 1797 
L 3578 0 
L 2900 0 
L 1881 1375 
L 863 0 
L 184 0 
L 1544 1831 
L 300 3500 
L 978 3500 
L 1906 2253 
L 2834 3500 
L 3513 3500 
z
" transform="scale(0.015625)"/>
      </defs>
      <use xlink:href="#DejaVuSans-Oblique-4a" transform="translate(0 0.09375)"/>
      <use xlink:href="#DejaVuSans-2f" transform="translate(29.492188 0.09375)"/>
      <use xlink:href="#DejaVuSans-Oblique-3c8" transform="translate(63.183594 0.09375)"/>
      <use xlink:href="#DejaVuSans-20" transform="translate(129.150391 0.09375)"/>
      <use xlink:href="#DejaVuSans-76" transform="translate(160.9375 0.09375)"/>
      <use xlink:href="#DejaVuSans-65" transform="translate(220.117188 0.09375)"/>
      <use xlink:href="#DejaVuSans-72" transform="translate(281.640625 0.09375)"/>
      <use xlink:href="#DejaVuSans-74" transform="translate(322.753906 0.09375)"/>
      <use xlink:href="#DejaVuSans-65" transform="translate(361.962891 0.09375)"/>
      <use xlink:href="#DejaVuSans-78" transform="translate(423.486328 0.09375)"/>
     </g>
    </g>
    <g id="patch_59">
     <path d="M 350.55 98.787656 
L 380.55 98.787656 
L 380.55 88.287656 
L 350.55 88.287656 
L 350.55 98.787656 
z
" style="fill: none; stroke-dasharray: 7.4,3.2; stroke-dashoffset: 0; stroke: #000000; stroke-width: 2; stroke-linejoin: miter"/>
    </g>
    <g id="text_16">
     <!-- $J/\psi$ vertex (MC) -->
     <g style="fill: #1a1a1a" transform="translate(392.55 98.787656)scale(0.15 -0.15)">
      <defs>
       <path id="DejaVuSans-28" d="M 1984 4856 
Q 1566 4138 1362 3434 
Q 1159 2731 1159 2009 
Q 1159 1288 1364 580 
Q 1569 -128 1984 -844 
L 1484 -844 
Q 1016 -109 783 600 
Q 550 1309 550 2009 
Q 550 2706 781 3412 
Q 1013 4119 1484 4856 
L 1984 4856 
z
" transform="scale(0.015625)"/>
       <path id="DejaVuSans-4d" d="M 628 4666 
L 1569 4666 
L 2759 1491 
L 3956 4666 
L 4897 4666 
L 4897 0 
L 4281 0 
L 4281 4097 
L 3078 897 
L 2444 897 
L 1241 4097 
L 1241 0 
L 628 0 
L 628 4666 
z
" transform="scale(0.015625)"/>
       <path id="DejaVuSans-43" d="M 4122 4306 
L 4122 3641 
Q 3803 3938 3442 4084 
Q 3081 4231 2675 4231 
Q 1875 4231 1450 3742 
Q 1025 3253 1025 2328 
Q 1025 1406 1450 917 
Q 1875 428 2675 428 
Q 3081 428 3442 575 
Q 3803 722 4122 1019 
L 4122 359 
Q 3791 134 3420 21 
Q 3050 -91 2638 -91 
Q 1578 -91 968 557 
Q 359 1206 359 2328 
Q 359 3453 968 4101 
Q 1578 4750 2638 4750 
Q 3056 4750 3426 4639 
Q 3797 4528 4122 4306 
z
" transform="scale(0.015625)"/>
       <path id="DejaVuSans-29" d="M 513 4856 
L 1013 4856 
Q 1481 4119 1714 3412 
Q 1947 2706 1947 2009 
Q 1947 1309 1714 600 
Q 1481 -109 1013 -844 
L 513 -844 
Q 928 -128 1133 580 
Q 1338 1288 1338 2009 
Q 1338 2731 1133 3434 
Q 928 4138 513 4856 
z
" transform="scale(0.015625)"/>
      </defs>
      <use xlink:href="#DejaVuSans-Oblique-4a" transform="translate(0 0.125)"/>
      <use xlink:href="#DejaVuSans-2f" transform="translate(29.492188 0.125)"/>
      <use xlink:href="#DejaVuSans-Oblique-3c8" transform="translate(63.183594 0.125)"/>
      <use xlink:href="#DejaVuSans-20" transform="translate(129.150391 0.125)"/>
      <use xlink:href="#DejaVuSans-76" transform="translate(160.9375 0.125)"/>
      <use xlink:href="#DejaVuSans-65" transform="translate(220.117188 0.125)"/>
      <use xlink:href="#DejaVuSans-72" transform="translate(281.640625 0.125)"/>
      <use xlink:href="#DejaVuSans-74" transform="translate(322.753906 0.125)"/>
      <use xlink:href="#DejaVuSans-65" transform="translate(361.962891 0.125)"/>
      <use xlink:href="#DejaVuSans-78" transform="translate(423.486328 0.125)"/>
      <use xlink:href="#DejaVuSans-20" transform="translate(482.666016 0.125)"/>
      <use xlink:href="#DejaVuSans-28" transform="translate(514.453125 0.125)"/>
      <use xlink:href="#DejaVuSans-4d" transform="translate(553.466797 0.125)"/>
      <use xlink:href="#DejaVuSans-43" transform="translate(639.746094 0.125)"/>
      <use xlink:href="#DejaVuSans-29" transform="translate(709.570312 0.125)"/>
     </g>
    </g>
   </g>
  </g>
 </g>
 <defs>
  <clipPath id="p70d44c533b">
   <rect x="72" y="51.84" width="446.4" height="332.64"/>
  </clipPath>
 </defs>
</svg>
