<?xml version="1.0" encoding="utf-8" standalone="no"?>
<!DOCTYPE svg PUBLIC "-//W3C//DTD SVG 1.1//EN"
  "http://www.w3.org/Graphics/SVG/1.1/DTD/svg11.dtd">
<svg xmlns:xlink="http://www.w3.org/1999/xlink" width="576pt" height="432pt" viewBox="0 0 576 432" xmlns="http://www.w3.org/2000/svg" version="1.1">
 <metadata>
  <rdf:RDF xmlns:dc="http://purl.org/dc/elements/1.1/" xmlns:cc="http://creativecommons.org/ns#" xmlns:rdf="http://www.w3.org/1999/02/22-rdf-syntax-ns#">
   <cc:Work>
    <dc:type rdf:resource="http://purl.org/dc/dcmitype/StillImage"/>
    <dc:date>2023-10-30T16:17:36.230441</dc:date>
    <dc:format>image/svg+xml</dc:format>
    <dc:creator>
     <cc:Agent>
      <dc:title>Matplotlib v3.5.1, https://matplotlib.org/</dc:title>
     </cc:Agent>
    </dc:creator>
   </cc:Work>
  </rdf:RDF>
 </metadata>
 <defs>
  <style type="text/css">*{stroke-linejoin: round; stroke-linecap: butt}</style>
 </defs>
 <g id="figure_1">
  <g id="patch_1">
   <path d="M 0 432 
L 576 432 
L 576 0 
L 0 0 
z
" style="fill: #ffffff"/>
  </g>
  <g id="axes_1">
   <g id="patch_2">
    <path d="M 72 384.48 
L 518.4 384.48 
L 518.4 51.84 
L 72 51.84 
z
" style="fill: #ffffff"/>
   </g>
   <g id="patch_3">
    <path d="M 92.290909 166870.8 
L 100.407273 166870.8 
L 100.407273 108.719545 
L 92.290909 108.719545 
z
" clip-path="url(#p5c33a1b16e)" style="fill: #348abd"/>
   </g>
   <g id="patch_4">
    <path d="M 100.407273 166870.8 
L 108.523636 166870.8 
L 108.523636 177.326333 
L 100.407273 177.326333 
z
" clip-path="url(#p5c33a1b16e)" style="fill: #348abd"/>
   </g>
   <g id="patch_5">
    <path d="M 108.523636 166870.8 
L 116.64 166870.8 
L 116.64 193.855985 
L 108.523636 193.855985 
z
" clip-path="url(#p5c33a1b16e)" style="fill: #348abd"/>
   </g>
   <g id="patch_6">
    <path d="M 116.64 166870.8 
L 124.756364 166870.8 
L 124.756364 187.442121 
L 116.64 187.442121 
z
" clip-path="url(#p5c33a1b16e)" style="fill: #348abd"/>
   </g>
   <g id="patch_7">
    <path d="M 124.756364 166870.8 
L 132.872727 166870.8 
L 132.872727 199.766719 
L 124.756364 199.766719 
z
" clip-path="url(#p5c33a1b16e)" style="fill: #348abd"/>
   </g>
   <g id="patch_8">
    <path d="M 132.872727 166870.8 
L 140.989091 166870.8 
L 140.989091 205.595029 
L 132.872727 205.595029 
z
" clip-path="url(#p5c33a1b16e)" style="fill: #348abd"/>
   </g>
   <g id="patch_9">
    <path d="M 140.989091 166870.8 
L 149.105455 166870.8 
L 149.105455 203.796633 
L 140.989091 203.796633 
z
" clip-path="url(#p5c33a1b16e)" style="fill: #348abd"/>
   </g>
   <g id="patch_10">
    <path d="M 149.105455 166870.8 
L 157.221818 166870.8 
L 157.221818 211.275569 
L 149.105455 211.275569 
z
" clip-path="url(#p5c33a1b16e)" style="fill: #348abd"/>
   </g>
   <g id="patch_11">
    <path d="M 157.221818 166870.8 
L 165.338182 166870.8 
L 165.338182 221.108649 
L 157.221818 221.108649 
z
" clip-path="url(#p5c33a1b16e)" style="fill: #348abd"/>
   </g>
   <g id="patch_12">
    <path d="M 165.338182 166870.8 
L 173.454545 166870.8 
L 173.454545 210.621882 
L 165.338182 210.621882 
z
" clip-path="url(#p5c33a1b16e)" style="fill: #348abd"/>
   </g>
   <g id="patch_13">
    <path d="M 173.454545 166870.8 
L 181.570909 166870.8 
L 181.570909 224.182809 
L 173.454545 224.182809 
z
" clip-path="url(#p5c33a1b16e)" style="fill: #348abd"/>
   </g>
   <g id="patch_14">
    <path d="M 181.570909 166870.8 
L 189.687273 166870.8 
L 189.687273 219.619279 
L 181.570909 219.619279 
z
" clip-path="url(#p5c33a1b16e)" style="fill: #348abd"/>
   </g>
   <g id="patch_15">
    <path d="M 189.687273 166870.8 
L 197.803636 166870.8 
L 197.803636 216.729619 
L 189.687273 216.729619 
z
" clip-path="url(#p5c33a1b16e)" style="fill: #348abd"/>
   </g>
   <g id="patch_16">
    <path d="M 197.803636 166870.8 
L 205.92 166870.8 
L 205.92 213.27289 
L 197.803636 213.27289 
z
" clip-path="url(#p5c33a1b16e)" style="fill: #348abd"/>
   </g>
   <g id="patch_17">
    <path d="M 205.92 166870.8 
L 214.036364 166870.8 
L 214.036364 212.600961 
L 205.92 212.600961 
z
" clip-path="url(#p5c33a1b16e)" style="fill: #348abd"/>
   </g>
   <g id="patch_18">
    <path d="M 214.036364 166870.8 
L 222.152727 166870.8 
L 222.152727 224.182809 
L 214.036364 224.182809 
z
" clip-path="url(#p5c33a1b16e)" style="fill: #348abd"/>
   </g>
   <g id="patch_19">
    <path d="M 222.152727 166870.8 
L 230.269091 166870.8 
L 230.269091 229.054218 
L 222.152727 229.054218 
z
" clip-path="url(#p5c33a1b16e)" style="fill: #348abd"/>
   </g>
   <g id="patch_20">
    <path d="M 230.269091 166870.8 
L 238.385455 166870.8 
L 238.385455 224.182809 
L 230.269091 224.182809 
z
" clip-path="url(#p5c33a1b16e)" style="fill: #348abd"/>
   </g>
   <g id="patch_21">
    <path d="M 238.385455 166870.8 
L 246.501818 166870.8 
L 246.501818 215.327015 
L 238.385455 215.327015 
z
" clip-path="url(#p5c33a1b16e)" style="fill: #348abd"/>
   </g>
   <g id="patch_22">
    <path d="M 246.501818 166870.8 
L 254.618182 166870.8 
L 254.618182 228.219158 
L 246.501818 228.219158 
z
" clip-path="url(#p5c33a1b16e)" style="fill: #348abd"/>
   </g>
   <g id="patch_23">
    <path d="M 254.618182 166870.8 
L 262.734545 166870.8 
L 262.734545 228.219158 
L 254.618182 228.219158 
z
" clip-path="url(#p5c33a1b16e)" style="fill: #348abd"/>
   </g>
   <g id="patch_24">
    <path d="M 262.734545 166870.8 
L 270.850909 166870.8 
L 270.850909 225.770386 
L 262.734545 225.770386 
z
" clip-path="url(#p5c33a1b16e)" style="fill: #348abd"/>
   </g>
   <g id="patch_25">
    <path d="M 270.850909 166870.8 
L 278.967273 166870.8 
L 278.967273 236.106826 
L 270.850909 236.106826 
z
" clip-path="url(#p5c33a1b16e)" style="fill: #348abd"/>
   </g>
   <g id="patch_26">
    <path d="M 278.967273 166870.8 
L 287.083636 166870.8 
L 287.083636 231.618932 
L 278.967273 231.618932 
z
" clip-path="url(#p5c33a1b16e)" style="fill: #348abd"/>
   </g>
   <g id="patch_27">
    <path d="M 287.083636 166870.8 
L 295.2 166870.8 
L 295.2 227.393642 
L 287.083636 227.393642 
z
" clip-path="url(#p5c33a1b16e)" style="fill: #348abd"/>
   </g>
   <g id="patch_28">
    <path d="M 295.2 166870.8 
L 303.316364 166870.8 
L 303.316364 234.278073 
L 295.2 234.278073 
z
" clip-path="url(#p5c33a1b16e)" style="fill: #348abd"/>
   </g>
   <g id="patch_29">
    <path d="M 303.316364 166870.8 
L 311.432727 166870.8 
L 311.432727 233.380772 
L 303.316364 233.380772 
z
" clip-path="url(#p5c33a1b16e)" style="fill: #348abd"/>
   </g>
   <g id="patch_30">
    <path d="M 311.432727 166870.8 
L 319.549091 166870.8 
L 319.549091 244.962619 
L 311.432727 244.962619 
z
" clip-path="url(#p5c33a1b16e)" style="fill: #348abd"/>
   </g>
   <g id="patch_31">
    <path d="M 319.549091 166870.8 
L 327.665455 166870.8 
L 327.665455 232.49448 
L 319.549091 232.49448 
z
" clip-path="url(#p5c33a1b16e)" style="fill: #348abd"/>
   </g>
   <g id="patch_32">
    <path d="M 327.665455 166870.8 
L 335.781818 166870.8 
L 335.781818 229.899044 
L 327.665455 229.899044 
z
" clip-path="url(#p5c33a1b16e)" style="fill: #348abd"/>
   </g>
   <g id="patch_33">
    <path d="M 335.781818 166870.8 
L 343.898182 166870.8 
L 343.898182 232.49448 
L 335.781818 232.49448 
z
" clip-path="url(#p5c33a1b16e)" style="fill: #348abd"/>
   </g>
   <g id="patch_34">
    <path d="M 343.898182 166870.8 
L 352.014545 166870.8 
L 352.014545 235.186662 
L 343.898182 235.186662 
z
" clip-path="url(#p5c33a1b16e)" style="fill: #348abd"/>
   </g>
   <g id="patch_35">
    <path d="M 352.014545 166870.8 
L 360.130909 166870.8 
L 360.130909 232.49448 
L 352.014545 232.49448 
z
" clip-path="url(#p5c33a1b16e)" style="fill: #348abd"/>
   </g>
   <g id="patch_36">
    <path d="M 360.130909 166870.8 
L 368.247273 166870.8 
L 368.247273 232.49448 
L 360.130909 232.49448 
z
" clip-path="url(#p5c33a1b16e)" style="fill: #348abd"/>
   </g>
   <g id="patch_37">
    <path d="M 368.247273 166870.8 
L 376.363636 166870.8 
L 376.363636 239.90938 
L 368.247273 239.90938 
z
" clip-path="url(#p5c33a1b16e)" style="fill: #348abd"/>
   </g>
   <g id="patch_38">
    <path d="M 376.363636 166870.8 
L 384.48 166870.8 
L 384.48 237.983083 
L 376.363636 237.983083 
z
" clip-path="url(#p5c33a1b16e)" style="fill: #348abd"/>
   </g>
   <g id="patch_39">
    <path d="M 384.48 166870.8 
L 392.596364 166870.8 
L 392.596364 233.380772 
L 384.48 233.380772 
z
" clip-path="url(#p5c33a1b16e)" style="fill: #348abd"/>
   </g>
   <g id="patch_40">
    <path d="M 392.596364 166870.8 
L 400.712727 166870.8 
L 400.712727 223.401916 
L 392.596364 223.401916 
z
" clip-path="url(#p5c33a1b16e)" style="fill: #348abd"/>
   </g>
   <g id="patch_41">
    <path d="M 400.712727 166870.8 
L 408.829091 166870.8 
L 408.829091 228.219158 
L 400.712727 228.219158 
z
" clip-path="url(#p5c33a1b16e)" style="fill: #348abd"/>
   </g>
   <g id="patch_42">
    <path d="M 408.829091 166870.8 
L 416.945455 166870.8 
L 416.945455 235.186662 
L 408.829091 235.186662 
z
" clip-path="url(#p5c33a1b16e)" style="fill: #348abd"/>
   </g>
   <g id="patch_43">
    <path d="M 416.945455 166870.8 
L 425.061818 166870.8 
L 425.061818 232.49448 
L 416.945455 232.49448 
z
" clip-path="url(#p5c33a1b16e)" style="fill: #348abd"/>
   </g>
   <g id="patch_44">
    <path d="M 425.061818 166870.8 
L 433.178182 166870.8 
L 433.178182 239.90938 
L 425.061818 239.90938 
z
" clip-path="url(#p5c33a1b16e)" style="fill: #348abd"/>
   </g>
   <g id="patch_45">
    <path d="M 433.178182 166870.8 
L 441.294545 166870.8 
L 441.294545 243.923294 
L 433.178182 243.923294 
z
" clip-path="url(#p5c33a1b16e)" style="fill: #348abd"/>
   </g>
   <g id="patch_46">
    <path d="M 441.294545 166870.8 
L 449.410909 166870.8 
L 449.410909 235.186662 
L 441.294545 235.186662 
z
" clip-path="url(#p5c33a1b16e)" style="fill: #348abd"/>
   </g>
   <g id="patch_47">
    <path d="M 449.410909 166870.8 
L 457.527273 166870.8 
L 457.527273 234.278073 
L 449.410909 234.278073 
z
" clip-path="url(#p5c33a1b16e)" style="fill: #348abd"/>
   </g>
   <g id="patch_48">
    <path d="M 457.527273 166870.8 
L 465.643636 166870.8 
L 465.643636 240.892142 
L 457.527273 240.892142 
z
" clip-path="url(#p5c33a1b16e)" style="fill: #348abd"/>
   </g>
   <g id="patch_49">
    <path d="M 465.643636 166870.8 
L 473.76 166870.8 
L 473.76 242.898711 
L 465.643636 242.898711 
z
" clip-path="url(#p5c33a1b16e)" style="fill: #348abd"/>
   </g>
   <g id="patch_50">
    <path d="M 473.76 166870.8 
L 481.876364 166870.8 
L 481.876364 235.186662 
L 473.76 235.186662 
z
" clip-path="url(#p5c33a1b16e)" style="fill: #348abd"/>
   </g>
   <g id="patch_51">
    <path d="M 481.876364 166870.8 
L 489.992727 166870.8 
L 489.992727 228.219158 
L 481.876364 228.219158 
z
" clip-path="url(#p5c33a1b16e)" style="fill: #348abd"/>
   </g>
   <g id="patch_52">
    <path d="M 489.992727 166870.8 
L 498.109091 166870.8 
L 498.109091 226.577454 
L 489.992727 226.577454 
z
" clip-path="url(#p5c33a1b16e)" style="fill: #348abd"/>
   </g>
   <g id="patch_53">
    <path d="M 72 384.48 
L 72 51.84 
" style="fill: none; stroke: #000000; stroke-width: 1.2; stroke-linejoin: miter; stroke-linecap: square"/>
   </g>
   <g id="patch_54">
    <path d="M 518.4 384.48 
L 518.4 51.84 
" style="fill: none; stroke: #000000; stroke-width: 1.2; stroke-linejoin: miter; stroke-linecap: square"/>
   </g>
   <g id="patch_55">
    <path d="M 72 384.48 
L 518.4 384.48 
" style="fill: none; stroke: #000000; stroke-width: 1.2; stroke-linejoin: miter; stroke-linecap: square"/>
   </g>
   <g id="patch_56">
    <path d="M 72 51.84 
L 518.4 51.84 
" style="fill: none; stroke: #000000; stroke-width: 1.2; stroke-linejoin: miter; stroke-linecap: square"/>
   </g>
   <g id="matplotlib.axis_1">
    <g id="xtick_1">
     <g id="line2d_1">
      <defs>
       <path id="mc79180436f" d="M 0 0 
L 0 -6 
" style="stroke: #1a1a1a; stroke-width: 0.8"/>
      </defs>
      <g>
       <use xlink:href="#mc79180436f" x="92.290909" y="384.48" style="fill: #1a1a1a; stroke: #1a1a1a; stroke-width: 0.8"/>
      </g>
     </g>
     <g id="text_1">
      <!-- $\mathdefault{0.0}$ -->
      <g style="fill: #1a1a1a" transform="translate(80.290909 401.877656)scale(0.15 -0.15)">
       <defs>
        <path id="DejaVuSans-30" d="M 2034 4250 
Q 1547 4250 1301 3770 
Q 1056 3291 1056 2328 
Q 1056 1369 1301 889 
Q 1547 409 2034 409 
Q 2525 409 2770 889 
Q 3016 1369 3016 2328 
Q 3016 3291 2770 3770 
Q 2525 4250 2034 4250 
z
M 2034 4750 
Q 2819 4750 3233 4129 
Q 3647 3509 3647 2328 
Q 3647 1150 3233 529 
Q 2819 -91 2034 -91 
Q 1250 -91 836 529 
Q 422 1150 422 2328 
Q 422 3509 836 4129 
Q 1250 4750 2034 4750 
z
" transform="scale(0.015625)"/>
        <path id="DejaVuSans-2e" d="M 684 794 
L 1344 794 
L 1344 0 
L 684 0 
L 684 794 
z
" transform="scale(0.015625)"/>
       </defs>
       <use xlink:href="#DejaVuSans-30" transform="translate(0 0.78125)"/>
       <use xlink:href="#DejaVuSans-2e" transform="translate(63.623047 0.78125)"/>
       <use xlink:href="#DejaVuSans-30" transform="translate(95.410156 0.78125)"/>
      </g>
     </g>
    </g>
    <g id="xtick_2">
     <g id="line2d_2">
      <g>
       <use xlink:href="#mc79180436f" x="173.454545" y="384.48" style="fill: #1a1a1a; stroke: #1a1a1a; stroke-width: 0.8"/>
      </g>
     </g>
     <g id="text_2">
      <!-- $\mathdefault{0.2}$ -->
      <g style="fill: #1a1a1a" transform="translate(161.904545 401.877656)scale(0.15 -0.15)">
       <defs>
        <path id="DejaVuSans-32" d="M 1228 531 
L 3431 531 
L 3431 0 
L 469 0 
L 469 531 
Q 828 903 1448 1529 
Q 2069 2156 2228 2338 
Q 2531 2678 2651 2914 
Q 2772 3150 2772 3378 
Q 2772 3750 2511 3984 
Q 2250 4219 1831 4219 
Q 1534 4219 1204 4116 
Q 875 4013 500 3803 
L 500 4441 
Q 881 4594 1212 4672 
Q 1544 4750 1819 4750 
Q 2544 4750 2975 4387 
Q 3406 4025 3406 3419 
Q 3406 3131 3298 2873 
Q 3191 2616 2906 2266 
Q 2828 2175 2409 1742 
Q 1991 1309 1228 531 
z
" transform="scale(0.015625)"/>
       </defs>
       <use xlink:href="#DejaVuSans-30" transform="translate(0 0.78125)"/>
       <use xlink:href="#DejaVuSans-2e" transform="translate(63.623047 0.78125)"/>
       <use xlink:href="#DejaVuSans-32" transform="translate(89.910156 0.78125)"/>
      </g>
     </g>
    </g>
    <g id="xtick_3">
     <g id="line2d_3">
      <g>
       <use xlink:href="#mc79180436f" x="254.618182" y="384.48" style="fill: #1a1a1a; stroke: #1a1a1a; stroke-width: 0.8"/>
      </g>
     </g>
     <g id="text_3">
      <!-- $\mathdefault{0.4}$ -->
      <g style="fill: #1a1a1a" transform="translate(242.618182 401.877656)scale(0.15 -0.15)">
       <defs>
        <path id="DejaVuSans-34" d="M 2419 4116 
L 825 1625 
L 2419 1625 
L 2419 4116 
z
M 2253 4666 
L 3047 4666 
L 3047 1625 
L 3713 1625 
L 3713 1100 
L 3047 1100 
L 3047 0 
L 2419 0 
L 2419 1100 
L 313 1100 
L 313 1709 
L 2253 4666 
z
" transform="scale(0.015625)"/>
       </defs>
       <use xlink:href="#DejaVuSans-30" transform="translate(0 0.78125)"/>
       <use xlink:href="#DejaVuSans-2e" transform="translate(63.623047 0.78125)"/>
       <use xlink:href="#DejaVuSans-34" transform="translate(95.410156 0.78125)"/>
      </g>
     </g>
    </g>
    <g id="xtick_4">
     <g id="line2d_4">
      <g>
       <use xlink:href="#mc79180436f" x="335.781818" y="384.48" style="fill: #1a1a1a; stroke: #1a1a1a; stroke-width: 0.8"/>
      </g>
     </g>
     <g id="text_4">
      <!-- $\mathdefault{0.6}$ -->
      <g style="fill: #1a1a1a" transform="translate(323.781818 401.877656)scale(0.15 -0.15)">
       <defs>
        <path id="DejaVuSans-36" d="M 2113 2584 
Q 1688 2584 1439 2293 
Q 1191 2003 1191 1497 
Q 1191 994 1439 701 
Q 1688 409 2113 409 
Q 2538 409 2786 701 
Q 3034 994 3034 1497 
Q 3034 2003 2786 2293 
Q 2538 2584 2113 2584 
z
M 3366 4563 
L 3366 3988 
Q 3128 4100 2886 4159 
Q 2644 4219 2406 4219 
Q 1781 4219 1451 3797 
Q 1122 3375 1075 2522 
Q 1259 2794 1537 2939 
Q 1816 3084 2150 3084 
Q 2853 3084 3261 2657 
Q 3669 2231 3669 1497 
Q 3669 778 3244 343 
Q 2819 -91 2113 -91 
Q 1303 -91 875 529 
Q 447 1150 447 2328 
Q 447 3434 972 4092 
Q 1497 4750 2381 4750 
Q 2619 4750 2861 4703 
Q 3103 4656 3366 4563 
z
" transform="scale(0.015625)"/>
       </defs>
       <use xlink:href="#DejaVuSans-30" transform="translate(0 0.78125)"/>
       <use xlink:href="#DejaVuSans-2e" transform="translate(63.623047 0.78125)"/>
       <use xlink:href="#DejaVuSans-36" transform="translate(95.410156 0.78125)"/>
      </g>
     </g>
    </g>
    <g id="xtick_5">
     <g id="line2d_5">
      <g>
       <use xlink:href="#mc79180436f" x="416.945455" y="384.48" style="fill: #1a1a1a; stroke: #1a1a1a; stroke-width: 0.8"/>
      </g>
     </g>
     <g id="text_5">
      <!-- $\mathdefault{0.8}$ -->
      <g style="fill: #1a1a1a" transform="translate(405.170455 401.877656)scale(0.15 -0.15)">
       <defs>
        <path id="DejaVuSans-38" d="M 2034 2216 
Q 1584 2216 1326 1975 
Q 1069 1734 1069 1313 
Q 1069 891 1326 650 
Q 1584 409 2034 409 
Q 2484 409 2743 651 
Q 3003 894 3003 1313 
Q 3003 1734 2745 1975 
Q 2488 2216 2034 2216 
z
M 1403 2484 
Q 997 2584 770 2862 
Q 544 3141 544 3541 
Q 544 4100 942 4425 
Q 1341 4750 2034 4750 
Q 2731 4750 3128 4425 
Q 3525 4100 3525 3541 
Q 3525 3141 3298 2862 
Q 3072 2584 2669 2484 
Q 3125 2378 3379 2068 
Q 3634 1759 3634 1313 
Q 3634 634 3220 271 
Q 2806 -91 2034 -91 
Q 1263 -91 848 271 
Q 434 634 434 1313 
Q 434 1759 690 2068 
Q 947 2378 1403 2484 
z
M 1172 3481 
Q 1172 3119 1398 2916 
Q 1625 2713 2034 2713 
Q 2441 2713 2670 2916 
Q 2900 3119 2900 3481 
Q 2900 3844 2670 4047 
Q 2441 4250 2034 4250 
Q 1625 4250 1398 4047 
Q 1172 3844 1172 3481 
z
" transform="scale(0.015625)"/>
       </defs>
       <use xlink:href="#DejaVuSans-30" transform="translate(0 0.78125)"/>
       <use xlink:href="#DejaVuSans-2e" transform="translate(63.623047 0.78125)"/>
       <use xlink:href="#DejaVuSans-38" transform="translate(92.785156 0.78125)"/>
      </g>
     </g>
    </g>
    <g id="xtick_6">
     <g id="line2d_6">
      <g>
       <use xlink:href="#mc79180436f" x="498.109091" y="384.48" style="fill: #1a1a1a; stroke: #1a1a1a; stroke-width: 0.8"/>
      </g>
     </g>
     <g id="text_6">
      <!-- $\mathdefault{1.0}$ -->
      <g style="fill: #1a1a1a" transform="translate(486.109091 401.877656)scale(0.15 -0.15)">
       <defs>
        <path id="DejaVuSans-31" d="M 794 531 
L 1825 531 
L 1825 4091 
L 703 3866 
L 703 4441 
L 1819 4666 
L 2450 4666 
L 2450 531 
L 3481 531 
L 3481 0 
L 794 0 
L 794 531 
z
" transform="scale(0.015625)"/>
       </defs>
       <use xlink:href="#DejaVuSans-31" transform="translate(0 0.78125)"/>
       <use xlink:href="#DejaVuSans-2e" transform="translate(63.623047 0.78125)"/>
       <use xlink:href="#DejaVuSans-30" transform="translate(95.410156 0.78125)"/>
      </g>
     </g>
    </g>
    <g id="xtick_7">
     <g id="line2d_7">
      <defs>
       <path id="mb7eab46d6f" d="M 0 0 
L 0 -3 
" style="stroke: #1a1a1a; stroke-width: 0.6"/>
      </defs>
      <g>
       <use xlink:href="#mb7eab46d6f" x="112.581818" y="384.48" style="fill: #1a1a1a; stroke: #1a1a1a; stroke-width: 0.6"/>
      </g>
     </g>
    </g>
    <g id="xtick_8">
     <g id="line2d_8">
      <g>
       <use xlink:href="#mb7eab46d6f" x="132.872727" y="384.48" style="fill: #1a1a1a; stroke: #1a1a1a; stroke-width: 0.6"/>
      </g>
     </g>
    </g>
    <g id="xtick_9">
     <g id="line2d_9">
      <g>
       <use xlink:href="#mb7eab46d6f" x="153.163636" y="384.48" style="fill: #1a1a1a; stroke: #1a1a1a; stroke-width: 0.6"/>
      </g>
     </g>
    </g>
    <g id="xtick_10">
     <g id="line2d_10">
      <g>
       <use xlink:href="#mb7eab46d6f" x="193.745455" y="384.48" style="fill: #1a1a1a; stroke: #1a1a1a; stroke-width: 0.6"/>
      </g>
     </g>
    </g>
    <g id="xtick_11">
     <g id="line2d_11">
      <g>
       <use xlink:href="#mb7eab46d6f" x="214.036364" y="384.48" style="fill: #1a1a1a; stroke: #1a1a1a; stroke-width: 0.6"/>
      </g>
     </g>
    </g>
    <g id="xtick_12">
     <g id="line2d_12">
      <g>
       <use xlink:href="#mb7eab46d6f" x="234.327273" y="384.48" style="fill: #1a1a1a; stroke: #1a1a1a; stroke-width: 0.6"/>
      </g>
     </g>
    </g>
    <g id="xtick_13">
     <g id="line2d_13">
      <g>
       <use xlink:href="#mb7eab46d6f" x="274.909091" y="384.48" style="fill: #1a1a1a; stroke: #1a1a1a; stroke-width: 0.6"/>
      </g>
     </g>
    </g>
    <g id="xtick_14">
     <g id="line2d_14">
      <g>
       <use xlink:href="#mb7eab46d6f" x="295.2" y="384.48" style="fill: #1a1a1a; stroke: #1a1a1a; stroke-width: 0.6"/>
      </g>
     </g>
    </g>
    <g id="xtick_15">
     <g id="line2d_15">
      <g>
       <use xlink:href="#mb7eab46d6f" x="315.490909" y="384.48" style="fill: #1a1a1a; stroke: #1a1a1a; stroke-width: 0.6"/>
      </g>
     </g>
    </g>
    <g id="xtick_16">
     <g id="line2d_16">
      <g>
       <use xlink:href="#mb7eab46d6f" x="356.072727" y="384.48" style="fill: #1a1a1a; stroke: #1a1a1a; stroke-width: 0.6"/>
      </g>
     </g>
    </g>
    <g id="xtick_17">
     <g id="line2d_17">
      <g>
       <use xlink:href="#mb7eab46d6f" x="376.363636" y="384.48" style="fill: #1a1a1a; stroke: #1a1a1a; stroke-width: 0.6"/>
      </g>
     </g>
    </g>
    <g id="xtick_18">
     <g id="line2d_18">
      <g>
       <use xlink:href="#mb7eab46d6f" x="396.654545" y="384.48" style="fill: #1a1a1a; stroke: #1a1a1a; stroke-width: 0.6"/>
      </g>
     </g>
    </g>
    <g id="xtick_19">
     <g id="line2d_19">
      <g>
       <use xlink:href="#mb7eab46d6f" x="437.236364" y="384.48" style="fill: #1a1a1a; stroke: #1a1a1a; stroke-width: 0.6"/>
      </g>
     </g>
    </g>
    <g id="xtick_20">
     <g id="line2d_20">
      <g>
       <use xlink:href="#mb7eab46d6f" x="457.527273" y="384.48" style="fill: #1a1a1a; stroke: #1a1a1a; stroke-width: 0.6"/>
      </g>
     </g>
    </g>
    <g id="xtick_21">
     <g id="line2d_21">
      <g>
       <use xlink:href="#mb7eab46d6f" x="477.818182" y="384.48" style="fill: #1a1a1a; stroke: #1a1a1a; stroke-width: 0.6"/>
      </g>
     </g>
    </g>
    <g id="text_7">
     <!-- p-value -->
     <g style="fill: #1a1a1a" transform="translate(254.489688 427.71375)scale(0.22 -0.22)">
      <defs>
       <path id="DejaVuSans-70" d="M 1159 525 
L 1159 -1331 
L 581 -1331 
L 581 3500 
L 1159 3500 
L 1159 2969 
Q 1341 3281 1617 3432 
Q 1894 3584 2278 3584 
Q 2916 3584 3314 3078 
Q 3713 2572 3713 1747 
Q 3713 922 3314 415 
Q 2916 -91 2278 -91 
Q 1894 -91 1617 61 
Q 1341 213 1159 525 
z
M 3116 1747 
Q 3116 2381 2855 2742 
Q 2594 3103 2138 3103 
Q 1681 3103 1420 2742 
Q 1159 2381 1159 1747 
Q 1159 1113 1420 752 
Q 1681 391 2138 391 
Q 2594 391 2855 752 
Q 3116 1113 3116 1747 
z
" transform="scale(0.015625)"/>
       <path id="DejaVuSans-2d" d="M 313 2009 
L 1997 2009 
L 1997 1497 
L 313 1497 
L 313 2009 
z
" transform="scale(0.015625)"/>
       <path id="DejaVuSans-76" d="M 191 3500 
L 800 3500 
L 1894 563 
L 2988 3500 
L 3597 3500 
L 2284 0 
L 1503 0 
L 191 3500 
z
" transform="scale(0.015625)"/>
       <path id="DejaVuSans-61" d="M 2194 1759 
Q 1497 1759 1228 1600 
Q 959 1441 959 1056 
Q 959 750 1161 570 
Q 1363 391 1709 391 
Q 2188 391 2477 730 
Q 2766 1069 2766 1631 
L 2766 1759 
L 2194 1759 
z
M 3341 1997 
L 3341 0 
L 2766 0 
L 2766 531 
Q 2569 213 2275 61 
Q 1981 -91 1556 -91 
Q 1019 -91 701 211 
Q 384 513 384 1019 
Q 384 1609 779 1909 
Q 1175 2209 1959 2209 
L 2766 2209 
L 2766 2266 
Q 2766 2663 2505 2880 
Q 2244 3097 1772 3097 
Q 1472 3097 1187 3025 
Q 903 2953 641 2809 
L 641 3341 
Q 956 3463 1253 3523 
Q 1550 3584 1831 3584 
Q 2591 3584 2966 3190 
Q 3341 2797 3341 1997 
z
" transform="scale(0.015625)"/>
       <path id="DejaVuSans-6c" d="M 603 4863 
L 1178 4863 
L 1178 0 
L 603 0 
L 603 4863 
z
" transform="scale(0.015625)"/>
       <path id="DejaVuSans-75" d="M 544 1381 
L 544 3500 
L 1119 3500 
L 1119 1403 
Q 1119 906 1312 657 
Q 1506 409 1894 409 
Q 2359 409 2629 706 
Q 2900 1003 2900 1516 
L 2900 3500 
L 3475 3500 
L 3475 0 
L 2900 0 
L 2900 538 
Q 2691 219 2414 64 
Q 2138 -91 1772 -91 
Q 1169 -91 856 284 
Q 544 659 544 1381 
z
M 1991 3584 
L 1991 3584 
z
" transform="scale(0.015625)"/>
       <path id="DejaVuSans-65" d="M 3597 1894 
L 3597 1613 
L 953 1613 
Q 991 1019 1311 708 
Q 1631 397 2203 397 
Q 2534 397 2845 478 
Q 3156 559 3463 722 
L 3463 178 
Q 3153 47 2828 -22 
Q 2503 -91 2169 -91 
Q 1331 -91 842 396 
Q 353 884 353 1716 
Q 353 2575 817 3079 
Q 1281 3584 2069 3584 
Q 2775 3584 3186 3129 
Q 3597 2675 3597 1894 
z
M 3022 2063 
Q 3016 2534 2758 2815 
Q 2500 3097 2075 3097 
Q 1594 3097 1305 2825 
Q 1016 2553 972 2059 
L 3022 2063 
z
" transform="scale(0.015625)"/>
      </defs>
      <use xlink:href="#DejaVuSans-70"/>
      <use xlink:href="#DejaVuSans-2d" x="63.476562"/>
      <use xlink:href="#DejaVuSans-76" x="96.935547"/>
      <use xlink:href="#DejaVuSans-61" x="156.115234"/>
      <use xlink:href="#DejaVuSans-6c" x="217.394531"/>
      <use xlink:href="#DejaVuSans-75" x="245.177734"/>
      <use xlink:href="#DejaVuSans-65" x="308.556641"/>
     </g>
    </g>
   </g>
   <g id="matplotlib.axis_2">
    <g id="ytick_1">
     <g id="line2d_22">
      <defs>
       <path id="m25cee05cad" d="M 0 0 
L 6 0 
" style="stroke: #1a1a1a; stroke-width: 0.8"/>
      </defs>
      <g>
       <use xlink:href="#m25cee05cad" x="72" y="384.48" style="fill: #1a1a1a; stroke: #1a1a1a; stroke-width: 0.8"/>
      </g>
     </g>
     <g id="text_8">
      <!-- $\mathdefault{10^{1}}$ -->
      <g style="fill: #1a1a1a" transform="translate(39.6 390.178828)scale(0.15 -0.15)">
       <use xlink:href="#DejaVuSans-31" transform="translate(0 0.684375)"/>
       <use xlink:href="#DejaVuSans-30" transform="translate(63.623047 0.684375)"/>
       <use xlink:href="#DejaVuSans-31" transform="translate(128.203125 38.965625)scale(0.7)"/>
      </g>
     </g>
    </g>
    <g id="ytick_2">
     <g id="line2d_23">
      <g>
       <use xlink:href="#m25cee05cad" x="72" y="218.16" style="fill: #1a1a1a; stroke: #1a1a1a; stroke-width: 0.8"/>
      </g>
     </g>
     <g id="text_9">
      <!-- $\mathdefault{10^{2}}$ -->
      <g style="fill: #1a1a1a" transform="translate(39.6 223.858828)scale(0.15 -0.15)">
       <use xlink:href="#DejaVuSans-31" transform="translate(0 0.765625)"/>
       <use xlink:href="#DejaVuSans-30" transform="translate(63.623047 0.765625)"/>
       <use xlink:href="#DejaVuSans-32" transform="translate(128.203125 39.046875)scale(0.7)"/>
      </g>
     </g>
    </g>
    <g id="ytick_3">
     <g id="line2d_24">
      <g>
       <use xlink:href="#m25cee05cad" x="72" y="51.84" style="fill: #1a1a1a; stroke: #1a1a1a; stroke-width: 0.8"/>
      </g>
     </g>
     <g id="text_10">
      <!-- $\mathdefault{10^{3}}$ -->
      <g style="fill: #1a1a1a" transform="translate(39.6 57.538828)scale(0.15 -0.15)">
       <defs>
        <path id="DejaVuSans-33" d="M 2597 2516 
Q 3050 2419 3304 2112 
Q 3559 1806 3559 1356 
Q 3559 666 3084 287 
Q 2609 -91 1734 -91 
Q 1441 -91 1130 -33 
Q 819 25 488 141 
L 488 750 
Q 750 597 1062 519 
Q 1375 441 1716 441 
Q 2309 441 2620 675 
Q 2931 909 2931 1356 
Q 2931 1769 2642 2001 
Q 2353 2234 1838 2234 
L 1294 2234 
L 1294 2753 
L 1863 2753 
Q 2328 2753 2575 2939 
Q 2822 3125 2822 3475 
Q 2822 3834 2567 4026 
Q 2313 4219 1838 4219 
Q 1578 4219 1281 4162 
Q 984 4106 628 3988 
L 628 4550 
Q 988 4650 1302 4700 
Q 1616 4750 1894 4750 
Q 2613 4750 3031 4423 
Q 3450 4097 3450 3541 
Q 3450 3153 3228 2886 
Q 3006 2619 2597 2516 
z
" transform="scale(0.015625)"/>
       </defs>
       <use xlink:href="#DejaVuSans-31" transform="translate(0 0.765625)"/>
       <use xlink:href="#DejaVuSans-30" transform="translate(63.623047 0.765625)"/>
       <use xlink:href="#DejaVuSans-33" transform="translate(128.203125 39.046875)scale(0.7)"/>
      </g>
     </g>
    </g>
    <g id="ytick_4">
     <g id="line2d_25">
      <defs>
       <path id="ma0e01bf01d" d="M 0 0 
L 3 0 
" style="stroke: #1a1a1a; stroke-width: 0.6"/>
      </defs>
      <g>
       <use xlink:href="#ma0e01bf01d" x="72" y="334.412691" style="fill: #1a1a1a; stroke: #1a1a1a; stroke-width: 0.6"/>
      </g>
     </g>
    </g>
    <g id="ytick_5">
     <g id="line2d_26">
      <g>
       <use xlink:href="#ma0e01bf01d" x="72" y="305.125193" style="fill: #1a1a1a; stroke: #1a1a1a; stroke-width: 0.6"/>
      </g>
     </g>
    </g>
    <g id="ytick_6">
     <g id="line2d_27">
      <g>
       <use xlink:href="#ma0e01bf01d" x="72" y="284.345382" style="fill: #1a1a1a; stroke: #1a1a1a; stroke-width: 0.6"/>
      </g>
     </g>
    </g>
    <g id="ytick_7">
     <g id="line2d_28">
      <g>
       <use xlink:href="#ma0e01bf01d" x="72" y="268.227309" style="fill: #1a1a1a; stroke: #1a1a1a; stroke-width: 0.6"/>
      </g>
     </g>
    </g>
    <g id="ytick_8">
     <g id="line2d_29">
      <g>
       <use xlink:href="#ma0e01bf01d" x="72" y="255.057884" style="fill: #1a1a1a; stroke: #1a1a1a; stroke-width: 0.6"/>
      </g>
     </g>
    </g>
    <g id="ytick_9">
     <g id="line2d_30">
      <g>
       <use xlink:href="#ma0e01bf01d" x="72" y="243.923294" style="fill: #1a1a1a; stroke: #1a1a1a; stroke-width: 0.6"/>
      </g>
     </g>
    </g>
    <g id="ytick_10">
     <g id="line2d_31">
      <g>
       <use xlink:href="#ma0e01bf01d" x="72" y="234.278073" style="fill: #1a1a1a; stroke: #1a1a1a; stroke-width: 0.6"/>
      </g>
     </g>
    </g>
    <g id="ytick_11">
     <g id="line2d_32">
      <g>
       <use xlink:href="#ma0e01bf01d" x="72" y="225.770386" style="fill: #1a1a1a; stroke: #1a1a1a; stroke-width: 0.6"/>
      </g>
     </g>
    </g>
    <g id="ytick_12">
     <g id="line2d_33">
      <g>
       <use xlink:href="#ma0e01bf01d" x="72" y="168.092691" style="fill: #1a1a1a; stroke: #1a1a1a; stroke-width: 0.6"/>
      </g>
     </g>
    </g>
    <g id="ytick_13">
     <g id="line2d_34">
      <g>
       <use xlink:href="#ma0e01bf01d" x="72" y="138.805193" style="fill: #1a1a1a; stroke: #1a1a1a; stroke-width: 0.6"/>
      </g>
     </g>
    </g>
    <g id="ytick_14">
     <g id="line2d_35">
      <g>
       <use xlink:href="#ma0e01bf01d" x="72" y="118.025382" style="fill: #1a1a1a; stroke: #1a1a1a; stroke-width: 0.6"/>
      </g>
     </g>
    </g>
    <g id="ytick_15">
     <g id="line2d_36">
      <g>
       <use xlink:href="#ma0e01bf01d" x="72" y="101.907309" style="fill: #1a1a1a; stroke: #1a1a1a; stroke-width: 0.6"/>
      </g>
     </g>
    </g>
    <g id="ytick_16">
     <g id="line2d_37">
      <g>
       <use xlink:href="#ma0e01bf01d" x="72" y="88.737884" style="fill: #1a1a1a; stroke: #1a1a1a; stroke-width: 0.6"/>
      </g>
     </g>
    </g>
    <g id="ytick_17">
     <g id="line2d_38">
      <g>
       <use xlink:href="#ma0e01bf01d" x="72" y="77.603294" style="fill: #1a1a1a; stroke: #1a1a1a; stroke-width: 0.6"/>
      </g>
     </g>
    </g>
    <g id="ytick_18">
     <g id="line2d_39">
      <g>
       <use xlink:href="#ma0e01bf01d" x="72" y="67.958073" style="fill: #1a1a1a; stroke: #1a1a1a; stroke-width: 0.6"/>
      </g>
     </g>
    </g>
    <g id="ytick_19">
     <g id="line2d_40">
      <g>
       <use xlink:href="#ma0e01bf01d" x="72" y="59.450386" style="fill: #1a1a1a; stroke: #1a1a1a; stroke-width: 0.6"/>
      </g>
     </g>
    </g>
    <g id="text_11">
     <!-- Events -->
     <g style="fill: #1a1a1a" transform="translate(29.024687 255.403594)rotate(-90)scale(0.22 -0.22)">
      <defs>
       <path id="DejaVuSans-45" d="M 628 4666 
L 3578 4666 
L 3578 4134 
L 1259 4134 
L 1259 2753 
L 3481 2753 
L 3481 2222 
L 1259 2222 
L 1259 531 
L 3634 531 
L 3634 0 
L 628 0 
L 628 4666 
z
" transform="scale(0.015625)"/>
       <path id="DejaVuSans-6e" d="M 3513 2113 
L 3513 0 
L 2938 0 
L 2938 2094 
Q 2938 2591 2744 2837 
Q 2550 3084 2163 3084 
Q 1697 3084 1428 2787 
Q 1159 2491 1159 1978 
L 1159 0 
L 581 0 
L 581 3500 
L 1159 3500 
L 1159 2956 
Q 1366 3272 1645 3428 
Q 1925 3584 2291 3584 
Q 2894 3584 3203 3211 
Q 3513 2838 3513 2113 
z
" transform="scale(0.015625)"/>
       <path id="DejaVuSans-74" d="M 1172 4494 
L 1172 3500 
L 2356 3500 
L 2356 3053 
L 1172 3053 
L 1172 1153 
Q 1172 725 1289 603 
Q 1406 481 1766 481 
L 2356 481 
L 2356 0 
L 1766 0 
Q 1100 0 847 248 
Q 594 497 594 1153 
L 594 3053 
L 172 3053 
L 172 3500 
L 594 3500 
L 594 4494 
L 1172 4494 
z
" transform="scale(0.015625)"/>
       <path id="DejaVuSans-73" d="M 2834 3397 
L 2834 2853 
Q 2591 2978 2328 3040 
Q 2066 3103 1784 3103 
Q 1356 3103 1142 2972 
Q 928 2841 928 2578 
Q 928 2378 1081 2264 
Q 1234 2150 1697 2047 
L 1894 2003 
Q 2506 1872 2764 1633 
Q 3022 1394 3022 966 
Q 3022 478 2636 193 
Q 2250 -91 1575 -91 
Q 1294 -91 989 -36 
Q 684 19 347 128 
L 347 722 
Q 666 556 975 473 
Q 1284 391 1588 391 
Q 1994 391 2212 530 
Q 2431 669 2431 922 
Q 2431 1156 2273 1281 
Q 2116 1406 1581 1522 
L 1381 1569 
Q 847 1681 609 1914 
Q 372 2147 372 2553 
Q 372 3047 722 3315 
Q 1072 3584 1716 3584 
Q 2034 3584 2315 3537 
Q 2597 3491 2834 3397 
z
" transform="scale(0.015625)"/>
      </defs>
      <use xlink:href="#DejaVuSans-45"/>
      <use xlink:href="#DejaVuSans-76" x="63.183594"/>
      <use xlink:href="#DejaVuSans-65" x="122.363281"/>
      <use xlink:href="#DejaVuSans-6e" x="183.886719"/>
      <use xlink:href="#DejaVuSans-74" x="247.265625"/>
      <use xlink:href="#DejaVuSans-73" x="286.474609"/>
     </g>
    </g>
   </g>
   <g id="legend_1">
    <g id="patch_57">
     <path d="M 390.45 76.737656 
L 420.45 76.737656 
L 420.45 66.237656 
L 390.45 66.237656 
z
" style="fill: #348abd"/>
    </g>
    <g id="text_12">
     <!-- $J/\psi$ vertex -->
     <g style="fill: #1a1a1a" transform="translate(432.45 76.737656)scale(0.15 -0.15)">
      <defs>
       <path id="DejaVuSans-Oblique-4a" d="M 1069 4666 
L 1703 4666 
L 856 325 
Q 691 -522 298 -901 
Q -94 -1281 -800 -1281 
L -1050 -1281 
L -947 -750 
L -750 -750 
Q -328 -750 -109 -509 
Q 109 -269 225 325 
L 1069 4666 
z
" transform="scale(0.015625)"/>
       <path id="DejaVuSans-2f" d="M 1625 4666 
L 2156 4666 
L 531 -594 
L 0 -594 
L 1625 4666 
z
" transform="scale(0.015625)"/>
       <path id="DejaVuSans-Oblique-3c8" d="M 1591 -78 
Q 891 38 616 341 
Q 278 713 425 1472 
L 819 3500 
L 1400 3500 
L 1009 1494 
Q 900 922 1119 684 
Q 1313 478 1691 434 
L 2284 3500 
L 2856 3500 
L 2263 438 
Q 2681 481 2928 688 
Q 3247 950 3353 1497 
L 3741 3500 
L 4322 3500 
L 3928 1475 
Q 3775 688 3300 344 
Q 2872 34 2163 -75 
L 1919 -1331 
L 1347 -1331 
L 1591 -78 
z
" transform="scale(0.015625)"/>
       <path id="DejaVuSans-20" transform="scale(0.015625)"/>
       <path id="DejaVuSans-72" d="M 2631 2963 
Q 2534 3019 2420 3045 
Q 2306 3072 2169 3072 
Q 1681 3072 1420 2755 
Q 1159 2438 1159 1844 
L 1159 0 
L 581 0 
L 581 3500 
L 1159 3500 
L 1159 2956 
Q 1341 3275 1631 3429 
Q 1922 3584 2338 3584 
Q 2397 3584 2469 3576 
Q 2541 3569 2628 3553 
L 2631 2963 
z
" transform="scale(0.015625)"/>
       <path id="DejaVuSans-78" d="M 3513 3500 
L 2247 1797 
L 3578 0 
L 2900 0 
L 1881 1375 
L 863 0 
L 184 0 
L 1544 1831 
L 300 3500 
L 978 3500 
L 1906 2253 
L 2834 3500 
L 3513 3500 
z
" transform="scale(0.015625)"/>
      </defs>
      <use xlink:href="#DejaVuSans-Oblique-4a" transform="translate(0 0.09375)"/>
      <use xlink:href="#DejaVuSans-2f" transform="translate(29.492188 0.09375)"/>
      <use xlink:href="#DejaVuSans-Oblique-3c8" transform="translate(63.183594 0.09375)"/>
      <use xlink:href="#DejaVuSans-20" transform="translate(129.150391 0.09375)"/>
      <use xlink:href="#DejaVuSans-76" transform="translate(160.9375 0.09375)"/>
      <use xlink:href="#DejaVuSans-65" transform="translate(220.117188 0.09375)"/>
      <use xlink:href="#DejaVuSans-72" transform="translate(281.640625 0.09375)"/>
      <use xlink:href="#DejaVuSans-74" transform="translate(322.753906 0.09375)"/>
      <use xlink:href="#DejaVuSans-65" transform="translate(361.962891 0.09375)"/>
      <use xlink:href="#DejaVuSans-78" transform="translate(423.486328 0.09375)"/>
     </g>
    </g>
   </g>
  </g>
 </g>
 <defs>
  <clipPath id="p5c33a1b16e">
   <rect x="72" y="51.84" width="446.4" height="332.64"/>
  </clipPath>
 </defs>
</svg>
