<svg xmlns="http://www.w3.org/2000/svg" xmlns:xlink="http://www.w3.org/1999/xlink" viewBox="0 0 73.641 29.72" height="224.657" width="556.657"><defs><marker id="c" refX="0" refY="0" orient="auto" overflow="visible"><path d="M-4 0l-2 2 7-2-7-2z" fill-rule="evenodd" stroke="#000" stroke-width=".4pt"/></marker></defs><g transform="translate(-31.173 -100.634)"><path fill="#3465a4" paint-order="markers stroke fill" d="M51.194 118.009h2.646v2.646h-2.646z"/><path fill="#729fcf" paint-order="markers stroke fill" d="M48.548 120.655h2.646v2.646h-2.646z"/><path fill="#204a87" paint-order="markers stroke fill" d="M53.84 123.301h2.646v2.646H53.84z"/><path fill="#729fcf" paint-order="markers stroke fill" d="M35.32 104.78h2.645v2.646H35.32z"/><path fill="#204a87" paint-order="markers stroke fill" d="M37.965 107.426h2.646v2.646h-2.646z"/><path fill="#3465a4" paint-order="markers stroke fill" d="M37.965 104.78h2.646v2.646h-2.646z"/><path fill="#729fcf" paint-order="markers stroke fill" d="M48.548 107.426h2.646v2.646h-2.646z"/><path fill="#3465a4" paint-order="markers stroke fill" d="M45.902 112.718h2.646v2.646h-2.646z"/><path fill="#204a87" paint-order="markers stroke fill" d="M37.965 120.655h2.646v2.646h-2.646z"/><path fill="#729fcf" paint-order="markers stroke fill" d="M37.965 123.301h2.646v2.646h-2.646z"/><path fill="#3465a4" paint-order="markers stroke fill" d="M40.611 118.009h2.646v2.646h-2.646z"/><path d="M35.32 102.134v26.72m2.645-26.72v26.72m2.646-26.72v26.72m2.646-26.72v26.72m2.646-26.72v26.72m2.645-26.72v26.72m2.646-26.72v26.72m2.646-26.72v26.72m2.646-26.72v26.72M32.673 104.78h26.72m-26.72 2.646h26.72m-26.72 2.646h26.72m-26.72 2.646h26.72m-26.72 2.645h26.72m-26.72 2.646h26.72m-26.72 2.646h26.72m-26.72 2.646h26.72m-26.72 2.646h26.72" fill="none" stroke="#000" stroke-width=".265"/><g><path style="font-variation-settings:normal" d="M84.532 118.01v2.645h2.646v-2.646zm0 2.645h-2.646v5.292h2.646V123.3z" fill="none" stroke="#c00" stroke-width=".6000674399999999" stroke-linecap="round" paint-order="markers stroke fill"/><path style="font-variation-settings:normal" fill="none" stroke="#c00" stroke-width=".6" stroke-linecap="round" paint-order="markers stroke fill" d="M97.761 123.301h2.646v2.646h-2.646z"/><path style="font-variation-settings:normal" d="M95.115 118.01v2.645h2.646v-2.646zm0 2.645H92.47v2.646h2.646z" fill="none" stroke="#c00" stroke-width=".6000674399999999" stroke-linecap="round" paint-order="markers stroke fill"/><path d="M79.24 104.78v2.646h2.646v2.646h2.646v-5.292h-2.646z" fill="none" stroke="#c00" stroke-width=".6000674399999999" stroke-linecap="round" paint-order="markers stroke fill"/><path fill="#3465a4" paint-order="markers stroke fill" d="M95.115 118.009h2.646v2.646h-2.646z"/><path fill="#729fcf" paint-order="markers stroke fill" d="M92.469 120.655h2.646v2.646h-2.646z"/><path fill="#204a87" paint-order="markers stroke fill" d="M97.761 123.301h2.646v2.646h-2.646z"/><path fill="#729fcf" paint-order="markers stroke fill" d="M79.24 104.78h2.646v2.646H79.24z"/><path fill="#204a87" paint-order="markers stroke fill" d="M81.886 107.426h2.646v2.646h-2.646z"/><path fill="#3465a4" paint-order="markers stroke fill" d="M81.886 104.78h2.646v2.646h-2.646z"/><path fill="#729fcf" paint-order="markers stroke fill" d="M92.469 107.426h2.646v2.646h-2.646z"/><path fill="#3465a4" paint-order="markers stroke fill" d="M89.823 112.718h2.646v2.646h-2.646z"/><path fill="#204a87" paint-order="markers stroke fill" d="M81.886 120.655h2.646v2.646h-2.646z"/><path fill="#729fcf" paint-order="markers stroke fill" d="M81.886 123.301h2.646v2.646h-2.646z"/><path fill="#3465a4" paint-order="markers stroke fill" d="M84.532 118.009h2.646v2.646h-2.646z"/><path d="M79.24 102.134v26.72m2.646-26.72v26.72m2.646-26.72v26.72m2.646-26.72v26.72m2.645-26.72v26.72m2.646-26.72v26.72m2.646-26.72v26.72m2.646-26.72v26.72m2.646-26.72v26.72M76.594 104.78h26.72m-26.72 2.646h26.72m-26.72 2.646h26.72m-26.72 2.646h26.72m-26.72 2.645h26.72m-26.72 2.646h26.72m-26.72 2.646h26.72m-26.72 2.646h26.72m-26.72 2.646h26.72" fill="none" stroke="#000" stroke-width=".265"/></g><g id="b" transform="translate(40.277 -7.584)" fill="#c00" stroke="#c00" stroke-linecap="round"><path d="M42.398 117.076v-2.646" id="a" fill="#c00" stroke="#c00" stroke-width=".265" stroke-linecap="round" stroke-linejoin="miter" stroke-opacity="1"/><use xlink:href="#a" transform="rotate(90 42.398 115.753)" width="100%" height="100%"/></g><use xlink:href="#b" transform="translate(1.063 13.28)" width="100%" height="100%"/><use xlink:href="#b" transform="translate(16.408 16.455)" width="100%" height="100%"/><use xlink:href="#b" transform="translate(13.233 11.692)" width="100%" height="100%"/><path d="M61.51 115.363h12.438" fill="none" stroke="#000" stroke-width=".265" marker-end="url(#c)"/></g></svg>