<svg xmlns="http://www.w3.org/2000/svg" id="export" class="canvas" preserveAspectRatio="xMidYMid meet" style="" width="136" height="302"><rect id="background" fill="#fff" pointer-events="all" width="136" height="302"/><g id="origin" transform="translate(6.155083084106446, 6.155083084106446) scale(1)"><g id="clusters" class="clusters"/><g id="edge-paths" class="edge-paths" style="pointer-events: none;"><defs><marker id="arrowhead" viewBox="0 0 10 10" refX="9" refY="5" markerUnits="strokeWidth" markerWidth="8" markerHeight="6" orient="auto" style="fill: rgb(0, 0, 0);"><path d="M 0 0 L 10 5 L 0 10 L 4 5 z" style="stroke-width: 1px;"/></marker><marker id="arrowhead-select" viewBox="0 0 10 10" refX="9" refY="5" markerUnits="strokeWidth" markerWidth="8" markerHeight="6" orient="auto" style="fill: rgba(220, 0, 0, 0.9);"><path d="M 0 0 L 10 5 L 0 10 L 4 5 z" style="stroke-width: 1px;"/></marker><marker id="arrowhead-hover" viewBox="0 0 10 10" refX="9" refY="5" markerUnits="strokeWidth" markerWidth="8" markerHeight="6" orient="auto" style="fill: rgba(220, 0, 0, 0.9);"><path d="M 0 0 L 10 5 L 0 10 L 4 5 z" style="stroke-width: 1px;"/></marker></defs><path id="edge-input" class="edge-path" d="M61.55083084106445,22.6850004196167L61.55083084106445,24.351667086283367C61.55083084106445,26.01833375295003,61.55083084106445,29.351667086283367,61.55083084106445,34.630833784739174C61.55083084106445,39.910000483194985,61.55083084106445,47.13500054677328,61.55083084106445,54.36000061035156C61.55083084106445,61.58500067392985,61.55083084106445,68.81000073750813,61.55083084106445,74.08916743596394C61.55083084106445,79.36833413441975,61.55083084106445,82.7016674677531,61.55083084106445,84.36833413441975L61.55083084106445,86.03500080108643" style="stroke: rgb(0, 0, 0); stroke-width: 1px; fill: none; marker-end: url(&quot;#arrowhead&quot;);"/><path id="edge-probabilities" class="edge-path" d="M61.55083084106445,108.72000122070312L61.55083084106445,112.33250125249226C61.55083084106445,115.94500128428142,61.55083084106445,123.1700013478597,61.55083084106445,130.395001411438C61.55083084106445,137.62000147501627,61.55083084106445,144.84500153859457,61.55083084106445,148.4575015703837L61.55083084106445,152.07000160217285" style="stroke: rgb(0, 0, 0); stroke-width: 1px; fill: none; marker-end: url(&quot;#arrowhead&quot;);"/><path id="edge-output" class="edge-path" d="M61.55083084106445,223.07000350952148L61.55083084106445,226.68250354131064C61.55083084106445,230.29500357309976,61.55083084106445,237.52000363667807,61.55083084106445,244.74500370025635C61.55083084106445,251.97000376383463,61.55083084106445,259.1950038274129,61.55083084106445,262.8075038592021L61.55083084106445,266.4200038909912" style="stroke: rgb(0, 0, 0); stroke-width: 1px; fill: none; marker-end: url(&quot;#arrowhead&quot;);"/></g><g id="edge-labels" class="edge-labels"><text style="opacity: 1; font-family: -apple-system, BlinkMacSystemFont, &quot;Segoe WPC&quot;, &quot;Segoe UI&quot;, &quot;Ubuntu&quot;, &quot;Droid Sans&quot;, sans-serif, &quot;PingFang SC&quot;; font-size: 10px;" class="edge-label" id="edge-label-edge-input" transform="translate(66.55083084106445,47.6850004196167)"><tspan xml:space="preserve" dy="1em" x="1">?×30</tspan></text><text style="opacity: 1; font-family: -apple-system, BlinkMacSystemFont, &quot;Segoe WPC&quot;, &quot;Segoe UI&quot;, &quot;Ubuntu&quot;, &quot;Droid Sans&quot;, sans-serif, &quot;PingFang SC&quot;; font-size: 10px;" class="edge-label" id="edge-label-edge-probabilities" transform="translate(66.55083084106445,123.72000122070312)"><tspan xml:space="preserve" dy="1em" x="1">?×2</tspan></text><text style="opacity: 1; font-family: -apple-system, BlinkMacSystemFont, &quot;Segoe WPC&quot;, &quot;Segoe UI&quot;, &quot;Ubuntu&quot;, &quot;Droid Sans&quot;, sans-serif, &quot;PingFang SC&quot;; font-size: 10px;" class="edge-label" id="edge-label-edge-output" transform="translate(66.55083084106445,238.07000350952148)"><tspan xml:space="preserve" dy="1em" x="1">?×1</tspan></text></g><g id="nodes" class="nodes"><g id="input-name-input" class="node graph-input" style="" transform="translate(41.896705627441406,0)"><g class="node-item graph-item-input" transform="translate(0,0)"><path d="M5,0h29.308250427246094a5,5 0 0 1 5,5v12.6850004196167a5,5 0 0 1 -5,5h-29.308250427246094a5,5 0 0 1 -5,-5v-12.6850004196167a5,5 0 0 1 5,-5z" style="stroke: rgb(0, 0, 0); fill: rgb(238, 238, 238); stroke-width: 0px;"/><text x="6" y="15.880000114440918" style="font-family: -apple-system, BlinkMacSystemFont, &quot;Segoe WPC&quot;, &quot;Segoe UI&quot;, &quot;Ubuntu&quot;, &quot;Droid Sans&quot;, sans-serif, &quot;PingFang SC&quot;; font-size: 11px; text-rendering: geometricprecision; user-select: none;">input</text><title>float32[?,30]</title></g><path class="node node-border" d="M5,0h29.308250427246094a5,5 0 0 1 5,5v12.6850004196167a5,5 0 0 1 -5,5h-29.308250427246094a5,5 0 0 1 -5,-5v-12.6850004196167a5,5 0 0 1 5,-5z" style="stroke: rgb(51, 51, 51); fill: none; stroke-width: 1px;"/></g><g id="node-name-TreeEnsembleClassifier" class="node graph-node" style="" transform="translate(0,86.03500080108643)"><g class="node-item node-item-type" transform="translate(0,0)"><path d="M5,0h113.1016616821289a5,5 0 0 1 5,5v12.6850004196167a5,5 0 0 1 -5,5h-113.1016616821289a5,5 0 0 1 -5,-5v-12.6850004196167a5,5 0 0 1 5,-5z" style="stroke: rgb(0, 0, 0); fill: rgb(0, 0, 0); stroke-width: 0px;"/><text x="6" y="15.880000114440918" style="font-family: -apple-system, BlinkMacSystemFont, &quot;Segoe WPC&quot;, &quot;Segoe UI&quot;, &quot;Ubuntu&quot;, &quot;Droid Sans&quot;, sans-serif, &quot;PingFang SC&quot;; font-size: 11px; text-rendering: geometricprecision; user-select: none; fill: rgb(255, 255, 255);">TreeEnsemb…Classifier</text><title>[TreeEnsembleClassifier]</title></g><path class="node node-border" d="M5,0h113.1016616821289a5,5 0 0 1 5,5v12.6850004196167a5,5 0 0 1 -5,5h-113.1016616821289a5,5 0 0 1 -5,-5v-12.6850004196167a5,5 0 0 1 5,-5z" style="stroke: rgb(51, 51, 51); fill: none; stroke-width: 1px;"/></g><g id="node-name-n3" class="node graph-node" style="" transform="translate(24.050830841064453,152.07000160217285)"><g class="node-item node-item-type node-item-type-tensor" transform="translate(0,0)"><path d="M5,0h65a5,5 0 0 1 5,5v17.6850004196167a0,0 0 0 1 0,0h-75a0,0 0 0 1 0,0v-17.6850004196167a5,5 0 0 1 5,-5z" style="stroke: rgb(0, 0, 0); fill: rgb(89, 66, 59); stroke-width: 0px;"/><text x="6" y="15.880000114440918" style="font-family: -apple-system, BlinkMacSystemFont, &quot;Segoe WPC&quot;, &quot;Segoe UI&quot;, &quot;Ubuntu&quot;, &quot;Droid Sans&quot;, sans-serif, &quot;PingFang SC&quot;; font-size: 11px; text-rendering: geometricprecision; user-select: none; fill: rgb(255, 255, 255);">Slice</text><title>n3</title></g><g class="node-argument-list" transform="translate(0,22.6850004196167)"><path d="M0,0h75a0,0 0 0 1 0,0v43.315001487731934a5,5 0 0 1 -5,5h-65a5,5 0 0 1 -5,-5v-43.315001487731934a0,0 0 0 1 0,0z" style="stroke: rgb(0, 0, 0); fill: rgb(255, 255, 255); stroke-width: 0px;"/><g class="node-argument"><rect rx="3" ry="3" x="3" y="3" width="69" height="14.105000495910645" style="fill: transparent;"/><text xml:space="preserve" x="6" y="13.720000267028809" style="font-family: -apple-system, BlinkMacSystemFont, &quot;Segoe WPC&quot;, &quot;Segoe UI&quot;, &quot;Ubuntu&quot;, &quot;Droid Sans&quot;, sans-serif, &quot;PingFang SC&quot;; font-size: 9px; font-weight: normal; text-rendering: geometricprecision; user-select: none;"><title>int64[1]</title><tspan style="font-weight: bold;">starts</tspan><tspan>〈1〉</tspan></text></g><g class="node-argument"><rect rx="3" ry="3" x="3" y="17.105000495910645" width="69" height="14.105000495910645" style="fill: transparent;"/><text xml:space="preserve" x="6" y="27.825000762939453" style="font-family: -apple-system, BlinkMacSystemFont, &quot;Segoe WPC&quot;, &quot;Segoe UI&quot;, &quot;Ubuntu&quot;, &quot;Droid Sans&quot;, sans-serif, &quot;PingFang SC&quot;; font-size: 9px; font-weight: normal; text-rendering: geometricprecision; user-select: none;"><title>int64[1]</title><tspan style="font-weight: bold;">ends</tspan><tspan>〈1〉</tspan></text></g><g class="node-argument"><rect rx="3" ry="3" x="3" y="31.21000099182129" width="69" height="14.105000495910645" style="fill: transparent;"/><text xml:space="preserve" x="6" y="41.9300012588501" style="font-family: -apple-system, BlinkMacSystemFont, &quot;Segoe WPC&quot;, &quot;Segoe UI&quot;, &quot;Ubuntu&quot;, &quot;Droid Sans&quot;, sans-serif, &quot;PingFang SC&quot;; font-size: 9px; font-weight: normal; text-rendering: geometricprecision; user-select: none;"><title>int64[1]</title><tspan style="font-weight: bold;">axes</tspan><tspan>〈1〉</tspan></text></g><line class="node" x1="0" x2="75" y1="0" y2="0" style="stroke: rgb(51, 51, 51); fill: none; stroke-width: 1px;"/></g><path class="node node-border" d="M5,0h65a5,5 0 0 1 5,5v61.00000190734863a5,5 0 0 1 -5,5h-65a5,5 0 0 1 -5,-5v-61.00000190734863a5,5 0 0 1 5,-5z" style="stroke: rgb(51, 51, 51); fill: none; stroke-width: 1px;"/></g><g class="node" style="" transform="translate(38.14249610900879,266.4200038909912)"><g class="node-item graph-item-output" transform="translate(0,0)"><path d="M5,0h36.81666946411133a5,5 0 0 1 5,5v12.6850004196167a5,5 0 0 1 -5,5h-36.81666946411133a5,5 0 0 1 -5,-5v-12.6850004196167a5,5 0 0 1 5,-5z" style="stroke: rgb(0, 0, 0); fill: rgb(238, 238, 238); stroke-width: 0px;"/><text x="6" y="15.880000114440918" style="font-family: -apple-system, BlinkMacSystemFont, &quot;Segoe WPC&quot;, &quot;Segoe UI&quot;, &quot;Ubuntu&quot;, &quot;Droid Sans&quot;, sans-serif, &quot;PingFang SC&quot;; font-size: 11px; text-rendering: geometricprecision; user-select: none;">output</text><title>float32[?,1]</title></g><path class="node node-border" d="M5,0h36.81666946411133a5,5 0 0 1 5,5v12.6850004196167a5,5 0 0 1 -5,5h-36.81666946411133a5,5 0 0 1 -5,-5v-12.6850004196167a5,5 0 0 1 5,-5z" style="stroke: rgb(51, 51, 51); fill: none; stroke-width: 1px;"/></g></g></g></svg>