<svg xmlns="http://www.w3.org/2000/svg" id="export" class="canvas" preserveAspectRatio="xMidYMid meet" style="" width="151" height="189"><rect id="background" fill="#fff" pointer-events="all" style="" width="151" height="189"/><g id="origin" transform="translate(6.819423675537109, 6.819423675537109) scale(1)"><g id="clusters" class="clusters"/><g id="edge-paths" class="edge-paths" style="pointer-events: none;"><defs><marker id="arrowhead" viewBox="0 0 10 10" refX="9" refY="5" markerUnits="strokeWidth" markerWidth="8" markerHeight="6" orient="auto" style="fill: rgb(0, 0, 0);"><path d="M 0 0 L 10 5 L 0 10 L 4 5 z" style="stroke-width: 1px;"/></marker><marker id="arrowhead-select" viewBox="0 0 10 10" refX="9" refY="5" markerUnits="strokeWidth" markerWidth="8" markerHeight="6" orient="auto" style="fill: rgba(220, 0, 0, 0.9);"><path d="M 0 0 L 10 5 L 0 10 L 4 5 z" style="stroke-width: 1px;"/></marker><marker id="arrowhead-hover" viewBox="0 0 10 10" refX="9" refY="5" markerUnits="strokeWidth" markerWidth="8" markerHeight="6" orient="auto" style="fill: rgba(220, 0, 0, 0.9);"><path d="M 0 0 L 10 5 L 0 10 L 4 5 z" style="stroke-width: 1px;"/></marker></defs><path id="edge-input" class="edge-path" d="M74.83764410018921,22.6850004196167L74.83764410018921,24.351667086283367C74.83764410018921,26.01833375295003,74.83764410018921,29.351667086283367,74.83764410018921,34.630833784739174C74.83764410018921,39.910000483194985,74.83764410018921,47.13500054677328,74.83764410018921,54.36000061035156C74.83764410018921,61.58500067392985,74.83764410018921,68.81000073750813,74.83764410018921,74.08916743596394C74.83764410018921,79.36833413441975,74.83764410018921,82.7016674677531,74.83764410018921,84.36833413441975L74.83764410018921,86.03500080108643" style="stroke: rgb(0, 0, 0); stroke-width: 1px; fill: none; marker-end: url(&quot;#arrowhead&quot;);"/><path id="edge-label" class="edge-path" d="M87.82412802644599,108.72000122070312L91.96022436575781,112.33250125249226C96.09632070506962,115.94500128428142,104.36851338369326,123.1700013478597,108.50460972300509,130.395001411438C112.6407060623169,137.62000147501627,112.6407060623169,144.84500153859457,112.6407060623169,148.4575015703837L112.6407060623169,152.07000160217285" style="stroke: rgb(0, 0, 0); stroke-width: 1px; fill: none; marker-end: url(&quot;#arrowhead&quot;);"/><path id="edge-probabilities" class="edge-path" d="M61.85116017393243,108.72000122070312L57.715063834620615,112.33250125249226C53.578967495308795,115.94500128428142,45.30677481668516,123.1700013478597,41.17067847737334,130.395001411438C37.03458213806152,137.62000147501627,37.03458213806152,144.84500153859457,37.03458213806152,148.4575015703837L37.03458213806152,152.07000160217285" style="stroke: rgb(0, 0, 0); stroke-width: 1px; fill: none; marker-end: url(&quot;#arrowhead&quot;);"/></g><g id="edge-labels" class="edge-labels"><text style="opacity: 1; font-family: -apple-system, BlinkMacSystemFont, &quot;Segoe WPC&quot;, &quot;Segoe UI&quot;, &quot;Ubuntu&quot;, &quot;Droid Sans&quot;, sans-serif, &quot;PingFang SC&quot;; font-size: 10px;" class="edge-label" id="edge-label-edge-input" transform="translate(79.83764410018921,47.6850004196167)"><tspan xml:space="preserve" dy="1em" x="1">?×30</tspan></text><text style="opacity: 1; font-family: -apple-system, BlinkMacSystemFont, &quot;Segoe WPC&quot;, &quot;Segoe UI&quot;, &quot;Ubuntu&quot;, &quot;Droid Sans&quot;, sans-serif, &quot;PingFang SC&quot;; font-size: 10px;" class="edge-label" id="edge-label-edge-label" transform="translate(117.6407060623169,123.72000122070312)"><tspan xml:space="preserve" dy="1em" x="1">?</tspan></text><text style="opacity: 1; font-family: -apple-system, BlinkMacSystemFont, &quot;Segoe WPC&quot;, &quot;Segoe UI&quot;, &quot;Ubuntu&quot;, &quot;Droid Sans&quot;, sans-serif, &quot;PingFang SC&quot;; font-size: 10px;" class="edge-label" id="edge-label-edge-probabilities" transform="translate(42.03458213806152,123.72000122070312)"><tspan xml:space="preserve" dy="1em" x="1">?×2</tspan></text></g><g id="nodes" class="nodes"><g id="input-name-input" class="node graph-input" style="" transform="translate(55.18351888656616,0)"><g class="node-item graph-item-input" transform="translate(0,0)"><path d="M5,0h29.308250427246094a5,5 0 0 1 5,5v12.6850004196167a5,5 0 0 1 -5,5h-29.308250427246094a5,5 0 0 1 -5,-5v-12.6850004196167a5,5 0 0 1 5,-5z" style="stroke: rgb(0, 0, 0); fill: rgb(238, 238, 238); stroke-width: 0px;"/><text x="6" y="15.880000114440918" style="font-family: -apple-system, BlinkMacSystemFont, &quot;Segoe WPC&quot;, &quot;Segoe UI&quot;, &quot;Ubuntu&quot;, &quot;Droid Sans&quot;, sans-serif, &quot;PingFang SC&quot;; font-size: 11px; text-rendering: geometricprecision; user-select: none;">input</text><title>float32[?,30]</title></g><path class="node node-border" d="M5,0h29.308250427246094a5,5 0 0 1 5,5v12.6850004196167a5,5 0 0 1 -5,5h-29.308250427246094a5,5 0 0 1 -5,-5v-12.6850004196167a5,5 0 0 1 5,-5z" style="stroke: rgb(51, 51, 51); fill: none; stroke-width: 1px;"/></g><g id="node-name-TreeEnsembleClassifier" class="node graph-node" style="" transform="translate(13.286813259124756,86.03500080108643)"><g class="node-item node-item-type" transform="translate(0,0)"><path d="M5,0h113.1016616821289a5,5 0 0 1 5,5v12.6850004196167a5,5 0 0 1 -5,5h-113.1016616821289a5,5 0 0 1 -5,-5v-12.6850004196167a5,5 0 0 1 5,-5z" style="stroke: rgb(0, 0, 0); fill: rgb(0, 0, 0); stroke-width: 0px;"/><text x="6" y="15.880000114440918" style="font-family: -apple-system, BlinkMacSystemFont, &quot;Segoe WPC&quot;, &quot;Segoe UI&quot;, &quot;Ubuntu&quot;, &quot;Droid Sans&quot;, sans-serif, &quot;PingFang SC&quot;; font-size: 11px; text-rendering: geometricprecision; user-select: none; fill: rgb(255, 255, 255);">TreeEnsemb…Classifier</text><title>[TreeEnsembleClassifier]</title></g><path class="node node-border" d="M5,0h113.1016616821289a5,5 0 0 1 5,5v12.6850004196167a5,5 0 0 1 -5,5h-113.1016616821289a5,5 0 0 1 -5,-5v-12.6850004196167a5,5 0 0 1 5,-5z" style="stroke: rgb(51, 51, 51); fill: none; stroke-width: 1px;"/></g><g class="node" style="" transform="translate(94.06916427612305,152.07000160217285)"><g class="node-item graph-item-output" transform="translate(0,0)"><path d="M5,0h27.143083572387695a5,5 0 0 1 5,5v12.6850004196167a5,5 0 0 1 -5,5h-27.143083572387695a5,5 0 0 1 -5,-5v-12.6850004196167a5,5 0 0 1 5,-5z" style="stroke: rgb(0, 0, 0); fill: rgb(238, 238, 238); stroke-width: 0px;"/><text x="6" y="15.880000114440918" style="font-family: -apple-system, BlinkMacSystemFont, &quot;Segoe WPC&quot;, &quot;Segoe UI&quot;, &quot;Ubuntu&quot;, &quot;Droid Sans&quot;, sans-serif, &quot;PingFang SC&quot;; font-size: 11px; text-rendering: geometricprecision; user-select: none;">label</text><title>int64[?]</title></g><path class="node node-border" d="M5,0h27.143083572387695a5,5 0 0 1 5,5v12.6850004196167a5,5 0 0 1 -5,5h-27.143083572387695a5,5 0 0 1 -5,-5v-12.6850004196167a5,5 0 0 1 5,-5z" style="stroke: rgb(51, 51, 51); fill: none; stroke-width: 1px;"/></g><g class="node" style="" transform="translate(0,152.07000160217285)"><g class="node-item graph-item-output" transform="translate(0,0)"><path d="M5,0h64.06916427612305a5,5 0 0 1 5,5v12.6850004196167a5,5 0 0 1 -5,5h-64.06916427612305a5,5 0 0 1 -5,-5v-12.6850004196167a5,5 0 0 1 5,-5z" style="stroke: rgb(0, 0, 0); fill: rgb(238, 238, 238); stroke-width: 0px;"/><text x="6" y="15.880000114440918" style="font-family: -apple-system, BlinkMacSystemFont, &quot;Segoe WPC&quot;, &quot;Segoe UI&quot;, &quot;Ubuntu&quot;, &quot;Droid Sans&quot;, sans-serif, &quot;PingFang SC&quot;; font-size: 11px; text-rendering: geometricprecision; user-select: none;">probabilities</text><title>float32[?,2]</title></g><path class="node node-border" d="M5,0h64.06916427612305a5,5 0 0 1 5,5v12.6850004196167a5,5 0 0 1 -5,5h-64.06916427612305a5,5 0 0 1 -5,-5v-12.6850004196167a5,5 0 0 1 5,-5z" style="stroke: rgb(51, 51, 51); fill: none; stroke-width: 1px;"/></g></g></g></svg>