<?xml version="1.0" encoding="UTF-8" standalone="no"?>
<svg
   xmlns:dc="http://purl.org/dc/elements/1.1/"
   xmlns:cc="http://creativecommons.org/ns#"
   xmlns:rdf="http://www.w3.org/1999/02/22-rdf-syntax-ns#"
   xmlns:svg="http://www.w3.org/2000/svg"
   xmlns="http://www.w3.org/2000/svg"
   xmlns:xlink="http://www.w3.org/1999/xlink"
   xml:space="preserve"
   enable-background="new 0 0 306 344.35"
   viewBox="0 0 690.61035 344.34899"
   height="344.349"
   width="690.61035"
   y="0px"
   x="0px"
   id="Layer_1"
   version="1.1"><metadata
   id="metadata25"><rdf:RDF><cc:Work
       rdf:about=""><dc:format>image/svg+xml</dc:format><dc:type
         rdf:resource="http://purl.org/dc/dcmitype/StillImage" /><dc:title></dc:title></cc:Work></rdf:RDF></metadata><defs
   id="defs23"><linearGradient
     id="linearGradient2795"><stop
       style="stop-color:#b8b8b8;stop-opacity:0.49803922"
       offset="0"
       id="stop2797" /><stop
       style="stop-color:#7f7f7f;stop-opacity:0"
       offset="1"
       id="stop2799" /></linearGradient><linearGradient
     id="linearGradient2787"><stop
       style="stop-color:#7f7f7f;stop-opacity:0.5"
       offset="0"
       id="stop2789" /><stop
       style="stop-color:#7f7f7f;stop-opacity:0"
       offset="1"
       id="stop2791" /></linearGradient><linearGradient
     id="linearGradient3676"><stop
       style="stop-color:#b2b2b2;stop-opacity:0.5"
       offset="0"
       id="stop3678" /><stop
       style="stop-color:#b3b3b3;stop-opacity:0"
       offset="1"
       id="stop3680" /></linearGradient><linearGradient
     id="linearGradient3236"><stop
       style="stop-color:#f4f4f4;stop-opacity:1"
       offset="0"
       id="stop3244" /><stop
       style="stop-color:#ffffff;stop-opacity:1"
       offset="1"
       id="stop3240" /></linearGradient><linearGradient
     id="linearGradient4671"><stop
       style="stop-color:#ffd43b;stop-opacity:1"
       offset="0"
       id="stop4673" /><stop
       style="stop-color:#ffe873;stop-opacity:1"
       offset="1"
       id="stop4675" /></linearGradient><linearGradient
     id="linearGradient4689"><stop
       style="stop-color:#5a9fd4;stop-opacity:1"
       offset="0"
       id="stop4691" /><stop
       style="stop-color:#306998;stop-opacity:1"
       offset="1"
       id="stop4693" /></linearGradient><linearGradient
     x1="224.23996"
     y1="144.75717"
     x2="-65.308502"
     y2="144.75717"
     id="linearGradient2987"
     xlink:href="#linearGradient4671"
     gradientUnits="userSpaceOnUse"
     gradientTransform="translate(100.2702,99.61116)" /><linearGradient
     x1="172.94208"
     y1="77.475983"
     x2="26.670298"
     y2="76.313133"
     id="linearGradient2990"
     xlink:href="#linearGradient4689"
     gradientUnits="userSpaceOnUse"
     gradientTransform="translate(100.2702,99.61116)" /><linearGradient
     x1="224.23996"
     y1="144.75717"
     x2="-65.308502"
     y2="144.75717"
     id="linearGradient2255"
     xlink:href="#linearGradient4671"
     gradientUnits="userSpaceOnUse"
     gradientTransform="matrix(0.562541,0,0,0.567972,-11.5974,-7.60954)" /><linearGradient
     x1="172.94208"
     y1="76.176224"
     x2="26.670298"
     y2="76.313133"
     id="linearGradient2258"
     xlink:href="#linearGradient4689"
     gradientUnits="userSpaceOnUse"
     gradientTransform="matrix(0.562541,0,0,0.567972,-11.5974,-7.60954)" /><radialGradient
     cx="61.518883"
     cy="132.28575"
     r="29.036913"
     fx="61.518883"
     fy="132.28575"
     id="radialGradient2801"
     xlink:href="#linearGradient2795"
     gradientUnits="userSpaceOnUse"
     gradientTransform="matrix(1,0,0,0.177966,0,108.7434)" /><linearGradient
     x1="150.96111"
     y1="192.35176"
     x2="112.03144"
     y2="137.27299"
     id="linearGradient1475"
     xlink:href="#linearGradient4671"
     gradientUnits="userSpaceOnUse"
     gradientTransform="matrix(1.425185,0,0,1.4389443,319.93701,-23.486865)" /><linearGradient
     x1="26.648937"
     y1="20.603781"
     x2="135.66525"
     y2="114.39767"
     id="linearGradient1478"
     xlink:href="#linearGradient4689"
     gradientUnits="userSpaceOnUse"
     gradientTransform="matrix(1.425185,0,0,1.4389443,319.93701,-23.486865)" /><radialGradient
     cx="61.518883"
     cy="132.28575"
     r="29.036913"
     fx="61.518883"
     fy="132.28575"
     id="radialGradient1480"
     xlink:href="#linearGradient2795"
     gradientUnits="userSpaceOnUse"
     gradientTransform="matrix(4.4311953e-8,-0.60790022,2.6719778,9.6057955e-7,145.86258,367.08512)" /></defs>
<path
   style="fill:#00599c"
   id="path2"
   d="M 302.107,258.262 C 304.508,254.103 306,249.417 306,245.209 V 99.14 c 0,-4.208 -1.49,-8.893 -3.892,-13.052 L 153,172.175 Z" />
<path
   style="fill:#004482"
   id="path4"
   d="m 166.25,341.193 126.5,-73.034 c 3.644,-2.104 6.956,-5.737 9.357,-9.897 L 153,172.175 3.893,258.263 c 2.401,4.159 5.714,7.793 9.357,9.896 l 126.5,73.034 c 7.287,4.208 19.213,4.208 26.5,0 z" />
<path
   style="fill:#659ad2"
   id="path6"
   d="m 302.108,86.087 c -2.402,-4.16 -5.715,-7.793 -9.358,-9.897 L 166.25,3.156 c -7.287,-4.208 -19.213,-4.208 -26.5,0 L 13.25,76.19 C 5.962,80.397 0,90.725 0,99.14 v 146.069 c 0,4.208 1.491,8.894 3.893,13.053 L 153,172.175 Z" />
<g
   id="g10">
	<path
   style="fill:#ffffff"
   id="path8"
   d="m 153,274.175 c -56.243,0 -102,-45.757 -102,-102 0,-56.243 45.757,-102 102,-102 36.292,0 70.139,19.53 88.331,50.968 l -44.143,25.544 C 188.083,130.951 171.15,121.175 153,121.175 c -28.122,0 -51,22.878 -51,51 0,28.121 22.878,51 51,51 18.152,0 35.085,-9.776 44.191,-25.515 l 44.143,25.543 c -18.192,31.441 -52.04,50.972 -88.334,50.972 z" />
</g>
<g
   id="g14">
	<polygon
   style="fill:#ffffff"
   id="polygon12"
   points="243.666,155.175 232.334,155.175 232.334,166.508 221,166.508 221,177.841 232.334,177.841 232.334,189.175 243.666,189.175 243.666,177.841 255,177.841 255,166.508 243.666,166.508 " />
</g>
<g
   id="g18">
	<polygon
   style="fill:#ffffff"
   id="polygon16"
   points="286.166,155.175 274.834,155.175 274.834,166.508 263.5,166.508 263.5,177.841 274.834,177.841 274.834,189.175 286.166,189.175 286.166,177.841 297.5,177.841 297.5,166.508 286.166,166.508 " />
</g>
<g
   transform="matrix(1.2020607,0,0,1.2020607,-78.157328,-5.6221916)"
   id="g121"><path
     id="path1948"
     style="fill:url(#linearGradient1478);fill-opacity:1;stroke-width:2.53347754"
     d="M 497.05218,6.1631564 C 485.4396,6.2171144 474.34984,7.2075007 464.592,8.9341474 435.84662,14.012513 430.62757,24.641967 430.62757,44.24449 v 25.888974 h 67.92886 v 8.629657 h -67.92886 -25.49312 c -19.74202,0 -37.0287,11.866092 -42.43575,34.439459 -6.23697,25.87432 -6.51361,42.02032 0,69.03726 4.82863,20.11037 16.36004,34.43946 36.10205,34.43946 h 23.3555 v -31.0351 c 0,-22.42102 19.3992,-42.19823 42.43575,-42.19823 h 67.84969 c 18.88695,0 33.96444,-15.5509 33.96444,-34.51863 V 44.24449 c 0,-18.409106 -15.53017,-32.237937 -33.96444,-35.3103426 C 520.77253,6.9916661 508.66476,6.1091976 497.05218,6.1631564 Z M 460.31675,26.985175 c 7.01659,0 12.74656,5.823568 12.74656,12.984072 0,7.135124 -5.72997,12.904901 -12.74656,12.904901 -7.04173,-2e-6 -12.74655,-5.76978 -12.74655,-12.904901 -10e-6,-7.160502 5.70482,-12.984072 12.74655,-12.984072 z" /><path
     id="path1950"
     style="fill:url(#linearGradient1475);fill-opacity:1;stroke-width:2.53347754"
     d="m 574.87744,78.763121 v 30.164219 c 0,23.38591 -19.82673,43.06911 -42.43575,43.06912 H 464.592 c -18.58517,0 -33.96443,15.90639 -33.96443,34.51863 v 64.68284 c 0,18.4091 16.008,29.23714 33.96443,34.51863 21.50246,6.32257 42.1222,7.46522 67.84969,0 17.10137,-4.95141 33.96444,-14.91613 33.96444,-34.51863 v -25.88897 h -67.8497 v -8.62966 h 67.8497 33.96444 c 19.74202,0 27.09871,-13.77048 33.96441,-34.43946 7.09204,-21.27839 6.79027,-41.741 0,-69.03726 C 629.45606,93.549279 620.1377,78.763121 600.37057,78.763121 Z m -38.1605,163.805159 c 7.04174,0 12.74655,5.76978 12.74655,12.90489 0,7.16049 -5.70482,12.98407 -12.74655,12.98407 -7.0166,0 -12.74656,-5.82358 -12.74656,-12.98407 0,-7.13511 5.72996,-12.90489 12.74656,-12.90489 z" /></g></svg>