<?xml version="1.0" encoding="utf-8" standalone="no"?>
<!DOCTYPE svg PUBLIC "-//W3C//DTD SVG 1.1//EN"
  "http://www.w3.org/Graphics/SVG/1.1/DTD/svg11.dtd">
<!-- Created with matplotlib (https://matplotlib.org/) -->
<svg height="504pt" version="1.1" viewBox="0 0 1080 504" width="1080pt" xmlns="http://www.w3.org/2000/svg" xmlns:xlink="http://www.w3.org/1999/xlink">
 <defs>
  <style type="text/css">
*{stroke-linecap:butt;stroke-linejoin:round;}
  </style>
 </defs>
 <g id="figure_1">
  <g id="patch_1">
   <path d="M 0 504 
L 1080 504 
L 1080 0 
L 0 0 
z
" style="fill:#ffffff;"/>
  </g>
  <g id="axes_1">
   <g id="patch_2">
    <path d="M 61.377246 439.8 
L 526.877417 439.8 
L 526.877417 22.7 
L 61.377246 22.7 
z
" style="fill:#ffffff;"/>
   </g>
   <g id="patch_3">
    <path clip-path="url(#pe5a277d391)" d="M 61.377246 439.8 
L 70.68725 439.8 
L 70.68725 439.8 
L 61.377246 439.8 
z
" style="fill:#348abd;opacity:0.6;"/>
   </g>
   <g id="patch_4">
    <path clip-path="url(#pe5a277d391)" d="M 70.68725 439.8 
L 79.997253 439.8 
L 79.997253 439.452417 
L 70.68725 439.452417 
z
" style="fill:#348abd;opacity:0.6;"/>
   </g>
   <g id="patch_5">
    <path clip-path="url(#pe5a277d391)" d="M 79.997253 439.8 
L 89.307256 439.8 
L 89.307256 439.8 
L 79.997253 439.8 
z
" style="fill:#348abd;opacity:0.6;"/>
   </g>
   <g id="patch_6">
    <path clip-path="url(#pe5a277d391)" d="M 89.307256 439.8 
L 98.61726 439.8 
L 98.61726 438.75725 
L 89.307256 438.75725 
z
" style="fill:#348abd;opacity:0.6;"/>
   </g>
   <g id="patch_7">
    <path clip-path="url(#pe5a277d391)" d="M 98.61726 439.8 
L 107.927263 439.8 
L 107.927263 435.976583 
L 98.61726 435.976583 
z
" style="fill:#348abd;opacity:0.6;"/>
   </g>
   <g id="patch_8">
    <path clip-path="url(#pe5a277d391)" d="M 107.927263 439.8 
L 117.237267 439.8 
L 117.237267 435.281417 
L 107.927263 435.281417 
z
" style="fill:#348abd;opacity:0.6;"/>
   </g>
   <g id="patch_9">
    <path clip-path="url(#pe5a277d391)" d="M 117.237267 439.8 
L 126.54727 439.8 
L 126.54727 430.067667 
L 117.237267 430.067667 
z
" style="fill:#348abd;opacity:0.6;"/>
   </g>
   <g id="patch_10">
    <path clip-path="url(#pe5a277d391)" d="M 126.54727 439.8 
L 135.857273 439.8 
L 135.857273 428.32975 
L 126.54727 428.32975 
z
" style="fill:#348abd;opacity:0.6;"/>
   </g>
   <g id="patch_11">
    <path clip-path="url(#pe5a277d391)" d="M 135.857273 439.8 
L 145.167277 439.8 
L 145.167277 423.811167 
L 135.857273 423.811167 
z
" style="fill:#348abd;opacity:0.6;"/>
   </g>
   <g id="patch_12">
    <path clip-path="url(#pe5a277d391)" d="M 145.167277 439.8 
L 154.47728 439.8 
L 154.47728 420.335333 
L 145.167277 420.335333 
z
" style="fill:#348abd;opacity:0.6;"/>
   </g>
   <g id="patch_13">
    <path clip-path="url(#pe5a277d391)" d="M 154.47728 439.8 
L 163.787284 439.8 
L 163.787284 410.950583 
L 154.47728 410.950583 
z
" style="fill:#348abd;opacity:0.6;"/>
   </g>
   <g id="patch_14">
    <path clip-path="url(#pe5a277d391)" d="M 163.787284 439.8 
L 173.097287 439.8 
L 173.097287 399.480333 
L 163.787284 399.480333 
z
" style="fill:#348abd;opacity:0.6;"/>
   </g>
   <g id="patch_15">
    <path clip-path="url(#pe5a277d391)" d="M 173.097287 439.8 
L 182.407291 439.8 
L 182.407291 392.181083 
L 173.097287 392.181083 
z
" style="fill:#348abd;opacity:0.6;"/>
   </g>
   <g id="patch_16">
    <path clip-path="url(#pe5a277d391)" d="M 182.407291 439.8 
L 191.717294 439.8 
L 191.717294 381.406 
L 182.407291 381.406 
z
" style="fill:#348abd;opacity:0.6;"/>
   </g>
   <g id="patch_17">
    <path clip-path="url(#pe5a277d391)" d="M 191.717294 439.8 
L 201.027297 439.8 
L 201.027297 368.545417 
L 191.717294 368.545417 
z
" style="fill:#348abd;opacity:0.6;"/>
   </g>
   <g id="patch_18">
    <path clip-path="url(#pe5a277d391)" d="M 201.027297 439.8 
L 210.337301 439.8 
L 210.337301 337.958083 
L 201.027297 337.958083 
z
" style="fill:#348abd;opacity:0.6;"/>
   </g>
   <g id="patch_19">
    <path clip-path="url(#pe5a277d391)" d="M 210.337301 439.8 
L 219.647304 439.8 
L 219.647304 330.658833 
L 210.337301 330.658833 
z
" style="fill:#348abd;opacity:0.6;"/>
   </g>
   <g id="patch_20">
    <path clip-path="url(#pe5a277d391)" d="M 219.647304 439.8 
L 228.957308 439.8 
L 228.957308 297.986 
L 219.647304 297.986 
z
" style="fill:#348abd;opacity:0.6;"/>
   </g>
   <g id="patch_21">
    <path clip-path="url(#pe5a277d391)" d="M 228.957308 439.8 
L 238.267311 439.8 
L 238.267311 282.34475 
L 228.957308 282.34475 
z
" style="fill:#348abd;opacity:0.6;"/>
   </g>
   <g id="patch_22">
    <path clip-path="url(#pe5a277d391)" d="M 238.267311 439.8 
L 247.577314 439.8 
L 247.577314 268.441417 
L 238.267311 268.441417 
z
" style="fill:#348abd;opacity:0.6;"/>
   </g>
   <g id="patch_23">
    <path clip-path="url(#pe5a277d391)" d="M 247.577314 439.8 
L 256.887318 439.8 
L 256.887318 242.372667 
L 247.577314 242.372667 
z
" style="fill:#348abd;opacity:0.6;"/>
   </g>
   <g id="patch_24">
    <path clip-path="url(#pe5a277d391)" d="M 256.887318 439.8 
L 266.197321 439.8 
L 266.197321 223.95075 
L 256.887318 223.95075 
z
" style="fill:#348abd;opacity:0.6;"/>
   </g>
   <g id="patch_25">
    <path clip-path="url(#pe5a277d391)" d="M 266.197321 439.8 
L 275.507325 439.8 
L 275.507325 193.015833 
L 266.197321 193.015833 
z
" style="fill:#348abd;opacity:0.6;"/>
   </g>
   <g id="patch_26">
    <path clip-path="url(#pe5a277d391)" d="M 275.507325 439.8 
L 284.817328 439.8 
L 284.817328 188.49725 
L 275.507325 188.49725 
z
" style="fill:#348abd;opacity:0.6;"/>
   </g>
   <g id="patch_27">
    <path clip-path="url(#pe5a277d391)" d="M 284.817328 439.8 
L 294.127332 439.8 
L 294.127332 146.439667 
L 284.817328 146.439667 
z
" style="fill:#348abd;opacity:0.6;"/>
   </g>
   <g id="patch_28">
    <path clip-path="url(#pe5a277d391)" d="M 294.127332 439.8 
L 303.437335 439.8 
L 303.437335 139.488 
L 294.127332 139.488 
z
" style="fill:#348abd;opacity:0.6;"/>
   </g>
   <g id="patch_29">
    <path clip-path="url(#pe5a277d391)" d="M 303.437335 439.8 
L 312.747338 439.8 
L 312.747338 124.194333 
L 303.437335 124.194333 
z
" style="fill:#348abd;opacity:0.6;"/>
   </g>
   <g id="patch_30">
    <path clip-path="url(#pe5a277d391)" d="M 312.747338 439.8 
L 322.057342 439.8 
L 322.057342 145.7445 
L 312.747338 145.7445 
z
" style="fill:#348abd;opacity:0.6;"/>
   </g>
   <g id="patch_31">
    <path clip-path="url(#pe5a277d391)" d="M 322.057342 439.8 
L 331.367345 439.8 
L 331.367345 175.636667 
L 322.057342 175.636667 
z
" style="fill:#348abd;opacity:0.6;"/>
   </g>
   <g id="patch_32">
    <path clip-path="url(#pe5a277d391)" d="M 331.367345 439.8 
L 340.677349 439.8 
L 340.677349 227.426583 
L 331.367345 227.426583 
z
" style="fill:#348abd;opacity:0.6;"/>
   </g>
   <g id="patch_33">
    <path clip-path="url(#pe5a277d391)" d="M 340.677349 439.8 
L 349.987352 439.8 
L 349.987352 261.142167 
L 340.677349 261.142167 
z
" style="fill:#348abd;opacity:0.6;"/>
   </g>
   <g id="patch_34">
    <path clip-path="url(#pe5a277d391)" d="M 349.987352 439.8 
L 359.297355 439.8 
L 359.297355 295.9005 
L 349.987352 295.9005 
z
" style="fill:#348abd;opacity:0.6;"/>
   </g>
   <g id="patch_35">
    <path clip-path="url(#pe5a277d391)" d="M 359.297355 439.8 
L 368.607359 439.8 
L 368.607359 327.878167 
L 359.297355 327.878167 
z
" style="fill:#348abd;opacity:0.6;"/>
   </g>
   <g id="patch_36">
    <path clip-path="url(#pe5a277d391)" d="M 368.607359 439.8 
L 377.917362 439.8 
L 377.917362 347.690417 
L 368.607359 347.690417 
z
" style="fill:#348abd;opacity:0.6;"/>
   </g>
   <g id="patch_37">
    <path clip-path="url(#pe5a277d391)" d="M 377.917362 439.8 
L 387.227366 439.8 
L 387.227366 368.197833 
L 377.917362 368.197833 
z
" style="fill:#348abd;opacity:0.6;"/>
   </g>
   <g id="patch_38">
    <path clip-path="url(#pe5a277d391)" d="M 387.227366 439.8 
L 396.537369 439.8 
L 396.537369 385.924583 
L 387.227366 385.924583 
z
" style="fill:#348abd;opacity:0.6;"/>
   </g>
   <g id="patch_39">
    <path clip-path="url(#pe5a277d391)" d="M 396.537369 439.8 
L 405.847373 439.8 
L 405.847373 393.571417 
L 396.537369 393.571417 
z
" style="fill:#348abd;opacity:0.6;"/>
   </g>
   <g id="patch_40">
    <path clip-path="url(#pe5a277d391)" d="M 405.847373 439.8 
L 415.157376 439.8 
L 415.157376 409.907833 
L 405.847373 409.907833 
z
" style="fill:#348abd;opacity:0.6;"/>
   </g>
   <g id="patch_41">
    <path clip-path="url(#pe5a277d391)" d="M 415.157376 439.8 
L 424.467379 439.8 
L 424.467379 415.121583 
L 415.157376 415.121583 
z
" style="fill:#348abd;opacity:0.6;"/>
   </g>
   <g id="patch_42">
    <path clip-path="url(#pe5a277d391)" d="M 424.467379 439.8 
L 433.777383 439.8 
L 433.777383 421.0305 
L 424.467379 421.0305 
z
" style="fill:#348abd;opacity:0.6;"/>
   </g>
   <g id="patch_43">
    <path clip-path="url(#pe5a277d391)" d="M 433.777383 439.8 
L 443.087386 439.8 
L 443.087386 421.0305 
L 433.777383 421.0305 
z
" style="fill:#348abd;opacity:0.6;"/>
   </g>
   <g id="patch_44">
    <path clip-path="url(#pe5a277d391)" d="M 443.087386 439.8 
L 452.39739 439.8 
L 452.39739 426.24425 
L 443.087386 426.24425 
z
" style="fill:#348abd;opacity:0.6;"/>
   </g>
   <g id="patch_45">
    <path clip-path="url(#pe5a277d391)" d="M 452.39739 439.8 
L 461.707393 439.8 
L 461.707393 431.110417 
L 452.39739 431.110417 
z
" style="fill:#348abd;opacity:0.6;"/>
   </g>
   <g id="patch_46">
    <path clip-path="url(#pe5a277d391)" d="M 461.707393 439.8 
L 471.017396 439.8 
L 471.017396 430.41525 
L 461.707393 430.41525 
z
" style="fill:#348abd;opacity:0.6;"/>
   </g>
   <g id="patch_47">
    <path clip-path="url(#pe5a277d391)" d="M 471.017396 439.8 
L 480.3274 439.8 
L 480.3274 433.195917 
L 471.017396 433.195917 
z
" style="fill:#348abd;opacity:0.6;"/>
   </g>
   <g id="patch_48">
    <path clip-path="url(#pe5a277d391)" d="M 480.3274 439.8 
L 489.637403 439.8 
L 489.637403 434.58625 
L 480.3274 434.58625 
z
" style="fill:#348abd;opacity:0.6;"/>
   </g>
   <g id="patch_49">
    <path clip-path="url(#pe5a277d391)" d="M 489.637403 439.8 
L 498.947407 439.8 
L 498.947407 435.281417 
L 489.637403 435.281417 
z
" style="fill:#348abd;opacity:0.6;"/>
   </g>
   <g id="patch_50">
    <path clip-path="url(#pe5a277d391)" d="M 498.947407 439.8 
L 508.25741 439.8 
L 508.25741 436.324167 
L 498.947407 436.324167 
z
" style="fill:#348abd;opacity:0.6;"/>
   </g>
   <g id="patch_51">
    <path clip-path="url(#pe5a277d391)" d="M 508.25741 439.8 
L 517.567414 439.8 
L 517.567414 436.324167 
L 508.25741 436.324167 
z
" style="fill:#348abd;opacity:0.6;"/>
   </g>
   <g id="patch_52">
    <path clip-path="url(#pe5a277d391)" d="M 517.567414 439.8 
L 526.877417 439.8 
L 526.877417 437.019333 
L 517.567414 437.019333 
z
" style="fill:#348abd;opacity:0.6;"/>
   </g>
   <g id="patch_53">
    <path clip-path="url(#pe5a277d391)" d="M 61.377246 439.8 
L 70.68725 439.8 
L 70.68725 439.104833 
L 61.377246 439.104833 
z
" style="fill:#e24a33;opacity:0.6;"/>
   </g>
   <g id="patch_54">
    <path clip-path="url(#pe5a277d391)" d="M 70.68725 439.8 
L 79.997253 439.8 
L 79.997253 439.104833 
L 70.68725 439.104833 
z
" style="fill:#e24a33;opacity:0.6;"/>
   </g>
   <g id="patch_55">
    <path clip-path="url(#pe5a277d391)" d="M 79.997253 439.8 
L 89.307256 439.8 
L 89.307256 437.019333 
L 79.997253 437.019333 
z
" style="fill:#e24a33;opacity:0.6;"/>
   </g>
   <g id="patch_56">
    <path clip-path="url(#pe5a277d391)" d="M 89.307256 439.8 
L 98.61726 439.8 
L 98.61726 436.67175 
L 89.307256 436.67175 
z
" style="fill:#e24a33;opacity:0.6;"/>
   </g>
   <g id="patch_57">
    <path clip-path="url(#pe5a277d391)" d="M 98.61726 439.8 
L 107.927263 439.8 
L 107.927263 430.762833 
L 98.61726 430.762833 
z
" style="fill:#e24a33;opacity:0.6;"/>
   </g>
   <g id="patch_58">
    <path clip-path="url(#pe5a277d391)" d="M 107.927263 439.8 
L 117.237267 439.8 
L 117.237267 431.805583 
L 107.927263 431.805583 
z
" style="fill:#e24a33;opacity:0.6;"/>
   </g>
   <g id="patch_59">
    <path clip-path="url(#pe5a277d391)" d="M 117.237267 439.8 
L 126.54727 439.8 
L 126.54727 420.682917 
L 117.237267 420.682917 
z
" style="fill:#e24a33;opacity:0.6;"/>
   </g>
   <g id="patch_60">
    <path clip-path="url(#pe5a277d391)" d="M 126.54727 439.8 
L 135.857273 439.8 
L 135.857273 415.81675 
L 126.54727 415.81675 
z
" style="fill:#e24a33;opacity:0.6;"/>
   </g>
   <g id="patch_61">
    <path clip-path="url(#pe5a277d391)" d="M 135.857273 439.8 
L 145.167277 439.8 
L 145.167277 411.993333 
L 135.857273 411.993333 
z
" style="fill:#e24a33;opacity:0.6;"/>
   </g>
   <g id="patch_62">
    <path clip-path="url(#pe5a277d391)" d="M 145.167277 439.8 
L 154.47728 439.8 
L 154.47728 400.870667 
L 145.167277 400.870667 
z
" style="fill:#e24a33;opacity:0.6;"/>
   </g>
   <g id="patch_63">
    <path clip-path="url(#pe5a277d391)" d="M 154.47728 439.8 
L 163.787284 439.8 
L 163.787284 383.839083 
L 154.47728 383.839083 
z
" style="fill:#e24a33;opacity:0.6;"/>
   </g>
   <g id="patch_64">
    <path clip-path="url(#pe5a277d391)" d="M 163.787284 439.8 
L 173.097287 439.8 
L 173.097287 369.93575 
L 163.787284 369.93575 
z
" style="fill:#e24a33;opacity:0.6;"/>
   </g>
   <g id="patch_65">
    <path clip-path="url(#pe5a277d391)" d="M 173.097287 439.8 
L 182.407291 439.8 
L 182.407291 361.246167 
L 173.097287 361.246167 
z
" style="fill:#e24a33;opacity:0.6;"/>
   </g>
   <g id="patch_66">
    <path clip-path="url(#pe5a277d391)" d="M 182.407291 439.8 
L 191.717294 439.8 
L 191.717294 339.696 
L 182.407291 339.696 
z
" style="fill:#e24a33;opacity:0.6;"/>
   </g>
   <g id="patch_67">
    <path clip-path="url(#pe5a277d391)" d="M 191.717294 439.8 
L 201.027297 439.8 
L 201.027297 315.017583 
L 191.717294 315.017583 
z
" style="fill:#e24a33;opacity:0.6;"/>
   </g>
   <g id="patch_68">
    <path clip-path="url(#pe5a277d391)" d="M 201.027297 439.8 
L 210.337301 439.8 
L 210.337301 280.954417 
L 201.027297 280.954417 
z
" style="fill:#e24a33;opacity:0.6;"/>
   </g>
   <g id="patch_69">
    <path clip-path="url(#pe5a277d391)" d="M 210.337301 439.8 
L 219.647304 439.8 
L 219.647304 263.922833 
L 210.337301 263.922833 
z
" style="fill:#e24a33;opacity:0.6;"/>
   </g>
   <g id="patch_70">
    <path clip-path="url(#pe5a277d391)" d="M 219.647304 439.8 
L 228.957308 439.8 
L 228.957308 238.201667 
L 219.647304 238.201667 
z
" style="fill:#e24a33;opacity:0.6;"/>
   </g>
   <g id="patch_71">
    <path clip-path="url(#pe5a277d391)" d="M 228.957308 439.8 
L 238.267311 439.8 
L 238.267311 208.657083 
L 228.957308 208.657083 
z
" style="fill:#e24a33;opacity:0.6;"/>
   </g>
   <g id="patch_72">
    <path clip-path="url(#pe5a277d391)" d="M 238.267311 439.8 
L 247.577314 439.8 
L 247.577314 183.978667 
L 238.267311 183.978667 
z
" style="fill:#e24a33;opacity:0.6;"/>
   </g>
   <g id="patch_73">
    <path clip-path="url(#pe5a277d391)" d="M 247.577314 439.8 
L 256.887318 439.8 
L 256.887318 147.134833 
L 247.577314 147.134833 
z
" style="fill:#e24a33;opacity:0.6;"/>
   </g>
   <g id="patch_74">
    <path clip-path="url(#pe5a277d391)" d="M 256.887318 439.8 
L 266.197321 439.8 
L 266.197321 122.804 
L 256.887318 122.804 
z
" style="fill:#e24a33;opacity:0.6;"/>
   </g>
   <g id="patch_75">
    <path clip-path="url(#pe5a277d391)" d="M 266.197321 439.8 
L 275.507325 439.8 
L 275.507325 132.536333 
L 266.197321 132.536333 
z
" style="fill:#e24a33;opacity:0.6;"/>
   </g>
   <g id="patch_76">
    <path clip-path="url(#pe5a277d391)" d="M 275.507325 439.8 
L 284.817328 439.8 
L 284.817328 91.173917 
L 275.507325 91.173917 
z
" style="fill:#e24a33;opacity:0.6;"/>
   </g>
   <g id="patch_77">
    <path clip-path="url(#pe5a277d391)" d="M 284.817328 439.8 
L 294.127332 439.8 
L 294.127332 108.900667 
L 284.817328 108.900667 
z
" style="fill:#e24a33;opacity:0.6;"/>
   </g>
   <g id="patch_78">
    <path clip-path="url(#pe5a277d391)" d="M 294.127332 439.8 
L 303.437335 439.8 
L 303.437335 139.488 
L 294.127332 139.488 
z
" style="fill:#e24a33;opacity:0.6;"/>
   </g>
   <g id="patch_79">
    <path clip-path="url(#pe5a277d391)" d="M 303.437335 439.8 
L 312.747338 439.8 
L 312.747338 154.0865 
L 303.437335 154.0865 
z
" style="fill:#e24a33;opacity:0.6;"/>
   </g>
   <g id="patch_80">
    <path clip-path="url(#pe5a277d391)" d="M 312.747338 439.8 
L 322.057342 439.8 
L 322.057342 218.041833 
L 312.747338 218.041833 
z
" style="fill:#e24a33;opacity:0.6;"/>
   </g>
   <g id="patch_81">
    <path clip-path="url(#pe5a277d391)" d="M 322.057342 439.8 
L 331.367345 439.8 
L 331.367345 276.783417 
L 322.057342 276.783417 
z
" style="fill:#e24a33;opacity:0.6;"/>
   </g>
   <g id="patch_82">
    <path clip-path="url(#pe5a277d391)" d="M 331.367345 439.8 
L 340.677349 439.8 
L 340.677349 331.701583 
L 331.367345 331.701583 
z
" style="fill:#e24a33;opacity:0.6;"/>
   </g>
   <g id="patch_83">
    <path clip-path="url(#pe5a277d391)" d="M 340.677349 439.8 
L 349.987352 439.8 
L 349.987352 368.545417 
L 340.677349 368.545417 
z
" style="fill:#e24a33;opacity:0.6;"/>
   </g>
   <g id="patch_84">
    <path clip-path="url(#pe5a277d391)" d="M 349.987352 439.8 
L 359.297355 439.8 
L 359.297355 399.480333 
L 349.987352 399.480333 
z
" style="fill:#e24a33;opacity:0.6;"/>
   </g>
   <g id="patch_85">
    <path clip-path="url(#pe5a277d391)" d="M 359.297355 439.8 
L 368.607359 439.8 
L 368.607359 415.81675 
L 359.297355 415.81675 
z
" style="fill:#e24a33;opacity:0.6;"/>
   </g>
   <g id="patch_86">
    <path clip-path="url(#pe5a277d391)" d="M 368.607359 439.8 
L 377.917362 439.8 
L 377.917362 417.207083 
L 368.607359 417.207083 
z
" style="fill:#e24a33;opacity:0.6;"/>
   </g>
   <g id="patch_87">
    <path clip-path="url(#pe5a277d391)" d="M 377.917362 439.8 
L 387.227366 439.8 
L 387.227366 430.067667 
L 377.917362 430.067667 
z
" style="fill:#e24a33;opacity:0.6;"/>
   </g>
   <g id="patch_88">
    <path clip-path="url(#pe5a277d391)" d="M 387.227366 439.8 
L 396.537369 439.8 
L 396.537369 432.153167 
L 387.227366 432.153167 
z
" style="fill:#e24a33;opacity:0.6;"/>
   </g>
   <g id="patch_89">
    <path clip-path="url(#pe5a277d391)" d="M 396.537369 439.8 
L 405.847373 439.8 
L 405.847373 435.281417 
L 396.537369 435.281417 
z
" style="fill:#e24a33;opacity:0.6;"/>
   </g>
   <g id="patch_90">
    <path clip-path="url(#pe5a277d391)" d="M 405.847373 439.8 
L 415.157376 439.8 
L 415.157376 437.019333 
L 405.847373 437.019333 
z
" style="fill:#e24a33;opacity:0.6;"/>
   </g>
   <g id="patch_91">
    <path clip-path="url(#pe5a277d391)" d="M 415.157376 439.8 
L 424.467379 439.8 
L 424.467379 437.7145 
L 415.157376 437.7145 
z
" style="fill:#e24a33;opacity:0.6;"/>
   </g>
   <g id="patch_92">
    <path clip-path="url(#pe5a277d391)" d="M 424.467379 439.8 
L 433.777383 439.8 
L 433.777383 439.104833 
L 424.467379 439.104833 
z
" style="fill:#e24a33;opacity:0.6;"/>
   </g>
   <g id="patch_93">
    <path clip-path="url(#pe5a277d391)" d="M 433.777383 439.8 
L 443.087386 439.8 
L 443.087386 439.104833 
L 433.777383 439.104833 
z
" style="fill:#e24a33;opacity:0.6;"/>
   </g>
   <g id="patch_94">
    <path clip-path="url(#pe5a277d391)" d="M 443.087386 439.8 
L 452.39739 439.8 
L 452.39739 438.75725 
L 443.087386 438.75725 
z
" style="fill:#e24a33;opacity:0.6;"/>
   </g>
   <g id="patch_95">
    <path clip-path="url(#pe5a277d391)" d="M 452.39739 439.8 
L 461.707393 439.8 
L 461.707393 439.452417 
L 452.39739 439.452417 
z
" style="fill:#e24a33;opacity:0.6;"/>
   </g>
   <g id="patch_96">
    <path clip-path="url(#pe5a277d391)" d="M 461.707393 439.8 
L 471.017396 439.8 
L 471.017396 439.452417 
L 461.707393 439.452417 
z
" style="fill:#e24a33;opacity:0.6;"/>
   </g>
   <g id="patch_97">
    <path clip-path="url(#pe5a277d391)" d="M 471.017396 439.8 
L 480.3274 439.8 
L 480.3274 439.8 
L 471.017396 439.8 
z
" style="fill:#e24a33;opacity:0.6;"/>
   </g>
   <g id="patch_98">
    <path clip-path="url(#pe5a277d391)" d="M 480.3274 439.8 
L 489.637403 439.8 
L 489.637403 439.8 
L 480.3274 439.8 
z
" style="fill:#e24a33;opacity:0.6;"/>
   </g>
   <g id="patch_99">
    <path clip-path="url(#pe5a277d391)" d="M 489.637403 439.8 
L 498.947407 439.8 
L 498.947407 439.452417 
L 489.637403 439.452417 
z
" style="fill:#e24a33;opacity:0.6;"/>
   </g>
   <g id="patch_100">
    <path clip-path="url(#pe5a277d391)" d="M 498.947407 439.8 
L 508.25741 439.8 
L 508.25741 439.8 
L 498.947407 439.8 
z
" style="fill:#e24a33;opacity:0.6;"/>
   </g>
   <g id="patch_101">
    <path clip-path="url(#pe5a277d391)" d="M 508.25741 439.8 
L 517.567414 439.8 
L 517.567414 439.452417 
L 508.25741 439.452417 
z
" style="fill:#e24a33;opacity:0.6;"/>
   </g>
   <g id="patch_102">
    <path clip-path="url(#pe5a277d391)" d="M 517.567414 439.8 
L 526.877417 439.8 
L 526.877417 439.8 
L 517.567414 439.8 
z
" style="fill:#e24a33;opacity:0.6;"/>
   </g>
   <g id="patch_103">
    <path d="M 61.377246 439.8 
L 61.377246 22.7 
" style="fill:none;stroke:#000000;stroke-linecap:square;stroke-linejoin:miter;stroke-width:1.2;"/>
   </g>
   <g id="patch_104">
    <path d="M 526.877417 439.8 
L 526.877417 22.7 
" style="fill:none;stroke:#000000;stroke-linecap:square;stroke-linejoin:miter;stroke-width:1.2;"/>
   </g>
   <g id="patch_105">
    <path d="M 61.377246 439.8 
L 526.877417 439.8 
" style="fill:none;stroke:#000000;stroke-linecap:square;stroke-linejoin:miter;stroke-width:1.2;"/>
   </g>
   <g id="patch_106">
    <path d="M 61.377246 22.7 
L 526.877417 22.7 
" style="fill:none;stroke:#000000;stroke-linecap:square;stroke-linejoin:miter;stroke-width:1.2;"/>
   </g>
   <g id="matplotlib.axis_1">
    <g id="xtick_1">
     <g id="line2d_1">
      <defs>
       <path d="M 0 0 
L 0 -6 
" id="m584df00fc5" style="stroke:#1a1a1a;stroke-width:0.8;"/>
      </defs>
      <g>
       <use style="fill:#1a1a1a;stroke:#1a1a1a;stroke-width:0.8;" x="61.377246" xlink:href="#m584df00fc5" y="439.8"/>
      </g>
     </g>
     <g id="text_1">
      <!-- $\mathdefault{0}$ -->
      <defs>
       <path d="M 31.78125 66.40625 
Q 24.171875 66.40625 20.328125 58.90625 
Q 16.5 51.421875 16.5 36.375 
Q 16.5 21.390625 20.328125 13.890625 
Q 24.171875 6.390625 31.78125 6.390625 
Q 39.453125 6.390625 43.28125 13.890625 
Q 47.125 21.390625 47.125 36.375 
Q 47.125 51.421875 43.28125 58.90625 
Q 39.453125 66.40625 31.78125 66.40625 
z
M 31.78125 74.21875 
Q 44.046875 74.21875 50.515625 64.515625 
Q 56.984375 54.828125 56.984375 36.375 
Q 56.984375 17.96875 50.515625 8.265625 
Q 44.046875 -1.421875 31.78125 -1.421875 
Q 19.53125 -1.421875 13.0625 8.265625 
Q 6.59375 17.96875 6.59375 36.375 
Q 6.59375 54.828125 13.0625 64.515625 
Q 19.53125 74.21875 31.78125 74.21875 
z
" id="DejaVuSans-48"/>
      </defs>
      <g style="fill:#1a1a1a;" transform="translate(56.577246 457.197656)scale(0.15 -0.15)">
       <use transform="translate(0 0.78125)" xlink:href="#DejaVuSans-48"/>
      </g>
     </g>
    </g>
    <g id="xtick_2">
     <g id="line2d_2">
      <g>
       <use style="fill:#1a1a1a;stroke:#1a1a1a;stroke-width:0.8;" x="154.47728" xlink:href="#m584df00fc5" y="439.8"/>
      </g>
     </g>
     <g id="text_2">
      <!-- $\mathdefault{2}$ -->
      <defs>
       <path d="M 19.1875 8.296875 
L 53.609375 8.296875 
L 53.609375 0 
L 7.328125 0 
L 7.328125 8.296875 
Q 12.9375 14.109375 22.625 23.890625 
Q 32.328125 33.6875 34.8125 36.53125 
Q 39.546875 41.84375 41.421875 45.53125 
Q 43.3125 49.21875 43.3125 52.78125 
Q 43.3125 58.59375 39.234375 62.25 
Q 35.15625 65.921875 28.609375 65.921875 
Q 23.96875 65.921875 18.8125 64.3125 
Q 13.671875 62.703125 7.8125 59.421875 
L 7.8125 69.390625 
Q 13.765625 71.78125 18.9375 73 
Q 24.125 74.21875 28.421875 74.21875 
Q 39.75 74.21875 46.484375 68.546875 
Q 53.21875 62.890625 53.21875 53.421875 
Q 53.21875 48.921875 51.53125 44.890625 
Q 49.859375 40.875 45.40625 35.40625 
Q 44.1875 33.984375 37.640625 27.21875 
Q 31.109375 20.453125 19.1875 8.296875 
z
" id="DejaVuSans-50"/>
      </defs>
      <g style="fill:#1a1a1a;" transform="translate(149.67728 457.197656)scale(0.15 -0.15)">
       <use transform="translate(0 0.78125)" xlink:href="#DejaVuSans-50"/>
      </g>
     </g>
    </g>
    <g id="xtick_3">
     <g id="line2d_3">
      <g>
       <use style="fill:#1a1a1a;stroke:#1a1a1a;stroke-width:0.8;" x="247.577314" xlink:href="#m584df00fc5" y="439.8"/>
      </g>
     </g>
     <g id="text_3">
      <!-- $\mathdefault{4}$ -->
      <defs>
       <path d="M 37.796875 64.3125 
L 12.890625 25.390625 
L 37.796875 25.390625 
z
M 35.203125 72.90625 
L 47.609375 72.90625 
L 47.609375 25.390625 
L 58.015625 25.390625 
L 58.015625 17.1875 
L 47.609375 17.1875 
L 47.609375 0 
L 37.796875 0 
L 37.796875 17.1875 
L 4.890625 17.1875 
L 4.890625 26.703125 
z
" id="DejaVuSans-52"/>
      </defs>
      <g style="fill:#1a1a1a;" transform="translate(242.777314 457.197656)scale(0.15 -0.15)">
       <use transform="translate(0 0.09375)" xlink:href="#DejaVuSans-52"/>
      </g>
     </g>
    </g>
    <g id="xtick_4">
     <g id="line2d_4">
      <g>
       <use style="fill:#1a1a1a;stroke:#1a1a1a;stroke-width:0.8;" x="340.677349" xlink:href="#m584df00fc5" y="439.8"/>
      </g>
     </g>
     <g id="text_4">
      <!-- $\mathdefault{6}$ -->
      <defs>
       <path d="M 33.015625 40.375 
Q 26.375 40.375 22.484375 35.828125 
Q 18.609375 31.296875 18.609375 23.390625 
Q 18.609375 15.53125 22.484375 10.953125 
Q 26.375 6.390625 33.015625 6.390625 
Q 39.65625 6.390625 43.53125 10.953125 
Q 47.40625 15.53125 47.40625 23.390625 
Q 47.40625 31.296875 43.53125 35.828125 
Q 39.65625 40.375 33.015625 40.375 
z
M 52.59375 71.296875 
L 52.59375 62.3125 
Q 48.875 64.0625 45.09375 64.984375 
Q 41.3125 65.921875 37.59375 65.921875 
Q 27.828125 65.921875 22.671875 59.328125 
Q 17.53125 52.734375 16.796875 39.40625 
Q 19.671875 43.65625 24.015625 45.921875 
Q 28.375 48.1875 33.59375 48.1875 
Q 44.578125 48.1875 50.953125 41.515625 
Q 57.328125 34.859375 57.328125 23.390625 
Q 57.328125 12.15625 50.6875 5.359375 
Q 44.046875 -1.421875 33.015625 -1.421875 
Q 20.359375 -1.421875 13.671875 8.265625 
Q 6.984375 17.96875 6.984375 36.375 
Q 6.984375 53.65625 15.1875 63.9375 
Q 23.390625 74.21875 37.203125 74.21875 
Q 40.921875 74.21875 44.703125 73.484375 
Q 48.484375 72.75 52.59375 71.296875 
z
" id="DejaVuSans-54"/>
      </defs>
      <g style="fill:#1a1a1a;" transform="translate(335.877349 457.197656)scale(0.15 -0.15)">
       <use transform="translate(0 0.78125)" xlink:href="#DejaVuSans-54"/>
      </g>
     </g>
    </g>
    <g id="xtick_5">
     <g id="line2d_5">
      <g>
       <use style="fill:#1a1a1a;stroke:#1a1a1a;stroke-width:0.8;" x="433.777383" xlink:href="#m584df00fc5" y="439.8"/>
      </g>
     </g>
     <g id="text_5">
      <!-- $\mathdefault{8}$ -->
      <defs>
       <path d="M 31.78125 34.625 
Q 24.75 34.625 20.71875 30.859375 
Q 16.703125 27.09375 16.703125 20.515625 
Q 16.703125 13.921875 20.71875 10.15625 
Q 24.75 6.390625 31.78125 6.390625 
Q 38.8125 6.390625 42.859375 10.171875 
Q 46.921875 13.96875 46.921875 20.515625 
Q 46.921875 27.09375 42.890625 30.859375 
Q 38.875 34.625 31.78125 34.625 
z
M 21.921875 38.8125 
Q 15.578125 40.375 12.03125 44.71875 
Q 8.5 49.078125 8.5 55.328125 
Q 8.5 64.0625 14.71875 69.140625 
Q 20.953125 74.21875 31.78125 74.21875 
Q 42.671875 74.21875 48.875 69.140625 
Q 55.078125 64.0625 55.078125 55.328125 
Q 55.078125 49.078125 51.53125 44.71875 
Q 48 40.375 41.703125 38.8125 
Q 48.828125 37.15625 52.796875 32.3125 
Q 56.78125 27.484375 56.78125 20.515625 
Q 56.78125 9.90625 50.3125 4.234375 
Q 43.84375 -1.421875 31.78125 -1.421875 
Q 19.734375 -1.421875 13.25 4.234375 
Q 6.78125 9.90625 6.78125 20.515625 
Q 6.78125 27.484375 10.78125 32.3125 
Q 14.796875 37.15625 21.921875 38.8125 
z
M 18.3125 54.390625 
Q 18.3125 48.734375 21.84375 45.5625 
Q 25.390625 42.390625 31.78125 42.390625 
Q 38.140625 42.390625 41.71875 45.5625 
Q 45.3125 48.734375 45.3125 54.390625 
Q 45.3125 60.0625 41.71875 63.234375 
Q 38.140625 66.40625 31.78125 66.40625 
Q 25.390625 66.40625 21.84375 63.234375 
Q 18.3125 60.0625 18.3125 54.390625 
z
" id="DejaVuSans-56"/>
      </defs>
      <g style="fill:#1a1a1a;" transform="translate(428.977383 457.197656)scale(0.15 -0.15)">
       <use transform="translate(0 0.78125)" xlink:href="#DejaVuSans-56"/>
      </g>
     </g>
    </g>
    <g id="xtick_6">
     <g id="line2d_6">
      <g>
       <use style="fill:#1a1a1a;stroke:#1a1a1a;stroke-width:0.8;" x="526.877417" xlink:href="#m584df00fc5" y="439.8"/>
      </g>
     </g>
     <g id="text_6">
      <!-- $\mathdefault{10}$ -->
      <defs>
       <path d="M 12.40625 8.296875 
L 28.515625 8.296875 
L 28.515625 63.921875 
L 10.984375 60.40625 
L 10.984375 69.390625 
L 28.421875 72.90625 
L 38.28125 72.90625 
L 38.28125 8.296875 
L 54.390625 8.296875 
L 54.390625 0 
L 12.40625 0 
z
" id="DejaVuSans-49"/>
      </defs>
      <g style="fill:#1a1a1a;" transform="translate(517.277417 457.197656)scale(0.15 -0.15)">
       <use transform="translate(0 0.78125)" xlink:href="#DejaVuSans-49"/>
       <use transform="translate(63.623047 0.78125)" xlink:href="#DejaVuSans-48"/>
      </g>
     </g>
    </g>
    <g id="xtick_7">
     <g id="line2d_7">
      <defs>
       <path d="M 0 0 
L 0 -3 
" id="mf8117b5f41" style="stroke:#1a1a1a;stroke-width:0.6;"/>
      </defs>
      <g>
       <use style="fill:#1a1a1a;stroke:#1a1a1a;stroke-width:0.6;" x="84.652255" xlink:href="#mf8117b5f41" y="439.8"/>
      </g>
     </g>
    </g>
    <g id="xtick_8">
     <g id="line2d_8">
      <g>
       <use style="fill:#1a1a1a;stroke:#1a1a1a;stroke-width:0.6;" x="107.927263" xlink:href="#mf8117b5f41" y="439.8"/>
      </g>
     </g>
    </g>
    <g id="xtick_9">
     <g id="line2d_9">
      <g>
       <use style="fill:#1a1a1a;stroke:#1a1a1a;stroke-width:0.6;" x="131.202272" xlink:href="#mf8117b5f41" y="439.8"/>
      </g>
     </g>
    </g>
    <g id="xtick_10">
     <g id="line2d_10">
      <g>
       <use style="fill:#1a1a1a;stroke:#1a1a1a;stroke-width:0.6;" x="177.752289" xlink:href="#mf8117b5f41" y="439.8"/>
      </g>
     </g>
    </g>
    <g id="xtick_11">
     <g id="line2d_11">
      <g>
       <use style="fill:#1a1a1a;stroke:#1a1a1a;stroke-width:0.6;" x="201.027297" xlink:href="#mf8117b5f41" y="439.8"/>
      </g>
     </g>
    </g>
    <g id="xtick_12">
     <g id="line2d_12">
      <g>
       <use style="fill:#1a1a1a;stroke:#1a1a1a;stroke-width:0.6;" x="224.302306" xlink:href="#mf8117b5f41" y="439.8"/>
      </g>
     </g>
    </g>
    <g id="xtick_13">
     <g id="line2d_13">
      <g>
       <use style="fill:#1a1a1a;stroke:#1a1a1a;stroke-width:0.6;" x="270.852323" xlink:href="#mf8117b5f41" y="439.8"/>
      </g>
     </g>
    </g>
    <g id="xtick_14">
     <g id="line2d_14">
      <g>
       <use style="fill:#1a1a1a;stroke:#1a1a1a;stroke-width:0.6;" x="294.127332" xlink:href="#mf8117b5f41" y="439.8"/>
      </g>
     </g>
    </g>
    <g id="xtick_15">
     <g id="line2d_15">
      <g>
       <use style="fill:#1a1a1a;stroke:#1a1a1a;stroke-width:0.6;" x="317.40234" xlink:href="#mf8117b5f41" y="439.8"/>
      </g>
     </g>
    </g>
    <g id="xtick_16">
     <g id="line2d_16">
      <g>
       <use style="fill:#1a1a1a;stroke:#1a1a1a;stroke-width:0.6;" x="363.952357" xlink:href="#mf8117b5f41" y="439.8"/>
      </g>
     </g>
    </g>
    <g id="xtick_17">
     <g id="line2d_17">
      <g>
       <use style="fill:#1a1a1a;stroke:#1a1a1a;stroke-width:0.6;" x="387.227366" xlink:href="#mf8117b5f41" y="439.8"/>
      </g>
     </g>
    </g>
    <g id="xtick_18">
     <g id="line2d_18">
      <g>
       <use style="fill:#1a1a1a;stroke:#1a1a1a;stroke-width:0.6;" x="410.502374" xlink:href="#mf8117b5f41" y="439.8"/>
      </g>
     </g>
    </g>
    <g id="xtick_19">
     <g id="line2d_19">
      <g>
       <use style="fill:#1a1a1a;stroke:#1a1a1a;stroke-width:0.6;" x="457.052391" xlink:href="#mf8117b5f41" y="439.8"/>
      </g>
     </g>
    </g>
    <g id="xtick_20">
     <g id="line2d_20">
      <g>
       <use style="fill:#1a1a1a;stroke:#1a1a1a;stroke-width:0.6;" x="480.3274" xlink:href="#mf8117b5f41" y="439.8"/>
      </g>
     </g>
    </g>
    <g id="xtick_21">
     <g id="line2d_21">
      <g>
       <use style="fill:#1a1a1a;stroke:#1a1a1a;stroke-width:0.6;" x="503.602408" xlink:href="#mf8117b5f41" y="439.8"/>
      </g>
     </g>
    </g>
    <g id="text_7">
     <!-- ROE mass [GeV] -->
     <defs>
      <path d="M 44.390625 34.1875 
Q 47.5625 33.109375 50.5625 29.59375 
Q 53.5625 26.078125 56.59375 19.921875 
L 66.609375 0 
L 56 0 
L 46.6875 18.703125 
Q 43.0625 26.03125 39.671875 28.421875 
Q 36.28125 30.8125 30.421875 30.8125 
L 19.671875 30.8125 
L 19.671875 0 
L 9.8125 0 
L 9.8125 72.90625 
L 32.078125 72.90625 
Q 44.578125 72.90625 50.734375 67.671875 
Q 56.890625 62.453125 56.890625 51.90625 
Q 56.890625 45.015625 53.6875 40.46875 
Q 50.484375 35.9375 44.390625 34.1875 
z
M 19.671875 64.796875 
L 19.671875 38.921875 
L 32.078125 38.921875 
Q 39.203125 38.921875 42.84375 42.21875 
Q 46.484375 45.515625 46.484375 51.90625 
Q 46.484375 58.296875 42.84375 61.546875 
Q 39.203125 64.796875 32.078125 64.796875 
z
" id="DejaVuSans-82"/>
      <path d="M 39.40625 66.21875 
Q 28.65625 66.21875 22.328125 58.203125 
Q 16.015625 50.203125 16.015625 36.375 
Q 16.015625 22.609375 22.328125 14.59375 
Q 28.65625 6.59375 39.40625 6.59375 
Q 50.140625 6.59375 56.421875 14.59375 
Q 62.703125 22.609375 62.703125 36.375 
Q 62.703125 50.203125 56.421875 58.203125 
Q 50.140625 66.21875 39.40625 66.21875 
z
M 39.40625 74.21875 
Q 54.734375 74.21875 63.90625 63.9375 
Q 73.09375 53.65625 73.09375 36.375 
Q 73.09375 19.140625 63.90625 8.859375 
Q 54.734375 -1.421875 39.40625 -1.421875 
Q 24.03125 -1.421875 14.8125 8.828125 
Q 5.609375 19.09375 5.609375 36.375 
Q 5.609375 53.65625 14.8125 63.9375 
Q 24.03125 74.21875 39.40625 74.21875 
z
" id="DejaVuSans-79"/>
      <path d="M 9.8125 72.90625 
L 55.90625 72.90625 
L 55.90625 64.59375 
L 19.671875 64.59375 
L 19.671875 43.015625 
L 54.390625 43.015625 
L 54.390625 34.71875 
L 19.671875 34.71875 
L 19.671875 8.296875 
L 56.78125 8.296875 
L 56.78125 0 
L 9.8125 0 
z
" id="DejaVuSans-69"/>
      <path id="DejaVuSans-32"/>
      <path d="M 52 44.1875 
Q 55.375 50.25 60.0625 53.125 
Q 64.75 56 71.09375 56 
Q 79.640625 56 84.28125 50.015625 
Q 88.921875 44.046875 88.921875 33.015625 
L 88.921875 0 
L 79.890625 0 
L 79.890625 32.71875 
Q 79.890625 40.578125 77.09375 44.375 
Q 74.3125 48.1875 68.609375 48.1875 
Q 61.625 48.1875 57.5625 43.546875 
Q 53.515625 38.921875 53.515625 30.90625 
L 53.515625 0 
L 44.484375 0 
L 44.484375 32.71875 
Q 44.484375 40.625 41.703125 44.40625 
Q 38.921875 48.1875 33.109375 48.1875 
Q 26.21875 48.1875 22.15625 43.53125 
Q 18.109375 38.875 18.109375 30.90625 
L 18.109375 0 
L 9.078125 0 
L 9.078125 54.6875 
L 18.109375 54.6875 
L 18.109375 46.1875 
Q 21.1875 51.21875 25.484375 53.609375 
Q 29.78125 56 35.6875 56 
Q 41.65625 56 45.828125 52.96875 
Q 50 49.953125 52 44.1875 
z
" id="DejaVuSans-109"/>
      <path d="M 34.28125 27.484375 
Q 23.390625 27.484375 19.1875 25 
Q 14.984375 22.515625 14.984375 16.5 
Q 14.984375 11.71875 18.140625 8.90625 
Q 21.296875 6.109375 26.703125 6.109375 
Q 34.1875 6.109375 38.703125 11.40625 
Q 43.21875 16.703125 43.21875 25.484375 
L 43.21875 27.484375 
z
M 52.203125 31.203125 
L 52.203125 0 
L 43.21875 0 
L 43.21875 8.296875 
Q 40.140625 3.328125 35.546875 0.953125 
Q 30.953125 -1.421875 24.3125 -1.421875 
Q 15.921875 -1.421875 10.953125 3.296875 
Q 6 8.015625 6 15.921875 
Q 6 25.140625 12.171875 29.828125 
Q 18.359375 34.515625 30.609375 34.515625 
L 43.21875 34.515625 
L 43.21875 35.40625 
Q 43.21875 41.609375 39.140625 45 
Q 35.0625 48.390625 27.6875 48.390625 
Q 23 48.390625 18.546875 47.265625 
Q 14.109375 46.140625 10.015625 43.890625 
L 10.015625 52.203125 
Q 14.9375 54.109375 19.578125 55.046875 
Q 24.21875 56 28.609375 56 
Q 40.484375 56 46.34375 49.84375 
Q 52.203125 43.703125 52.203125 31.203125 
z
" id="DejaVuSans-97"/>
      <path d="M 44.28125 53.078125 
L 44.28125 44.578125 
Q 40.484375 46.53125 36.375 47.5 
Q 32.28125 48.484375 27.875 48.484375 
Q 21.1875 48.484375 17.84375 46.4375 
Q 14.5 44.390625 14.5 40.28125 
Q 14.5 37.15625 16.890625 35.375 
Q 19.28125 33.59375 26.515625 31.984375 
L 29.59375 31.296875 
Q 39.15625 29.25 43.1875 25.515625 
Q 47.21875 21.78125 47.21875 15.09375 
Q 47.21875 7.46875 41.1875 3.015625 
Q 35.15625 -1.421875 24.609375 -1.421875 
Q 20.21875 -1.421875 15.453125 -0.5625 
Q 10.6875 0.296875 5.421875 2 
L 5.421875 11.28125 
Q 10.40625 8.6875 15.234375 7.390625 
Q 20.0625 6.109375 24.8125 6.109375 
Q 31.15625 6.109375 34.5625 8.28125 
Q 37.984375 10.453125 37.984375 14.40625 
Q 37.984375 18.0625 35.515625 20.015625 
Q 33.0625 21.96875 24.703125 23.78125 
L 21.578125 24.515625 
Q 13.234375 26.265625 9.515625 29.90625 
Q 5.8125 33.546875 5.8125 39.890625 
Q 5.8125 47.609375 11.28125 51.796875 
Q 16.75 56 26.8125 56 
Q 31.78125 56 36.171875 55.265625 
Q 40.578125 54.546875 44.28125 53.078125 
z
" id="DejaVuSans-115"/>
      <path d="M 8.59375 75.984375 
L 29.296875 75.984375 
L 29.296875 69 
L 17.578125 69 
L 17.578125 -6.203125 
L 29.296875 -6.203125 
L 29.296875 -13.1875 
L 8.59375 -13.1875 
z
" id="DejaVuSans-91"/>
      <path d="M 59.515625 10.40625 
L 59.515625 29.984375 
L 43.40625 29.984375 
L 43.40625 38.09375 
L 69.28125 38.09375 
L 69.28125 6.78125 
Q 63.578125 2.734375 56.6875 0.65625 
Q 49.8125 -1.421875 42 -1.421875 
Q 24.90625 -1.421875 15.25 8.5625 
Q 5.609375 18.5625 5.609375 36.375 
Q 5.609375 54.25 15.25 64.234375 
Q 24.90625 74.21875 42 74.21875 
Q 49.125 74.21875 55.546875 72.453125 
Q 61.96875 70.703125 67.390625 67.28125 
L 67.390625 56.78125 
Q 61.921875 61.421875 55.765625 63.765625 
Q 49.609375 66.109375 42.828125 66.109375 
Q 29.4375 66.109375 22.71875 58.640625 
Q 16.015625 51.171875 16.015625 36.375 
Q 16.015625 21.625 22.71875 14.15625 
Q 29.4375 6.6875 42.828125 6.6875 
Q 48.046875 6.6875 52.140625 7.59375 
Q 56.25 8.5 59.515625 10.40625 
z
" id="DejaVuSans-71"/>
      <path d="M 56.203125 29.59375 
L 56.203125 25.203125 
L 14.890625 25.203125 
Q 15.484375 15.921875 20.484375 11.0625 
Q 25.484375 6.203125 34.421875 6.203125 
Q 39.59375 6.203125 44.453125 7.46875 
Q 49.3125 8.734375 54.109375 11.28125 
L 54.109375 2.78125 
Q 49.265625 0.734375 44.1875 -0.34375 
Q 39.109375 -1.421875 33.890625 -1.421875 
Q 20.796875 -1.421875 13.15625 6.1875 
Q 5.515625 13.8125 5.515625 26.8125 
Q 5.515625 40.234375 12.765625 48.109375 
Q 20.015625 56 32.328125 56 
Q 43.359375 56 49.78125 48.890625 
Q 56.203125 41.796875 56.203125 29.59375 
z
M 47.21875 32.234375 
Q 47.125 39.59375 43.09375 43.984375 
Q 39.0625 48.390625 32.421875 48.390625 
Q 24.90625 48.390625 20.390625 44.140625 
Q 15.875 39.890625 15.1875 32.171875 
z
" id="DejaVuSans-101"/>
      <path d="M 28.609375 0 
L 0.78125 72.90625 
L 11.078125 72.90625 
L 34.1875 11.53125 
L 57.328125 72.90625 
L 67.578125 72.90625 
L 39.796875 0 
z
" id="DejaVuSans-86"/>
      <path d="M 30.421875 75.984375 
L 30.421875 -13.1875 
L 9.71875 -13.1875 
L 9.71875 -6.203125 
L 21.390625 -6.203125 
L 21.390625 69 
L 9.71875 69 
L 9.71875 75.984375 
z
" id="DejaVuSans-93"/>
     </defs>
     <g style="fill:#1a1a1a;" transform="translate(203.566394 483.03375)scale(0.22 -0.22)">
      <use xlink:href="#DejaVuSans-82"/>
      <use x="69.482422" xlink:href="#DejaVuSans-79"/>
      <use x="148.193359" xlink:href="#DejaVuSans-69"/>
      <use x="211.376953" xlink:href="#DejaVuSans-32"/>
      <use x="243.164062" xlink:href="#DejaVuSans-109"/>
      <use x="340.576172" xlink:href="#DejaVuSans-97"/>
      <use x="401.855469" xlink:href="#DejaVuSans-115"/>
      <use x="453.955078" xlink:href="#DejaVuSans-115"/>
      <use x="506.054688" xlink:href="#DejaVuSans-32"/>
      <use x="537.841797" xlink:href="#DejaVuSans-91"/>
      <use x="576.855469" xlink:href="#DejaVuSans-71"/>
      <use x="654.345703" xlink:href="#DejaVuSans-101"/>
      <use x="715.869141" xlink:href="#DejaVuSans-86"/>
      <use x="784.277344" xlink:href="#DejaVuSans-93"/>
     </g>
    </g>
   </g>
   <g id="matplotlib.axis_2">
    <g id="ytick_1">
     <g id="line2d_22">
      <defs>
       <path d="M 0 0 
L 6 0 
" id="m6da6447f66" style="stroke:#1a1a1a;stroke-width:0.8;"/>
      </defs>
      <g>
       <use style="fill:#1a1a1a;stroke:#1a1a1a;stroke-width:0.8;" x="61.377246" xlink:href="#m6da6447f66" y="439.8"/>
      </g>
     </g>
     <g id="text_8">
      <!-- $\mathdefault{0}$ -->
      <g style="fill:#1a1a1a;" transform="translate(45.777246 445.498828)scale(0.15 -0.15)">
       <use transform="translate(0 0.78125)" xlink:href="#DejaVuSans-48"/>
      </g>
     </g>
    </g>
    <g id="ytick_2">
     <g id="line2d_23">
      <g>
       <use style="fill:#1a1a1a;stroke:#1a1a1a;stroke-width:0.8;" x="61.377246" xlink:href="#m6da6447f66" y="370.283333"/>
      </g>
     </g>
     <g id="text_9">
      <!-- $\mathdefault{200}$ -->
      <g style="fill:#1a1a1a;" transform="translate(26.727246 375.982161)scale(0.15 -0.15)">
       <use transform="translate(0 0.78125)" xlink:href="#DejaVuSans-50"/>
       <use transform="translate(63.623047 0.78125)" xlink:href="#DejaVuSans-48"/>
       <use transform="translate(127.246094 0.78125)" xlink:href="#DejaVuSans-48"/>
      </g>
     </g>
    </g>
    <g id="ytick_3">
     <g id="line2d_24">
      <g>
       <use style="fill:#1a1a1a;stroke:#1a1a1a;stroke-width:0.8;" x="61.377246" xlink:href="#m6da6447f66" y="300.766667"/>
      </g>
     </g>
     <g id="text_10">
      <!-- $\mathdefault{400}$ -->
      <g style="fill:#1a1a1a;" transform="translate(26.727246 306.465495)scale(0.15 -0.15)">
       <use transform="translate(0 0.78125)" xlink:href="#DejaVuSans-52"/>
       <use transform="translate(63.623047 0.78125)" xlink:href="#DejaVuSans-48"/>
       <use transform="translate(127.246094 0.78125)" xlink:href="#DejaVuSans-48"/>
      </g>
     </g>
    </g>
    <g id="ytick_4">
     <g id="line2d_25">
      <g>
       <use style="fill:#1a1a1a;stroke:#1a1a1a;stroke-width:0.8;" x="61.377246" xlink:href="#m6da6447f66" y="231.25"/>
      </g>
     </g>
     <g id="text_11">
      <!-- $\mathdefault{600}$ -->
      <g style="fill:#1a1a1a;" transform="translate(26.727246 236.948828)scale(0.15 -0.15)">
       <use transform="translate(0 0.78125)" xlink:href="#DejaVuSans-54"/>
       <use transform="translate(63.623047 0.78125)" xlink:href="#DejaVuSans-48"/>
       <use transform="translate(127.246094 0.78125)" xlink:href="#DejaVuSans-48"/>
      </g>
     </g>
    </g>
    <g id="ytick_5">
     <g id="line2d_26">
      <g>
       <use style="fill:#1a1a1a;stroke:#1a1a1a;stroke-width:0.8;" x="61.377246" xlink:href="#m6da6447f66" y="161.733333"/>
      </g>
     </g>
     <g id="text_12">
      <!-- $\mathdefault{800}$ -->
      <g style="fill:#1a1a1a;" transform="translate(26.727246 167.432161)scale(0.15 -0.15)">
       <use transform="translate(0 0.78125)" xlink:href="#DejaVuSans-56"/>
       <use transform="translate(63.623047 0.78125)" xlink:href="#DejaVuSans-48"/>
       <use transform="translate(127.246094 0.78125)" xlink:href="#DejaVuSans-48"/>
      </g>
     </g>
    </g>
    <g id="ytick_6">
     <g id="line2d_27">
      <g>
       <use style="fill:#1a1a1a;stroke:#1a1a1a;stroke-width:0.8;" x="61.377246" xlink:href="#m6da6447f66" y="92.216667"/>
      </g>
     </g>
     <g id="text_13">
      <!-- $\mathdefault{1000}$ -->
      <g style="fill:#1a1a1a;" transform="translate(17.127246 97.915495)scale(0.15 -0.15)">
       <use transform="translate(0 0.78125)" xlink:href="#DejaVuSans-49"/>
       <use transform="translate(63.623047 0.78125)" xlink:href="#DejaVuSans-48"/>
       <use transform="translate(127.246094 0.78125)" xlink:href="#DejaVuSans-48"/>
       <use transform="translate(190.869141 0.78125)" xlink:href="#DejaVuSans-48"/>
      </g>
     </g>
    </g>
    <g id="ytick_7">
     <g id="line2d_28">
      <g>
       <use style="fill:#1a1a1a;stroke:#1a1a1a;stroke-width:0.8;" x="61.377246" xlink:href="#m6da6447f66" y="22.7"/>
      </g>
     </g>
     <g id="text_14">
      <!-- $\mathdefault{1200}$ -->
      <g style="fill:#1a1a1a;" transform="translate(17.127246 28.398828)scale(0.15 -0.15)">
       <use transform="translate(0 0.78125)" xlink:href="#DejaVuSans-49"/>
       <use transform="translate(63.623047 0.78125)" xlink:href="#DejaVuSans-50"/>
       <use transform="translate(127.246094 0.78125)" xlink:href="#DejaVuSans-48"/>
       <use transform="translate(190.869141 0.78125)" xlink:href="#DejaVuSans-48"/>
      </g>
     </g>
    </g>
    <g id="ytick_8">
     <g id="line2d_29">
      <defs>
       <path d="M 0 0 
L 3 0 
" id="m72be39149c" style="stroke:#1a1a1a;stroke-width:0.6;"/>
      </defs>
      <g>
       <use style="fill:#1a1a1a;stroke:#1a1a1a;stroke-width:0.6;" x="61.377246" xlink:href="#m72be39149c" y="422.420833"/>
      </g>
     </g>
    </g>
    <g id="ytick_9">
     <g id="line2d_30">
      <g>
       <use style="fill:#1a1a1a;stroke:#1a1a1a;stroke-width:0.6;" x="61.377246" xlink:href="#m72be39149c" y="405.041667"/>
      </g>
     </g>
    </g>
    <g id="ytick_10">
     <g id="line2d_31">
      <g>
       <use style="fill:#1a1a1a;stroke:#1a1a1a;stroke-width:0.6;" x="61.377246" xlink:href="#m72be39149c" y="387.6625"/>
      </g>
     </g>
    </g>
    <g id="ytick_11">
     <g id="line2d_32">
      <g>
       <use style="fill:#1a1a1a;stroke:#1a1a1a;stroke-width:0.6;" x="61.377246" xlink:href="#m72be39149c" y="352.904167"/>
      </g>
     </g>
    </g>
    <g id="ytick_12">
     <g id="line2d_33">
      <g>
       <use style="fill:#1a1a1a;stroke:#1a1a1a;stroke-width:0.6;" x="61.377246" xlink:href="#m72be39149c" y="335.525"/>
      </g>
     </g>
    </g>
    <g id="ytick_13">
     <g id="line2d_34">
      <g>
       <use style="fill:#1a1a1a;stroke:#1a1a1a;stroke-width:0.6;" x="61.377246" xlink:href="#m72be39149c" y="318.145833"/>
      </g>
     </g>
    </g>
    <g id="ytick_14">
     <g id="line2d_35">
      <g>
       <use style="fill:#1a1a1a;stroke:#1a1a1a;stroke-width:0.6;" x="61.377246" xlink:href="#m72be39149c" y="283.3875"/>
      </g>
     </g>
    </g>
    <g id="ytick_15">
     <g id="line2d_36">
      <g>
       <use style="fill:#1a1a1a;stroke:#1a1a1a;stroke-width:0.6;" x="61.377246" xlink:href="#m72be39149c" y="266.008333"/>
      </g>
     </g>
    </g>
    <g id="ytick_16">
     <g id="line2d_37">
      <g>
       <use style="fill:#1a1a1a;stroke:#1a1a1a;stroke-width:0.6;" x="61.377246" xlink:href="#m72be39149c" y="248.629167"/>
      </g>
     </g>
    </g>
    <g id="ytick_17">
     <g id="line2d_38">
      <g>
       <use style="fill:#1a1a1a;stroke:#1a1a1a;stroke-width:0.6;" x="61.377246" xlink:href="#m72be39149c" y="213.870833"/>
      </g>
     </g>
    </g>
    <g id="ytick_18">
     <g id="line2d_39">
      <g>
       <use style="fill:#1a1a1a;stroke:#1a1a1a;stroke-width:0.6;" x="61.377246" xlink:href="#m72be39149c" y="196.491667"/>
      </g>
     </g>
    </g>
    <g id="ytick_19">
     <g id="line2d_40">
      <g>
       <use style="fill:#1a1a1a;stroke:#1a1a1a;stroke-width:0.6;" x="61.377246" xlink:href="#m72be39149c" y="179.1125"/>
      </g>
     </g>
    </g>
    <g id="ytick_20">
     <g id="line2d_41">
      <g>
       <use style="fill:#1a1a1a;stroke:#1a1a1a;stroke-width:0.6;" x="61.377246" xlink:href="#m72be39149c" y="144.354167"/>
      </g>
     </g>
    </g>
    <g id="ytick_21">
     <g id="line2d_42">
      <g>
       <use style="fill:#1a1a1a;stroke:#1a1a1a;stroke-width:0.6;" x="61.377246" xlink:href="#m72be39149c" y="126.975"/>
      </g>
     </g>
    </g>
    <g id="ytick_22">
     <g id="line2d_43">
      <g>
       <use style="fill:#1a1a1a;stroke:#1a1a1a;stroke-width:0.6;" x="61.377246" xlink:href="#m72be39149c" y="109.595833"/>
      </g>
     </g>
    </g>
    <g id="ytick_23">
     <g id="line2d_44">
      <g>
       <use style="fill:#1a1a1a;stroke:#1a1a1a;stroke-width:0.6;" x="61.377246" xlink:href="#m72be39149c" y="74.8375"/>
      </g>
     </g>
    </g>
    <g id="ytick_24">
     <g id="line2d_45">
      <g>
       <use style="fill:#1a1a1a;stroke:#1a1a1a;stroke-width:0.6;" x="61.377246" xlink:href="#m72be39149c" y="57.458333"/>
      </g>
     </g>
    </g>
    <g id="ytick_25">
     <g id="line2d_46">
      <g>
       <use style="fill:#1a1a1a;stroke:#1a1a1a;stroke-width:0.6;" x="61.377246" xlink:href="#m72be39149c" y="40.079167"/>
      </g>
     </g>
    </g>
   </g>
  </g>
  <g id="axes_2">
   <g id="patch_107">
    <path d="M 598.299829 439.8 
L 1063.8 439.8 
L 1063.8 22.7 
L 598.299829 22.7 
z
" style="fill:#ffffff;"/>
   </g>
   <g id="patch_108">
    <path clip-path="url(#p0b5206c6ce)" d="M 598.299829 439.8 
L 629.333174 439.8 
L 629.333174 438.5487 
L 598.299829 438.5487 
z
" style="fill:#348abd;opacity:0.6;"/>
   </g>
   <g id="patch_109">
    <path clip-path="url(#p0b5206c6ce)" d="M 629.333174 439.8 
L 660.366519 439.8 
L 660.366519 427.982167 
L 629.333174 427.982167 
z
" style="fill:#348abd;opacity:0.6;"/>
   </g>
   <g id="patch_110">
    <path clip-path="url(#p0b5206c6ce)" d="M 660.366519 439.8 
L 691.399863 439.8 
L 691.399863 349.2893 
L 660.366519 349.2893 
z
" style="fill:#348abd;opacity:0.6;"/>
   </g>
   <g id="patch_111">
    <path clip-path="url(#p0b5206c6ce)" d="M 691.399863 439.8 
L 722.433208 439.8 
L 722.433208 334.412733 
L 691.399863 334.412733 
z
" style="fill:#348abd;opacity:0.6;"/>
   </g>
   <g id="patch_112">
    <path clip-path="url(#p0b5206c6ce)" d="M 722.433208 439.8 
L 753.466553 439.8 
L 753.466553 143.102867 
L 722.433208 143.102867 
z
" style="fill:#348abd;opacity:0.6;"/>
   </g>
   <g id="patch_113">
    <path clip-path="url(#p0b5206c6ce)" d="M 753.466553 439.8 
L 784.499897 439.8 
L 784.499897 219.293133 
L 753.466553 219.293133 
z
" style="fill:#348abd;opacity:0.6;"/>
   </g>
   <g id="patch_114">
    <path clip-path="url(#p0b5206c6ce)" d="M 784.499897 439.8 
L 815.533242 439.8 
L 815.533242 159.230733 
L 784.499897 159.230733 
z
" style="fill:#348abd;opacity:0.6;"/>
   </g>
   <g id="patch_115">
    <path clip-path="url(#p0b5206c6ce)" d="M 815.533242 439.8 
L 846.566587 439.8 
L 846.566587 221.795733 
L 815.533242 221.795733 
z
" style="fill:#348abd;opacity:0.6;"/>
   </g>
   <g id="patch_116">
    <path clip-path="url(#p0b5206c6ce)" d="M 846.566587 439.8 
L 877.599932 439.8 
L 877.599932 245.709467 
L 846.566587 245.709467 
z
" style="fill:#348abd;opacity:0.6;"/>
   </g>
   <g id="patch_117">
    <path clip-path="url(#p0b5206c6ce)" d="M 877.599932 439.8 
L 908.633276 439.8 
L 908.633276 313.279667 
L 877.599932 313.279667 
z
" style="fill:#348abd;opacity:0.6;"/>
   </g>
   <g id="patch_118">
    <path clip-path="url(#p0b5206c6ce)" d="M 908.633276 439.8 
L 939.666621 439.8 
L 939.666621 347.481867 
L 908.633276 347.481867 
z
" style="fill:#348abd;opacity:0.6;"/>
   </g>
   <g id="patch_119">
    <path clip-path="url(#p0b5206c6ce)" d="M 939.666621 439.8 
L 970.699966 439.8 
L 970.699966 382.935367 
L 939.666621 382.935367 
z
" style="fill:#348abd;opacity:0.6;"/>
   </g>
   <g id="patch_120">
    <path clip-path="url(#p0b5206c6ce)" d="M 970.699966 439.8 
L 1001.733311 439.8 
L 1001.733311 404.485533 
L 970.699966 404.485533 
z
" style="fill:#348abd;opacity:0.6;"/>
   </g>
   <g id="patch_121">
    <path clip-path="url(#p0b5206c6ce)" d="M 1001.733311 439.8 
L 1032.766655 439.8 
L 1032.766655 417.832733 
L 1001.733311 417.832733 
z
" style="fill:#348abd;opacity:0.6;"/>
   </g>
   <g id="patch_122">
    <path clip-path="url(#p0b5206c6ce)" d="M 1032.766655 439.8 
L 1063.8 439.8 
L 1063.8 419.7792 
L 1032.766655 419.7792 
z
" style="fill:#348abd;opacity:0.6;"/>
   </g>
   <g id="patch_123">
    <path clip-path="url(#p0b5206c6ce)" d="M 598.299829 439.8 
L 629.333174 439.8 
L 629.333174 437.2974 
L 598.299829 437.2974 
z
" style="fill:#e24a33;opacity:0.6;"/>
   </g>
   <g id="patch_124">
    <path clip-path="url(#p0b5206c6ce)" d="M 629.333174 439.8 
L 660.366519 439.8 
L 660.366519 412.549467 
L 629.333174 412.549467 
z
" style="fill:#e24a33;opacity:0.6;"/>
   </g>
   <g id="patch_125">
    <path clip-path="url(#p0b5206c6ce)" d="M 660.366519 439.8 
L 691.399863 439.8 
L 691.399863 296.7347 
L 660.366519 296.7347 
z
" style="fill:#e24a33;opacity:0.6;"/>
   </g>
   <g id="patch_126">
    <path clip-path="url(#p0b5206c6ce)" d="M 691.399863 439.8 
L 722.433208 439.8 
L 722.433208 228.469333 
L 691.399863 228.469333 
z
" style="fill:#e24a33;opacity:0.6;"/>
   </g>
   <g id="patch_127">
    <path clip-path="url(#p0b5206c6ce)" d="M 722.433208 439.8 
L 753.466553 439.8 
L 753.466553 47.169867 
L 722.433208 47.169867 
z
" style="fill:#e24a33;opacity:0.6;"/>
   </g>
   <g id="patch_128">
    <path clip-path="url(#p0b5206c6ce)" d="M 753.466553 439.8 
L 784.499897 439.8 
L 784.499897 173.551167 
L 753.466553 173.551167 
z
" style="fill:#e24a33;opacity:0.6;"/>
   </g>
   <g id="patch_129">
    <path clip-path="url(#p0b5206c6ce)" d="M 784.499897 439.8 
L 815.533242 439.8 
L 815.533242 127.253067 
L 784.499897 127.253067 
z
" style="fill:#e24a33;opacity:0.6;"/>
   </g>
   <g id="patch_130">
    <path clip-path="url(#p0b5206c6ce)" d="M 815.533242 439.8 
L 846.566587 439.8 
L 846.566587 260.447 
L 815.533242 260.447 
z
" style="fill:#e24a33;opacity:0.6;"/>
   </g>
   <g id="patch_131">
    <path clip-path="url(#p0b5206c6ce)" d="M 846.566587 439.8 
L 877.599932 439.8 
L 877.599932 316.199367 
L 846.566587 316.199367 
z
" style="fill:#e24a33;opacity:0.6;"/>
   </g>
   <g id="patch_132">
    <path clip-path="url(#p0b5206c6ce)" d="M 877.599932 439.8 
L 908.633276 439.8 
L 908.633276 374.176267 
L 877.599932 374.176267 
z
" style="fill:#e24a33;opacity:0.6;"/>
   </g>
   <g id="patch_133">
    <path clip-path="url(#p0b5206c6ce)" d="M 908.633276 439.8 
L 939.666621 439.8 
L 939.666621 411.715267 
L 908.633276 411.715267 
z
" style="fill:#e24a33;opacity:0.6;"/>
   </g>
   <g id="patch_134">
    <path clip-path="url(#p0b5206c6ce)" d="M 939.666621 439.8 
L 970.699966 439.8 
L 970.699966 424.228267 
L 939.666621 424.228267 
z
" style="fill:#e24a33;opacity:0.6;"/>
   </g>
   <g id="patch_135">
    <path clip-path="url(#p0b5206c6ce)" d="M 970.699966 439.8 
L 1001.733311 439.8 
L 1001.733311 432.153167 
L 970.699966 432.153167 
z
" style="fill:#e24a33;opacity:0.6;"/>
   </g>
   <g id="patch_136">
    <path clip-path="url(#p0b5206c6ce)" d="M 1001.733311 439.8 
L 1032.766655 439.8 
L 1032.766655 437.2974 
L 1001.733311 437.2974 
z
" style="fill:#e24a33;opacity:0.6;"/>
   </g>
   <g id="patch_137">
    <path clip-path="url(#p0b5206c6ce)" d="M 1032.766655 439.8 
L 1063.8 439.8 
L 1063.8 437.158367 
L 1032.766655 437.158367 
z
" style="fill:#e24a33;opacity:0.6;"/>
   </g>
   <g id="patch_138">
    <path d="M 598.299829 439.8 
L 598.299829 22.7 
" style="fill:none;stroke:#000000;stroke-linecap:square;stroke-linejoin:miter;stroke-width:1.2;"/>
   </g>
   <g id="patch_139">
    <path d="M 1063.8 439.8 
L 1063.8 22.7 
" style="fill:none;stroke:#000000;stroke-linecap:square;stroke-linejoin:miter;stroke-width:1.2;"/>
   </g>
   <g id="patch_140">
    <path d="M 598.299829 439.8 
L 1063.8 439.8 
" style="fill:none;stroke:#000000;stroke-linecap:square;stroke-linejoin:miter;stroke-width:1.2;"/>
   </g>
   <g id="patch_141">
    <path d="M 598.299829 22.7 
L 1063.8 22.7 
" style="fill:none;stroke:#000000;stroke-linecap:square;stroke-linejoin:miter;stroke-width:1.2;"/>
   </g>
   <g id="matplotlib.axis_3">
    <g id="xtick_22">
     <g id="line2d_47">
      <g>
       <use style="fill:#1a1a1a;stroke:#1a1a1a;stroke-width:0.8;" x="598.299829" xlink:href="#m584df00fc5" y="439.8"/>
      </g>
     </g>
     <g id="text_15">
      <!-- $\mathdefault{0}$ -->
      <g style="fill:#1a1a1a;" transform="translate(593.499829 457.197656)scale(0.15 -0.15)">
       <use transform="translate(0 0.78125)" xlink:href="#DejaVuSans-48"/>
      </g>
     </g>
    </g>
    <g id="xtick_23">
     <g id="line2d_48">
      <g>
       <use style="fill:#1a1a1a;stroke:#1a1a1a;stroke-width:0.8;" x="660.366519" xlink:href="#m584df00fc5" y="439.8"/>
      </g>
     </g>
     <g id="text_16">
      <!-- $\mathdefault{2}$ -->
      <g style="fill:#1a1a1a;" transform="translate(655.566519 457.197656)scale(0.15 -0.15)">
       <use transform="translate(0 0.78125)" xlink:href="#DejaVuSans-50"/>
      </g>
     </g>
    </g>
    <g id="xtick_24">
     <g id="line2d_49">
      <g>
       <use style="fill:#1a1a1a;stroke:#1a1a1a;stroke-width:0.8;" x="722.433208" xlink:href="#m584df00fc5" y="439.8"/>
      </g>
     </g>
     <g id="text_17">
      <!-- $\mathdefault{4}$ -->
      <g style="fill:#1a1a1a;" transform="translate(717.633208 457.197656)scale(0.15 -0.15)">
       <use transform="translate(0 0.09375)" xlink:href="#DejaVuSans-52"/>
      </g>
     </g>
    </g>
    <g id="xtick_25">
     <g id="line2d_50">
      <g>
       <use style="fill:#1a1a1a;stroke:#1a1a1a;stroke-width:0.8;" x="784.499897" xlink:href="#m584df00fc5" y="439.8"/>
      </g>
     </g>
     <g id="text_18">
      <!-- $\mathdefault{6}$ -->
      <g style="fill:#1a1a1a;" transform="translate(779.699897 457.197656)scale(0.15 -0.15)">
       <use transform="translate(0 0.78125)" xlink:href="#DejaVuSans-54"/>
      </g>
     </g>
    </g>
    <g id="xtick_26">
     <g id="line2d_51">
      <g>
       <use style="fill:#1a1a1a;stroke:#1a1a1a;stroke-width:0.8;" x="846.566587" xlink:href="#m584df00fc5" y="439.8"/>
      </g>
     </g>
     <g id="text_19">
      <!-- $\mathdefault{8}$ -->
      <g style="fill:#1a1a1a;" transform="translate(841.766587 457.197656)scale(0.15 -0.15)">
       <use transform="translate(0 0.78125)" xlink:href="#DejaVuSans-56"/>
      </g>
     </g>
    </g>
    <g id="xtick_27">
     <g id="line2d_52">
      <g>
       <use style="fill:#1a1a1a;stroke:#1a1a1a;stroke-width:0.8;" x="908.633276" xlink:href="#m584df00fc5" y="439.8"/>
      </g>
     </g>
     <g id="text_20">
      <!-- $\mathdefault{10}$ -->
      <g style="fill:#1a1a1a;" transform="translate(899.033276 457.197656)scale(0.15 -0.15)">
       <use transform="translate(0 0.78125)" xlink:href="#DejaVuSans-49"/>
       <use transform="translate(63.623047 0.78125)" xlink:href="#DejaVuSans-48"/>
      </g>
     </g>
    </g>
    <g id="xtick_28">
     <g id="line2d_53">
      <g>
       <use style="fill:#1a1a1a;stroke:#1a1a1a;stroke-width:0.8;" x="970.699966" xlink:href="#m584df00fc5" y="439.8"/>
      </g>
     </g>
     <g id="text_21">
      <!-- $\mathdefault{12}$ -->
      <g style="fill:#1a1a1a;" transform="translate(961.099966 457.197656)scale(0.15 -0.15)">
       <use transform="translate(0 0.78125)" xlink:href="#DejaVuSans-49"/>
       <use transform="translate(63.623047 0.78125)" xlink:href="#DejaVuSans-50"/>
      </g>
     </g>
    </g>
    <g id="xtick_29">
     <g id="line2d_54">
      <g>
       <use style="fill:#1a1a1a;stroke:#1a1a1a;stroke-width:0.8;" x="1032.766655" xlink:href="#m584df00fc5" y="439.8"/>
      </g>
     </g>
     <g id="text_22">
      <!-- $\mathdefault{14}$ -->
      <g style="fill:#1a1a1a;" transform="translate(1023.166655 457.197656)scale(0.15 -0.15)">
       <use transform="translate(0 0.09375)" xlink:href="#DejaVuSans-49"/>
       <use transform="translate(63.623047 0.09375)" xlink:href="#DejaVuSans-52"/>
      </g>
     </g>
    </g>
    <g id="xtick_30">
     <g id="line2d_55">
      <g>
       <use style="fill:#1a1a1a;stroke:#1a1a1a;stroke-width:0.6;" x="613.816501" xlink:href="#mf8117b5f41" y="439.8"/>
      </g>
     </g>
    </g>
    <g id="xtick_31">
     <g id="line2d_56">
      <g>
       <use style="fill:#1a1a1a;stroke:#1a1a1a;stroke-width:0.6;" x="629.333174" xlink:href="#mf8117b5f41" y="439.8"/>
      </g>
     </g>
    </g>
    <g id="xtick_32">
     <g id="line2d_57">
      <g>
       <use style="fill:#1a1a1a;stroke:#1a1a1a;stroke-width:0.6;" x="644.849846" xlink:href="#mf8117b5f41" y="439.8"/>
      </g>
     </g>
    </g>
    <g id="xtick_33">
     <g id="line2d_58">
      <g>
       <use style="fill:#1a1a1a;stroke:#1a1a1a;stroke-width:0.6;" x="675.883191" xlink:href="#mf8117b5f41" y="439.8"/>
      </g>
     </g>
    </g>
    <g id="xtick_34">
     <g id="line2d_59">
      <g>
       <use style="fill:#1a1a1a;stroke:#1a1a1a;stroke-width:0.6;" x="691.399863" xlink:href="#mf8117b5f41" y="439.8"/>
      </g>
     </g>
    </g>
    <g id="xtick_35">
     <g id="line2d_60">
      <g>
       <use style="fill:#1a1a1a;stroke:#1a1a1a;stroke-width:0.6;" x="706.916536" xlink:href="#mf8117b5f41" y="439.8"/>
      </g>
     </g>
    </g>
    <g id="xtick_36">
     <g id="line2d_61">
      <g>
       <use style="fill:#1a1a1a;stroke:#1a1a1a;stroke-width:0.6;" x="737.94988" xlink:href="#mf8117b5f41" y="439.8"/>
      </g>
     </g>
    </g>
    <g id="xtick_37">
     <g id="line2d_62">
      <g>
       <use style="fill:#1a1a1a;stroke:#1a1a1a;stroke-width:0.6;" x="753.466553" xlink:href="#mf8117b5f41" y="439.8"/>
      </g>
     </g>
    </g>
    <g id="xtick_38">
     <g id="line2d_63">
      <g>
       <use style="fill:#1a1a1a;stroke:#1a1a1a;stroke-width:0.6;" x="768.983225" xlink:href="#mf8117b5f41" y="439.8"/>
      </g>
     </g>
    </g>
    <g id="xtick_39">
     <g id="line2d_64">
      <g>
       <use style="fill:#1a1a1a;stroke:#1a1a1a;stroke-width:0.6;" x="800.01657" xlink:href="#mf8117b5f41" y="439.8"/>
      </g>
     </g>
    </g>
    <g id="xtick_40">
     <g id="line2d_65">
      <g>
       <use style="fill:#1a1a1a;stroke:#1a1a1a;stroke-width:0.6;" x="815.533242" xlink:href="#mf8117b5f41" y="439.8"/>
      </g>
     </g>
    </g>
    <g id="xtick_41">
     <g id="line2d_66">
      <g>
       <use style="fill:#1a1a1a;stroke:#1a1a1a;stroke-width:0.6;" x="831.049915" xlink:href="#mf8117b5f41" y="439.8"/>
      </g>
     </g>
    </g>
    <g id="xtick_42">
     <g id="line2d_67">
      <g>
       <use style="fill:#1a1a1a;stroke:#1a1a1a;stroke-width:0.6;" x="862.083259" xlink:href="#mf8117b5f41" y="439.8"/>
      </g>
     </g>
    </g>
    <g id="xtick_43">
     <g id="line2d_68">
      <g>
       <use style="fill:#1a1a1a;stroke:#1a1a1a;stroke-width:0.6;" x="877.599932" xlink:href="#mf8117b5f41" y="439.8"/>
      </g>
     </g>
    </g>
    <g id="xtick_44">
     <g id="line2d_69">
      <g>
       <use style="fill:#1a1a1a;stroke:#1a1a1a;stroke-width:0.6;" x="893.116604" xlink:href="#mf8117b5f41" y="439.8"/>
      </g>
     </g>
    </g>
    <g id="xtick_45">
     <g id="line2d_70">
      <g>
       <use style="fill:#1a1a1a;stroke:#1a1a1a;stroke-width:0.6;" x="924.149949" xlink:href="#mf8117b5f41" y="439.8"/>
      </g>
     </g>
    </g>
    <g id="xtick_46">
     <g id="line2d_71">
      <g>
       <use style="fill:#1a1a1a;stroke:#1a1a1a;stroke-width:0.6;" x="939.666621" xlink:href="#mf8117b5f41" y="439.8"/>
      </g>
     </g>
    </g>
    <g id="xtick_47">
     <g id="line2d_72">
      <g>
       <use style="fill:#1a1a1a;stroke:#1a1a1a;stroke-width:0.6;" x="955.183293" xlink:href="#mf8117b5f41" y="439.8"/>
      </g>
     </g>
    </g>
    <g id="xtick_48">
     <g id="line2d_73">
      <g>
       <use style="fill:#1a1a1a;stroke:#1a1a1a;stroke-width:0.6;" x="986.216638" xlink:href="#mf8117b5f41" y="439.8"/>
      </g>
     </g>
    </g>
    <g id="xtick_49">
     <g id="line2d_74">
      <g>
       <use style="fill:#1a1a1a;stroke:#1a1a1a;stroke-width:0.6;" x="1001.733311" xlink:href="#mf8117b5f41" y="439.8"/>
      </g>
     </g>
    </g>
    <g id="xtick_50">
     <g id="line2d_75">
      <g>
       <use style="fill:#1a1a1a;stroke:#1a1a1a;stroke-width:0.6;" x="1017.249983" xlink:href="#mf8117b5f41" y="439.8"/>
      </g>
     </g>
    </g>
    <g id="xtick_51">
     <g id="line2d_76">
      <g>
       <use style="fill:#1a1a1a;stroke:#1a1a1a;stroke-width:0.6;" x="1048.283328" xlink:href="#mf8117b5f41" y="439.8"/>
      </g>
     </g>
    </g>
    <g id="xtick_52">
     <g id="line2d_77">
      <g>
       <use style="fill:#1a1a1a;stroke:#1a1a1a;stroke-width:0.6;" x="1063.8" xlink:href="#mf8117b5f41" y="439.8"/>
      </g>
     </g>
    </g>
    <g id="text_23">
     <!-- # of charged ROE particles -->
     <defs>
      <path d="M 51.125 44 
L 36.921875 44 
L 32.8125 27.6875 
L 47.125 27.6875 
z
M 43.796875 71.78125 
L 38.71875 51.515625 
L 52.984375 51.515625 
L 58.109375 71.78125 
L 65.921875 71.78125 
L 60.890625 51.515625 
L 76.125 51.515625 
L 76.125 44 
L 58.984375 44 
L 54.984375 27.6875 
L 70.515625 27.6875 
L 70.515625 20.21875 
L 53.078125 20.21875 
L 48 0 
L 40.1875 0 
L 45.21875 20.21875 
L 30.90625 20.21875 
L 25.875 0 
L 18.015625 0 
L 23.09375 20.21875 
L 7.71875 20.21875 
L 7.71875 27.6875 
L 24.90625 27.6875 
L 29 44 
L 13.28125 44 
L 13.28125 51.515625 
L 30.90625 51.515625 
L 35.890625 71.78125 
z
" id="DejaVuSans-35"/>
      <path d="M 30.609375 48.390625 
Q 23.390625 48.390625 19.1875 42.75 
Q 14.984375 37.109375 14.984375 27.296875 
Q 14.984375 17.484375 19.15625 11.84375 
Q 23.34375 6.203125 30.609375 6.203125 
Q 37.796875 6.203125 41.984375 11.859375 
Q 46.1875 17.53125 46.1875 27.296875 
Q 46.1875 37.015625 41.984375 42.703125 
Q 37.796875 48.390625 30.609375 48.390625 
z
M 30.609375 56 
Q 42.328125 56 49.015625 48.375 
Q 55.71875 40.765625 55.71875 27.296875 
Q 55.71875 13.875 49.015625 6.21875 
Q 42.328125 -1.421875 30.609375 -1.421875 
Q 18.84375 -1.421875 12.171875 6.21875 
Q 5.515625 13.875 5.515625 27.296875 
Q 5.515625 40.765625 12.171875 48.375 
Q 18.84375 56 30.609375 56 
z
" id="DejaVuSans-111"/>
      <path d="M 37.109375 75.984375 
L 37.109375 68.5 
L 28.515625 68.5 
Q 23.6875 68.5 21.796875 66.546875 
Q 19.921875 64.59375 19.921875 59.515625 
L 19.921875 54.6875 
L 34.71875 54.6875 
L 34.71875 47.703125 
L 19.921875 47.703125 
L 19.921875 0 
L 10.890625 0 
L 10.890625 47.703125 
L 2.296875 47.703125 
L 2.296875 54.6875 
L 10.890625 54.6875 
L 10.890625 58.5 
Q 10.890625 67.625 15.140625 71.796875 
Q 19.390625 75.984375 28.609375 75.984375 
z
" id="DejaVuSans-102"/>
      <path d="M 48.78125 52.59375 
L 48.78125 44.1875 
Q 44.96875 46.296875 41.140625 47.34375 
Q 37.3125 48.390625 33.40625 48.390625 
Q 24.65625 48.390625 19.8125 42.84375 
Q 14.984375 37.3125 14.984375 27.296875 
Q 14.984375 17.28125 19.8125 11.734375 
Q 24.65625 6.203125 33.40625 6.203125 
Q 37.3125 6.203125 41.140625 7.25 
Q 44.96875 8.296875 48.78125 10.40625 
L 48.78125 2.09375 
Q 45.015625 0.34375 40.984375 -0.53125 
Q 36.96875 -1.421875 32.421875 -1.421875 
Q 20.0625 -1.421875 12.78125 6.34375 
Q 5.515625 14.109375 5.515625 27.296875 
Q 5.515625 40.671875 12.859375 48.328125 
Q 20.21875 56 33.015625 56 
Q 37.15625 56 41.109375 55.140625 
Q 45.0625 54.296875 48.78125 52.59375 
z
" id="DejaVuSans-99"/>
      <path d="M 54.890625 33.015625 
L 54.890625 0 
L 45.90625 0 
L 45.90625 32.71875 
Q 45.90625 40.484375 42.875 44.328125 
Q 39.84375 48.1875 33.796875 48.1875 
Q 26.515625 48.1875 22.3125 43.546875 
Q 18.109375 38.921875 18.109375 30.90625 
L 18.109375 0 
L 9.078125 0 
L 9.078125 75.984375 
L 18.109375 75.984375 
L 18.109375 46.1875 
Q 21.34375 51.125 25.703125 53.5625 
Q 30.078125 56 35.796875 56 
Q 45.21875 56 50.046875 50.171875 
Q 54.890625 44.34375 54.890625 33.015625 
z
" id="DejaVuSans-104"/>
      <path d="M 41.109375 46.296875 
Q 39.59375 47.171875 37.8125 47.578125 
Q 36.03125 48 33.890625 48 
Q 26.265625 48 22.1875 43.046875 
Q 18.109375 38.09375 18.109375 28.8125 
L 18.109375 0 
L 9.078125 0 
L 9.078125 54.6875 
L 18.109375 54.6875 
L 18.109375 46.1875 
Q 20.953125 51.171875 25.484375 53.578125 
Q 30.03125 56 36.53125 56 
Q 37.453125 56 38.578125 55.875 
Q 39.703125 55.765625 41.0625 55.515625 
z
" id="DejaVuSans-114"/>
      <path d="M 45.40625 27.984375 
Q 45.40625 37.75 41.375 43.109375 
Q 37.359375 48.484375 30.078125 48.484375 
Q 22.859375 48.484375 18.828125 43.109375 
Q 14.796875 37.75 14.796875 27.984375 
Q 14.796875 18.265625 18.828125 12.890625 
Q 22.859375 7.515625 30.078125 7.515625 
Q 37.359375 7.515625 41.375 12.890625 
Q 45.40625 18.265625 45.40625 27.984375 
z
M 54.390625 6.78125 
Q 54.390625 -7.171875 48.1875 -13.984375 
Q 42 -20.796875 29.203125 -20.796875 
Q 24.46875 -20.796875 20.265625 -20.09375 
Q 16.0625 -19.390625 12.109375 -17.921875 
L 12.109375 -9.1875 
Q 16.0625 -11.328125 19.921875 -12.34375 
Q 23.78125 -13.375 27.78125 -13.375 
Q 36.625 -13.375 41.015625 -8.765625 
Q 45.40625 -4.15625 45.40625 5.171875 
L 45.40625 9.625 
Q 42.625 4.78125 38.28125 2.390625 
Q 33.9375 0 27.875 0 
Q 17.828125 0 11.671875 7.65625 
Q 5.515625 15.328125 5.515625 27.984375 
Q 5.515625 40.671875 11.671875 48.328125 
Q 17.828125 56 27.875 56 
Q 33.9375 56 38.28125 53.609375 
Q 42.625 51.21875 45.40625 46.390625 
L 45.40625 54.6875 
L 54.390625 54.6875 
z
" id="DejaVuSans-103"/>
      <path d="M 45.40625 46.390625 
L 45.40625 75.984375 
L 54.390625 75.984375 
L 54.390625 0 
L 45.40625 0 
L 45.40625 8.203125 
Q 42.578125 3.328125 38.25 0.953125 
Q 33.9375 -1.421875 27.875 -1.421875 
Q 17.96875 -1.421875 11.734375 6.484375 
Q 5.515625 14.40625 5.515625 27.296875 
Q 5.515625 40.1875 11.734375 48.09375 
Q 17.96875 56 27.875 56 
Q 33.9375 56 38.25 53.625 
Q 42.578125 51.265625 45.40625 46.390625 
z
M 14.796875 27.296875 
Q 14.796875 17.390625 18.875 11.75 
Q 22.953125 6.109375 30.078125 6.109375 
Q 37.203125 6.109375 41.296875 11.75 
Q 45.40625 17.390625 45.40625 27.296875 
Q 45.40625 37.203125 41.296875 42.84375 
Q 37.203125 48.484375 30.078125 48.484375 
Q 22.953125 48.484375 18.875 42.84375 
Q 14.796875 37.203125 14.796875 27.296875 
z
" id="DejaVuSans-100"/>
      <path d="M 18.109375 8.203125 
L 18.109375 -20.796875 
L 9.078125 -20.796875 
L 9.078125 54.6875 
L 18.109375 54.6875 
L 18.109375 46.390625 
Q 20.953125 51.265625 25.265625 53.625 
Q 29.59375 56 35.59375 56 
Q 45.5625 56 51.78125 48.09375 
Q 58.015625 40.1875 58.015625 27.296875 
Q 58.015625 14.40625 51.78125 6.484375 
Q 45.5625 -1.421875 35.59375 -1.421875 
Q 29.59375 -1.421875 25.265625 0.953125 
Q 20.953125 3.328125 18.109375 8.203125 
z
M 48.6875 27.296875 
Q 48.6875 37.203125 44.609375 42.84375 
Q 40.53125 48.484375 33.40625 48.484375 
Q 26.265625 48.484375 22.1875 42.84375 
Q 18.109375 37.203125 18.109375 27.296875 
Q 18.109375 17.390625 22.1875 11.75 
Q 26.265625 6.109375 33.40625 6.109375 
Q 40.53125 6.109375 44.609375 11.75 
Q 48.6875 17.390625 48.6875 27.296875 
z
" id="DejaVuSans-112"/>
      <path d="M 18.3125 70.21875 
L 18.3125 54.6875 
L 36.8125 54.6875 
L 36.8125 47.703125 
L 18.3125 47.703125 
L 18.3125 18.015625 
Q 18.3125 11.328125 20.140625 9.421875 
Q 21.96875 7.515625 27.59375 7.515625 
L 36.8125 7.515625 
L 36.8125 0 
L 27.59375 0 
Q 17.1875 0 13.234375 3.875 
Q 9.28125 7.765625 9.28125 18.015625 
L 9.28125 47.703125 
L 2.6875 47.703125 
L 2.6875 54.6875 
L 9.28125 54.6875 
L 9.28125 70.21875 
z
" id="DejaVuSans-116"/>
      <path d="M 9.421875 54.6875 
L 18.40625 54.6875 
L 18.40625 0 
L 9.421875 0 
z
M 9.421875 75.984375 
L 18.40625 75.984375 
L 18.40625 64.59375 
L 9.421875 64.59375 
z
" id="DejaVuSans-105"/>
      <path d="M 9.421875 75.984375 
L 18.40625 75.984375 
L 18.40625 0 
L 9.421875 0 
z
" id="DejaVuSans-108"/>
     </defs>
     <g style="fill:#1a1a1a;" transform="translate(681.75929 483.03375)scale(0.22 -0.22)">
      <use xlink:href="#DejaVuSans-35"/>
      <use x="83.789062" xlink:href="#DejaVuSans-32"/>
      <use x="115.576172" xlink:href="#DejaVuSans-111"/>
      <use x="176.757812" xlink:href="#DejaVuSans-102"/>
      <use x="211.962891" xlink:href="#DejaVuSans-32"/>
      <use x="243.75" xlink:href="#DejaVuSans-99"/>
      <use x="298.730469" xlink:href="#DejaVuSans-104"/>
      <use x="362.109375" xlink:href="#DejaVuSans-97"/>
      <use x="423.388672" xlink:href="#DejaVuSans-114"/>
      <use x="464.486328" xlink:href="#DejaVuSans-103"/>
      <use x="527.962891" xlink:href="#DejaVuSans-101"/>
      <use x="589.486328" xlink:href="#DejaVuSans-100"/>
      <use x="652.962891" xlink:href="#DejaVuSans-32"/>
      <use x="684.75" xlink:href="#DejaVuSans-82"/>
      <use x="754.232422" xlink:href="#DejaVuSans-79"/>
      <use x="832.943359" xlink:href="#DejaVuSans-69"/>
      <use x="896.126953" xlink:href="#DejaVuSans-32"/>
      <use x="927.914062" xlink:href="#DejaVuSans-112"/>
      <use x="991.390625" xlink:href="#DejaVuSans-97"/>
      <use x="1052.669922" xlink:href="#DejaVuSans-114"/>
      <use x="1093.783203" xlink:href="#DejaVuSans-116"/>
      <use x="1132.992188" xlink:href="#DejaVuSans-105"/>
      <use x="1160.775391" xlink:href="#DejaVuSans-99"/>
      <use x="1215.755859" xlink:href="#DejaVuSans-108"/>
      <use x="1243.539062" xlink:href="#DejaVuSans-101"/>
      <use x="1305.0625" xlink:href="#DejaVuSans-115"/>
     </g>
    </g>
   </g>
   <g id="matplotlib.axis_4">
    <g id="ytick_26">
     <g id="line2d_78">
      <g>
       <use style="fill:#1a1a1a;stroke:#1a1a1a;stroke-width:0.8;" x="598.299829" xlink:href="#m6da6447f66" y="439.8"/>
      </g>
     </g>
     <g id="text_24">
      <!-- $\mathdefault{0}$ -->
      <g style="fill:#1a1a1a;" transform="translate(582.699829 445.498828)scale(0.15 -0.15)">
       <use transform="translate(0 0.78125)" xlink:href="#DejaVuSans-48"/>
      </g>
     </g>
    </g>
    <g id="ytick_27">
     <g id="line2d_79">
      <g>
       <use style="fill:#1a1a1a;stroke:#1a1a1a;stroke-width:0.8;" x="598.299829" xlink:href="#m6da6447f66" y="370.283333"/>
      </g>
     </g>
     <g id="text_25">
      <!-- $\mathdefault{500}$ -->
      <defs>
       <path d="M 10.796875 72.90625 
L 49.515625 72.90625 
L 49.515625 64.59375 
L 19.828125 64.59375 
L 19.828125 46.734375 
Q 21.96875 47.46875 24.109375 47.828125 
Q 26.265625 48.1875 28.421875 48.1875 
Q 40.625 48.1875 47.75 41.5 
Q 54.890625 34.8125 54.890625 23.390625 
Q 54.890625 11.625 47.5625 5.09375 
Q 40.234375 -1.421875 26.90625 -1.421875 
Q 22.3125 -1.421875 17.546875 -0.640625 
Q 12.796875 0.140625 7.71875 1.703125 
L 7.71875 11.625 
Q 12.109375 9.234375 16.796875 8.0625 
Q 21.484375 6.890625 26.703125 6.890625 
Q 35.15625 6.890625 40.078125 11.328125 
Q 45.015625 15.765625 45.015625 23.390625 
Q 45.015625 31 40.078125 35.4375 
Q 35.15625 39.890625 26.703125 39.890625 
Q 22.75 39.890625 18.8125 39.015625 
Q 14.890625 38.140625 10.796875 36.28125 
z
" id="DejaVuSans-53"/>
      </defs>
      <g style="fill:#1a1a1a;" transform="translate(563.649829 375.982161)scale(0.15 -0.15)">
       <use transform="translate(0 0.78125)" xlink:href="#DejaVuSans-53"/>
       <use transform="translate(63.623047 0.78125)" xlink:href="#DejaVuSans-48"/>
       <use transform="translate(127.246094 0.78125)" xlink:href="#DejaVuSans-48"/>
      </g>
     </g>
    </g>
    <g id="ytick_28">
     <g id="line2d_80">
      <g>
       <use style="fill:#1a1a1a;stroke:#1a1a1a;stroke-width:0.8;" x="598.299829" xlink:href="#m6da6447f66" y="300.766667"/>
      </g>
     </g>
     <g id="text_26">
      <!-- $\mathdefault{1000}$ -->
      <g style="fill:#1a1a1a;" transform="translate(554.049829 306.465495)scale(0.15 -0.15)">
       <use transform="translate(0 0.78125)" xlink:href="#DejaVuSans-49"/>
       <use transform="translate(63.623047 0.78125)" xlink:href="#DejaVuSans-48"/>
       <use transform="translate(127.246094 0.78125)" xlink:href="#DejaVuSans-48"/>
       <use transform="translate(190.869141 0.78125)" xlink:href="#DejaVuSans-48"/>
      </g>
     </g>
    </g>
    <g id="ytick_29">
     <g id="line2d_81">
      <g>
       <use style="fill:#1a1a1a;stroke:#1a1a1a;stroke-width:0.8;" x="598.299829" xlink:href="#m6da6447f66" y="231.25"/>
      </g>
     </g>
     <g id="text_27">
      <!-- $\mathdefault{1500}$ -->
      <g style="fill:#1a1a1a;" transform="translate(554.049829 236.948828)scale(0.15 -0.15)">
       <use transform="translate(0 0.78125)" xlink:href="#DejaVuSans-49"/>
       <use transform="translate(63.623047 0.78125)" xlink:href="#DejaVuSans-53"/>
       <use transform="translate(127.246094 0.78125)" xlink:href="#DejaVuSans-48"/>
       <use transform="translate(190.869141 0.78125)" xlink:href="#DejaVuSans-48"/>
      </g>
     </g>
    </g>
    <g id="ytick_30">
     <g id="line2d_82">
      <g>
       <use style="fill:#1a1a1a;stroke:#1a1a1a;stroke-width:0.8;" x="598.299829" xlink:href="#m6da6447f66" y="161.733333"/>
      </g>
     </g>
     <g id="text_28">
      <!-- $\mathdefault{2000}$ -->
      <g style="fill:#1a1a1a;" transform="translate(554.049829 167.432161)scale(0.15 -0.15)">
       <use transform="translate(0 0.78125)" xlink:href="#DejaVuSans-50"/>
       <use transform="translate(63.623047 0.78125)" xlink:href="#DejaVuSans-48"/>
       <use transform="translate(127.246094 0.78125)" xlink:href="#DejaVuSans-48"/>
       <use transform="translate(190.869141 0.78125)" xlink:href="#DejaVuSans-48"/>
      </g>
     </g>
    </g>
    <g id="ytick_31">
     <g id="line2d_83">
      <g>
       <use style="fill:#1a1a1a;stroke:#1a1a1a;stroke-width:0.8;" x="598.299829" xlink:href="#m6da6447f66" y="92.216667"/>
      </g>
     </g>
     <g id="text_29">
      <!-- $\mathdefault{2500}$ -->
      <g style="fill:#1a1a1a;" transform="translate(554.049829 97.915495)scale(0.15 -0.15)">
       <use transform="translate(0 0.78125)" xlink:href="#DejaVuSans-50"/>
       <use transform="translate(63.623047 0.78125)" xlink:href="#DejaVuSans-53"/>
       <use transform="translate(127.246094 0.78125)" xlink:href="#DejaVuSans-48"/>
       <use transform="translate(190.869141 0.78125)" xlink:href="#DejaVuSans-48"/>
      </g>
     </g>
    </g>
    <g id="ytick_32">
     <g id="line2d_84">
      <g>
       <use style="fill:#1a1a1a;stroke:#1a1a1a;stroke-width:0.8;" x="598.299829" xlink:href="#m6da6447f66" y="22.7"/>
      </g>
     </g>
     <g id="text_30">
      <!-- $\mathdefault{3000}$ -->
      <defs>
       <path d="M 40.578125 39.3125 
Q 47.65625 37.796875 51.625 33 
Q 55.609375 28.21875 55.609375 21.1875 
Q 55.609375 10.40625 48.1875 4.484375 
Q 40.765625 -1.421875 27.09375 -1.421875 
Q 22.515625 -1.421875 17.65625 -0.515625 
Q 12.796875 0.390625 7.625 2.203125 
L 7.625 11.71875 
Q 11.71875 9.328125 16.59375 8.109375 
Q 21.484375 6.890625 26.8125 6.890625 
Q 36.078125 6.890625 40.9375 10.546875 
Q 45.796875 14.203125 45.796875 21.1875 
Q 45.796875 27.640625 41.28125 31.265625 
Q 36.765625 34.90625 28.71875 34.90625 
L 20.21875 34.90625 
L 20.21875 43.015625 
L 29.109375 43.015625 
Q 36.375 43.015625 40.234375 45.921875 
Q 44.09375 48.828125 44.09375 54.296875 
Q 44.09375 59.90625 40.109375 62.90625 
Q 36.140625 65.921875 28.71875 65.921875 
Q 24.65625 65.921875 20.015625 65.03125 
Q 15.375 64.15625 9.8125 62.3125 
L 9.8125 71.09375 
Q 15.4375 72.65625 20.34375 73.4375 
Q 25.25 74.21875 29.59375 74.21875 
Q 40.828125 74.21875 47.359375 69.109375 
Q 53.90625 64.015625 53.90625 55.328125 
Q 53.90625 49.265625 50.4375 45.09375 
Q 46.96875 40.921875 40.578125 39.3125 
z
" id="DejaVuSans-51"/>
      </defs>
      <g style="fill:#1a1a1a;" transform="translate(554.049829 28.398828)scale(0.15 -0.15)">
       <use transform="translate(0 0.78125)" xlink:href="#DejaVuSans-51"/>
       <use transform="translate(63.623047 0.78125)" xlink:href="#DejaVuSans-48"/>
       <use transform="translate(127.246094 0.78125)" xlink:href="#DejaVuSans-48"/>
       <use transform="translate(190.869141 0.78125)" xlink:href="#DejaVuSans-48"/>
      </g>
     </g>
    </g>
    <g id="ytick_33">
     <g id="line2d_85">
      <g>
       <use style="fill:#1a1a1a;stroke:#1a1a1a;stroke-width:0.6;" x="598.299829" xlink:href="#m72be39149c" y="425.896667"/>
      </g>
     </g>
    </g>
    <g id="ytick_34">
     <g id="line2d_86">
      <g>
       <use style="fill:#1a1a1a;stroke:#1a1a1a;stroke-width:0.6;" x="598.299829" xlink:href="#m72be39149c" y="411.993333"/>
      </g>
     </g>
    </g>
    <g id="ytick_35">
     <g id="line2d_87">
      <g>
       <use style="fill:#1a1a1a;stroke:#1a1a1a;stroke-width:0.6;" x="598.299829" xlink:href="#m72be39149c" y="398.09"/>
      </g>
     </g>
    </g>
    <g id="ytick_36">
     <g id="line2d_88">
      <g>
       <use style="fill:#1a1a1a;stroke:#1a1a1a;stroke-width:0.6;" x="598.299829" xlink:href="#m72be39149c" y="384.186667"/>
      </g>
     </g>
    </g>
    <g id="ytick_37">
     <g id="line2d_89">
      <g>
       <use style="fill:#1a1a1a;stroke:#1a1a1a;stroke-width:0.6;" x="598.299829" xlink:href="#m72be39149c" y="356.38"/>
      </g>
     </g>
    </g>
    <g id="ytick_38">
     <g id="line2d_90">
      <g>
       <use style="fill:#1a1a1a;stroke:#1a1a1a;stroke-width:0.6;" x="598.299829" xlink:href="#m72be39149c" y="342.476667"/>
      </g>
     </g>
    </g>
    <g id="ytick_39">
     <g id="line2d_91">
      <g>
       <use style="fill:#1a1a1a;stroke:#1a1a1a;stroke-width:0.6;" x="598.299829" xlink:href="#m72be39149c" y="328.573333"/>
      </g>
     </g>
    </g>
    <g id="ytick_40">
     <g id="line2d_92">
      <g>
       <use style="fill:#1a1a1a;stroke:#1a1a1a;stroke-width:0.6;" x="598.299829" xlink:href="#m72be39149c" y="314.67"/>
      </g>
     </g>
    </g>
    <g id="ytick_41">
     <g id="line2d_93">
      <g>
       <use style="fill:#1a1a1a;stroke:#1a1a1a;stroke-width:0.6;" x="598.299829" xlink:href="#m72be39149c" y="286.863333"/>
      </g>
     </g>
    </g>
    <g id="ytick_42">
     <g id="line2d_94">
      <g>
       <use style="fill:#1a1a1a;stroke:#1a1a1a;stroke-width:0.6;" x="598.299829" xlink:href="#m72be39149c" y="272.96"/>
      </g>
     </g>
    </g>
    <g id="ytick_43">
     <g id="line2d_95">
      <g>
       <use style="fill:#1a1a1a;stroke:#1a1a1a;stroke-width:0.6;" x="598.299829" xlink:href="#m72be39149c" y="259.056667"/>
      </g>
     </g>
    </g>
    <g id="ytick_44">
     <g id="line2d_96">
      <g>
       <use style="fill:#1a1a1a;stroke:#1a1a1a;stroke-width:0.6;" x="598.299829" xlink:href="#m72be39149c" y="245.153333"/>
      </g>
     </g>
    </g>
    <g id="ytick_45">
     <g id="line2d_97">
      <g>
       <use style="fill:#1a1a1a;stroke:#1a1a1a;stroke-width:0.6;" x="598.299829" xlink:href="#m72be39149c" y="217.346667"/>
      </g>
     </g>
    </g>
    <g id="ytick_46">
     <g id="line2d_98">
      <g>
       <use style="fill:#1a1a1a;stroke:#1a1a1a;stroke-width:0.6;" x="598.299829" xlink:href="#m72be39149c" y="203.443333"/>
      </g>
     </g>
    </g>
    <g id="ytick_47">
     <g id="line2d_99">
      <g>
       <use style="fill:#1a1a1a;stroke:#1a1a1a;stroke-width:0.6;" x="598.299829" xlink:href="#m72be39149c" y="189.54"/>
      </g>
     </g>
    </g>
    <g id="ytick_48">
     <g id="line2d_100">
      <g>
       <use style="fill:#1a1a1a;stroke:#1a1a1a;stroke-width:0.6;" x="598.299829" xlink:href="#m72be39149c" y="175.636667"/>
      </g>
     </g>
    </g>
    <g id="ytick_49">
     <g id="line2d_101">
      <g>
       <use style="fill:#1a1a1a;stroke:#1a1a1a;stroke-width:0.6;" x="598.299829" xlink:href="#m72be39149c" y="147.83"/>
      </g>
     </g>
    </g>
    <g id="ytick_50">
     <g id="line2d_102">
      <g>
       <use style="fill:#1a1a1a;stroke:#1a1a1a;stroke-width:0.6;" x="598.299829" xlink:href="#m72be39149c" y="133.926667"/>
      </g>
     </g>
    </g>
    <g id="ytick_51">
     <g id="line2d_103">
      <g>
       <use style="fill:#1a1a1a;stroke:#1a1a1a;stroke-width:0.6;" x="598.299829" xlink:href="#m72be39149c" y="120.023333"/>
      </g>
     </g>
    </g>
    <g id="ytick_52">
     <g id="line2d_104">
      <g>
       <use style="fill:#1a1a1a;stroke:#1a1a1a;stroke-width:0.6;" x="598.299829" xlink:href="#m72be39149c" y="106.12"/>
      </g>
     </g>
    </g>
    <g id="ytick_53">
     <g id="line2d_105">
      <g>
       <use style="fill:#1a1a1a;stroke:#1a1a1a;stroke-width:0.6;" x="598.299829" xlink:href="#m72be39149c" y="78.313333"/>
      </g>
     </g>
    </g>
    <g id="ytick_54">
     <g id="line2d_106">
      <g>
       <use style="fill:#1a1a1a;stroke:#1a1a1a;stroke-width:0.6;" x="598.299829" xlink:href="#m72be39149c" y="64.41"/>
      </g>
     </g>
    </g>
    <g id="ytick_55">
     <g id="line2d_107">
      <g>
       <use style="fill:#1a1a1a;stroke:#1a1a1a;stroke-width:0.6;" x="598.299829" xlink:href="#m72be39149c" y="50.506667"/>
      </g>
     </g>
    </g>
    <g id="ytick_56">
     <g id="line2d_108">
      <g>
       <use style="fill:#1a1a1a;stroke:#1a1a1a;stroke-width:0.6;" x="598.299829" xlink:href="#m72be39149c" y="36.603333"/>
      </g>
     </g>
    </g>
   </g>
   <g id="legend_1">
    <g id="patch_142">
     <path d="M 863.116406 47.597656 
L 893.116406 47.597656 
L 893.116406 37.097656 
L 863.116406 37.097656 
z
" style="fill:#348abd;opacity:0.6;"/>
    </g>
    <g id="text_31">
     <!-- No mask -->
     <defs>
      <path d="M 9.8125 72.90625 
L 23.09375 72.90625 
L 55.421875 11.921875 
L 55.421875 72.90625 
L 64.984375 72.90625 
L 64.984375 0 
L 51.703125 0 
L 19.390625 60.984375 
L 19.390625 0 
L 9.8125 0 
z
" id="DejaVuSans-78"/>
      <path d="M 9.078125 75.984375 
L 18.109375 75.984375 
L 18.109375 31.109375 
L 44.921875 54.6875 
L 56.390625 54.6875 
L 27.390625 29.109375 
L 57.625 0 
L 45.90625 0 
L 18.109375 26.703125 
L 18.109375 0 
L 9.078125 0 
z
" id="DejaVuSans-107"/>
     </defs>
     <g style="fill:#1a1a1a;" transform="translate(905.116406 47.597656)scale(0.15 -0.15)">
      <use xlink:href="#DejaVuSans-78"/>
      <use x="74.804688" xlink:href="#DejaVuSans-111"/>
      <use x="135.986328" xlink:href="#DejaVuSans-32"/>
      <use x="167.773438" xlink:href="#DejaVuSans-109"/>
      <use x="265.185547" xlink:href="#DejaVuSans-97"/>
      <use x="326.464844" xlink:href="#DejaVuSans-115"/>
      <use x="378.564453" xlink:href="#DejaVuSans-107"/>
     </g>
    </g>
    <g id="patch_143">
     <path d="M 863.116406 69.614844 
L 893.116406 69.614844 
L 893.116406 59.114844 
L 863.116406 59.114844 
z
" style="fill:#e24a33;opacity:0.6;"/>
    </g>
    <g id="text_32">
     <!-- "my_mask" applied -->
     <defs>
      <path d="M 17.921875 72.90625 
L 17.921875 45.796875 
L 9.625 45.796875 
L 9.625 72.90625 
z
M 36.375 72.90625 
L 36.375 45.796875 
L 28.078125 45.796875 
L 28.078125 72.90625 
z
" id="DejaVuSans-34"/>
      <path d="M 32.171875 -5.078125 
Q 28.375 -14.84375 24.75 -17.8125 
Q 21.140625 -20.796875 15.09375 -20.796875 
L 7.90625 -20.796875 
L 7.90625 -13.28125 
L 13.1875 -13.28125 
Q 16.890625 -13.28125 18.9375 -11.515625 
Q 21 -9.765625 23.484375 -3.21875 
L 25.09375 0.875 
L 2.984375 54.6875 
L 12.5 54.6875 
L 29.59375 11.921875 
L 46.6875 54.6875 
L 56.203125 54.6875 
z
" id="DejaVuSans-121"/>
      <path d="M 50.984375 -16.609375 
L 50.984375 -23.578125 
L -0.984375 -23.578125 
L -0.984375 -16.609375 
z
" id="DejaVuSans-95"/>
     </defs>
     <g style="fill:#1a1a1a;" transform="translate(905.116406 69.614844)scale(0.15 -0.15)">
      <use xlink:href="#DejaVuSans-34"/>
      <use x="45.996094" xlink:href="#DejaVuSans-109"/>
      <use x="143.408203" xlink:href="#DejaVuSans-121"/>
      <use x="202.587891" xlink:href="#DejaVuSans-95"/>
      <use x="252.587891" xlink:href="#DejaVuSans-109"/>
      <use x="350" xlink:href="#DejaVuSans-97"/>
      <use x="411.279297" xlink:href="#DejaVuSans-115"/>
      <use x="463.378906" xlink:href="#DejaVuSans-107"/>
      <use x="521.289062" xlink:href="#DejaVuSans-34"/>
      <use x="567.285156" xlink:href="#DejaVuSans-32"/>
      <use x="599.072266" xlink:href="#DejaVuSans-97"/>
      <use x="660.351562" xlink:href="#DejaVuSans-112"/>
      <use x="723.828125" xlink:href="#DejaVuSans-112"/>
      <use x="787.304688" xlink:href="#DejaVuSans-108"/>
      <use x="815.087891" xlink:href="#DejaVuSans-105"/>
      <use x="842.871094" xlink:href="#DejaVuSans-101"/>
      <use x="904.394531" xlink:href="#DejaVuSans-100"/>
     </g>
    </g>
   </g>
  </g>
 </g>
 <defs>
  <clipPath id="pe5a277d391">
   <rect height="417.1" width="465.500171" x="61.377246" y="22.7"/>
  </clipPath>
  <clipPath id="p0b5206c6ce">
   <rect height="417.1" width="465.500171" x="598.299829" y="22.7"/>
  </clipPath>
 </defs>
</svg>
