<?xml version="1.0" encoding="utf-8" standalone="no"?>
<!DOCTYPE svg PUBLIC "-//W3C//DTD SVG 1.1//EN"
  "http://www.w3.org/Graphics/SVG/1.1/DTD/svg11.dtd">
<!-- Created with matplotlib (https://matplotlib.org/) -->
<svg height="504pt" version="1.1" viewBox="0 0 1080 504" width="1080pt" xmlns="http://www.w3.org/2000/svg" xmlns:xlink="http://www.w3.org/1999/xlink">
 <defs>
  <style type="text/css">
*{stroke-linecap:butt;stroke-linejoin:round;}
  </style>
 </defs>
 <g id="figure_1">
  <g id="patch_1">
   <path d="M 0 504 
L 1080 504 
L 1080 0 
L 0 0 
z
" style="fill:#ffffff;"/>
  </g>
  <g id="axes_1">
   <g id="patch_2">
    <path d="M 55.977246 437 
L 529.577417 437 
L 529.577417 17.3 
L 55.977246 17.3 
z
" style="fill:#ffffff;"/>
   </g>
   <g id="patch_3">
    <path clip-path="url(#p6c540369f4)" d="M 55.977246 437 
L 65.44925 437 
L 65.44925 437 
L 55.977246 437 
z
" style="fill:#348abd;opacity:0.6;"/>
   </g>
   <g id="patch_4">
    <path clip-path="url(#p6c540369f4)" d="M 65.44925 437 
L 74.921253 437 
L 74.921253 436.65025 
L 65.44925 436.65025 
z
" style="fill:#348abd;opacity:0.6;"/>
   </g>
   <g id="patch_5">
    <path clip-path="url(#p6c540369f4)" d="M 74.921253 437 
L 84.393256 437 
L 84.393256 437 
L 74.921253 437 
z
" style="fill:#348abd;opacity:0.6;"/>
   </g>
   <g id="patch_6">
    <path clip-path="url(#p6c540369f4)" d="M 84.393256 437 
L 93.86526 437 
L 93.86526 435.95075 
L 84.393256 435.95075 
z
" style="fill:#348abd;opacity:0.6;"/>
   </g>
   <g id="patch_7">
    <path clip-path="url(#p6c540369f4)" d="M 93.86526 437 
L 103.337263 437 
L 103.337263 433.15275 
L 93.86526 433.15275 
z
" style="fill:#348abd;opacity:0.6;"/>
   </g>
   <g id="patch_8">
    <path clip-path="url(#p6c540369f4)" d="M 103.337263 437 
L 112.809267 437 
L 112.809267 432.45325 
L 103.337263 432.45325 
z
" style="fill:#348abd;opacity:0.6;"/>
   </g>
   <g id="patch_9">
    <path clip-path="url(#p6c540369f4)" d="M 112.809267 437 
L 122.28127 437 
L 122.28127 427.207 
L 112.809267 427.207 
z
" style="fill:#348abd;opacity:0.6;"/>
   </g>
   <g id="patch_10">
    <path clip-path="url(#p6c540369f4)" d="M 122.28127 437 
L 131.753273 437 
L 131.753273 425.45825 
L 122.28127 425.45825 
z
" style="fill:#348abd;opacity:0.6;"/>
   </g>
   <g id="patch_11">
    <path clip-path="url(#p6c540369f4)" d="M 131.753273 437 
L 141.225277 437 
L 141.225277 420.9115 
L 131.753273 420.9115 
z
" style="fill:#348abd;opacity:0.6;"/>
   </g>
   <g id="patch_12">
    <path clip-path="url(#p6c540369f4)" d="M 141.225277 437 
L 150.69728 437 
L 150.69728 417.414 
L 141.225277 417.414 
z
" style="fill:#348abd;opacity:0.6;"/>
   </g>
   <g id="patch_13">
    <path clip-path="url(#p6c540369f4)" d="M 150.69728 437 
L 160.169284 437 
L 160.169284 407.97075 
L 150.69728 407.97075 
z
" style="fill:#348abd;opacity:0.6;"/>
   </g>
   <g id="patch_14">
    <path clip-path="url(#p6c540369f4)" d="M 160.169284 437 
L 169.641287 437 
L 169.641287 396.429 
L 160.169284 396.429 
z
" style="fill:#348abd;opacity:0.6;"/>
   </g>
   <g id="patch_15">
    <path clip-path="url(#p6c540369f4)" d="M 169.641287 437 
L 179.113291 437 
L 179.113291 389.08425 
L 169.641287 389.08425 
z
" style="fill:#348abd;opacity:0.6;"/>
   </g>
   <g id="patch_16">
    <path clip-path="url(#p6c540369f4)" d="M 179.113291 437 
L 188.585294 437 
L 188.585294 378.242 
L 179.113291 378.242 
z
" style="fill:#348abd;opacity:0.6;"/>
   </g>
   <g id="patch_17">
    <path clip-path="url(#p6c540369f4)" d="M 188.585294 437 
L 198.057297 437 
L 198.057297 365.30125 
L 188.585294 365.30125 
z
" style="fill:#348abd;opacity:0.6;"/>
   </g>
   <g id="patch_18">
    <path clip-path="url(#p6c540369f4)" d="M 198.057297 437 
L 207.529301 437 
L 207.529301 334.52325 
L 198.057297 334.52325 
z
" style="fill:#348abd;opacity:0.6;"/>
   </g>
   <g id="patch_19">
    <path clip-path="url(#p6c540369f4)" d="M 207.529301 437 
L 217.001304 437 
L 217.001304 327.1785 
L 207.529301 327.1785 
z
" style="fill:#348abd;opacity:0.6;"/>
   </g>
   <g id="patch_20">
    <path clip-path="url(#p6c540369f4)" d="M 217.001304 437 
L 226.473308 437 
L 226.473308 294.302 
L 217.001304 294.302 
z
" style="fill:#348abd;opacity:0.6;"/>
   </g>
   <g id="patch_21">
    <path clip-path="url(#p6c540369f4)" d="M 226.473308 437 
L 235.945311 437 
L 235.945311 278.56325 
L 226.473308 278.56325 
z
" style="fill:#348abd;opacity:0.6;"/>
   </g>
   <g id="patch_22">
    <path clip-path="url(#p6c540369f4)" d="M 235.945311 437 
L 245.417314 437 
L 245.417314 264.57325 
L 235.945311 264.57325 
z
" style="fill:#348abd;opacity:0.6;"/>
   </g>
   <g id="patch_23">
    <path clip-path="url(#p6c540369f4)" d="M 245.417314 437 
L 254.889318 437 
L 254.889318 238.342 
L 245.417314 238.342 
z
" style="fill:#348abd;opacity:0.6;"/>
   </g>
   <g id="patch_24">
    <path clip-path="url(#p6c540369f4)" d="M 254.889318 437 
L 264.361321 437 
L 264.361321 219.80525 
L 254.889318 219.80525 
z
" style="fill:#348abd;opacity:0.6;"/>
   </g>
   <g id="patch_25">
    <path clip-path="url(#p6c540369f4)" d="M 264.361321 437 
L 273.833325 437 
L 273.833325 188.6775 
L 264.361321 188.6775 
z
" style="fill:#348abd;opacity:0.6;"/>
   </g>
   <g id="patch_26">
    <path clip-path="url(#p6c540369f4)" d="M 273.833325 437 
L 283.305328 437 
L 283.305328 184.13075 
L 273.833325 184.13075 
z
" style="fill:#348abd;opacity:0.6;"/>
   </g>
   <g id="patch_27">
    <path clip-path="url(#p6c540369f4)" d="M 283.305328 437 
L 292.777332 437 
L 292.777332 141.811 
L 283.305328 141.811 
z
" style="fill:#348abd;opacity:0.6;"/>
   </g>
   <g id="patch_28">
    <path clip-path="url(#p6c540369f4)" d="M 292.777332 437 
L 302.249335 437 
L 302.249335 134.816 
L 292.777332 134.816 
z
" style="fill:#348abd;opacity:0.6;"/>
   </g>
   <g id="patch_29">
    <path clip-path="url(#p6c540369f4)" d="M 302.249335 437 
L 311.721338 437 
L 311.721338 119.427 
L 302.249335 119.427 
z
" style="fill:#348abd;opacity:0.6;"/>
   </g>
   <g id="patch_30">
    <path clip-path="url(#p6c540369f4)" d="M 311.721338 437 
L 321.193342 437 
L 321.193342 141.1115 
L 311.721338 141.1115 
z
" style="fill:#348abd;opacity:0.6;"/>
   </g>
   <g id="patch_31">
    <path clip-path="url(#p6c540369f4)" d="M 321.193342 437 
L 330.665345 437 
L 330.665345 171.19 
L 321.193342 171.19 
z
" style="fill:#348abd;opacity:0.6;"/>
   </g>
   <g id="patch_32">
    <path clip-path="url(#p6c540369f4)" d="M 330.665345 437 
L 340.137349 437 
L 340.137349 223.30275 
L 330.665345 223.30275 
z
" style="fill:#348abd;opacity:0.6;"/>
   </g>
   <g id="patch_33">
    <path clip-path="url(#p6c540369f4)" d="M 340.137349 437 
L 349.609352 437 
L 349.609352 257.2285 
L 340.137349 257.2285 
z
" style="fill:#348abd;opacity:0.6;"/>
   </g>
   <g id="patch_34">
    <path clip-path="url(#p6c540369f4)" d="M 349.609352 437 
L 359.081355 437 
L 359.081355 292.2035 
L 349.609352 292.2035 
z
" style="fill:#348abd;opacity:0.6;"/>
   </g>
   <g id="patch_35">
    <path clip-path="url(#p6c540369f4)" d="M 359.081355 437 
L 368.553359 437 
L 368.553359 324.3805 
L 359.081355 324.3805 
z
" style="fill:#348abd;opacity:0.6;"/>
   </g>
   <g id="patch_36">
    <path clip-path="url(#p6c540369f4)" d="M 368.553359 437 
L 378.025362 437 
L 378.025362 344.31625 
L 368.553359 344.31625 
z
" style="fill:#348abd;opacity:0.6;"/>
   </g>
   <g id="patch_37">
    <path clip-path="url(#p6c540369f4)" d="M 378.025362 437 
L 387.497366 437 
L 387.497366 364.9515 
L 378.025362 364.9515 
z
" style="fill:#348abd;opacity:0.6;"/>
   </g>
   <g id="patch_38">
    <path clip-path="url(#p6c540369f4)" d="M 387.497366 437 
L 396.969369 437 
L 396.969369 382.78875 
L 387.497366 382.78875 
z
" style="fill:#348abd;opacity:0.6;"/>
   </g>
   <g id="patch_39">
    <path clip-path="url(#p6c540369f4)" d="M 396.969369 437 
L 406.441373 437 
L 406.441373 390.48325 
L 396.969369 390.48325 
z
" style="fill:#348abd;opacity:0.6;"/>
   </g>
   <g id="patch_40">
    <path clip-path="url(#p6c540369f4)" d="M 406.441373 437 
L 415.913376 437 
L 415.913376 406.9215 
L 406.441373 406.9215 
z
" style="fill:#348abd;opacity:0.6;"/>
   </g>
   <g id="patch_41">
    <path clip-path="url(#p6c540369f4)" d="M 415.913376 437 
L 425.385379 437 
L 425.385379 412.16775 
L 415.913376 412.16775 
z
" style="fill:#348abd;opacity:0.6;"/>
   </g>
   <g id="patch_42">
    <path clip-path="url(#p6c540369f4)" d="M 425.385379 437 
L 434.857383 437 
L 434.857383 418.1135 
L 425.385379 418.1135 
z
" style="fill:#348abd;opacity:0.6;"/>
   </g>
   <g id="patch_43">
    <path clip-path="url(#p6c540369f4)" d="M 434.857383 437 
L 444.329386 437 
L 444.329386 418.1135 
L 434.857383 418.1135 
z
" style="fill:#348abd;opacity:0.6;"/>
   </g>
   <g id="patch_44">
    <path clip-path="url(#p6c540369f4)" d="M 444.329386 437 
L 453.80139 437 
L 453.80139 423.35975 
L 444.329386 423.35975 
z
" style="fill:#348abd;opacity:0.6;"/>
   </g>
   <g id="patch_45">
    <path clip-path="url(#p6c540369f4)" d="M 453.80139 437 
L 463.273393 437 
L 463.273393 428.25625 
L 453.80139 428.25625 
z
" style="fill:#348abd;opacity:0.6;"/>
   </g>
   <g id="patch_46">
    <path clip-path="url(#p6c540369f4)" d="M 463.273393 437 
L 472.745396 437 
L 472.745396 427.55675 
L 463.273393 427.55675 
z
" style="fill:#348abd;opacity:0.6;"/>
   </g>
   <g id="patch_47">
    <path clip-path="url(#p6c540369f4)" d="M 472.745396 437 
L 482.2174 437 
L 482.2174 430.35475 
L 472.745396 430.35475 
z
" style="fill:#348abd;opacity:0.6;"/>
   </g>
   <g id="patch_48">
    <path clip-path="url(#p6c540369f4)" d="M 482.2174 437 
L 491.689403 437 
L 491.689403 431.75375 
L 482.2174 431.75375 
z
" style="fill:#348abd;opacity:0.6;"/>
   </g>
   <g id="patch_49">
    <path clip-path="url(#p6c540369f4)" d="M 491.689403 437 
L 501.161407 437 
L 501.161407 432.45325 
L 491.689403 432.45325 
z
" style="fill:#348abd;opacity:0.6;"/>
   </g>
   <g id="patch_50">
    <path clip-path="url(#p6c540369f4)" d="M 501.161407 437 
L 510.63341 437 
L 510.63341 433.5025 
L 501.161407 433.5025 
z
" style="fill:#348abd;opacity:0.6;"/>
   </g>
   <g id="patch_51">
    <path clip-path="url(#p6c540369f4)" d="M 510.63341 437 
L 520.105414 437 
L 520.105414 433.5025 
L 510.63341 433.5025 
z
" style="fill:#348abd;opacity:0.6;"/>
   </g>
   <g id="patch_52">
    <path clip-path="url(#p6c540369f4)" d="M 520.105414 437 
L 529.577417 437 
L 529.577417 434.202 
L 520.105414 434.202 
z
" style="fill:#348abd;opacity:0.6;"/>
   </g>
   <g id="patch_53">
    <path clip-path="url(#p6c540369f4)" d="M 55.977246 437 
L 65.44925 437 
L 65.44925 436.3005 
L 55.977246 436.3005 
z
" style="fill:#e24a33;opacity:0.6;"/>
   </g>
   <g id="patch_54">
    <path clip-path="url(#p6c540369f4)" d="M 65.44925 437 
L 74.921253 437 
L 74.921253 436.3005 
L 65.44925 436.3005 
z
" style="fill:#e24a33;opacity:0.6;"/>
   </g>
   <g id="patch_55">
    <path clip-path="url(#p6c540369f4)" d="M 74.921253 437 
L 84.393256 437 
L 84.393256 434.202 
L 74.921253 434.202 
z
" style="fill:#e24a33;opacity:0.6;"/>
   </g>
   <g id="patch_56">
    <path clip-path="url(#p6c540369f4)" d="M 84.393256 437 
L 93.86526 437 
L 93.86526 433.85225 
L 84.393256 433.85225 
z
" style="fill:#e24a33;opacity:0.6;"/>
   </g>
   <g id="patch_57">
    <path clip-path="url(#p6c540369f4)" d="M 93.86526 437 
L 103.337263 437 
L 103.337263 427.9065 
L 93.86526 427.9065 
z
" style="fill:#e24a33;opacity:0.6;"/>
   </g>
   <g id="patch_58">
    <path clip-path="url(#p6c540369f4)" d="M 103.337263 437 
L 112.809267 437 
L 112.809267 428.95575 
L 103.337263 428.95575 
z
" style="fill:#e24a33;opacity:0.6;"/>
   </g>
   <g id="patch_59">
    <path clip-path="url(#p6c540369f4)" d="M 112.809267 437 
L 122.28127 437 
L 122.28127 417.76375 
L 112.809267 417.76375 
z
" style="fill:#e24a33;opacity:0.6;"/>
   </g>
   <g id="patch_60">
    <path clip-path="url(#p6c540369f4)" d="M 122.28127 437 
L 131.753273 437 
L 131.753273 412.86725 
L 122.28127 412.86725 
z
" style="fill:#e24a33;opacity:0.6;"/>
   </g>
   <g id="patch_61">
    <path clip-path="url(#p6c540369f4)" d="M 131.753273 437 
L 141.225277 437 
L 141.225277 409.02 
L 131.753273 409.02 
z
" style="fill:#e24a33;opacity:0.6;"/>
   </g>
   <g id="patch_62">
    <path clip-path="url(#p6c540369f4)" d="M 141.225277 437 
L 150.69728 437 
L 150.69728 397.828 
L 141.225277 397.828 
z
" style="fill:#e24a33;opacity:0.6;"/>
   </g>
   <g id="patch_63">
    <path clip-path="url(#p6c540369f4)" d="M 150.69728 437 
L 160.169284 437 
L 160.169284 380.69025 
L 150.69728 380.69025 
z
" style="fill:#e24a33;opacity:0.6;"/>
   </g>
   <g id="patch_64">
    <path clip-path="url(#p6c540369f4)" d="M 160.169284 437 
L 169.641287 437 
L 169.641287 366.70025 
L 160.169284 366.70025 
z
" style="fill:#e24a33;opacity:0.6;"/>
   </g>
   <g id="patch_65">
    <path clip-path="url(#p6c540369f4)" d="M 169.641287 437 
L 179.113291 437 
L 179.113291 357.9565 
L 169.641287 357.9565 
z
" style="fill:#e24a33;opacity:0.6;"/>
   </g>
   <g id="patch_66">
    <path clip-path="url(#p6c540369f4)" d="M 179.113291 437 
L 188.585294 437 
L 188.585294 336.272 
L 179.113291 336.272 
z
" style="fill:#e24a33;opacity:0.6;"/>
   </g>
   <g id="patch_67">
    <path clip-path="url(#p6c540369f4)" d="M 188.585294 437 
L 198.057297 437 
L 198.057297 311.43975 
L 188.585294 311.43975 
z
" style="fill:#e24a33;opacity:0.6;"/>
   </g>
   <g id="patch_68">
    <path clip-path="url(#p6c540369f4)" d="M 198.057297 437 
L 207.529301 437 
L 207.529301 277.16425 
L 198.057297 277.16425 
z
" style="fill:#e24a33;opacity:0.6;"/>
   </g>
   <g id="patch_69">
    <path clip-path="url(#p6c540369f4)" d="M 207.529301 437 
L 217.001304 437 
L 217.001304 260.0265 
L 207.529301 260.0265 
z
" style="fill:#e24a33;opacity:0.6;"/>
   </g>
   <g id="patch_70">
    <path clip-path="url(#p6c540369f4)" d="M 217.001304 437 
L 226.473308 437 
L 226.473308 234.145 
L 217.001304 234.145 
z
" style="fill:#e24a33;opacity:0.6;"/>
   </g>
   <g id="patch_71">
    <path clip-path="url(#p6c540369f4)" d="M 226.473308 437 
L 235.945311 437 
L 235.945311 204.41625 
L 226.473308 204.41625 
z
" style="fill:#e24a33;opacity:0.6;"/>
   </g>
   <g id="patch_72">
    <path clip-path="url(#p6c540369f4)" d="M 235.945311 437 
L 245.417314 437 
L 245.417314 179.584 
L 235.945311 179.584 
z
" style="fill:#e24a33;opacity:0.6;"/>
   </g>
   <g id="patch_73">
    <path clip-path="url(#p6c540369f4)" d="M 245.417314 437 
L 254.889318 437 
L 254.889318 142.5105 
L 245.417314 142.5105 
z
" style="fill:#e24a33;opacity:0.6;"/>
   </g>
   <g id="patch_74">
    <path clip-path="url(#p6c540369f4)" d="M 254.889318 437 
L 264.361321 437 
L 264.361321 118.028 
L 254.889318 118.028 
z
" style="fill:#e24a33;opacity:0.6;"/>
   </g>
   <g id="patch_75">
    <path clip-path="url(#p6c540369f4)" d="M 264.361321 437 
L 273.833325 437 
L 273.833325 127.821 
L 264.361321 127.821 
z
" style="fill:#e24a33;opacity:0.6;"/>
   </g>
   <g id="patch_76">
    <path clip-path="url(#p6c540369f4)" d="M 273.833325 437 
L 283.305328 437 
L 283.305328 86.20075 
L 273.833325 86.20075 
z
" style="fill:#e24a33;opacity:0.6;"/>
   </g>
   <g id="patch_77">
    <path clip-path="url(#p6c540369f4)" d="M 283.305328 437 
L 292.777332 437 
L 292.777332 104.038 
L 283.305328 104.038 
z
" style="fill:#e24a33;opacity:0.6;"/>
   </g>
   <g id="patch_78">
    <path clip-path="url(#p6c540369f4)" d="M 292.777332 437 
L 302.249335 437 
L 302.249335 134.816 
L 292.777332 134.816 
z
" style="fill:#e24a33;opacity:0.6;"/>
   </g>
   <g id="patch_79">
    <path clip-path="url(#p6c540369f4)" d="M 302.249335 437 
L 311.721338 437 
L 311.721338 149.5055 
L 302.249335 149.5055 
z
" style="fill:#e24a33;opacity:0.6;"/>
   </g>
   <g id="patch_80">
    <path clip-path="url(#p6c540369f4)" d="M 311.721338 437 
L 321.193342 437 
L 321.193342 213.8595 
L 311.721338 213.8595 
z
" style="fill:#e24a33;opacity:0.6;"/>
   </g>
   <g id="patch_81">
    <path clip-path="url(#p6c540369f4)" d="M 321.193342 437 
L 330.665345 437 
L 330.665345 272.96725 
L 321.193342 272.96725 
z
" style="fill:#e24a33;opacity:0.6;"/>
   </g>
   <g id="patch_82">
    <path clip-path="url(#p6c540369f4)" d="M 330.665345 437 
L 340.137349 437 
L 340.137349 328.22775 
L 330.665345 328.22775 
z
" style="fill:#e24a33;opacity:0.6;"/>
   </g>
   <g id="patch_83">
    <path clip-path="url(#p6c540369f4)" d="M 340.137349 437 
L 349.609352 437 
L 349.609352 365.30125 
L 340.137349 365.30125 
z
" style="fill:#e24a33;opacity:0.6;"/>
   </g>
   <g id="patch_84">
    <path clip-path="url(#p6c540369f4)" d="M 349.609352 437 
L 359.081355 437 
L 359.081355 396.429 
L 349.609352 396.429 
z
" style="fill:#e24a33;opacity:0.6;"/>
   </g>
   <g id="patch_85">
    <path clip-path="url(#p6c540369f4)" d="M 359.081355 437 
L 368.553359 437 
L 368.553359 412.86725 
L 359.081355 412.86725 
z
" style="fill:#e24a33;opacity:0.6;"/>
   </g>
   <g id="patch_86">
    <path clip-path="url(#p6c540369f4)" d="M 368.553359 437 
L 378.025362 437 
L 378.025362 414.26625 
L 368.553359 414.26625 
z
" style="fill:#e24a33;opacity:0.6;"/>
   </g>
   <g id="patch_87">
    <path clip-path="url(#p6c540369f4)" d="M 378.025362 437 
L 387.497366 437 
L 387.497366 427.207 
L 378.025362 427.207 
z
" style="fill:#e24a33;opacity:0.6;"/>
   </g>
   <g id="patch_88">
    <path clip-path="url(#p6c540369f4)" d="M 387.497366 437 
L 396.969369 437 
L 396.969369 429.3055 
L 387.497366 429.3055 
z
" style="fill:#e24a33;opacity:0.6;"/>
   </g>
   <g id="patch_89">
    <path clip-path="url(#p6c540369f4)" d="M 396.969369 437 
L 406.441373 437 
L 406.441373 432.45325 
L 396.969369 432.45325 
z
" style="fill:#e24a33;opacity:0.6;"/>
   </g>
   <g id="patch_90">
    <path clip-path="url(#p6c540369f4)" d="M 406.441373 437 
L 415.913376 437 
L 415.913376 434.202 
L 406.441373 434.202 
z
" style="fill:#e24a33;opacity:0.6;"/>
   </g>
   <g id="patch_91">
    <path clip-path="url(#p6c540369f4)" d="M 415.913376 437 
L 425.385379 437 
L 425.385379 434.9015 
L 415.913376 434.9015 
z
" style="fill:#e24a33;opacity:0.6;"/>
   </g>
   <g id="patch_92">
    <path clip-path="url(#p6c540369f4)" d="M 425.385379 437 
L 434.857383 437 
L 434.857383 436.3005 
L 425.385379 436.3005 
z
" style="fill:#e24a33;opacity:0.6;"/>
   </g>
   <g id="patch_93">
    <path clip-path="url(#p6c540369f4)" d="M 434.857383 437 
L 444.329386 437 
L 444.329386 436.3005 
L 434.857383 436.3005 
z
" style="fill:#e24a33;opacity:0.6;"/>
   </g>
   <g id="patch_94">
    <path clip-path="url(#p6c540369f4)" d="M 444.329386 437 
L 453.80139 437 
L 453.80139 435.95075 
L 444.329386 435.95075 
z
" style="fill:#e24a33;opacity:0.6;"/>
   </g>
   <g id="patch_95">
    <path clip-path="url(#p6c540369f4)" d="M 453.80139 437 
L 463.273393 437 
L 463.273393 436.65025 
L 453.80139 436.65025 
z
" style="fill:#e24a33;opacity:0.6;"/>
   </g>
   <g id="patch_96">
    <path clip-path="url(#p6c540369f4)" d="M 463.273393 437 
L 472.745396 437 
L 472.745396 436.65025 
L 463.273393 436.65025 
z
" style="fill:#e24a33;opacity:0.6;"/>
   </g>
   <g id="patch_97">
    <path clip-path="url(#p6c540369f4)" d="M 472.745396 437 
L 482.2174 437 
L 482.2174 437 
L 472.745396 437 
z
" style="fill:#e24a33;opacity:0.6;"/>
   </g>
   <g id="patch_98">
    <path clip-path="url(#p6c540369f4)" d="M 482.2174 437 
L 491.689403 437 
L 491.689403 437 
L 482.2174 437 
z
" style="fill:#e24a33;opacity:0.6;"/>
   </g>
   <g id="patch_99">
    <path clip-path="url(#p6c540369f4)" d="M 491.689403 437 
L 501.161407 437 
L 501.161407 436.65025 
L 491.689403 436.65025 
z
" style="fill:#e24a33;opacity:0.6;"/>
   </g>
   <g id="patch_100">
    <path clip-path="url(#p6c540369f4)" d="M 501.161407 437 
L 510.63341 437 
L 510.63341 437 
L 501.161407 437 
z
" style="fill:#e24a33;opacity:0.6;"/>
   </g>
   <g id="patch_101">
    <path clip-path="url(#p6c540369f4)" d="M 510.63341 437 
L 520.105414 437 
L 520.105414 436.65025 
L 510.63341 436.65025 
z
" style="fill:#e24a33;opacity:0.6;"/>
   </g>
   <g id="patch_102">
    <path clip-path="url(#p6c540369f4)" d="M 520.105414 437 
L 529.577417 437 
L 529.577417 437 
L 520.105414 437 
z
" style="fill:#e24a33;opacity:0.6;"/>
   </g>
   <g id="patch_103">
    <path d="M 55.977246 437 
L 55.977246 17.3 
" style="fill:none;stroke:#000000;stroke-linecap:square;stroke-linejoin:miter;stroke-width:1.2;"/>
   </g>
   <g id="patch_104">
    <path d="M 529.577417 437 
L 529.577417 17.3 
" style="fill:none;stroke:#000000;stroke-linecap:square;stroke-linejoin:miter;stroke-width:1.2;"/>
   </g>
   <g id="patch_105">
    <path d="M 55.977246 437 
L 529.577417 437 
" style="fill:none;stroke:#000000;stroke-linecap:square;stroke-linejoin:miter;stroke-width:1.2;"/>
   </g>
   <g id="patch_106">
    <path d="M 55.977246 17.3 
L 529.577417 17.3 
" style="fill:none;stroke:#000000;stroke-linecap:square;stroke-linejoin:miter;stroke-width:1.2;"/>
   </g>
   <g id="matplotlib.axis_1">
    <g id="xtick_1">
     <g id="line2d_1">
      <defs>
       <path d="M 0 0 
L 0 -6 
" id="mbd0e885073" style="stroke:#1a1a1a;stroke-width:0.8;"/>
      </defs>
      <g>
       <use style="fill:#1a1a1a;stroke:#1a1a1a;stroke-width:0.8;" x="55.977246" xlink:href="#mbd0e885073" y="437"/>
      </g>
     </g>
     <g id="text_1">
      <!-- $\mathdefault{0}$ -->
      <defs>
       <path d="M 31.78125 66.40625 
Q 24.171875 66.40625 20.328125 58.90625 
Q 16.5 51.421875 16.5 36.375 
Q 16.5 21.390625 20.328125 13.890625 
Q 24.171875 6.390625 31.78125 6.390625 
Q 39.453125 6.390625 43.28125 13.890625 
Q 47.125 21.390625 47.125 36.375 
Q 47.125 51.421875 43.28125 58.90625 
Q 39.453125 66.40625 31.78125 66.40625 
z
M 31.78125 74.21875 
Q 44.046875 74.21875 50.515625 64.515625 
Q 56.984375 54.828125 56.984375 36.375 
Q 56.984375 17.96875 50.515625 8.265625 
Q 44.046875 -1.421875 31.78125 -1.421875 
Q 19.53125 -1.421875 13.0625 8.265625 
Q 6.59375 17.96875 6.59375 36.375 
Q 6.59375 54.828125 13.0625 64.515625 
Q 19.53125 74.21875 31.78125 74.21875 
z
" id="DejaVuSans-48"/>
      </defs>
      <g style="fill:#1a1a1a;" transform="translate(51.177246 454.397656)scale(0.15 -0.15)">
       <use transform="translate(0 0.78125)" xlink:href="#DejaVuSans-48"/>
      </g>
     </g>
    </g>
    <g id="xtick_2">
     <g id="line2d_2">
      <g>
       <use style="fill:#1a1a1a;stroke:#1a1a1a;stroke-width:0.8;" x="150.69728" xlink:href="#mbd0e885073" y="437"/>
      </g>
     </g>
     <g id="text_2">
      <!-- $\mathdefault{2}$ -->
      <defs>
       <path d="M 19.1875 8.296875 
L 53.609375 8.296875 
L 53.609375 0 
L 7.328125 0 
L 7.328125 8.296875 
Q 12.9375 14.109375 22.625 23.890625 
Q 32.328125 33.6875 34.8125 36.53125 
Q 39.546875 41.84375 41.421875 45.53125 
Q 43.3125 49.21875 43.3125 52.78125 
Q 43.3125 58.59375 39.234375 62.25 
Q 35.15625 65.921875 28.609375 65.921875 
Q 23.96875 65.921875 18.8125 64.3125 
Q 13.671875 62.703125 7.8125 59.421875 
L 7.8125 69.390625 
Q 13.765625 71.78125 18.9375 73 
Q 24.125 74.21875 28.421875 74.21875 
Q 39.75 74.21875 46.484375 68.546875 
Q 53.21875 62.890625 53.21875 53.421875 
Q 53.21875 48.921875 51.53125 44.890625 
Q 49.859375 40.875 45.40625 35.40625 
Q 44.1875 33.984375 37.640625 27.21875 
Q 31.109375 20.453125 19.1875 8.296875 
z
" id="DejaVuSans-50"/>
      </defs>
      <g style="fill:#1a1a1a;" transform="translate(145.89728 454.397656)scale(0.15 -0.15)">
       <use transform="translate(0 0.78125)" xlink:href="#DejaVuSans-50"/>
      </g>
     </g>
    </g>
    <g id="xtick_3">
     <g id="line2d_3">
      <g>
       <use style="fill:#1a1a1a;stroke:#1a1a1a;stroke-width:0.8;" x="245.417314" xlink:href="#mbd0e885073" y="437"/>
      </g>
     </g>
     <g id="text_3">
      <!-- $\mathdefault{4}$ -->
      <defs>
       <path d="M 37.796875 64.3125 
L 12.890625 25.390625 
L 37.796875 25.390625 
z
M 35.203125 72.90625 
L 47.609375 72.90625 
L 47.609375 25.390625 
L 58.015625 25.390625 
L 58.015625 17.1875 
L 47.609375 17.1875 
L 47.609375 0 
L 37.796875 0 
L 37.796875 17.1875 
L 4.890625 17.1875 
L 4.890625 26.703125 
z
" id="DejaVuSans-52"/>
      </defs>
      <g style="fill:#1a1a1a;" transform="translate(240.617314 454.397656)scale(0.15 -0.15)">
       <use transform="translate(0 0.09375)" xlink:href="#DejaVuSans-52"/>
      </g>
     </g>
    </g>
    <g id="xtick_4">
     <g id="line2d_4">
      <g>
       <use style="fill:#1a1a1a;stroke:#1a1a1a;stroke-width:0.8;" x="340.137349" xlink:href="#mbd0e885073" y="437"/>
      </g>
     </g>
     <g id="text_4">
      <!-- $\mathdefault{6}$ -->
      <defs>
       <path d="M 33.015625 40.375 
Q 26.375 40.375 22.484375 35.828125 
Q 18.609375 31.296875 18.609375 23.390625 
Q 18.609375 15.53125 22.484375 10.953125 
Q 26.375 6.390625 33.015625 6.390625 
Q 39.65625 6.390625 43.53125 10.953125 
Q 47.40625 15.53125 47.40625 23.390625 
Q 47.40625 31.296875 43.53125 35.828125 
Q 39.65625 40.375 33.015625 40.375 
z
M 52.59375 71.296875 
L 52.59375 62.3125 
Q 48.875 64.0625 45.09375 64.984375 
Q 41.3125 65.921875 37.59375 65.921875 
Q 27.828125 65.921875 22.671875 59.328125 
Q 17.53125 52.734375 16.796875 39.40625 
Q 19.671875 43.65625 24.015625 45.921875 
Q 28.375 48.1875 33.59375 48.1875 
Q 44.578125 48.1875 50.953125 41.515625 
Q 57.328125 34.859375 57.328125 23.390625 
Q 57.328125 12.15625 50.6875 5.359375 
Q 44.046875 -1.421875 33.015625 -1.421875 
Q 20.359375 -1.421875 13.671875 8.265625 
Q 6.984375 17.96875 6.984375 36.375 
Q 6.984375 53.65625 15.1875 63.9375 
Q 23.390625 74.21875 37.203125 74.21875 
Q 40.921875 74.21875 44.703125 73.484375 
Q 48.484375 72.75 52.59375 71.296875 
z
" id="DejaVuSans-54"/>
      </defs>
      <g style="fill:#1a1a1a;" transform="translate(335.337349 454.397656)scale(0.15 -0.15)">
       <use transform="translate(0 0.78125)" xlink:href="#DejaVuSans-54"/>
      </g>
     </g>
    </g>
    <g id="xtick_5">
     <g id="line2d_5">
      <g>
       <use style="fill:#1a1a1a;stroke:#1a1a1a;stroke-width:0.8;" x="434.857383" xlink:href="#mbd0e885073" y="437"/>
      </g>
     </g>
     <g id="text_5">
      <!-- $\mathdefault{8}$ -->
      <defs>
       <path d="M 31.78125 34.625 
Q 24.75 34.625 20.71875 30.859375 
Q 16.703125 27.09375 16.703125 20.515625 
Q 16.703125 13.921875 20.71875 10.15625 
Q 24.75 6.390625 31.78125 6.390625 
Q 38.8125 6.390625 42.859375 10.171875 
Q 46.921875 13.96875 46.921875 20.515625 
Q 46.921875 27.09375 42.890625 30.859375 
Q 38.875 34.625 31.78125 34.625 
z
M 21.921875 38.8125 
Q 15.578125 40.375 12.03125 44.71875 
Q 8.5 49.078125 8.5 55.328125 
Q 8.5 64.0625 14.71875 69.140625 
Q 20.953125 74.21875 31.78125 74.21875 
Q 42.671875 74.21875 48.875 69.140625 
Q 55.078125 64.0625 55.078125 55.328125 
Q 55.078125 49.078125 51.53125 44.71875 
Q 48 40.375 41.703125 38.8125 
Q 48.828125 37.15625 52.796875 32.3125 
Q 56.78125 27.484375 56.78125 20.515625 
Q 56.78125 9.90625 50.3125 4.234375 
Q 43.84375 -1.421875 31.78125 -1.421875 
Q 19.734375 -1.421875 13.25 4.234375 
Q 6.78125 9.90625 6.78125 20.515625 
Q 6.78125 27.484375 10.78125 32.3125 
Q 14.796875 37.15625 21.921875 38.8125 
z
M 18.3125 54.390625 
Q 18.3125 48.734375 21.84375 45.5625 
Q 25.390625 42.390625 31.78125 42.390625 
Q 38.140625 42.390625 41.71875 45.5625 
Q 45.3125 48.734375 45.3125 54.390625 
Q 45.3125 60.0625 41.71875 63.234375 
Q 38.140625 66.40625 31.78125 66.40625 
Q 25.390625 66.40625 21.84375 63.234375 
Q 18.3125 60.0625 18.3125 54.390625 
z
" id="DejaVuSans-56"/>
      </defs>
      <g style="fill:#1a1a1a;" transform="translate(430.057383 454.397656)scale(0.15 -0.15)">
       <use transform="translate(0 0.78125)" xlink:href="#DejaVuSans-56"/>
      </g>
     </g>
    </g>
    <g id="xtick_6">
     <g id="line2d_6">
      <g>
       <use style="fill:#1a1a1a;stroke:#1a1a1a;stroke-width:0.8;" x="529.577417" xlink:href="#mbd0e885073" y="437"/>
      </g>
     </g>
     <g id="text_6">
      <!-- $\mathdefault{10}$ -->
      <defs>
       <path d="M 12.40625 8.296875 
L 28.515625 8.296875 
L 28.515625 63.921875 
L 10.984375 60.40625 
L 10.984375 69.390625 
L 28.421875 72.90625 
L 38.28125 72.90625 
L 38.28125 8.296875 
L 54.390625 8.296875 
L 54.390625 0 
L 12.40625 0 
z
" id="DejaVuSans-49"/>
      </defs>
      <g style="fill:#1a1a1a;" transform="translate(519.977417 454.397656)scale(0.15 -0.15)">
       <use transform="translate(0 0.78125)" xlink:href="#DejaVuSans-49"/>
       <use transform="translate(63.623047 0.78125)" xlink:href="#DejaVuSans-48"/>
      </g>
     </g>
    </g>
    <g id="xtick_7">
     <g id="line2d_7">
      <defs>
       <path d="M 0 0 
L 0 -3 
" id="mde400a10c6" style="stroke:#1a1a1a;stroke-width:0.6;"/>
      </defs>
      <g>
       <use style="fill:#1a1a1a;stroke:#1a1a1a;stroke-width:0.6;" x="79.657255" xlink:href="#mde400a10c6" y="437"/>
      </g>
     </g>
    </g>
    <g id="xtick_8">
     <g id="line2d_8">
      <g>
       <use style="fill:#1a1a1a;stroke:#1a1a1a;stroke-width:0.6;" x="103.337263" xlink:href="#mde400a10c6" y="437"/>
      </g>
     </g>
    </g>
    <g id="xtick_9">
     <g id="line2d_9">
      <g>
       <use style="fill:#1a1a1a;stroke:#1a1a1a;stroke-width:0.6;" x="127.017272" xlink:href="#mde400a10c6" y="437"/>
      </g>
     </g>
    </g>
    <g id="xtick_10">
     <g id="line2d_10">
      <g>
       <use style="fill:#1a1a1a;stroke:#1a1a1a;stroke-width:0.6;" x="174.377289" xlink:href="#mde400a10c6" y="437"/>
      </g>
     </g>
    </g>
    <g id="xtick_11">
     <g id="line2d_11">
      <g>
       <use style="fill:#1a1a1a;stroke:#1a1a1a;stroke-width:0.6;" x="198.057297" xlink:href="#mde400a10c6" y="437"/>
      </g>
     </g>
    </g>
    <g id="xtick_12">
     <g id="line2d_12">
      <g>
       <use style="fill:#1a1a1a;stroke:#1a1a1a;stroke-width:0.6;" x="221.737306" xlink:href="#mde400a10c6" y="437"/>
      </g>
     </g>
    </g>
    <g id="xtick_13">
     <g id="line2d_13">
      <g>
       <use style="fill:#1a1a1a;stroke:#1a1a1a;stroke-width:0.6;" x="269.097323" xlink:href="#mde400a10c6" y="437"/>
      </g>
     </g>
    </g>
    <g id="xtick_14">
     <g id="line2d_14">
      <g>
       <use style="fill:#1a1a1a;stroke:#1a1a1a;stroke-width:0.6;" x="292.777332" xlink:href="#mde400a10c6" y="437"/>
      </g>
     </g>
    </g>
    <g id="xtick_15">
     <g id="line2d_15">
      <g>
       <use style="fill:#1a1a1a;stroke:#1a1a1a;stroke-width:0.6;" x="316.45734" xlink:href="#mde400a10c6" y="437"/>
      </g>
     </g>
    </g>
    <g id="xtick_16">
     <g id="line2d_16">
      <g>
       <use style="fill:#1a1a1a;stroke:#1a1a1a;stroke-width:0.6;" x="363.817357" xlink:href="#mde400a10c6" y="437"/>
      </g>
     </g>
    </g>
    <g id="xtick_17">
     <g id="line2d_17">
      <g>
       <use style="fill:#1a1a1a;stroke:#1a1a1a;stroke-width:0.6;" x="387.497366" xlink:href="#mde400a10c6" y="437"/>
      </g>
     </g>
    </g>
    <g id="xtick_18">
     <g id="line2d_18">
      <g>
       <use style="fill:#1a1a1a;stroke:#1a1a1a;stroke-width:0.6;" x="411.177374" xlink:href="#mde400a10c6" y="437"/>
      </g>
     </g>
    </g>
    <g id="xtick_19">
     <g id="line2d_19">
      <g>
       <use style="fill:#1a1a1a;stroke:#1a1a1a;stroke-width:0.6;" x="458.537391" xlink:href="#mde400a10c6" y="437"/>
      </g>
     </g>
    </g>
    <g id="xtick_20">
     <g id="line2d_20">
      <g>
       <use style="fill:#1a1a1a;stroke:#1a1a1a;stroke-width:0.6;" x="482.2174" xlink:href="#mde400a10c6" y="437"/>
      </g>
     </g>
    </g>
    <g id="xtick_21">
     <g id="line2d_21">
      <g>
       <use style="fill:#1a1a1a;stroke:#1a1a1a;stroke-width:0.6;" x="505.897408" xlink:href="#mde400a10c6" y="437"/>
      </g>
     </g>
    </g>
    <g id="text_7">
     <!-- ROE mass [GeV/$c^2$] -->
     <defs>
      <path d="M 44.390625 34.1875 
Q 47.5625 33.109375 50.5625 29.59375 
Q 53.5625 26.078125 56.59375 19.921875 
L 66.609375 0 
L 56 0 
L 46.6875 18.703125 
Q 43.0625 26.03125 39.671875 28.421875 
Q 36.28125 30.8125 30.421875 30.8125 
L 19.671875 30.8125 
L 19.671875 0 
L 9.8125 0 
L 9.8125 72.90625 
L 32.078125 72.90625 
Q 44.578125 72.90625 50.734375 67.671875 
Q 56.890625 62.453125 56.890625 51.90625 
Q 56.890625 45.015625 53.6875 40.46875 
Q 50.484375 35.9375 44.390625 34.1875 
z
M 19.671875 64.796875 
L 19.671875 38.921875 
L 32.078125 38.921875 
Q 39.203125 38.921875 42.84375 42.21875 
Q 46.484375 45.515625 46.484375 51.90625 
Q 46.484375 58.296875 42.84375 61.546875 
Q 39.203125 64.796875 32.078125 64.796875 
z
" id="DejaVuSans-82"/>
      <path d="M 39.40625 66.21875 
Q 28.65625 66.21875 22.328125 58.203125 
Q 16.015625 50.203125 16.015625 36.375 
Q 16.015625 22.609375 22.328125 14.59375 
Q 28.65625 6.59375 39.40625 6.59375 
Q 50.140625 6.59375 56.421875 14.59375 
Q 62.703125 22.609375 62.703125 36.375 
Q 62.703125 50.203125 56.421875 58.203125 
Q 50.140625 66.21875 39.40625 66.21875 
z
M 39.40625 74.21875 
Q 54.734375 74.21875 63.90625 63.9375 
Q 73.09375 53.65625 73.09375 36.375 
Q 73.09375 19.140625 63.90625 8.859375 
Q 54.734375 -1.421875 39.40625 -1.421875 
Q 24.03125 -1.421875 14.8125 8.828125 
Q 5.609375 19.09375 5.609375 36.375 
Q 5.609375 53.65625 14.8125 63.9375 
Q 24.03125 74.21875 39.40625 74.21875 
z
" id="DejaVuSans-79"/>
      <path d="M 9.8125 72.90625 
L 55.90625 72.90625 
L 55.90625 64.59375 
L 19.671875 64.59375 
L 19.671875 43.015625 
L 54.390625 43.015625 
L 54.390625 34.71875 
L 19.671875 34.71875 
L 19.671875 8.296875 
L 56.78125 8.296875 
L 56.78125 0 
L 9.8125 0 
z
" id="DejaVuSans-69"/>
      <path id="DejaVuSans-32"/>
      <path d="M 52 44.1875 
Q 55.375 50.25 60.0625 53.125 
Q 64.75 56 71.09375 56 
Q 79.640625 56 84.28125 50.015625 
Q 88.921875 44.046875 88.921875 33.015625 
L 88.921875 0 
L 79.890625 0 
L 79.890625 32.71875 
Q 79.890625 40.578125 77.09375 44.375 
Q 74.3125 48.1875 68.609375 48.1875 
Q 61.625 48.1875 57.5625 43.546875 
Q 53.515625 38.921875 53.515625 30.90625 
L 53.515625 0 
L 44.484375 0 
L 44.484375 32.71875 
Q 44.484375 40.625 41.703125 44.40625 
Q 38.921875 48.1875 33.109375 48.1875 
Q 26.21875 48.1875 22.15625 43.53125 
Q 18.109375 38.875 18.109375 30.90625 
L 18.109375 0 
L 9.078125 0 
L 9.078125 54.6875 
L 18.109375 54.6875 
L 18.109375 46.1875 
Q 21.1875 51.21875 25.484375 53.609375 
Q 29.78125 56 35.6875 56 
Q 41.65625 56 45.828125 52.96875 
Q 50 49.953125 52 44.1875 
z
" id="DejaVuSans-109"/>
      <path d="M 34.28125 27.484375 
Q 23.390625 27.484375 19.1875 25 
Q 14.984375 22.515625 14.984375 16.5 
Q 14.984375 11.71875 18.140625 8.90625 
Q 21.296875 6.109375 26.703125 6.109375 
Q 34.1875 6.109375 38.703125 11.40625 
Q 43.21875 16.703125 43.21875 25.484375 
L 43.21875 27.484375 
z
M 52.203125 31.203125 
L 52.203125 0 
L 43.21875 0 
L 43.21875 8.296875 
Q 40.140625 3.328125 35.546875 0.953125 
Q 30.953125 -1.421875 24.3125 -1.421875 
Q 15.921875 -1.421875 10.953125 3.296875 
Q 6 8.015625 6 15.921875 
Q 6 25.140625 12.171875 29.828125 
Q 18.359375 34.515625 30.609375 34.515625 
L 43.21875 34.515625 
L 43.21875 35.40625 
Q 43.21875 41.609375 39.140625 45 
Q 35.0625 48.390625 27.6875 48.390625 
Q 23 48.390625 18.546875 47.265625 
Q 14.109375 46.140625 10.015625 43.890625 
L 10.015625 52.203125 
Q 14.9375 54.109375 19.578125 55.046875 
Q 24.21875 56 28.609375 56 
Q 40.484375 56 46.34375 49.84375 
Q 52.203125 43.703125 52.203125 31.203125 
z
" id="DejaVuSans-97"/>
      <path d="M 44.28125 53.078125 
L 44.28125 44.578125 
Q 40.484375 46.53125 36.375 47.5 
Q 32.28125 48.484375 27.875 48.484375 
Q 21.1875 48.484375 17.84375 46.4375 
Q 14.5 44.390625 14.5 40.28125 
Q 14.5 37.15625 16.890625 35.375 
Q 19.28125 33.59375 26.515625 31.984375 
L 29.59375 31.296875 
Q 39.15625 29.25 43.1875 25.515625 
Q 47.21875 21.78125 47.21875 15.09375 
Q 47.21875 7.46875 41.1875 3.015625 
Q 35.15625 -1.421875 24.609375 -1.421875 
Q 20.21875 -1.421875 15.453125 -0.5625 
Q 10.6875 0.296875 5.421875 2 
L 5.421875 11.28125 
Q 10.40625 8.6875 15.234375 7.390625 
Q 20.0625 6.109375 24.8125 6.109375 
Q 31.15625 6.109375 34.5625 8.28125 
Q 37.984375 10.453125 37.984375 14.40625 
Q 37.984375 18.0625 35.515625 20.015625 
Q 33.0625 21.96875 24.703125 23.78125 
L 21.578125 24.515625 
Q 13.234375 26.265625 9.515625 29.90625 
Q 5.8125 33.546875 5.8125 39.890625 
Q 5.8125 47.609375 11.28125 51.796875 
Q 16.75 56 26.8125 56 
Q 31.78125 56 36.171875 55.265625 
Q 40.578125 54.546875 44.28125 53.078125 
z
" id="DejaVuSans-115"/>
      <path d="M 8.59375 75.984375 
L 29.296875 75.984375 
L 29.296875 69 
L 17.578125 69 
L 17.578125 -6.203125 
L 29.296875 -6.203125 
L 29.296875 -13.1875 
L 8.59375 -13.1875 
z
" id="DejaVuSans-91"/>
      <path d="M 59.515625 10.40625 
L 59.515625 29.984375 
L 43.40625 29.984375 
L 43.40625 38.09375 
L 69.28125 38.09375 
L 69.28125 6.78125 
Q 63.578125 2.734375 56.6875 0.65625 
Q 49.8125 -1.421875 42 -1.421875 
Q 24.90625 -1.421875 15.25 8.5625 
Q 5.609375 18.5625 5.609375 36.375 
Q 5.609375 54.25 15.25 64.234375 
Q 24.90625 74.21875 42 74.21875 
Q 49.125 74.21875 55.546875 72.453125 
Q 61.96875 70.703125 67.390625 67.28125 
L 67.390625 56.78125 
Q 61.921875 61.421875 55.765625 63.765625 
Q 49.609375 66.109375 42.828125 66.109375 
Q 29.4375 66.109375 22.71875 58.640625 
Q 16.015625 51.171875 16.015625 36.375 
Q 16.015625 21.625 22.71875 14.15625 
Q 29.4375 6.6875 42.828125 6.6875 
Q 48.046875 6.6875 52.140625 7.59375 
Q 56.25 8.5 59.515625 10.40625 
z
" id="DejaVuSans-71"/>
      <path d="M 56.203125 29.59375 
L 56.203125 25.203125 
L 14.890625 25.203125 
Q 15.484375 15.921875 20.484375 11.0625 
Q 25.484375 6.203125 34.421875 6.203125 
Q 39.59375 6.203125 44.453125 7.46875 
Q 49.3125 8.734375 54.109375 11.28125 
L 54.109375 2.78125 
Q 49.265625 0.734375 44.1875 -0.34375 
Q 39.109375 -1.421875 33.890625 -1.421875 
Q 20.796875 -1.421875 13.15625 6.1875 
Q 5.515625 13.8125 5.515625 26.8125 
Q 5.515625 40.234375 12.765625 48.109375 
Q 20.015625 56 32.328125 56 
Q 43.359375 56 49.78125 48.890625 
Q 56.203125 41.796875 56.203125 29.59375 
z
M 47.21875 32.234375 
Q 47.125 39.59375 43.09375 43.984375 
Q 39.0625 48.390625 32.421875 48.390625 
Q 24.90625 48.390625 20.390625 44.140625 
Q 15.875 39.890625 15.1875 32.171875 
z
" id="DejaVuSans-101"/>
      <path d="M 28.609375 0 
L 0.78125 72.90625 
L 11.078125 72.90625 
L 34.1875 11.53125 
L 57.328125 72.90625 
L 67.578125 72.90625 
L 39.796875 0 
z
" id="DejaVuSans-86"/>
      <path d="M 25.390625 72.90625 
L 33.6875 72.90625 
L 8.296875 -9.28125 
L 0 -9.28125 
z
" id="DejaVuSans-47"/>
      <path d="M 53.609375 52.59375 
L 51.8125 43.703125 
Q 48.578125 46.046875 44.9375 47.21875 
Q 41.3125 48.390625 37.40625 48.390625 
Q 33.109375 48.390625 29.21875 46.875 
Q 25.34375 45.359375 22.703125 42.578125 
Q 18.5 38.328125 16.203125 32.609375 
Q 13.921875 26.90625 13.921875 20.796875 
Q 13.921875 13.421875 17.609375 9.8125 
Q 21.296875 6.203125 28.8125 6.203125 
Q 32.515625 6.203125 36.6875 7.328125 
Q 40.875 8.453125 45.40625 10.6875 
L 43.703125 1.8125 
Q 39.796875 0.203125 35.671875 -0.609375 
Q 31.546875 -1.421875 27.203125 -1.421875 
Q 16.3125 -1.421875 10.453125 4.015625 
Q 4.59375 9.46875 4.59375 19.578125 
Q 4.59375 28.078125 7.640625 35.234375 
Q 10.6875 42.390625 16.703125 48.09375 
Q 20.796875 52 26.3125 54 
Q 31.84375 56 38.375 56 
Q 42.1875 56 45.9375 55.140625 
Q 49.703125 54.296875 53.609375 52.59375 
z
" id="DejaVuSans-Oblique-99"/>
      <path d="M 30.421875 75.984375 
L 30.421875 -13.1875 
L 9.71875 -13.1875 
L 9.71875 -6.203125 
L 21.390625 -6.203125 
L 21.390625 69 
L 9.71875 69 
L 9.71875 75.984375 
z
" id="DejaVuSans-93"/>
     </defs>
     <g style="fill:#1a1a1a;" transform="translate(186.737332 482.041875)scale(0.22 -0.22)">
      <use transform="translate(0 0.765625)" xlink:href="#DejaVuSans-82"/>
      <use transform="translate(69.482422 0.765625)" xlink:href="#DejaVuSans-79"/>
      <use transform="translate(148.193359 0.765625)" xlink:href="#DejaVuSans-69"/>
      <use transform="translate(211.376953 0.765625)" xlink:href="#DejaVuSans-32"/>
      <use transform="translate(243.164062 0.765625)" xlink:href="#DejaVuSans-109"/>
      <use transform="translate(340.576172 0.765625)" xlink:href="#DejaVuSans-97"/>
      <use transform="translate(401.855469 0.765625)" xlink:href="#DejaVuSans-115"/>
      <use transform="translate(453.955078 0.765625)" xlink:href="#DejaVuSans-115"/>
      <use transform="translate(506.054688 0.765625)" xlink:href="#DejaVuSans-32"/>
      <use transform="translate(537.841797 0.765625)" xlink:href="#DejaVuSans-91"/>
      <use transform="translate(576.855469 0.765625)" xlink:href="#DejaVuSans-71"/>
      <use transform="translate(654.345703 0.765625)" xlink:href="#DejaVuSans-101"/>
      <use transform="translate(715.869141 0.765625)" xlink:href="#DejaVuSans-86"/>
      <use transform="translate(784.277344 0.765625)" xlink:href="#DejaVuSans-47"/>
      <use transform="translate(817.96875 0.765625)" xlink:href="#DejaVuSans-Oblique-99"/>
      <use transform="translate(877.599115 39.046875)scale(0.7)" xlink:href="#DejaVuSans-50"/>
      <use transform="translate(924.869622 0.765625)" xlink:href="#DejaVuSans-93"/>
     </g>
    </g>
   </g>
   <g id="matplotlib.axis_2">
    <g id="ytick_1">
     <g id="line2d_22">
      <defs>
       <path d="M 0 0 
L 6 0 
" id="m051bb091bb" style="stroke:#1a1a1a;stroke-width:0.8;"/>
      </defs>
      <g>
       <use style="fill:#1a1a1a;stroke:#1a1a1a;stroke-width:0.8;" x="55.977246" xlink:href="#m051bb091bb" y="437"/>
      </g>
     </g>
     <g id="text_8">
      <!-- $\mathdefault{0}$ -->
      <g style="fill:#1a1a1a;" transform="translate(40.377246 442.698828)scale(0.15 -0.15)">
       <use transform="translate(0 0.78125)" xlink:href="#DejaVuSans-48"/>
      </g>
     </g>
    </g>
    <g id="ytick_2">
     <g id="line2d_23">
      <g>
       <use style="fill:#1a1a1a;stroke:#1a1a1a;stroke-width:0.8;" x="55.977246" xlink:href="#m051bb091bb" y="367.05"/>
      </g>
     </g>
     <g id="text_9">
      <!-- $\mathdefault{200}$ -->
      <g style="fill:#1a1a1a;" transform="translate(21.327246 372.748828)scale(0.15 -0.15)">
       <use transform="translate(0 0.78125)" xlink:href="#DejaVuSans-50"/>
       <use transform="translate(63.623047 0.78125)" xlink:href="#DejaVuSans-48"/>
       <use transform="translate(127.246094 0.78125)" xlink:href="#DejaVuSans-48"/>
      </g>
     </g>
    </g>
    <g id="ytick_3">
     <g id="line2d_24">
      <g>
       <use style="fill:#1a1a1a;stroke:#1a1a1a;stroke-width:0.8;" x="55.977246" xlink:href="#m051bb091bb" y="297.1"/>
      </g>
     </g>
     <g id="text_10">
      <!-- $\mathdefault{400}$ -->
      <g style="fill:#1a1a1a;" transform="translate(21.327246 302.798828)scale(0.15 -0.15)">
       <use transform="translate(0 0.78125)" xlink:href="#DejaVuSans-52"/>
       <use transform="translate(63.623047 0.78125)" xlink:href="#DejaVuSans-48"/>
       <use transform="translate(127.246094 0.78125)" xlink:href="#DejaVuSans-48"/>
      </g>
     </g>
    </g>
    <g id="ytick_4">
     <g id="line2d_25">
      <g>
       <use style="fill:#1a1a1a;stroke:#1a1a1a;stroke-width:0.8;" x="55.977246" xlink:href="#m051bb091bb" y="227.15"/>
      </g>
     </g>
     <g id="text_11">
      <!-- $\mathdefault{600}$ -->
      <g style="fill:#1a1a1a;" transform="translate(21.327246 232.848828)scale(0.15 -0.15)">
       <use transform="translate(0 0.78125)" xlink:href="#DejaVuSans-54"/>
       <use transform="translate(63.623047 0.78125)" xlink:href="#DejaVuSans-48"/>
       <use transform="translate(127.246094 0.78125)" xlink:href="#DejaVuSans-48"/>
      </g>
     </g>
    </g>
    <g id="ytick_5">
     <g id="line2d_26">
      <g>
       <use style="fill:#1a1a1a;stroke:#1a1a1a;stroke-width:0.8;" x="55.977246" xlink:href="#m051bb091bb" y="157.2"/>
      </g>
     </g>
     <g id="text_12">
      <!-- $\mathdefault{800}$ -->
      <g style="fill:#1a1a1a;" transform="translate(21.327246 162.898828)scale(0.15 -0.15)">
       <use transform="translate(0 0.78125)" xlink:href="#DejaVuSans-56"/>
       <use transform="translate(63.623047 0.78125)" xlink:href="#DejaVuSans-48"/>
       <use transform="translate(127.246094 0.78125)" xlink:href="#DejaVuSans-48"/>
      </g>
     </g>
    </g>
    <g id="ytick_6">
     <g id="line2d_27">
      <g>
       <use style="fill:#1a1a1a;stroke:#1a1a1a;stroke-width:0.8;" x="55.977246" xlink:href="#m051bb091bb" y="87.25"/>
      </g>
     </g>
     <g id="text_13">
      <!-- $\mathdefault{1000}$ -->
      <g style="fill:#1a1a1a;" transform="translate(11.727246 92.948828)scale(0.15 -0.15)">
       <use transform="translate(0 0.78125)" xlink:href="#DejaVuSans-49"/>
       <use transform="translate(63.623047 0.78125)" xlink:href="#DejaVuSans-48"/>
       <use transform="translate(127.246094 0.78125)" xlink:href="#DejaVuSans-48"/>
       <use transform="translate(190.869141 0.78125)" xlink:href="#DejaVuSans-48"/>
      </g>
     </g>
    </g>
    <g id="ytick_7">
     <g id="line2d_28">
      <g>
       <use style="fill:#1a1a1a;stroke:#1a1a1a;stroke-width:0.8;" x="55.977246" xlink:href="#m051bb091bb" y="17.3"/>
      </g>
     </g>
     <g id="text_14">
      <!-- $\mathdefault{1200}$ -->
      <g style="fill:#1a1a1a;" transform="translate(11.727246 22.998828)scale(0.15 -0.15)">
       <use transform="translate(0 0.78125)" xlink:href="#DejaVuSans-49"/>
       <use transform="translate(63.623047 0.78125)" xlink:href="#DejaVuSans-50"/>
       <use transform="translate(127.246094 0.78125)" xlink:href="#DejaVuSans-48"/>
       <use transform="translate(190.869141 0.78125)" xlink:href="#DejaVuSans-48"/>
      </g>
     </g>
    </g>
    <g id="ytick_8">
     <g id="line2d_29">
      <defs>
       <path d="M 0 0 
L 3 0 
" id="m6f42ae3524" style="stroke:#1a1a1a;stroke-width:0.6;"/>
      </defs>
      <g>
       <use style="fill:#1a1a1a;stroke:#1a1a1a;stroke-width:0.6;" x="55.977246" xlink:href="#m6f42ae3524" y="419.5125"/>
      </g>
     </g>
    </g>
    <g id="ytick_9">
     <g id="line2d_30">
      <g>
       <use style="fill:#1a1a1a;stroke:#1a1a1a;stroke-width:0.6;" x="55.977246" xlink:href="#m6f42ae3524" y="402.025"/>
      </g>
     </g>
    </g>
    <g id="ytick_10">
     <g id="line2d_31">
      <g>
       <use style="fill:#1a1a1a;stroke:#1a1a1a;stroke-width:0.6;" x="55.977246" xlink:href="#m6f42ae3524" y="384.5375"/>
      </g>
     </g>
    </g>
    <g id="ytick_11">
     <g id="line2d_32">
      <g>
       <use style="fill:#1a1a1a;stroke:#1a1a1a;stroke-width:0.6;" x="55.977246" xlink:href="#m6f42ae3524" y="349.5625"/>
      </g>
     </g>
    </g>
    <g id="ytick_12">
     <g id="line2d_33">
      <g>
       <use style="fill:#1a1a1a;stroke:#1a1a1a;stroke-width:0.6;" x="55.977246" xlink:href="#m6f42ae3524" y="332.075"/>
      </g>
     </g>
    </g>
    <g id="ytick_13">
     <g id="line2d_34">
      <g>
       <use style="fill:#1a1a1a;stroke:#1a1a1a;stroke-width:0.6;" x="55.977246" xlink:href="#m6f42ae3524" y="314.5875"/>
      </g>
     </g>
    </g>
    <g id="ytick_14">
     <g id="line2d_35">
      <g>
       <use style="fill:#1a1a1a;stroke:#1a1a1a;stroke-width:0.6;" x="55.977246" xlink:href="#m6f42ae3524" y="279.6125"/>
      </g>
     </g>
    </g>
    <g id="ytick_15">
     <g id="line2d_36">
      <g>
       <use style="fill:#1a1a1a;stroke:#1a1a1a;stroke-width:0.6;" x="55.977246" xlink:href="#m6f42ae3524" y="262.125"/>
      </g>
     </g>
    </g>
    <g id="ytick_16">
     <g id="line2d_37">
      <g>
       <use style="fill:#1a1a1a;stroke:#1a1a1a;stroke-width:0.6;" x="55.977246" xlink:href="#m6f42ae3524" y="244.6375"/>
      </g>
     </g>
    </g>
    <g id="ytick_17">
     <g id="line2d_38">
      <g>
       <use style="fill:#1a1a1a;stroke:#1a1a1a;stroke-width:0.6;" x="55.977246" xlink:href="#m6f42ae3524" y="209.6625"/>
      </g>
     </g>
    </g>
    <g id="ytick_18">
     <g id="line2d_39">
      <g>
       <use style="fill:#1a1a1a;stroke:#1a1a1a;stroke-width:0.6;" x="55.977246" xlink:href="#m6f42ae3524" y="192.175"/>
      </g>
     </g>
    </g>
    <g id="ytick_19">
     <g id="line2d_40">
      <g>
       <use style="fill:#1a1a1a;stroke:#1a1a1a;stroke-width:0.6;" x="55.977246" xlink:href="#m6f42ae3524" y="174.6875"/>
      </g>
     </g>
    </g>
    <g id="ytick_20">
     <g id="line2d_41">
      <g>
       <use style="fill:#1a1a1a;stroke:#1a1a1a;stroke-width:0.6;" x="55.977246" xlink:href="#m6f42ae3524" y="139.7125"/>
      </g>
     </g>
    </g>
    <g id="ytick_21">
     <g id="line2d_42">
      <g>
       <use style="fill:#1a1a1a;stroke:#1a1a1a;stroke-width:0.6;" x="55.977246" xlink:href="#m6f42ae3524" y="122.225"/>
      </g>
     </g>
    </g>
    <g id="ytick_22">
     <g id="line2d_43">
      <g>
       <use style="fill:#1a1a1a;stroke:#1a1a1a;stroke-width:0.6;" x="55.977246" xlink:href="#m6f42ae3524" y="104.7375"/>
      </g>
     </g>
    </g>
    <g id="ytick_23">
     <g id="line2d_44">
      <g>
       <use style="fill:#1a1a1a;stroke:#1a1a1a;stroke-width:0.6;" x="55.977246" xlink:href="#m6f42ae3524" y="69.7625"/>
      </g>
     </g>
    </g>
    <g id="ytick_24">
     <g id="line2d_45">
      <g>
       <use style="fill:#1a1a1a;stroke:#1a1a1a;stroke-width:0.6;" x="55.977246" xlink:href="#m6f42ae3524" y="52.275"/>
      </g>
     </g>
    </g>
    <g id="ytick_25">
     <g id="line2d_46">
      <g>
       <use style="fill:#1a1a1a;stroke:#1a1a1a;stroke-width:0.6;" x="55.977246" xlink:href="#m6f42ae3524" y="34.7875"/>
      </g>
     </g>
    </g>
   </g>
  </g>
  <g id="axes_2">
   <g id="patch_107">
    <path d="M 595.599829 437 
L 1069.2 437 
L 1069.2 17.3 
L 595.599829 17.3 
z
" style="fill:#ffffff;"/>
   </g>
   <g id="patch_108">
    <path clip-path="url(#p6335fbee48)" d="M 595.599829 437 
L 627.173174 437 
L 627.173174 435.7409 
L 595.599829 435.7409 
z
" style="fill:#348abd;opacity:0.6;"/>
   </g>
   <g id="patch_109">
    <path clip-path="url(#p6335fbee48)" d="M 627.173174 437 
L 658.746519 437 
L 658.746519 425.1085 
L 627.173174 425.1085 
z
" style="fill:#348abd;opacity:0.6;"/>
   </g>
   <g id="patch_110">
    <path clip-path="url(#p6335fbee48)" d="M 658.746519 437 
L 690.319863 437 
L 690.319863 345.9251 
L 658.746519 345.9251 
z
" style="fill:#348abd;opacity:0.6;"/>
   </g>
   <g id="patch_111">
    <path clip-path="url(#p6335fbee48)" d="M 690.319863 437 
L 721.893208 437 
L 721.893208 330.9558 
L 690.319863 330.9558 
z
" style="fill:#348abd;opacity:0.6;"/>
   </g>
   <g id="patch_112">
    <path clip-path="url(#p6335fbee48)" d="M 721.893208 437 
L 753.466553 437 
L 753.466553 138.4534 
L 721.893208 138.4534 
z
" style="fill:#348abd;opacity:0.6;"/>
   </g>
   <g id="patch_113">
    <path clip-path="url(#p6335fbee48)" d="M 753.466553 437 
L 785.039897 437 
L 785.039897 215.1186 
L 753.466553 215.1186 
z
" style="fill:#348abd;opacity:0.6;"/>
   </g>
   <g id="patch_114">
    <path clip-path="url(#p6335fbee48)" d="M 785.039897 437 
L 816.613242 437 
L 816.613242 154.6818 
L 785.039897 154.6818 
z
" style="fill:#348abd;opacity:0.6;"/>
   </g>
   <g id="patch_115">
    <path clip-path="url(#p6335fbee48)" d="M 816.613242 437 
L 848.186587 437 
L 848.186587 217.6368 
L 816.613242 217.6368 
z
" style="fill:#348abd;opacity:0.6;"/>
   </g>
   <g id="patch_116">
    <path clip-path="url(#p6335fbee48)" d="M 848.186587 437 
L 879.759932 437 
L 879.759932 241.6996 
L 848.186587 241.6996 
z
" style="fill:#348abd;opacity:0.6;"/>
   </g>
   <g id="patch_117">
    <path clip-path="url(#p6335fbee48)" d="M 879.759932 437 
L 911.333276 437 
L 911.333276 309.691 
L 879.759932 309.691 
z
" style="fill:#348abd;opacity:0.6;"/>
   </g>
   <g id="patch_118">
    <path clip-path="url(#p6335fbee48)" d="M 911.333276 437 
L 942.906621 437 
L 942.906621 344.1064 
L 911.333276 344.1064 
z
" style="fill:#348abd;opacity:0.6;"/>
   </g>
   <g id="patch_119">
    <path clip-path="url(#p6335fbee48)" d="M 942.906621 437 
L 974.479966 437 
L 974.479966 379.7809 
L 942.906621 379.7809 
z
" style="fill:#348abd;opacity:0.6;"/>
   </g>
   <g id="patch_120">
    <path clip-path="url(#p6335fbee48)" d="M 974.479966 437 
L 1006.053311 437 
L 1006.053311 401.4654 
L 974.479966 401.4654 
z
" style="fill:#348abd;opacity:0.6;"/>
   </g>
   <g id="patch_121">
    <path clip-path="url(#p6335fbee48)" d="M 1006.053311 437 
L 1037.626655 437 
L 1037.626655 414.8958 
L 1006.053311 414.8958 
z
" style="fill:#348abd;opacity:0.6;"/>
   </g>
   <g id="patch_122">
    <path clip-path="url(#p6335fbee48)" d="M 1037.626655 437 
L 1069.2 437 
L 1069.2 416.8544 
L 1037.626655 416.8544 
z
" style="fill:#348abd;opacity:0.6;"/>
   </g>
   <g id="patch_123">
    <path clip-path="url(#p6335fbee48)" d="M 595.599829 437 
L 627.173174 437 
L 627.173174 434.4818 
L 595.599829 434.4818 
z
" style="fill:#e24a33;opacity:0.6;"/>
   </g>
   <g id="patch_124">
    <path clip-path="url(#p6335fbee48)" d="M 627.173174 437 
L 658.746519 437 
L 658.746519 409.5796 
L 627.173174 409.5796 
z
" style="fill:#e24a33;opacity:0.6;"/>
   </g>
   <g id="patch_125">
    <path clip-path="url(#p6335fbee48)" d="M 658.746519 437 
L 690.319863 437 
L 690.319863 293.0429 
L 658.746519 293.0429 
z
" style="fill:#e24a33;opacity:0.6;"/>
   </g>
   <g id="patch_126">
    <path clip-path="url(#p6335fbee48)" d="M 690.319863 437 
L 721.893208 437 
L 721.893208 224.352 
L 690.319863 224.352 
z
" style="fill:#e24a33;opacity:0.6;"/>
   </g>
   <g id="patch_127">
    <path clip-path="url(#p6335fbee48)" d="M 721.893208 437 
L 753.466553 437 
L 753.466553 41.9224 
L 721.893208 41.9224 
z
" style="fill:#e24a33;opacity:0.6;"/>
   </g>
   <g id="patch_128">
    <path clip-path="url(#p6335fbee48)" d="M 753.466553 437 
L 785.039897 437 
L 785.039897 169.0915 
L 753.466553 169.0915 
z
" style="fill:#e24a33;opacity:0.6;"/>
   </g>
   <g id="patch_129">
    <path clip-path="url(#p6335fbee48)" d="M 785.039897 437 
L 816.613242 437 
L 816.613242 122.5048 
L 785.039897 122.5048 
z
" style="fill:#e24a33;opacity:0.6;"/>
   </g>
   <g id="patch_130">
    <path clip-path="url(#p6335fbee48)" d="M 816.613242 437 
L 848.186587 437 
L 848.186587 256.529 
L 816.613242 256.529 
z
" style="fill:#e24a33;opacity:0.6;"/>
   </g>
   <g id="patch_131">
    <path clip-path="url(#p6335fbee48)" d="M 848.186587 437 
L 879.759932 437 
L 879.759932 312.6289 
L 848.186587 312.6289 
z
" style="fill:#e24a33;opacity:0.6;"/>
   </g>
   <g id="patch_132">
    <path clip-path="url(#p6335fbee48)" d="M 879.759932 437 
L 911.333276 437 
L 911.333276 370.9672 
L 879.759932 370.9672 
z
" style="fill:#e24a33;opacity:0.6;"/>
   </g>
   <g id="patch_133">
    <path clip-path="url(#p6335fbee48)" d="M 911.333276 437 
L 942.906621 437 
L 942.906621 408.7402 
L 911.333276 408.7402 
z
" style="fill:#e24a33;opacity:0.6;"/>
   </g>
   <g id="patch_134">
    <path clip-path="url(#p6335fbee48)" d="M 942.906621 437 
L 974.479966 437 
L 974.479966 421.3312 
L 942.906621 421.3312 
z
" style="fill:#e24a33;opacity:0.6;"/>
   </g>
   <g id="patch_135">
    <path clip-path="url(#p6335fbee48)" d="M 974.479966 437 
L 1006.053311 437 
L 1006.053311 429.3055 
L 974.479966 429.3055 
z
" style="fill:#e24a33;opacity:0.6;"/>
   </g>
   <g id="patch_136">
    <path clip-path="url(#p6335fbee48)" d="M 1006.053311 437 
L 1037.626655 437 
L 1037.626655 434.4818 
L 1006.053311 434.4818 
z
" style="fill:#e24a33;opacity:0.6;"/>
   </g>
   <g id="patch_137">
    <path clip-path="url(#p6335fbee48)" d="M 1037.626655 437 
L 1069.2 437 
L 1069.2 434.3419 
L 1037.626655 434.3419 
z
" style="fill:#e24a33;opacity:0.6;"/>
   </g>
   <g id="patch_138">
    <path d="M 595.599829 437 
L 595.599829 17.3 
" style="fill:none;stroke:#000000;stroke-linecap:square;stroke-linejoin:miter;stroke-width:1.2;"/>
   </g>
   <g id="patch_139">
    <path d="M 1069.2 437 
L 1069.2 17.3 
" style="fill:none;stroke:#000000;stroke-linecap:square;stroke-linejoin:miter;stroke-width:1.2;"/>
   </g>
   <g id="patch_140">
    <path d="M 595.599829 437 
L 1069.2 437 
" style="fill:none;stroke:#000000;stroke-linecap:square;stroke-linejoin:miter;stroke-width:1.2;"/>
   </g>
   <g id="patch_141">
    <path d="M 595.599829 17.3 
L 1069.2 17.3 
" style="fill:none;stroke:#000000;stroke-linecap:square;stroke-linejoin:miter;stroke-width:1.2;"/>
   </g>
   <g id="matplotlib.axis_3">
    <g id="xtick_22">
     <g id="line2d_47">
      <g>
       <use style="fill:#1a1a1a;stroke:#1a1a1a;stroke-width:0.8;" x="595.599829" xlink:href="#mbd0e885073" y="437"/>
      </g>
     </g>
     <g id="text_15">
      <!-- $\mathdefault{0}$ -->
      <g style="fill:#1a1a1a;" transform="translate(590.799829 454.397656)scale(0.15 -0.15)">
       <use transform="translate(0 0.78125)" xlink:href="#DejaVuSans-48"/>
      </g>
     </g>
    </g>
    <g id="xtick_23">
     <g id="line2d_48">
      <g>
       <use style="fill:#1a1a1a;stroke:#1a1a1a;stroke-width:0.8;" x="658.746519" xlink:href="#mbd0e885073" y="437"/>
      </g>
     </g>
     <g id="text_16">
      <!-- $\mathdefault{2}$ -->
      <g style="fill:#1a1a1a;" transform="translate(653.946519 454.397656)scale(0.15 -0.15)">
       <use transform="translate(0 0.78125)" xlink:href="#DejaVuSans-50"/>
      </g>
     </g>
    </g>
    <g id="xtick_24">
     <g id="line2d_49">
      <g>
       <use style="fill:#1a1a1a;stroke:#1a1a1a;stroke-width:0.8;" x="721.893208" xlink:href="#mbd0e885073" y="437"/>
      </g>
     </g>
     <g id="text_17">
      <!-- $\mathdefault{4}$ -->
      <g style="fill:#1a1a1a;" transform="translate(717.093208 454.397656)scale(0.15 -0.15)">
       <use transform="translate(0 0.09375)" xlink:href="#DejaVuSans-52"/>
      </g>
     </g>
    </g>
    <g id="xtick_25">
     <g id="line2d_50">
      <g>
       <use style="fill:#1a1a1a;stroke:#1a1a1a;stroke-width:0.8;" x="785.039897" xlink:href="#mbd0e885073" y="437"/>
      </g>
     </g>
     <g id="text_18">
      <!-- $\mathdefault{6}$ -->
      <g style="fill:#1a1a1a;" transform="translate(780.239897 454.397656)scale(0.15 -0.15)">
       <use transform="translate(0 0.78125)" xlink:href="#DejaVuSans-54"/>
      </g>
     </g>
    </g>
    <g id="xtick_26">
     <g id="line2d_51">
      <g>
       <use style="fill:#1a1a1a;stroke:#1a1a1a;stroke-width:0.8;" x="848.186587" xlink:href="#mbd0e885073" y="437"/>
      </g>
     </g>
     <g id="text_19">
      <!-- $\mathdefault{8}$ -->
      <g style="fill:#1a1a1a;" transform="translate(843.386587 454.397656)scale(0.15 -0.15)">
       <use transform="translate(0 0.78125)" xlink:href="#DejaVuSans-56"/>
      </g>
     </g>
    </g>
    <g id="xtick_27">
     <g id="line2d_52">
      <g>
       <use style="fill:#1a1a1a;stroke:#1a1a1a;stroke-width:0.8;" x="911.333276" xlink:href="#mbd0e885073" y="437"/>
      </g>
     </g>
     <g id="text_20">
      <!-- $\mathdefault{10}$ -->
      <g style="fill:#1a1a1a;" transform="translate(901.733276 454.397656)scale(0.15 -0.15)">
       <use transform="translate(0 0.78125)" xlink:href="#DejaVuSans-49"/>
       <use transform="translate(63.623047 0.78125)" xlink:href="#DejaVuSans-48"/>
      </g>
     </g>
    </g>
    <g id="xtick_28">
     <g id="line2d_53">
      <g>
       <use style="fill:#1a1a1a;stroke:#1a1a1a;stroke-width:0.8;" x="974.479966" xlink:href="#mbd0e885073" y="437"/>
      </g>
     </g>
     <g id="text_21">
      <!-- $\mathdefault{12}$ -->
      <g style="fill:#1a1a1a;" transform="translate(964.879966 454.397656)scale(0.15 -0.15)">
       <use transform="translate(0 0.78125)" xlink:href="#DejaVuSans-49"/>
       <use transform="translate(63.623047 0.78125)" xlink:href="#DejaVuSans-50"/>
      </g>
     </g>
    </g>
    <g id="xtick_29">
     <g id="line2d_54">
      <g>
       <use style="fill:#1a1a1a;stroke:#1a1a1a;stroke-width:0.8;" x="1037.626655" xlink:href="#mbd0e885073" y="437"/>
      </g>
     </g>
     <g id="text_22">
      <!-- $\mathdefault{14}$ -->
      <g style="fill:#1a1a1a;" transform="translate(1028.026655 454.397656)scale(0.15 -0.15)">
       <use transform="translate(0 0.09375)" xlink:href="#DejaVuSans-49"/>
       <use transform="translate(63.623047 0.09375)" xlink:href="#DejaVuSans-52"/>
      </g>
     </g>
    </g>
    <g id="xtick_30">
     <g id="line2d_55">
      <g>
       <use style="fill:#1a1a1a;stroke:#1a1a1a;stroke-width:0.6;" x="611.386501" xlink:href="#mde400a10c6" y="437"/>
      </g>
     </g>
    </g>
    <g id="xtick_31">
     <g id="line2d_56">
      <g>
       <use style="fill:#1a1a1a;stroke:#1a1a1a;stroke-width:0.6;" x="627.173174" xlink:href="#mde400a10c6" y="437"/>
      </g>
     </g>
    </g>
    <g id="xtick_32">
     <g id="line2d_57">
      <g>
       <use style="fill:#1a1a1a;stroke:#1a1a1a;stroke-width:0.6;" x="642.959846" xlink:href="#mde400a10c6" y="437"/>
      </g>
     </g>
    </g>
    <g id="xtick_33">
     <g id="line2d_58">
      <g>
       <use style="fill:#1a1a1a;stroke:#1a1a1a;stroke-width:0.6;" x="674.533191" xlink:href="#mde400a10c6" y="437"/>
      </g>
     </g>
    </g>
    <g id="xtick_34">
     <g id="line2d_59">
      <g>
       <use style="fill:#1a1a1a;stroke:#1a1a1a;stroke-width:0.6;" x="690.319863" xlink:href="#mde400a10c6" y="437"/>
      </g>
     </g>
    </g>
    <g id="xtick_35">
     <g id="line2d_60">
      <g>
       <use style="fill:#1a1a1a;stroke:#1a1a1a;stroke-width:0.6;" x="706.106536" xlink:href="#mde400a10c6" y="437"/>
      </g>
     </g>
    </g>
    <g id="xtick_36">
     <g id="line2d_61">
      <g>
       <use style="fill:#1a1a1a;stroke:#1a1a1a;stroke-width:0.6;" x="737.67988" xlink:href="#mde400a10c6" y="437"/>
      </g>
     </g>
    </g>
    <g id="xtick_37">
     <g id="line2d_62">
      <g>
       <use style="fill:#1a1a1a;stroke:#1a1a1a;stroke-width:0.6;" x="753.466553" xlink:href="#mde400a10c6" y="437"/>
      </g>
     </g>
    </g>
    <g id="xtick_38">
     <g id="line2d_63">
      <g>
       <use style="fill:#1a1a1a;stroke:#1a1a1a;stroke-width:0.6;" x="769.253225" xlink:href="#mde400a10c6" y="437"/>
      </g>
     </g>
    </g>
    <g id="xtick_39">
     <g id="line2d_64">
      <g>
       <use style="fill:#1a1a1a;stroke:#1a1a1a;stroke-width:0.6;" x="800.82657" xlink:href="#mde400a10c6" y="437"/>
      </g>
     </g>
    </g>
    <g id="xtick_40">
     <g id="line2d_65">
      <g>
       <use style="fill:#1a1a1a;stroke:#1a1a1a;stroke-width:0.6;" x="816.613242" xlink:href="#mde400a10c6" y="437"/>
      </g>
     </g>
    </g>
    <g id="xtick_41">
     <g id="line2d_66">
      <g>
       <use style="fill:#1a1a1a;stroke:#1a1a1a;stroke-width:0.6;" x="832.399915" xlink:href="#mde400a10c6" y="437"/>
      </g>
     </g>
    </g>
    <g id="xtick_42">
     <g id="line2d_67">
      <g>
       <use style="fill:#1a1a1a;stroke:#1a1a1a;stroke-width:0.6;" x="863.973259" xlink:href="#mde400a10c6" y="437"/>
      </g>
     </g>
    </g>
    <g id="xtick_43">
     <g id="line2d_68">
      <g>
       <use style="fill:#1a1a1a;stroke:#1a1a1a;stroke-width:0.6;" x="879.759932" xlink:href="#mde400a10c6" y="437"/>
      </g>
     </g>
    </g>
    <g id="xtick_44">
     <g id="line2d_69">
      <g>
       <use style="fill:#1a1a1a;stroke:#1a1a1a;stroke-width:0.6;" x="895.546604" xlink:href="#mde400a10c6" y="437"/>
      </g>
     </g>
    </g>
    <g id="xtick_45">
     <g id="line2d_70">
      <g>
       <use style="fill:#1a1a1a;stroke:#1a1a1a;stroke-width:0.6;" x="927.119949" xlink:href="#mde400a10c6" y="437"/>
      </g>
     </g>
    </g>
    <g id="xtick_46">
     <g id="line2d_71">
      <g>
       <use style="fill:#1a1a1a;stroke:#1a1a1a;stroke-width:0.6;" x="942.906621" xlink:href="#mde400a10c6" y="437"/>
      </g>
     </g>
    </g>
    <g id="xtick_47">
     <g id="line2d_72">
      <g>
       <use style="fill:#1a1a1a;stroke:#1a1a1a;stroke-width:0.6;" x="958.693293" xlink:href="#mde400a10c6" y="437"/>
      </g>
     </g>
    </g>
    <g id="xtick_48">
     <g id="line2d_73">
      <g>
       <use style="fill:#1a1a1a;stroke:#1a1a1a;stroke-width:0.6;" x="990.266638" xlink:href="#mde400a10c6" y="437"/>
      </g>
     </g>
    </g>
    <g id="xtick_49">
     <g id="line2d_74">
      <g>
       <use style="fill:#1a1a1a;stroke:#1a1a1a;stroke-width:0.6;" x="1006.053311" xlink:href="#mde400a10c6" y="437"/>
      </g>
     </g>
    </g>
    <g id="xtick_50">
     <g id="line2d_75">
      <g>
       <use style="fill:#1a1a1a;stroke:#1a1a1a;stroke-width:0.6;" x="1021.839983" xlink:href="#mde400a10c6" y="437"/>
      </g>
     </g>
    </g>
    <g id="xtick_51">
     <g id="line2d_76">
      <g>
       <use style="fill:#1a1a1a;stroke:#1a1a1a;stroke-width:0.6;" x="1053.413328" xlink:href="#mde400a10c6" y="437"/>
      </g>
     </g>
    </g>
    <g id="xtick_52">
     <g id="line2d_77">
      <g>
       <use style="fill:#1a1a1a;stroke:#1a1a1a;stroke-width:0.6;" x="1069.2" xlink:href="#mde400a10c6" y="437"/>
      </g>
     </g>
    </g>
    <g id="text_23">
     <!-- # of charged ROE particles -->
     <defs>
      <path d="M 51.125 44 
L 36.921875 44 
L 32.8125 27.6875 
L 47.125 27.6875 
z
M 43.796875 71.78125 
L 38.71875 51.515625 
L 52.984375 51.515625 
L 58.109375 71.78125 
L 65.921875 71.78125 
L 60.890625 51.515625 
L 76.125 51.515625 
L 76.125 44 
L 58.984375 44 
L 54.984375 27.6875 
L 70.515625 27.6875 
L 70.515625 20.21875 
L 53.078125 20.21875 
L 48 0 
L 40.1875 0 
L 45.21875 20.21875 
L 30.90625 20.21875 
L 25.875 0 
L 18.015625 0 
L 23.09375 20.21875 
L 7.71875 20.21875 
L 7.71875 27.6875 
L 24.90625 27.6875 
L 29 44 
L 13.28125 44 
L 13.28125 51.515625 
L 30.90625 51.515625 
L 35.890625 71.78125 
z
" id="DejaVuSans-35"/>
      <path d="M 30.609375 48.390625 
Q 23.390625 48.390625 19.1875 42.75 
Q 14.984375 37.109375 14.984375 27.296875 
Q 14.984375 17.484375 19.15625 11.84375 
Q 23.34375 6.203125 30.609375 6.203125 
Q 37.796875 6.203125 41.984375 11.859375 
Q 46.1875 17.53125 46.1875 27.296875 
Q 46.1875 37.015625 41.984375 42.703125 
Q 37.796875 48.390625 30.609375 48.390625 
z
M 30.609375 56 
Q 42.328125 56 49.015625 48.375 
Q 55.71875 40.765625 55.71875 27.296875 
Q 55.71875 13.875 49.015625 6.21875 
Q 42.328125 -1.421875 30.609375 -1.421875 
Q 18.84375 -1.421875 12.171875 6.21875 
Q 5.515625 13.875 5.515625 27.296875 
Q 5.515625 40.765625 12.171875 48.375 
Q 18.84375 56 30.609375 56 
z
" id="DejaVuSans-111"/>
      <path d="M 37.109375 75.984375 
L 37.109375 68.5 
L 28.515625 68.5 
Q 23.6875 68.5 21.796875 66.546875 
Q 19.921875 64.59375 19.921875 59.515625 
L 19.921875 54.6875 
L 34.71875 54.6875 
L 34.71875 47.703125 
L 19.921875 47.703125 
L 19.921875 0 
L 10.890625 0 
L 10.890625 47.703125 
L 2.296875 47.703125 
L 2.296875 54.6875 
L 10.890625 54.6875 
L 10.890625 58.5 
Q 10.890625 67.625 15.140625 71.796875 
Q 19.390625 75.984375 28.609375 75.984375 
z
" id="DejaVuSans-102"/>
      <path d="M 48.78125 52.59375 
L 48.78125 44.1875 
Q 44.96875 46.296875 41.140625 47.34375 
Q 37.3125 48.390625 33.40625 48.390625 
Q 24.65625 48.390625 19.8125 42.84375 
Q 14.984375 37.3125 14.984375 27.296875 
Q 14.984375 17.28125 19.8125 11.734375 
Q 24.65625 6.203125 33.40625 6.203125 
Q 37.3125 6.203125 41.140625 7.25 
Q 44.96875 8.296875 48.78125 10.40625 
L 48.78125 2.09375 
Q 45.015625 0.34375 40.984375 -0.53125 
Q 36.96875 -1.421875 32.421875 -1.421875 
Q 20.0625 -1.421875 12.78125 6.34375 
Q 5.515625 14.109375 5.515625 27.296875 
Q 5.515625 40.671875 12.859375 48.328125 
Q 20.21875 56 33.015625 56 
Q 37.15625 56 41.109375 55.140625 
Q 45.0625 54.296875 48.78125 52.59375 
z
" id="DejaVuSans-99"/>
      <path d="M 54.890625 33.015625 
L 54.890625 0 
L 45.90625 0 
L 45.90625 32.71875 
Q 45.90625 40.484375 42.875 44.328125 
Q 39.84375 48.1875 33.796875 48.1875 
Q 26.515625 48.1875 22.3125 43.546875 
Q 18.109375 38.921875 18.109375 30.90625 
L 18.109375 0 
L 9.078125 0 
L 9.078125 75.984375 
L 18.109375 75.984375 
L 18.109375 46.1875 
Q 21.34375 51.125 25.703125 53.5625 
Q 30.078125 56 35.796875 56 
Q 45.21875 56 50.046875 50.171875 
Q 54.890625 44.34375 54.890625 33.015625 
z
" id="DejaVuSans-104"/>
      <path d="M 41.109375 46.296875 
Q 39.59375 47.171875 37.8125 47.578125 
Q 36.03125 48 33.890625 48 
Q 26.265625 48 22.1875 43.046875 
Q 18.109375 38.09375 18.109375 28.8125 
L 18.109375 0 
L 9.078125 0 
L 9.078125 54.6875 
L 18.109375 54.6875 
L 18.109375 46.1875 
Q 20.953125 51.171875 25.484375 53.578125 
Q 30.03125 56 36.53125 56 
Q 37.453125 56 38.578125 55.875 
Q 39.703125 55.765625 41.0625 55.515625 
z
" id="DejaVuSans-114"/>
      <path d="M 45.40625 27.984375 
Q 45.40625 37.75 41.375 43.109375 
Q 37.359375 48.484375 30.078125 48.484375 
Q 22.859375 48.484375 18.828125 43.109375 
Q 14.796875 37.75 14.796875 27.984375 
Q 14.796875 18.265625 18.828125 12.890625 
Q 22.859375 7.515625 30.078125 7.515625 
Q 37.359375 7.515625 41.375 12.890625 
Q 45.40625 18.265625 45.40625 27.984375 
z
M 54.390625 6.78125 
Q 54.390625 -7.171875 48.1875 -13.984375 
Q 42 -20.796875 29.203125 -20.796875 
Q 24.46875 -20.796875 20.265625 -20.09375 
Q 16.0625 -19.390625 12.109375 -17.921875 
L 12.109375 -9.1875 
Q 16.0625 -11.328125 19.921875 -12.34375 
Q 23.78125 -13.375 27.78125 -13.375 
Q 36.625 -13.375 41.015625 -8.765625 
Q 45.40625 -4.15625 45.40625 5.171875 
L 45.40625 9.625 
Q 42.625 4.78125 38.28125 2.390625 
Q 33.9375 0 27.875 0 
Q 17.828125 0 11.671875 7.65625 
Q 5.515625 15.328125 5.515625 27.984375 
Q 5.515625 40.671875 11.671875 48.328125 
Q 17.828125 56 27.875 56 
Q 33.9375 56 38.28125 53.609375 
Q 42.625 51.21875 45.40625 46.390625 
L 45.40625 54.6875 
L 54.390625 54.6875 
z
" id="DejaVuSans-103"/>
      <path d="M 45.40625 46.390625 
L 45.40625 75.984375 
L 54.390625 75.984375 
L 54.390625 0 
L 45.40625 0 
L 45.40625 8.203125 
Q 42.578125 3.328125 38.25 0.953125 
Q 33.9375 -1.421875 27.875 -1.421875 
Q 17.96875 -1.421875 11.734375 6.484375 
Q 5.515625 14.40625 5.515625 27.296875 
Q 5.515625 40.1875 11.734375 48.09375 
Q 17.96875 56 27.875 56 
Q 33.9375 56 38.25 53.625 
Q 42.578125 51.265625 45.40625 46.390625 
z
M 14.796875 27.296875 
Q 14.796875 17.390625 18.875 11.75 
Q 22.953125 6.109375 30.078125 6.109375 
Q 37.203125 6.109375 41.296875 11.75 
Q 45.40625 17.390625 45.40625 27.296875 
Q 45.40625 37.203125 41.296875 42.84375 
Q 37.203125 48.484375 30.078125 48.484375 
Q 22.953125 48.484375 18.875 42.84375 
Q 14.796875 37.203125 14.796875 27.296875 
z
" id="DejaVuSans-100"/>
      <path d="M 18.109375 8.203125 
L 18.109375 -20.796875 
L 9.078125 -20.796875 
L 9.078125 54.6875 
L 18.109375 54.6875 
L 18.109375 46.390625 
Q 20.953125 51.265625 25.265625 53.625 
Q 29.59375 56 35.59375 56 
Q 45.5625 56 51.78125 48.09375 
Q 58.015625 40.1875 58.015625 27.296875 
Q 58.015625 14.40625 51.78125 6.484375 
Q 45.5625 -1.421875 35.59375 -1.421875 
Q 29.59375 -1.421875 25.265625 0.953125 
Q 20.953125 3.328125 18.109375 8.203125 
z
M 48.6875 27.296875 
Q 48.6875 37.203125 44.609375 42.84375 
Q 40.53125 48.484375 33.40625 48.484375 
Q 26.265625 48.484375 22.1875 42.84375 
Q 18.109375 37.203125 18.109375 27.296875 
Q 18.109375 17.390625 22.1875 11.75 
Q 26.265625 6.109375 33.40625 6.109375 
Q 40.53125 6.109375 44.609375 11.75 
Q 48.6875 17.390625 48.6875 27.296875 
z
" id="DejaVuSans-112"/>
      <path d="M 18.3125 70.21875 
L 18.3125 54.6875 
L 36.8125 54.6875 
L 36.8125 47.703125 
L 18.3125 47.703125 
L 18.3125 18.015625 
Q 18.3125 11.328125 20.140625 9.421875 
Q 21.96875 7.515625 27.59375 7.515625 
L 36.8125 7.515625 
L 36.8125 0 
L 27.59375 0 
Q 17.1875 0 13.234375 3.875 
Q 9.28125 7.765625 9.28125 18.015625 
L 9.28125 47.703125 
L 2.6875 47.703125 
L 2.6875 54.6875 
L 9.28125 54.6875 
L 9.28125 70.21875 
z
" id="DejaVuSans-116"/>
      <path d="M 9.421875 54.6875 
L 18.40625 54.6875 
L 18.40625 0 
L 9.421875 0 
z
M 9.421875 75.984375 
L 18.40625 75.984375 
L 18.40625 64.59375 
L 9.421875 64.59375 
z
" id="DejaVuSans-105"/>
      <path d="M 9.421875 75.984375 
L 18.40625 75.984375 
L 18.40625 0 
L 9.421875 0 
z
" id="DejaVuSans-108"/>
     </defs>
     <g style="fill:#1a1a1a;" transform="translate(683.10929 480.23375)scale(0.22 -0.22)">
      <use xlink:href="#DejaVuSans-35"/>
      <use x="83.789062" xlink:href="#DejaVuSans-32"/>
      <use x="115.576172" xlink:href="#DejaVuSans-111"/>
      <use x="176.757812" xlink:href="#DejaVuSans-102"/>
      <use x="211.962891" xlink:href="#DejaVuSans-32"/>
      <use x="243.75" xlink:href="#DejaVuSans-99"/>
      <use x="298.730469" xlink:href="#DejaVuSans-104"/>
      <use x="362.109375" xlink:href="#DejaVuSans-97"/>
      <use x="423.388672" xlink:href="#DejaVuSans-114"/>
      <use x="464.486328" xlink:href="#DejaVuSans-103"/>
      <use x="527.962891" xlink:href="#DejaVuSans-101"/>
      <use x="589.486328" xlink:href="#DejaVuSans-100"/>
      <use x="652.962891" xlink:href="#DejaVuSans-32"/>
      <use x="684.75" xlink:href="#DejaVuSans-82"/>
      <use x="754.232422" xlink:href="#DejaVuSans-79"/>
      <use x="832.943359" xlink:href="#DejaVuSans-69"/>
      <use x="896.126953" xlink:href="#DejaVuSans-32"/>
      <use x="927.914062" xlink:href="#DejaVuSans-112"/>
      <use x="991.390625" xlink:href="#DejaVuSans-97"/>
      <use x="1052.669922" xlink:href="#DejaVuSans-114"/>
      <use x="1093.783203" xlink:href="#DejaVuSans-116"/>
      <use x="1132.992188" xlink:href="#DejaVuSans-105"/>
      <use x="1160.775391" xlink:href="#DejaVuSans-99"/>
      <use x="1215.755859" xlink:href="#DejaVuSans-108"/>
      <use x="1243.539062" xlink:href="#DejaVuSans-101"/>
      <use x="1305.0625" xlink:href="#DejaVuSans-115"/>
     </g>
    </g>
   </g>
   <g id="matplotlib.axis_4">
    <g id="ytick_26">
     <g id="line2d_78">
      <g>
       <use style="fill:#1a1a1a;stroke:#1a1a1a;stroke-width:0.8;" x="595.599829" xlink:href="#m051bb091bb" y="437"/>
      </g>
     </g>
     <g id="text_24">
      <!-- $\mathdefault{0}$ -->
      <g style="fill:#1a1a1a;" transform="translate(579.999829 442.698828)scale(0.15 -0.15)">
       <use transform="translate(0 0.78125)" xlink:href="#DejaVuSans-48"/>
      </g>
     </g>
    </g>
    <g id="ytick_27">
     <g id="line2d_79">
      <g>
       <use style="fill:#1a1a1a;stroke:#1a1a1a;stroke-width:0.8;" x="595.599829" xlink:href="#m051bb091bb" y="367.05"/>
      </g>
     </g>
     <g id="text_25">
      <!-- $\mathdefault{500}$ -->
      <defs>
       <path d="M 10.796875 72.90625 
L 49.515625 72.90625 
L 49.515625 64.59375 
L 19.828125 64.59375 
L 19.828125 46.734375 
Q 21.96875 47.46875 24.109375 47.828125 
Q 26.265625 48.1875 28.421875 48.1875 
Q 40.625 48.1875 47.75 41.5 
Q 54.890625 34.8125 54.890625 23.390625 
Q 54.890625 11.625 47.5625 5.09375 
Q 40.234375 -1.421875 26.90625 -1.421875 
Q 22.3125 -1.421875 17.546875 -0.640625 
Q 12.796875 0.140625 7.71875 1.703125 
L 7.71875 11.625 
Q 12.109375 9.234375 16.796875 8.0625 
Q 21.484375 6.890625 26.703125 6.890625 
Q 35.15625 6.890625 40.078125 11.328125 
Q 45.015625 15.765625 45.015625 23.390625 
Q 45.015625 31 40.078125 35.4375 
Q 35.15625 39.890625 26.703125 39.890625 
Q 22.75 39.890625 18.8125 39.015625 
Q 14.890625 38.140625 10.796875 36.28125 
z
" id="DejaVuSans-53"/>
      </defs>
      <g style="fill:#1a1a1a;" transform="translate(560.949829 372.748828)scale(0.15 -0.15)">
       <use transform="translate(0 0.78125)" xlink:href="#DejaVuSans-53"/>
       <use transform="translate(63.623047 0.78125)" xlink:href="#DejaVuSans-48"/>
       <use transform="translate(127.246094 0.78125)" xlink:href="#DejaVuSans-48"/>
      </g>
     </g>
    </g>
    <g id="ytick_28">
     <g id="line2d_80">
      <g>
       <use style="fill:#1a1a1a;stroke:#1a1a1a;stroke-width:0.8;" x="595.599829" xlink:href="#m051bb091bb" y="297.1"/>
      </g>
     </g>
     <g id="text_26">
      <!-- $\mathdefault{1000}$ -->
      <g style="fill:#1a1a1a;" transform="translate(551.349829 302.798828)scale(0.15 -0.15)">
       <use transform="translate(0 0.78125)" xlink:href="#DejaVuSans-49"/>
       <use transform="translate(63.623047 0.78125)" xlink:href="#DejaVuSans-48"/>
       <use transform="translate(127.246094 0.78125)" xlink:href="#DejaVuSans-48"/>
       <use transform="translate(190.869141 0.78125)" xlink:href="#DejaVuSans-48"/>
      </g>
     </g>
    </g>
    <g id="ytick_29">
     <g id="line2d_81">
      <g>
       <use style="fill:#1a1a1a;stroke:#1a1a1a;stroke-width:0.8;" x="595.599829" xlink:href="#m051bb091bb" y="227.15"/>
      </g>
     </g>
     <g id="text_27">
      <!-- $\mathdefault{1500}$ -->
      <g style="fill:#1a1a1a;" transform="translate(551.349829 232.848828)scale(0.15 -0.15)">
       <use transform="translate(0 0.78125)" xlink:href="#DejaVuSans-49"/>
       <use transform="translate(63.623047 0.78125)" xlink:href="#DejaVuSans-53"/>
       <use transform="translate(127.246094 0.78125)" xlink:href="#DejaVuSans-48"/>
       <use transform="translate(190.869141 0.78125)" xlink:href="#DejaVuSans-48"/>
      </g>
     </g>
    </g>
    <g id="ytick_30">
     <g id="line2d_82">
      <g>
       <use style="fill:#1a1a1a;stroke:#1a1a1a;stroke-width:0.8;" x="595.599829" xlink:href="#m051bb091bb" y="157.2"/>
      </g>
     </g>
     <g id="text_28">
      <!-- $\mathdefault{2000}$ -->
      <g style="fill:#1a1a1a;" transform="translate(551.349829 162.898828)scale(0.15 -0.15)">
       <use transform="translate(0 0.78125)" xlink:href="#DejaVuSans-50"/>
       <use transform="translate(63.623047 0.78125)" xlink:href="#DejaVuSans-48"/>
       <use transform="translate(127.246094 0.78125)" xlink:href="#DejaVuSans-48"/>
       <use transform="translate(190.869141 0.78125)" xlink:href="#DejaVuSans-48"/>
      </g>
     </g>
    </g>
    <g id="ytick_31">
     <g id="line2d_83">
      <g>
       <use style="fill:#1a1a1a;stroke:#1a1a1a;stroke-width:0.8;" x="595.599829" xlink:href="#m051bb091bb" y="87.25"/>
      </g>
     </g>
     <g id="text_29">
      <!-- $\mathdefault{2500}$ -->
      <g style="fill:#1a1a1a;" transform="translate(551.349829 92.948828)scale(0.15 -0.15)">
       <use transform="translate(0 0.78125)" xlink:href="#DejaVuSans-50"/>
       <use transform="translate(63.623047 0.78125)" xlink:href="#DejaVuSans-53"/>
       <use transform="translate(127.246094 0.78125)" xlink:href="#DejaVuSans-48"/>
       <use transform="translate(190.869141 0.78125)" xlink:href="#DejaVuSans-48"/>
      </g>
     </g>
    </g>
    <g id="ytick_32">
     <g id="line2d_84">
      <g>
       <use style="fill:#1a1a1a;stroke:#1a1a1a;stroke-width:0.8;" x="595.599829" xlink:href="#m051bb091bb" y="17.3"/>
      </g>
     </g>
     <g id="text_30">
      <!-- $\mathdefault{3000}$ -->
      <defs>
       <path d="M 40.578125 39.3125 
Q 47.65625 37.796875 51.625 33 
Q 55.609375 28.21875 55.609375 21.1875 
Q 55.609375 10.40625 48.1875 4.484375 
Q 40.765625 -1.421875 27.09375 -1.421875 
Q 22.515625 -1.421875 17.65625 -0.515625 
Q 12.796875 0.390625 7.625 2.203125 
L 7.625 11.71875 
Q 11.71875 9.328125 16.59375 8.109375 
Q 21.484375 6.890625 26.8125 6.890625 
Q 36.078125 6.890625 40.9375 10.546875 
Q 45.796875 14.203125 45.796875 21.1875 
Q 45.796875 27.640625 41.28125 31.265625 
Q 36.765625 34.90625 28.71875 34.90625 
L 20.21875 34.90625 
L 20.21875 43.015625 
L 29.109375 43.015625 
Q 36.375 43.015625 40.234375 45.921875 
Q 44.09375 48.828125 44.09375 54.296875 
Q 44.09375 59.90625 40.109375 62.90625 
Q 36.140625 65.921875 28.71875 65.921875 
Q 24.65625 65.921875 20.015625 65.03125 
Q 15.375 64.15625 9.8125 62.3125 
L 9.8125 71.09375 
Q 15.4375 72.65625 20.34375 73.4375 
Q 25.25 74.21875 29.59375 74.21875 
Q 40.828125 74.21875 47.359375 69.109375 
Q 53.90625 64.015625 53.90625 55.328125 
Q 53.90625 49.265625 50.4375 45.09375 
Q 46.96875 40.921875 40.578125 39.3125 
z
" id="DejaVuSans-51"/>
      </defs>
      <g style="fill:#1a1a1a;" transform="translate(551.349829 22.998828)scale(0.15 -0.15)">
       <use transform="translate(0 0.78125)" xlink:href="#DejaVuSans-51"/>
       <use transform="translate(63.623047 0.78125)" xlink:href="#DejaVuSans-48"/>
       <use transform="translate(127.246094 0.78125)" xlink:href="#DejaVuSans-48"/>
       <use transform="translate(190.869141 0.78125)" xlink:href="#DejaVuSans-48"/>
      </g>
     </g>
    </g>
    <g id="ytick_33">
     <g id="line2d_85">
      <g>
       <use style="fill:#1a1a1a;stroke:#1a1a1a;stroke-width:0.6;" x="595.599829" xlink:href="#m6f42ae3524" y="423.01"/>
      </g>
     </g>
    </g>
    <g id="ytick_34">
     <g id="line2d_86">
      <g>
       <use style="fill:#1a1a1a;stroke:#1a1a1a;stroke-width:0.6;" x="595.599829" xlink:href="#m6f42ae3524" y="409.02"/>
      </g>
     </g>
    </g>
    <g id="ytick_35">
     <g id="line2d_87">
      <g>
       <use style="fill:#1a1a1a;stroke:#1a1a1a;stroke-width:0.6;" x="595.599829" xlink:href="#m6f42ae3524" y="395.03"/>
      </g>
     </g>
    </g>
    <g id="ytick_36">
     <g id="line2d_88">
      <g>
       <use style="fill:#1a1a1a;stroke:#1a1a1a;stroke-width:0.6;" x="595.599829" xlink:href="#m6f42ae3524" y="381.04"/>
      </g>
     </g>
    </g>
    <g id="ytick_37">
     <g id="line2d_89">
      <g>
       <use style="fill:#1a1a1a;stroke:#1a1a1a;stroke-width:0.6;" x="595.599829" xlink:href="#m6f42ae3524" y="353.06"/>
      </g>
     </g>
    </g>
    <g id="ytick_38">
     <g id="line2d_90">
      <g>
       <use style="fill:#1a1a1a;stroke:#1a1a1a;stroke-width:0.6;" x="595.599829" xlink:href="#m6f42ae3524" y="339.07"/>
      </g>
     </g>
    </g>
    <g id="ytick_39">
     <g id="line2d_91">
      <g>
       <use style="fill:#1a1a1a;stroke:#1a1a1a;stroke-width:0.6;" x="595.599829" xlink:href="#m6f42ae3524" y="325.08"/>
      </g>
     </g>
    </g>
    <g id="ytick_40">
     <g id="line2d_92">
      <g>
       <use style="fill:#1a1a1a;stroke:#1a1a1a;stroke-width:0.6;" x="595.599829" xlink:href="#m6f42ae3524" y="311.09"/>
      </g>
     </g>
    </g>
    <g id="ytick_41">
     <g id="line2d_93">
      <g>
       <use style="fill:#1a1a1a;stroke:#1a1a1a;stroke-width:0.6;" x="595.599829" xlink:href="#m6f42ae3524" y="283.11"/>
      </g>
     </g>
    </g>
    <g id="ytick_42">
     <g id="line2d_94">
      <g>
       <use style="fill:#1a1a1a;stroke:#1a1a1a;stroke-width:0.6;" x="595.599829" xlink:href="#m6f42ae3524" y="269.12"/>
      </g>
     </g>
    </g>
    <g id="ytick_43">
     <g id="line2d_95">
      <g>
       <use style="fill:#1a1a1a;stroke:#1a1a1a;stroke-width:0.6;" x="595.599829" xlink:href="#m6f42ae3524" y="255.13"/>
      </g>
     </g>
    </g>
    <g id="ytick_44">
     <g id="line2d_96">
      <g>
       <use style="fill:#1a1a1a;stroke:#1a1a1a;stroke-width:0.6;" x="595.599829" xlink:href="#m6f42ae3524" y="241.14"/>
      </g>
     </g>
    </g>
    <g id="ytick_45">
     <g id="line2d_97">
      <g>
       <use style="fill:#1a1a1a;stroke:#1a1a1a;stroke-width:0.6;" x="595.599829" xlink:href="#m6f42ae3524" y="213.16"/>
      </g>
     </g>
    </g>
    <g id="ytick_46">
     <g id="line2d_98">
      <g>
       <use style="fill:#1a1a1a;stroke:#1a1a1a;stroke-width:0.6;" x="595.599829" xlink:href="#m6f42ae3524" y="199.17"/>
      </g>
     </g>
    </g>
    <g id="ytick_47">
     <g id="line2d_99">
      <g>
       <use style="fill:#1a1a1a;stroke:#1a1a1a;stroke-width:0.6;" x="595.599829" xlink:href="#m6f42ae3524" y="185.18"/>
      </g>
     </g>
    </g>
    <g id="ytick_48">
     <g id="line2d_100">
      <g>
       <use style="fill:#1a1a1a;stroke:#1a1a1a;stroke-width:0.6;" x="595.599829" xlink:href="#m6f42ae3524" y="171.19"/>
      </g>
     </g>
    </g>
    <g id="ytick_49">
     <g id="line2d_101">
      <g>
       <use style="fill:#1a1a1a;stroke:#1a1a1a;stroke-width:0.6;" x="595.599829" xlink:href="#m6f42ae3524" y="143.21"/>
      </g>
     </g>
    </g>
    <g id="ytick_50">
     <g id="line2d_102">
      <g>
       <use style="fill:#1a1a1a;stroke:#1a1a1a;stroke-width:0.6;" x="595.599829" xlink:href="#m6f42ae3524" y="129.22"/>
      </g>
     </g>
    </g>
    <g id="ytick_51">
     <g id="line2d_103">
      <g>
       <use style="fill:#1a1a1a;stroke:#1a1a1a;stroke-width:0.6;" x="595.599829" xlink:href="#m6f42ae3524" y="115.23"/>
      </g>
     </g>
    </g>
    <g id="ytick_52">
     <g id="line2d_104">
      <g>
       <use style="fill:#1a1a1a;stroke:#1a1a1a;stroke-width:0.6;" x="595.599829" xlink:href="#m6f42ae3524" y="101.24"/>
      </g>
     </g>
    </g>
    <g id="ytick_53">
     <g id="line2d_105">
      <g>
       <use style="fill:#1a1a1a;stroke:#1a1a1a;stroke-width:0.6;" x="595.599829" xlink:href="#m6f42ae3524" y="73.26"/>
      </g>
     </g>
    </g>
    <g id="ytick_54">
     <g id="line2d_106">
      <g>
       <use style="fill:#1a1a1a;stroke:#1a1a1a;stroke-width:0.6;" x="595.599829" xlink:href="#m6f42ae3524" y="59.27"/>
      </g>
     </g>
    </g>
    <g id="ytick_55">
     <g id="line2d_107">
      <g>
       <use style="fill:#1a1a1a;stroke:#1a1a1a;stroke-width:0.6;" x="595.599829" xlink:href="#m6f42ae3524" y="45.28"/>
      </g>
     </g>
    </g>
    <g id="ytick_56">
     <g id="line2d_108">
      <g>
       <use style="fill:#1a1a1a;stroke:#1a1a1a;stroke-width:0.6;" x="595.599829" xlink:href="#m6f42ae3524" y="31.29"/>
      </g>
     </g>
    </g>
   </g>
   <g id="legend_1">
    <g id="patch_142">
     <path d="M 868.516406 42.197656 
L 898.516406 42.197656 
L 898.516406 31.697656 
L 868.516406 31.697656 
z
" style="fill:#348abd;opacity:0.6;"/>
    </g>
    <g id="text_31">
     <!-- No mask -->
     <defs>
      <path d="M 9.8125 72.90625 
L 23.09375 72.90625 
L 55.421875 11.921875 
L 55.421875 72.90625 
L 64.984375 72.90625 
L 64.984375 0 
L 51.703125 0 
L 19.390625 60.984375 
L 19.390625 0 
L 9.8125 0 
z
" id="DejaVuSans-78"/>
      <path d="M 9.078125 75.984375 
L 18.109375 75.984375 
L 18.109375 31.109375 
L 44.921875 54.6875 
L 56.390625 54.6875 
L 27.390625 29.109375 
L 57.625 0 
L 45.90625 0 
L 18.109375 26.703125 
L 18.109375 0 
L 9.078125 0 
z
" id="DejaVuSans-107"/>
     </defs>
     <g style="fill:#1a1a1a;" transform="translate(910.516406 42.197656)scale(0.15 -0.15)">
      <use xlink:href="#DejaVuSans-78"/>
      <use x="74.804688" xlink:href="#DejaVuSans-111"/>
      <use x="135.986328" xlink:href="#DejaVuSans-32"/>
      <use x="167.773438" xlink:href="#DejaVuSans-109"/>
      <use x="265.185547" xlink:href="#DejaVuSans-97"/>
      <use x="326.464844" xlink:href="#DejaVuSans-115"/>
      <use x="378.564453" xlink:href="#DejaVuSans-107"/>
     </g>
    </g>
    <g id="patch_143">
     <path d="M 868.516406 64.214844 
L 898.516406 64.214844 
L 898.516406 53.714844 
L 868.516406 53.714844 
z
" style="fill:#e24a33;opacity:0.6;"/>
    </g>
    <g id="text_32">
     <!-- "my_mask" applied -->
     <defs>
      <path d="M 17.921875 72.90625 
L 17.921875 45.796875 
L 9.625 45.796875 
L 9.625 72.90625 
z
M 36.375 72.90625 
L 36.375 45.796875 
L 28.078125 45.796875 
L 28.078125 72.90625 
z
" id="DejaVuSans-34"/>
      <path d="M 32.171875 -5.078125 
Q 28.375 -14.84375 24.75 -17.8125 
Q 21.140625 -20.796875 15.09375 -20.796875 
L 7.90625 -20.796875 
L 7.90625 -13.28125 
L 13.1875 -13.28125 
Q 16.890625 -13.28125 18.9375 -11.515625 
Q 21 -9.765625 23.484375 -3.21875 
L 25.09375 0.875 
L 2.984375 54.6875 
L 12.5 54.6875 
L 29.59375 11.921875 
L 46.6875 54.6875 
L 56.203125 54.6875 
z
" id="DejaVuSans-121"/>
      <path d="M 50.984375 -16.609375 
L 50.984375 -23.578125 
L -0.984375 -23.578125 
L -0.984375 -16.609375 
z
" id="DejaVuSans-95"/>
     </defs>
     <g style="fill:#1a1a1a;" transform="translate(910.516406 64.214844)scale(0.15 -0.15)">
      <use xlink:href="#DejaVuSans-34"/>
      <use x="45.996094" xlink:href="#DejaVuSans-109"/>
      <use x="143.408203" xlink:href="#DejaVuSans-121"/>
      <use x="202.587891" xlink:href="#DejaVuSans-95"/>
      <use x="252.587891" xlink:href="#DejaVuSans-109"/>
      <use x="350" xlink:href="#DejaVuSans-97"/>
      <use x="411.279297" xlink:href="#DejaVuSans-115"/>
      <use x="463.378906" xlink:href="#DejaVuSans-107"/>
      <use x="521.289062" xlink:href="#DejaVuSans-34"/>
      <use x="567.285156" xlink:href="#DejaVuSans-32"/>
      <use x="599.072266" xlink:href="#DejaVuSans-97"/>
      <use x="660.351562" xlink:href="#DejaVuSans-112"/>
      <use x="723.828125" xlink:href="#DejaVuSans-112"/>
      <use x="787.304688" xlink:href="#DejaVuSans-108"/>
      <use x="815.087891" xlink:href="#DejaVuSans-105"/>
      <use x="842.871094" xlink:href="#DejaVuSans-101"/>
      <use x="904.394531" xlink:href="#DejaVuSans-100"/>
     </g>
    </g>
   </g>
  </g>
 </g>
 <defs>
  <clipPath id="p6c540369f4">
   <rect height="419.7" width="473.600171" x="55.977246" y="17.3"/>
  </clipPath>
  <clipPath id="p6335fbee48">
   <rect height="419.7" width="473.600171" x="595.599829" y="17.3"/>
  </clipPath>
 </defs>
</svg>
