<?xml version="1.0" encoding="UTF-8" standalone="no"?>
<svg
   xmlns:dc="http://purl.org/dc/elements/1.1/"
   xmlns:cc="http://creativecommons.org/ns#"
   xmlns:rdf="http://www.w3.org/1999/02/22-rdf-syntax-ns#"
   xmlns:svg="http://www.w3.org/2000/svg"
   xmlns="http://www.w3.org/2000/svg"
   xmlns:sodipodi="http://sodipodi.sourceforge.net/DTD/sodipodi-0.dtd"
   xmlns:inkscape="http://www.inkscape.org/namespaces/inkscape"
   version="1.1"
   width="592px"
   height="292px"
   viewBox="-0.5 -0.5 592 292"
   style="background-color: rgb(255, 255, 255);"
   id="svg1075"
   sodipodi:docname="keknetwork.svg"
   inkscape:version="1.0.1 (2a5465c730, 2020-09-20)"
   inkscape:export-filename="keknetwork.png"
   inkscape:export-xdpi="96.160004"
   inkscape:export-ydpi="96.160004">
  <metadata
     id="metadata943">
    <rdf:RDF>
      <cc:Work
         rdf:about="">
        <dc:format>image/svg+xml</dc:format>
        <dc:type
           rdf:resource="http://purl.org/dc/dcmitype/StillImage" />
      </cc:Work>
    </rdf:RDF>
  </metadata>
  <sodipodi:namedview
     pagecolor="#ffffff"
     bordercolor="#666666"
     borderopacity="1"
     objecttolerance="10"
     gridtolerance="10"
     guidetolerance="10"
     inkscape:pageopacity="0"
     inkscape:pageshadow="2"
     inkscape:window-width="1920"
     inkscape:window-height="1016"
     id="namedview60"
     showgrid="false"
     inkscape:zoom="2.2381757"
     inkscape:cx="316.11451"
     inkscape:cy="146"
     inkscape:window-x="0"
     inkscape:window-y="27"
     inkscape:window-maximized="1"
     inkscape:current-layer="svg1075"
     inkscape:document-rotation="0" />
  <defs
     id="defs953" />
  <path
     d="M 77.81,158.11 248.2,206.89"
     fill="none"
     stroke="#910000"
     stroke-width="2"
     stroke-miterlimit="10"
     pointer-events="stroke"
     id="path955" />
  <path
     d="m 242.63,209.98 -6.17,-11.13 m 8.65,2.48 -11.13,6.17"
     fill="none"
     stroke="#910000"
     stroke-width="2"
     stroke-miterlimit="10"
     pointer-events="all"
     id="path957" />
  <path
     d="M 77.81,132.93 242.26,73.32"
     fill="none"
     stroke="#000000"
     stroke-width="2"
     stroke-miterlimit="10"
     pointer-events="stroke"
     id="path959" />
  <path
     d="m 247.9,71.27 -6.61,5.24 0.97,-3.19 -2.79,-1.83 z"
     fill="#000000"
     stroke="#000000"
     stroke-width="2"
     stroke-miterlimit="10"
     pointer-events="all"
     id="path961" />
  <path
     d="m 51.91,172.62 c -1.15,0 -2.07,0.73 -2.07,1.61 v 3.1 c 0,0.89 0.92,1.61 2.07,1.61 h 17.73 c 1.15,0 2.07,-0.72 2.07,-1.61 v -3.1 c 0,-0.88 -0.92,-1.61 -2.07,-1.61 z M 5.86,169.39 h 66.3 c 1.55,0 2.69,1.12 2.69,2.48 v 7.76 c 0,1.35 -1.14,2.47 -2.69,2.47 H 5.86 c -1.56,0 -2.7,-1.12 -2.7,-2.47 v -7.76 c 0,-1.36 1.14,-2.48 2.7,-2.48 z m 0,-2.9 c -3.03,0 -5.59,2.38 -5.59,5.38 v 7.76 c 0,2.99 2.56,5.37 5.59,5.37 h 66.3 c 3.03,0 5.59,-2.38 5.59,-5.37 v -7.76 c 0,-3 -2.56,-5.38 -5.59,-5.38 z m 3.45,-48.37 h 59.35 v 36.05 H 9.31 Z M 7.9,115.23 c 0,0 -0.81,0.24 -0.81,0.24 0,0 -0.15,0.13 -0.21,0.18 -0.06,0.06 -0.11,0.12 -0.14,0.16 -0.15,0.19 -0.18,0.3 -0.21,0.38 -0.06,0.17 -0.07,0.25 -0.08,0.32 -0.02,0.15 -0.03,0.24 -0.03,0.36 v 38.55 c 0,0.12 0.01,0.22 0.03,0.36 0.01,0.08 0.02,0.15 0.08,0.31 0.03,0.08 0.06,0.2 0.21,0.39 0.03,0.05 0.08,0.1 0.14,0.16 0.06,0.06 0.21,0.18 0.21,0.18 0,0.01 0.81,0.25 0.81,0.25 h 62.17 c 0.01,0 0.81,-0.25 0.81,-0.25 0,0 0.16,-0.12 0.22,-0.18 0.06,-0.06 0.1,-0.11 0.14,-0.16 0.14,-0.19 0.17,-0.31 0.21,-0.39 0.06,-0.16 0.06,-0.23 0.08,-0.31 0.02,-0.14 0.02,-0.24 0.02,-0.36 v -38.55 c 0,-0.12 0,-0.21 -0.02,-0.36 -0.02,-0.07 -0.02,-0.15 -0.08,-0.32 -0.04,-0.08 -0.07,-0.19 -0.21,-0.38 -0.04,-0.04 -0.08,-0.1 -0.14,-0.16 -0.06,-0.05 -0.22,-0.18 -0.22,-0.18 0,0 -0.8,-0.24 -0.81,-0.24 z M 4.47,111.9 h 69.06 c 0.74,0 1.4,0.63 1.4,1.61 v 45.19 c 0,0.98 -0.66,1.61 -1.4,1.61 H 4.47 c -0.73,0 -1.39,-0.63 -1.39,-1.61 v -45.19 c 0,-0.98 0.66,-1.61 1.39,-1.61 z m 0,-2.9 c -2.41,0 -4.28,2.09 -4.28,4.51 v 45.19 c 0,2.41 1.87,4.51 4.28,4.51 h 69.06 c 2.41,0 4.28,-2.1 4.28,-4.51 v -45.19 c 0,-2.42 -1.87,-4.51 -4.28,-4.51 z"
     fill="#000000"
     stroke="none"
     pointer-events="all"
     id="path965" />
  <path
     id="path1089"
     style="color:#000000;font-style:normal;font-variant:normal;font-weight:normal;font-stretch:normal;font-size:medium;line-height:normal;font-family:sans-serif;font-variant-ligatures:normal;font-variant-position:normal;font-variant-caps:normal;font-variant-numeric:normal;font-variant-alternates:normal;font-variant-east-asian:normal;font-feature-settings:normal;font-variation-settings:normal;text-indent:0;text-align:start;text-decoration:none;text-decoration-line:none;text-decoration-style:solid;text-decoration-color:#000000;letter-spacing:normal;word-spacing:normal;text-transform:none;writing-mode:lr-tb;direction:ltr;text-orientation:mixed;dominant-baseline:auto;baseline-shift:baseline;text-anchor:start;white-space:normal;shape-padding:0;shape-margin:0;inline-size:0;clip-rule:nonzero;display:inline;overflow:visible;visibility:visible;isolation:auto;mix-blend-mode:normal;color-interpolation:sRGB;color-interpolation-filters:linearRGB;solid-color:#000000;solid-opacity:1;vector-effect:none;fill:#910000;fill-opacity:1;fill-rule:nonzero;stroke:none;stroke-width:2;stroke-linecap:butt;stroke-linejoin:miter;stroke-miterlimit:4;stroke-dasharray:none;stroke-dashoffset:0;stroke-opacity:1;color-rendering:auto;image-rendering:auto;shape-rendering:auto;text-rendering:auto;enable-background:accumulate;stop-color:#000000"
     d="m 285,0 c -3.3067,0 -6,2.6932972 -6,6 v 185.45898 c -1.36976,-0.92976 -2.82843,-1.75379 -4.38086,-2.42968 -0.26,-0.14 -0.54008,-0.20899 -0.83008,-0.20899 -0.77,0.01 -1.43843,0.51977 -1.64844,1.25977 -0.20999,0.74 0.10001,1.52945 0.75,1.93945 4.7,3.46 6.91844,9.54109 5.89844,16.37109 l -0.39844,2.19922 c -0.59999,2.6 -1.58015,5.09993 -2.91015,7.41993 l -1.16992,2.32031 c -5.74,12.77 -0.87969,25.56937 -0.67969,26.10937 0.26,0.66 0.89937,1.09961 1.60937,1.09961 h 0.14063 c 1.21786,-0.12018 2.4244,-0.31309 3.61914,-0.54883 V 286 c 0,3.3067 2.6933,6 6,6 h 300 c 3.3067,0 6,-2.6933 6,-6 V 6 c 0,-3.3067028 -2.6933,-6 -6,-6 z m 0,2 h 300 c 2.2333,0 4,1.7667028 4,4 v 280 c 0,2.2333 -1.7667,4 -4,4 H 285 c -2.2333,0 -4,-1.7667 -4,-4 v -43.13477 c -1.48326,0.4647 -3.0897,0.82075 -4.55078,1.06446 -1,-3.36 -3.15977,-12.93891 0.99023,-22.12891 l 1.09961,-2.16992 c 1.51,-2.62 2.62055,-5.45039 3.31055,-8.40039 l 0.42969,-2.33008 c 0.57,-3.72 0.24125,-7.51984 -0.96875,-11.08984 3.86,4.2 7.32867,10.97945 5.63867,21.43945 -0.1,0.7 0.24156,1.38047 0.85156,1.73047 0.61,0.36 1.37969,0.29937 1.92969,-0.14063 0.17,-0.13 3.45953,-2.87054 5.01953,-9.56054 0.86,1.15 1.5307,2.44054 1.9707,3.81054 L 299.99023,214 c -0.88,-3.16 -2.86937,-5.88969 -5.60937,-7.67969 -0.5,-0.27 -1.11109,-0.27976 -1.62109,-0.01 -0.51,0.27 -0.85993,0.76984 -0.91993,1.33984 -0.16,1.66 -0.50953,3.29867 -1.01953,4.88867 C 290.45898,204.80021 286.80866,197.72271 281,192.94117 V 6 c 0,-2.2332972 1.7667,-4 4,-4 z m -21.09961,183.08984 c -1.97,0.1 -3.63117,0.60039 -4.20117,1.15039 -0.36,0.35 -0.55906,0.83008 -0.53906,1.33008 0.02,0.49 0.26062,0.95953 0.64062,1.26953 4.48,4.18 6.31953,10.48969 4.76953,16.42969 -2.28,-3.03 -6.19992,-7.0293 -10.66992,-7.0293 -0.57,0 -1.10969,0.28954 -1.42969,0.76954 -0.32,0.47 -0.38992,1.0696 -0.16992,1.59961 0,0.11999 4.19844,10.71156 0.14844,16.85156 v 0.1289 c -0.2,0.29 -0.38883,0.59039 -0.54883,0.90039 -3.7,6.94 -2.49023,15.46961 3.00977,21.09961 l 1.11914,1.01954 c 0.47,0.37999 0.95117,0.72031 1.45117,1.07031 0.59,0.4 1.23047,0.82976 1.98047,1.25976 l 3.44922,1.89063 c 1.14,0.55 2.36007,1.08937 3.58007,1.60937 l 1.32032,-3.19922 C 266.65055,242.75023 265.51,242.25 264.5,241.75 l -3.33008,-1.73047 c -0.63,-0.36 -1.21047,-0.73937 -1.73047,-1.10937 -0.39,-0.25 -0.7689,-0.53008 -1.1289,-0.83008 l -1.07032,-0.91016 c -4.44,-4.58 -5.38007,-11.50961 -2.33007,-17.09961 0.1,-0.19 0.21984,-0.38031 0.33984,-0.57031 l 0.10938,-0.14062 c 3.45999,-5.36001 2.30015,-12.79969 1.16015,-16.92969 2.99,1.95 5.45992,4.61 7.16992,7.75 0.33,0.59 0.97063,0.93086 1.64063,0.88086 0.68,-0.05 1.26023,-0.49086 1.49023,-1.13086 3.86,-10.56 0.11063,-17.88063 -2.60937,-21.39063 1.34,-0.1 2.67937,0.19008 3.85937,0.83008 l 1.84961,-2.89844 c -1.78,-1.14 -4.04953,-1.47086 -6.01953,-1.38086 z m 34.24023,33.06055 c -0.45999,0 -0.90046,0.18 -1.23046,0.5 -0.32,0.33 -0.5,0.77047 -0.5,1.23047 v 8.63867 h -12.10938 c -0.95,0 -1.73047,0.78047 -1.73047,1.73047 v 10.38086 c 0,0.95 0.78047,1.71875 1.73047,1.71875 h 5.18945 v 6.91992 c 0,0.96 0.77047,1.73047 1.73047,1.73047 h 19.01953 c 0.46,0 0.90071,-0.17977 1.22071,-0.50977 0.33,-0.32 0.50976,-0.7607 0.50976,-1.2207 v -6.91992 h 12.09961 c 0.96,0 1.73047,-0.76875 1.73047,-1.71875 V 230.25 c 0,-0.95 -0.77047,-1.73047 -1.73047,-1.73047 h -5.18945 v -8.63867 c 0,-0.46 -0.18,-0.90047 -0.5,-1.23047 -0.33,-0.32 -0.7707,-0.5 -1.2207,-0.5 z m 1.71876,3.45899 h 15.57031 v 6.91015 h -15.57031 z m -13.83008,10.37109 h 17.29101 v 6.91992 H 286.0293 Z m 20.75,0 h 15.56054 v 6.91992 H 306.7793 Z m -13.83008,10.36914 h 15.56055 v 5.18945 h -15.56055 z" />
  <text
     x="434.5"
     y="20.5"
     id="text969"
     style="font-size:16px;font-family:Helvetica;text-anchor:middle;fill:#910000">Internal KEK network</text>
  <path
     d="m 466,71 v 166 h 27.76"
     fill="none"
     stroke="#000000"
     stroke-width="2"
     stroke-miterlimit="10"
     pointer-events="stroke"
     id="path977" />
  <path
     d="m 499.76,237 -8,2.67 2,-2.67 -2,-2.67 z"
     fill="#000000"
     stroke="#000000"
     stroke-width="2"
     stroke-miterlimit="10"
     pointer-events="all"
     id="path979" />
  <path
     d="m 308,71 h 102 83.76"
     fill="none"
     stroke="#000000"
     stroke-width="2"
     stroke-miterlimit="10"
     pointer-events="stroke"
     id="path981" />
  <path
     d="m 499.76,71 -8,2.67 2,-2.67 -2,-2.67 z"
     fill="#000000"
     stroke="#000000"
     stroke-width="2"
     stroke-miterlimit="10"
     pointer-events="all"
     id="path983" />
  <text
     x="380.89062"
     y="84.5"
     fill="#000000"
     font-family="hack"
     font-size="12px"
     text-anchor="middle"
     id="text985">ssh login.cc.kek.jp</text>
  <path
     d="m 308,51 h 102 83.76"
     fill="none"
     stroke="#000000"
     stroke-width="2"
     stroke-miterlimit="10"
     pointer-events="stroke"
     id="path991" />
  <path
     d="m 499.76,51 -8,2.67 2,-2.67 -2,-2.67 z"
     fill="#000000"
     stroke="#000000"
     stroke-width="2"
     stroke-miterlimit="10"
     pointer-events="all"
     id="path993" />
  <text
     x="380.89062"
     y="44.5"
     fill="#000000"
     font-family="hack"
     font-size="12px"
     text-anchor="middle"
     id="text995">ssh ccw01.cc.kek.jp</text>
  <path
     d="m 466,147 h 27.76"
     fill="none"
     stroke="#000000"
     stroke-width="2"
     stroke-miterlimit="10"
     pointer-events="stroke"
     id="path1001" />
  <path
     d="m 499.76,147 -8,2.67 2,-2.67 -2,-2.67 z"
     fill="#000000"
     stroke="#000000"
     stroke-width="2"
     stroke-miterlimit="10"
     pointer-events="all"
     id="path1003" />
  <path
     d="m 250,31 h 58 v 58 h -58 z"
     fill="#003300"
     stroke="none"
     pointer-events="all"
     id="path1005" />
  <path
     d="m 279.49,36.8 c -5.79,0.13 -10.38,4.92 -10.27,10.71 v 0.42 h 1.97 v -0.41 c -0.11,-4.7 3.6,-8.61 8.3,-8.75 4.54,0 8.22,3.95 8.2,8.89 v 0.32 h 1.97 V 47.66 C 289.85,41.85 285.3,36.99 279.49,36.8 Z m -16.38,8.62 -4.67,4.61 c -0.19,0.18 -0.3,0.44 -0.3,0.7 0,0.26 0.11,0.52 0.3,0.7 l 4.67,4.62 1.39,-1.41 -2.96,-2.88 h 34.89 l -2.88,2.96 1.4,1.39 4.62,-4.67 c 0.19,-0.19 0.29,-0.44 0.29,-0.71 0.01,-0.28 -0.1,-0.55 -0.31,-0.74 l -4.72,-4.55 -1.38,1.42 3.04,2.96 h -35 l 2.96,-2.96 z m 6.11,8.1 v 4.56 h -4.63 c -0.27,0 -0.52,0.11 -0.7,0.29 -0.19,0.19 -0.29,0.44 -0.29,0.7 v 23.14 c 0,0.55 0.44,0.99 0.99,0.99 h 29.61 c 0.55,0 0.99,-0.44 0.99,-0.99 V 59.08 c 0,-0.26 -0.1,-0.51 -0.29,-0.69 -0.18,-0.19 -0.44,-0.3 -0.71,-0.3 h -4.53 v -4.57 h -1.97 v 4.57 h -16.5 v -4.57 z m -3.67,6.54 h 27.65 v 21.17 h -27.65 z m 13.84,2.41 c -2.05,0.01 -3.78,1.54 -4.03,3.58 -0.26,2.04 1.05,3.95 3.04,4.46 v 5.46 h 1.97 v -5.49 c 1.43,-0.35 2.56,-1.44 2.95,-2.86 0.4,-1.42 0,-2.94 -1.04,-3.98 -0.77,-0.76 -1.81,-1.18 -2.89,-1.17 z m 0,1.97 c 0.56,0 1.1,0.23 1.5,0.62 0.37,0.4 0.58,0.92 0.58,1.47 0,0.56 -0.22,1.1 -0.61,1.5 -0.4,0.39 -0.94,0.61 -1.5,0.61 -0.86,-0.01 -1.62,-0.52 -1.94,-1.31 -0.33,-0.79 -0.15,-1.69 0.45,-2.3 h 0.02 c 0.4,-0.38 0.94,-0.6 1.5,-0.59 z"
     fill="#ffffff"
     stroke="none"
     pointer-events="all"
     id="path1007" />
  <text
     x="111.93305"
     y="141.76608"
     fill="#000000"
     font-family="hack"
     font-size="12px"
     text-anchor="middle"
     id="text1011"
     transform="rotate(-19.5)">ssh sshcc1.kek.jp</text>
  <text
     x="203.41405"
     y="146.88887"
     fill="#910000"
     font-family="hack"
     font-size="12px"
     text-anchor="middle"
     id="text1019"
     transform="rotate(15.3)">ssh login.cc.kek.jp</text>
  <path
     d="m 371.88,179 c -0.44,0 -0.86,0.17 -1.17,0.49 -0.32,0.31 -0.49,0.73 -0.49,1.17 v 59.76 c 0,0.44 0.17,0.86 0.49,1.17 0.31,0.32 0.73,0.49 1.17,0.49 h 6.31 v 5.79 c 0,0.44 0.17,0.86 0.48,1.18 0.31,0.31 0.73,0.48 1.17,0.48 h 5.81 v 5.81 c 0,0.92 0.75,1.66 1.66,1.66 h 44.81 c 0.44,0 0.86,-0.17 1.17,-0.49 0.32,-0.31 0.49,-0.73 0.49,-1.17 V 195.6 c 0,-0.44 -0.17,-0.87 -0.49,-1.18 -0.31,-0.31 -0.73,-0.48 -1.17,-0.48 h -5.81 v -5.81 c 0,-0.44 -0.17,-0.86 -0.48,-1.18 -0.31,-0.31 -0.74,-0.48 -1.18,-0.48 h -6.3 v -5.81 c 0,-0.44 -0.18,-0.86 -0.49,-1.17 -0.31,-0.32 -0.73,-0.49 -1.17,-0.49 z m 1.66,3.32 h 41.49 v 4.15 h -35.19 c -0.44,0 -0.86,0.17 -1.17,0.48 -0.31,0.32 -0.48,0.74 -0.48,1.18 v 50.61 h -4.65 z m 7.96,7.47 h 41.49 v 4.15 h -35.68 c -0.91,0 -1.66,0.74 -1.66,1.66 v 50.61 h -4.15 z m 7.47,7.47 h 41.49 v 56.42 h -41.49 z m 4.55,4.14 c -0.44,0 -0.86,0.18 -1.17,0.49 -0.32,0.31 -0.49,0.73 -0.49,1.17 v 7.47 c 0,0.44 0.17,0.86 0.49,1.18 0.31,0.31 0.73,0.48 1.17,0.48 h 7.47 c 0.44,0 0.86,-0.17 1.17,-0.48 0.31,-0.32 0.49,-0.74 0.49,-1.18 v -7.47 c 0,-0.44 -0.18,-0.86 -0.49,-1.17 -0.31,-0.31 -0.73,-0.49 -1.17,-0.49 z m 1.66,3.32 h 4.15 v 4.15 h -4.15 z m 9.56,0.42 v 3.32 h 22.42 v -3.32 z m -11.22,13.69 c -0.44,0 -0.86,0.17 -1.17,0.49 -0.32,0.31 -0.49,0.73 -0.49,1.17 v 7.47 c 0,0.44 0.17,0.86 0.49,1.17 0.31,0.31 0.73,0.49 1.17,0.49 h 7.47 c 0.44,0 0.86,-0.18 1.17,-0.49 0.31,-0.31 0.49,-0.73 0.49,-1.17 v -7.47 c 0,-0.44 -0.18,-0.86 -0.49,-1.17 -0.31,-0.32 -0.73,-0.49 -1.17,-0.49 z m 1.66,3.32 h 4.15 v 4.15 h -4.15 z m 9.56,0.4 v 3.32 h 22.42 v -3.32 z m -11.22,13.71 c -0.44,0 -0.86,0.17 -1.17,0.48 -0.32,0.31 -0.49,0.73 -0.49,1.17 v 7.49 c 0,0.44 0.17,0.86 0.49,1.17 0.31,0.31 0.73,0.49 1.17,0.49 h 7.47 c 0.44,0 0.86,-0.18 1.17,-0.49 0.31,-0.31 0.49,-0.73 0.49,-1.17 v -7.49 c 0,-0.44 -0.18,-0.86 -0.49,-1.17 -0.31,-0.31 -0.73,-0.48 -1.17,-0.48 z m 1.66,3.31 h 4.15 v 4.17 h -4.15 z m 9.56,0.42 v 3.32 h 22.42 v -3.32 z"
     fill="#d05c17"
     stroke="none"
     pointer-events="all"
     id="path1027" />
  <text
     x="401.5"
     y="275.5"
     fill="#232f3e"
     font-family="hack"
     font-size="12px"
     text-anchor="middle"
     id="text1029">bweb3.cc.kek.jp</text>
  <path
     d="m 512.21,36 v 4.69 h -5.52 v 5.76 H 502 v 2 h 4.69 v 4.27 H 502 v 2 h 4.69 V 59 H 502 v 2 h 4.69 v 4.28 H 502 v 2 h 4.69 v 4.27 H 502 v 2 h 4.69 v 5.76 h 5.52 V 84 h 2 v -4.69 h 4.27 V 84 h 2 v -4.69 h 4.28 V 84 h 2 v -4.69 h 4.28 V 84 h 2 v -4.69 h 4.28 V 84 h 2 v -4.69 h 5.99 V 73.55 H 550 v -2 h -4.69 V 67.28 H 550 v -2 h -4.69 V 61 H 550 v -2 h -4.69 V 54.72 H 550 v -2 h -4.69 V 48.45 H 550 v -2 h -4.69 v -5.76 h -5.99 V 36 h -2 v 4.69 h -4.28 V 36 h -2 v 4.69 h -4.28 V 36 h -2 v 4.69 h -4.28 V 36 h -2 v 4.69 h -4.27 V 36 Z m -3.52,6.69 h 34.62 v 34.62 h -34.62 z"
     fill="#666666"
     stroke="none"
     pointer-events="all"
     id="path1037" />
  <text
     x="525.5"
     y="102.5"
     fill="#000000"
     font-family="hack"
     font-size="12px"
     text-anchor="middle"
     id="text1039">ccw01.cc.kek.jp</text>
  <path
     d="m 512.21,123 v 4.69 h -5.52 v 5.76 H 502 v 2 h 4.69 v 4.27 H 502 v 2 h 4.69 V 146 H 502 v 2 h 4.69 v 4.28 H 502 v 2 h 4.69 v 4.27 H 502 v 2 h 4.69 v 5.76 h 5.52 V 171 h 2 v -4.69 h 4.27 V 171 h 2 v -4.69 h 4.28 V 171 h 2 v -4.69 h 4.28 V 171 h 2 v -4.69 h 4.28 V 171 h 2 v -4.69 h 5.99 v -5.76 H 550 v -2 h -4.69 v -4.27 H 550 v -2 h -4.69 V 148 H 550 v -2 h -4.69 v -4.28 H 550 v -2 h -4.69 v -4.27 H 550 v -2 h -4.69 v -5.76 h -5.99 V 123 h -2 v 4.69 h -4.28 V 123 h -2 v 4.69 h -4.28 V 123 h -2 v 4.69 h -4.28 V 123 h -2 v 4.69 h -4.27 V 123 Z m -3.52,6.69 h 34.62 v 34.62 h -34.62 z"
     fill="#666666"
     stroke="none"
     pointer-events="all"
     id="path1047" />
  <text
     x="525.5"
     y="189.5"
     fill="#000000"
     font-family="hack"
     font-size="12px"
     text-anchor="middle"
     id="text1049">ccw02.cc.kek.jp</text>
  <path
     d="m 512.21,213 v 4.69 h -5.52 v 5.76 H 502 v 2 h 4.69 v 4.27 H 502 v 2 h 4.69 V 236 H 502 v 2 h 4.69 v 4.28 H 502 v 2 h 4.69 v 4.27 H 502 v 2 h 4.69 v 5.76 h 5.52 V 261 h 2 v -4.69 h 4.27 V 261 h 2 v -4.69 h 4.28 V 261 h 2 v -4.69 h 4.28 V 261 h 2 v -4.69 h 4.28 V 261 h 2 v -4.69 h 5.99 v -5.76 H 550 v -2 h -4.69 v -4.27 H 550 v -2 h -4.69 V 238 H 550 v -2 h -4.69 v -4.28 H 550 v -2 h -4.69 v -4.27 H 550 v -2 h -4.69 v -5.76 h -5.99 V 213 h -2 v 4.69 h -4.28 V 213 h -2 v 4.69 h -4.28 V 213 h -2 v 4.69 h -4.28 V 213 h -2 v 4.69 h -4.27 V 213 Z m -3.52,6.69 h 34.62 v 34.62 h -34.62 z"
     fill="#666666"
     stroke="none"
     pointer-events="all"
     id="path1057" />
  <text
     x="525.5"
     y="279.5"
     fill="#000000"
     font-family="hack"
     font-size="12px"
     text-anchor="middle"
     id="text1059">...</text>
</svg>
