<?xml version="1.0" encoding="UTF-8" standalone="no"?>
<!-- Created with Inkscape (http://www.inkscape.org/) -->

<svg
   xmlns:dc="http://purl.org/dc/elements/1.1/"
   xmlns:cc="http://creativecommons.org/ns#"
   xmlns:rdf="http://www.w3.org/1999/02/22-rdf-syntax-ns#"
   xmlns:svg="http://www.w3.org/2000/svg"
   xmlns="http://www.w3.org/2000/svg"
   xmlns:sodipodi="http://sodipodi.sourceforge.net/DTD/sodipodi-0.dtd"
   xmlns:inkscape="http://www.inkscape.org/namespaces/inkscape"
   version="1.1"
   id="svg3732"
   xml:space="preserve"
   width="384"
   height="218.59399"
   viewBox="0 0 384 218.594"
   sodipodi:docname="logo.svg"
   inkscape:version="0.92.3 (2405546, 2018-03-11)"><metadata
     id="metadata3738"><rdf:RDF><cc:Work
         rdf:about=""><dc:format>image/svg+xml</dc:format><dc:type
           rdf:resource="http://purl.org/dc/dcmitype/StillImage" /><dc:title></dc:title></cc:Work></rdf:RDF></metadata><defs
     id="defs3736" /><sodipodi:namedview
     pagecolor="#ffffff"
     bordercolor="#666666"
     borderopacity="1"
     objecttolerance="10"
     gridtolerance="10"
     guidetolerance="10"
     inkscape:pageopacity="0"
     inkscape:pageshadow="2"
     inkscape:window-width="1920"
     inkscape:window-height="1172"
     id="namedview3734"
     showgrid="false"
     showguides="false"
     fit-margin-top="0"
     fit-margin-left="0"
     fit-margin-right="0"
     fit-margin-bottom="0"
     inkscape:zoom="2.8586539"
     inkscape:cx="192"
     inkscape:cy="71.050011"
     inkscape:window-x="1920"
     inkscape:window-y="0"
     inkscape:window-maximized="1"
     inkscape:current-layer="g3742"
     inkscape:pagecheckerboard="true" /><g
     id="g3740"
     inkscape:groupmode="layer"
     inkscape:label="belle2-logo"
     transform="matrix(1.3333333,0,0,-1.3333333,-21.333333,320.87733)"><g
       id="g3742"
       transform="scale(0.1)"><path
         d="m 2033.39,2269 v 0 0 c 337.86,-29.41 566.61,-113.8 566.61,-209 0,-115.42 -333.18,-211.18 -762.8,-219.23 l 196.19,428.23 -196.19,10.23 v 0 m 0,0 v 0 c -19.04,0.35 -38.12,0.53 -57.2,0.53 -452.87,0 -820,-98.39 -820,-219.76 0,-33.38 28.383,-66.33 82.99,-96.34 L 797.184,1930.17 C 746.207,1971.42 720,2015.51 720,2060 c 0,191.41 474.58,346.58 1060,346.58 585.42,0 1060,-155.17 1060,-346.58 0,-191.41 -474.58,-346.58 -1060,-346.58 -67.89,0 -135.62,2.13 -202.26,6.37"
         style="fill:#ffff00;fill-opacity:1;fill-rule:evenodd;stroke:none"
         id="path3748"
         inkscape:connector-curvature="0" /><path
         d="m 1415.41,933.645 v 0 0 c 61.05,-2.375 122.78,-3.571 184.59,-3.571 651.7,0 1180,129.806 1180,289.926 0,152.27 -479.45,278.6 -1097.69,289.22 l -266.9,-575.575 -199.58,12.226 v 0 m 0,0 v 0 C 739.641,986.156 420,1096.26 420,1220 c 0,80.4 135.906,157.2 375.242,212.04 l -282.023,85.07 C 285.441,1434.71 160,1329.19 160,1220 160,969.887 804.711,767.125 1600,767.125 c 795.29,0 1440,202.762 1440,452.875 0,250.11 -644.71,452.88 -1440,452.88 -12.57,0 -25.14,-0.06 -37.7,-0.16"
         style="fill:#ffff00;fill-opacity:1;fill-rule:evenodd;stroke:none"
         id="path3750"
         inkscape:connector-curvature="0" /></g></g></svg>