<?xml version="1.0" encoding="UTF-8" standalone="no"?>
<svg
   xmlns:dc="http://purl.org/dc/elements/1.1/"
   xmlns:cc="http://creativecommons.org/ns#"
   xmlns:rdf="http://www.w3.org/1999/02/22-rdf-syntax-ns#"
   xmlns:svg="http://www.w3.org/2000/svg"
   xmlns="http://www.w3.org/2000/svg"
   width="137.74048mm"
   height="90.646538mm"
   viewBox="0 0 137.74048 90.646538"
   version="1.1"
   id="svg8">
  <defs
     id="defs2" />
  <metadata
     id="metadata5">
    <rdf:RDF>
      <cc:Work
         rdf:about="">
        <dc:format>image/svg+xml</dc:format>
        <dc:type
           rdf:resource="http://purl.org/dc/dcmitype/StillImage" />
        <dc:title></dc:title>
      </cc:Work>
    </rdf:RDF>
  </metadata>
  <g
     id="layer1"
     transform="translate(-40.36601,-46.323926)">
    <path
       style="fill:#0000dc;fill-opacity:1;fill-rule:nonzero;stroke:none;stroke-width:3;stroke-linecap:round;stroke-linejoin:round;stroke-miterlimit:4;stroke-dasharray:none;stroke-opacity:1"
       d="m 69.628752,48.85283 c -0.340326,0.0048 -0.622453,0.06729 -0.837157,0.194821 -3.435255,2.040517 0.704349,25.085291 0.704349,25.085291 l 0.04754,0.02739 a 50.270833,37.419639 0 0 0 -10.5792,22.890075 50.270833,37.419639 0 0 0 50.270836,37.419933 50.270833,37.419639 0 0 0 50.27083,-37.419933 50.270833,37.419639 0 0 0 -10.55181,-22.905579 l 0.0202,-0.01189 c 0,0 4.13961,-23.044774 0.70435,-25.085291 -3.43524,-2.040515 -24.13651,12.606467 -24.13651,12.606467 l -0.0176,0.03772 a 50.270833,37.419639 0 0 0 -16.28945,-2.060858 50.270833,37.419639 0 0 0 -16.28738,2.066025 l -0.01964,-0.04289 c 0,0 -18.19447,-12.873427 -23.299354,-12.801288 z"
       id="path4775" />
    <path
       style="fill:#000085;fill-opacity:1;fill-rule:nonzero;stroke:none;stroke-width:11.33858299;stroke-linecap:round;stroke-linejoin:round;stroke-miterlimit:4;stroke-dasharray:none;stroke-opacity:1"
       d="m 139.49805,44.308594 c 3.48154,10.729976 48.48261,41.257105 65.05859,52.669922 9.10859,6.271404 45.56952,-0.859319 26.24024,-4.861328 C 196.37646,64.608146 167.51409,53.230157 139.49805,44.308594 Z m 305.71484,0 c -8.607,10.619626 -14.47031,48.246464 -17.55078,72.369136 -2.17391,17.02337 19.77449,37.77838 14.8125,22.48633 3.23584,-31.60983 12.3822,-62.719663 2.73828,-94.855466 z m -2.32812,92.882816 c -0.11701,0.67242 -0.33204,1.92773 -0.33204,1.92773 l -0.0762,0.0449 c 1.40143,1.3446 2.7602,2.70862 4.0918,4.08594 -1.16397,-2.02606 -2.38174,-4.04684 -3.68359,-6.05859 z m 3.68359,6.05859 c 84.3118,146.75696 -189.7073,328.17465 -333.49219,128.83398 26.49523,56.85953 98.42972,95.01008 179.28125,95.08204 104.9347,0 190.00084,-63.32041 190,-141.42969 -0.0338,-29.6482 -12.59038,-58.49111 -35.78906,-82.48633 z"
       transform="matrix(0.26458333,0,0,0.26458333,31.882532,37.324288)"
       id="path5317" />
    <path
       style="font-style:normal;font-variant:normal;font-weight:normal;font-stretch:normal;font-size:medium;line-height:0%;font-family:Ubuntu;-inkscape-font-specification:Ubuntu;letter-spacing:0px;word-spacing:0px;fill:#ffff00;fill-opacity:1;stroke:none;stroke-width:0.99999994px;stroke-linecap:butt;stroke-linejoin:miter;stroke-opacity:1"
       d="m 293.69141,108.25391 c -49.88519,0 -90.33008,13.21396 -90.33008,29.5332 0,3.78803 2.24105,7.55657 6.57617,11.05273 l 20.9668,-2.8457 c -4.66338,-2.56877 -7.08594,-5.35692 -7.08594,-8.20703 0,-10.33761 31.28419,-18.7207 69.87305,-18.7207 1.63086,0 3.25519,6.3e-4 4.86523,0.0312 l -22.10156,47.67578 c 5.67942,0.36478 11.45788,0.54687 17.23633,0.54687 49.8904,0 90.32812,-13.22963 90.32812,-29.5332 0,-16.31924 -40.43772,-29.5332 -90.32812,-29.5332 z m 21.59765,11.71875 c 28.77751,2.50614 48.2793,9.69256 48.2793,17.81054 0,9.83215 -28.39766,17.99059 -65.01172,18.6836 z m -36.94336,50.85156 c -1.05766,0 -2.13566,0.0137 -3.19336,0.0137 l -29.5332,61.94336 c -40.56364,-3.43887 -67.82031,-12.8015 -67.82031,-23.36328 0,-6.84126 11.58272,-13.39659 31.97656,-18.05469 l -24.01367,-7.24805 c -19.41949,7.00286 -30.10742,16.00213 -30.10742,25.30274 0,21.32654 54.93424,38.58984 122.6914,38.58984 67.77801,0 122.71289,-17.2633 122.71289,-38.58984 0,-21.31084 -54.93488,-38.59375 -122.71289,-38.59375 z m 7.02344,13.96289 c 52.67282,0.89625 93.54492,11.66204 93.54492,24.63086 0,13.65684 -45.02457,24.70898 -100.56836,24.70898 -5.25218,0 -10.51999,-0.10487 -15.71484,-0.30859 z m -182.1582,53.68555 a 190,141.42856 0 0 0 1.41406,7.88281 c 21.62158,4.65622 43.99079,13.93827 71.35938,31.18945 a 3.7820592,3.7820592 0 0 0 4.03124,-6.40039 C 150.86334,252.769 126.67538,243.12115 103.21094,238.47266 Z m 378.22265,0.0137 c -23.44252,4.65381 -47.61102,14.30095 -76.73437,32.6582 a 3.7817466,3.7817466 0 0 0 4.0293,6.40039 c 27.39542,-17.26808 49.78203,-26.55144 71.42382,-31.20312 a 190,141.42856 0 0 0 1.28125,-7.85547 z m -281.06445,17.80273 -7.93555,1.36524 v 63.57226 c 1.82045,0.512 4.15165,1.02511 6.9961,1.53711 2.84444,0.512 6.11667,0.76758 9.81445,0.76758 3.41333,0 6.48418,-0.5402 9.21484,-1.62109 2.73067,-1.0809 5.06383,-2.61632 6.99805,-4.60743 1.93422,-1.9911 3.4135,-4.40945 4.4375,-7.2539 1.08089,-2.90134 1.6211,-6.14452 1.62109,-9.72852 0,-3.41331 -0.45501,-6.54227 -1.36523,-9.38672 -0.85333,-2.84444 -2.13318,-5.28989 -3.83984,-7.33789 -1.70667,-2.048 -3.81134,-3.6415 -6.31446,-4.77929 -2.44622,-1.13777 -5.26346,-1.70703 -8.44921,-1.70703 -2.56001,0 -4.83507,0.34077 -6.82618,1.02343 -1.93422,0.68269 -3.38445,1.33713 -4.35156,1.96289 z m 142.2207,0 c -5.97334,0 -10.35502,1.56447 -13.14257,4.69336 -2.78756,3.072 -4.18164,7.45173 -4.18165,13.14063 v 48.38476 h 7.9375 v -37.71875 h 17.06641 v -6.65625 H 333.20312 V 274.293 c 0,-3.41332 0.73965,-6.11434 2.21876,-8.10547 1.47908,-2.048 4.06588,-3.07227 7.76367,-3.07227 1.82044,0 3.35782,0.17038 4.60937,0.51172 1.25155,0.28445 2.21773,0.59811 2.90039,0.93946 l 1.45117,-6.82813 c -0.68268,-0.28445 -1.87732,-0.59618 -3.58398,-0.9375 -1.64979,-0.34134 -3.64023,-0.51172 -5.97266,-0.51172 z m 30.09766,5.7168 c -2.048,0 -3.95324,0.25558 -5.7168,0.76758 -1.76355,0.512 -3.35708,1.1374 -4.77929,1.87695 -1.42224,0.73955 -2.64593,1.53728 -3.66993,2.39063 -1.024,0.79644 -1.79073,1.47798 -2.30273,2.04687 l 3.92383,5.63281 c 0.39821,-0.34134 0.96748,-0.8254 1.70703,-1.45117 0.73958,-0.68266 1.6496,-1.30806 2.73047,-1.87695 1.08089,-0.62579 2.30458,-1.16599 3.66992,-1.6211 1.36532,-0.4551 2.87365,-0.68359 4.52344,-0.68359 1.36534,0 2.64518,0.19945 3.83984,0.59766 1.25155,0.34134 2.33195,0.91058 3.24219,1.70703 0.91021,0.79645 1.62081,1.79167 2.13281,2.98633 0.5689,1.19465 0.85352,2.64488 0.85352,4.35156 0,1.59287 -0.31171,3.1012 -0.9375,4.52344 -0.5689,1.42221 -1.36663,2.8163 -2.39063,4.18164 -0.9671,1.30844 -2.10366,2.64442 -3.41211,4.00976 -1.25155,1.30842 -2.58951,2.64638 -4.01172,4.01172 -1.70668,1.70666 -3.44152,3.47057 -5.20507,5.29102 -1.76356,1.82044 -3.35709,3.75278 -4.7793,5.80078 -1.42224,2.048 -2.58784,4.23982 -3.49805,6.57226 -0.85334,2.27556 -1.27929,4.75004 -1.2793,7.42383 v 0.9375 c 0,0.34134 0.027,0.68405 0.084,1.02539 h 35.8418 v -6.74219 h -27.22266 c 0,-0.96708 0.36984,-2.10561 1.10937,-3.41406 0.79645,-1.30844 1.76458,-2.67349 2.90235,-4.0957 1.13779,-1.42224 2.33243,-2.78726 3.58398,-4.0957 1.30845,-1.30843 2.44501,-2.44498 3.41211,-3.41211 1.70666,-1.70666 3.41441,-3.44348 5.1211,-5.20703 1.70665,-1.82045 3.24208,-3.64049 4.60742,-5.46094 1.36531,-1.87734 2.44574,-3.75354 3.24219,-5.63086 0.85334,-1.93424 1.28125,-3.92661 1.28125,-5.97461 0,-5.23376 -1.56447,-9.27274 -4.69336,-12.11719 -3.072,-2.90134 -7.70927,-4.35156 -13.91016,-4.35156 z m 97.10547,14.19531 c -1.79113,0.034 -3.58105,0.0706 -5.3457,0.13281 -24.0773,0.84858 -45.56888,4.27854 -60.87891,9.04883 a 3.7818624,3.7818624 0 0 0 2.25195,7.22071 c 14.47993,-4.51166 35.62859,-7.83282 59.42578,-8.63672 a 190,141.42856 0 0 0 4.54688,-7.76563 z m -354.69727,0.004 a 190,141.42856 0 0 0 4.30469,7.75976 c 23.82492,0.79986 45.0004,4.12273 59.49414,8.63868 a 3.7815722,3.7815722 0 1 0 2.25,-7.22071 c -15.31004,-4.77029 -36.79968,-8.20025 -60.87695,-9.04883 -1.70728,-0.0602 -3.43983,-0.0951 -5.17188,-0.1289 z m 142.00586,0.81836 c -2.78755,0 -5.37434,0.22849 -7.76367,0.68359 -2.38933,0.39824 -4.09709,0.82419 -5.12109,1.2793 l 0.93945,6.57031 c 0.96711,-0.39824 2.41734,-0.76806 4.35156,-1.10937 1.99111,-0.39824 4.29522,-0.59766 6.91211,-0.59766 2.04801,0 3.69767,0.31366 4.94922,0.93945 1.30845,0.5689 2.33271,1.36467 3.07227,2.38867 0.73955,0.96711 1.25071,2.10562 1.53515,3.41407 0.28445,1.25155 0.42774,2.53139 0.42774,3.83984 v 2.21875 c -0.22756,-0.0569 -0.62642,-0.14222 -1.19532,-0.25586 -0.56889,-0.11389 -1.25238,-0.22816 -2.04882,-0.3418 -0.73956,-0.17058 -1.53533,-0.28289 -2.38868,-0.33984 -0.85331,-0.11364 -1.67818,-0.17187 -2.4746,-0.17187 -2.50312,0 -4.89242,0.25753 -7.16797,0.76953 -2.27556,0.512 -4.26599,1.30777 -5.97266,2.38867 -1.70667,1.08087 -3.0717,2.50205 -4.0957,4.26562 -0.96712,1.76356 -1.45118,3.8702 -1.45117,6.31641 0,2.56 0.42596,4.74987 1.27929,6.57031 0.85334,1.82045 2.04799,3.29974 3.58399,4.4375 1.536,1.0809 3.35605,1.87667 5.46093,2.38867 2.10489,0.512 4.409,0.76758 6.91211,0.76758 1.76357,0 3.52747,-0.0853 5.29102,-0.25586 1.82045,-0.11386 3.49915,-0.2552 5.03516,-0.42578 1.53598,-0.17076 2.90104,-0.34113 4.0957,-0.51172 1.25155,-0.22742 2.21966,-0.39978 2.90234,-0.51367 v -27.73242 c 0,-2.50311 -0.28462,-4.77817 -0.85351,-6.82617 -0.5689,-2.1049 -1.53701,-3.89785 -2.90235,-5.37696 -1.30844,-1.536 -3.07235,-2.7016 -5.29101,-3.49804 -2.16177,-0.85334 -4.8357,-1.2793 -8.02149,-1.2793 z m 43.64649,0.002 c -5.00621,0 -8.95999,1.1656 -11.86133,3.49805 -2.90134,2.27555 -4.35156,5.37544 -4.35156,9.30078 0,1.9911 0.3427,3.66981 1.02539,5.03516 0.68266,1.36529 1.59268,2.53091 2.73047,3.49804 1.13776,0.96711 2.47376,1.821 4.00976,2.56055 1.5929,0.68266 3.24256,1.36419 4.94922,2.04687 3.52711,1.42221 6.0597,2.70401 7.5957,3.8418 1.536,1.13776 2.30274,2.67319 2.30274,4.60742 0,1.87732 -0.79581,3.24236 -2.38867,4.09571 -1.536,0.85334 -3.92529,1.27929 -7.16797,1.27929 -3.29956,0 -5.94444,-0.34075 -7.93555,-1.02344 -1.99111,-0.68263 -3.44328,-1.19381 -4.35352,-1.53515 l -1.44921,6.82617 c 0.79644,0.34134 2.30282,0.82538 4.52148,1.45117 2.21868,0.68266 5.29148,1.02344 9.2168,1.02344 5.632,0 9.95557,-1.05331 12.9707,-3.1582 3.072,-2.1049 4.60742,-5.20478 4.60742,-9.30078 0,-2.10487 -0.31171,-3.86878 -0.9375,-5.29102 -0.62579,-1.47911 -1.53776,-2.72991 -2.73242,-3.75391 -1.13776,-1.024 -2.5299,-1.90693 -4.17969,-2.64648 -1.64979,-0.79645 -3.52794,-1.59223 -5.63281,-2.38867 -1.59289,-0.5689 -2.95791,-1.1091 -4.0957,-1.6211 -1.13777,-0.512 -2.1059,-1.05222 -2.90235,-1.62109 -0.73955,-0.62579 -1.30686,-1.30928 -1.70507,-2.04883 -0.34132,-0.73955 -0.51368,-1.59149 -0.51368,-2.55859 0,-1.87734 0.82485,-3.24432 2.47461,-4.09766 1.64979,-0.91021 3.58408,-1.36523 5.80274,-1.36523 2.56,0 4.75182,0.25753 6.57226,0.76953 1.82045,0.4551 3.15643,0.91013 4.00977,1.36523 l 1.45117,-6.82812 c -0.45511,-0.17069 -1.10955,-0.36818 -1.96289,-0.59571 -0.79645,-0.22763 -1.73551,-0.42707 -2.81641,-0.59765 -1.08089,-0.22745 -2.24649,-0.39783 -3.49804,-0.51172 -1.25156,-0.17058 -2.50431,-0.25586 -3.75586,-0.25586 z m -90.22461,7.08203 c 2.27555,0 4.20984,0.42598 5.80273,1.2793 1.64978,0.79645 2.98772,1.93496 4.01172,3.41406 1.024,1.42224 1.76169,3.12804 2.2168,5.11914 0.45511,1.99111 0.68359,4.12484 0.68359,6.40039 0,5.1769 -1.27984,9.18681 -3.83984,12.03125 -2.56,2.78756 -5.97357,4.18164 -10.24024,4.18164 -2.16178,0 -3.98182,-0.0853 -5.46093,-0.25586 -1.42223,-0.22757 -2.53169,-0.45411 -3.32813,-0.68164 V 287.5197 c 0.96711,-0.79645 2.3612,-1.56318 4.18164,-2.30273 1.82045,-0.73956 3.81088,-1.10938 5.97266,-1.10938 z m 48.45703,17.83399 c 1.82045,0 3.35587,0.11427 4.60742,0.34179 1.30845,0.17069 2.24751,0.3972 2.81641,0.68164 v 13.22657 c -0.96711,0.22745 -2.19081,0.39978 -3.66992,0.51367 -1.42222,0.0569 -3.07188,0.084 -4.94922,0.084 -3.12889,0 -5.60339,-0.5402 -7.42383,-1.62109 -1.82045,-1.13779 -2.73047,-3.12821 -2.73047,-5.97266 0,-1.536 0.36982,-2.75971 1.10937,-3.66992 0.73956,-0.9671 1.64959,-1.70675 2.73047,-2.21875 1.13778,-0.56897 2.35953,-0.93879 3.66797,-1.10937 1.36534,-0.17059 2.64714,-0.25586 3.8418,-0.25586 z m -84.41211,0.43554 a 3.7799055,3.7799055 0 0 0 -0.63477,0.0449 c -10.6985,1.52612 -22.1573,3.94338 -33.80078,7.66796 a 190,141.42856 0 0 0 6.14258,6.01368 c 9.85705,-2.91601 19.55706,-4.89007 28.7207,-6.19727 a 3.7799055,3.7799055 0 0 0 -0.42773,-7.5293 z m 235.45898,0.006 v 0.002 a 3.7799055,3.7799055 0 0 0 -0.30859,7.52148 c 9.13044,1.30247 18.79308,3.26544 28.61328,6.16406 a 190,141.42856 0 0 0 6.27149,-5.97461 c -11.65081,-3.72846 -23.11725,-6.14677 -33.82227,-7.67382 a 3.7799055,3.7799055 0 0 0 -0.75391,-0.0391 z"
       id="path4840"
       transform="matrix(0.26458333,0,0,0.26458333,31.882532,37.324288)" />
    <path
       style="color:#000000;font-style:normal;font-variant:normal;font-weight:normal;font-stretch:normal;font-size:medium;line-height:normal;font-family:sans-serif;font-variant-ligatures:normal;font-variant-position:normal;font-variant-caps:normal;font-variant-numeric:normal;font-variant-alternates:normal;font-feature-settings:normal;text-indent:0;text-align:start;text-decoration:none;text-decoration-line:none;text-decoration-style:solid;text-decoration-color:#000000;letter-spacing:normal;word-spacing:normal;text-transform:none;writing-mode:lr-tb;direction:ltr;text-orientation:mixed;dominant-baseline:auto;baseline-shift:baseline;text-anchor:start;white-space:normal;shape-padding:0;clip-rule:nonzero;display:inline;overflow:visible;visibility:visible;opacity:1;isolation:auto;mix-blend-mode:normal;color-interpolation:sRGB;color-interpolation-filters:linearRGB;solid-color:#000000;solid-opacity:1;vector-effect:none;fill:#000000;fill-opacity:1;fill-rule:evenodd;stroke:none;stroke-width:11.33858299;stroke-linecap:round;stroke-linejoin:round;stroke-miterlimit:4;stroke-dasharray:none;stroke-dashoffset:0;stroke-opacity:1;color-rendering:auto;image-rendering:auto;shape-rendering:auto;text-rendering:auto;enable-background:accumulate"
       d="m 442.20508,37.794922 c -1.95693,-0.02343 -3.91082,0.363114 -5.9043,0.820312 -3.98695,0.914378 -8.3613,2.567198 -13.14062,4.708985 -9.55862,4.28358 -20.67287,10.570396 -31.37305,17.074219 -20.41546,12.408986 -37.49237,24.496762 -39.18359,25.689453 -19.46737,-4.784421 -39.75259,-7.39942 -60.23438,-7.449219 a 5.6698583,5.6698583 0 0 0 -0.0312,0 c -20.47087,0.05654 -40.74402,2.677026 -60.19922,7.46289 -1.61221,-1.136783 -16.4339,-11.631618 -35.22656,-23.259765 -9.89218,-6.120881 -20.40454,-12.246256 -29.83789,-16.904297 -9.43335,-4.658045 -17.23903,-8.133747 -24.49219,-8.03125 -1.93588,0.02721 -3.99329,0.346975 -5.98047,1.527344 -3.85204,2.288088 -5.21253,5.952502 -6.19922,9.730468 -0.98668,3.777967 -1.44388,8.122842 -1.63281,12.990235 -0.37784,9.734789 0.39237,21.509426 1.55078,33.019531 2.18785,21.738692 5.51375,40.202752 5.91211,42.447262 -25.24008,25.22173 -39.460274,56.08942 -39.54492,88.10157 a 5.6698583,5.6698583 0 0 0 0,0.0156 c -3.5e-5,3.28042 0.158493,6.53088 0.439453,9.75586 -7.206827,-1.16714 -14.377867,-1.90447 -21.630859,-2.30078 -4.144965,-0.22649 -8.316827,-0.34447 -12.53711,-0.37305 -7.033804,-0.0476 -14.203401,0.1522 -21.605468,0.50586 a 5.6698581,5.6698581 0 1 0 0.546875,11.32422 c 20.53487,-0.98111 38.562868,-0.85917 56.849609,2.4375 1.81218,9.37285 4.79117,18.45028 8.82227,27.14453 -0.37869,0.001 -0.74909,-0.008 -1.12891,-0.006 -20.356545,0.13915 -41.978982,2.15391 -62.984376,6.69922 a 5.6698581,5.6698581 0 1 0 2.398438,11.08008 c 22.495623,-4.86778 46.086473,-6.62061 67.789058,-6.26758 5.23916,8.82141 11.58546,17.16792 18.89454,24.93945 -13.58385,4.956 -27.27856,11.79746 -40.207036,21.21094 a 5.6698581,5.6698581 0 1 0 6.673828,9.16211 c 13.563538,-9.87588 28.151118,-16.74293 42.568358,-21.49219 4.11963,3.74204 8.47192,7.32453 13.04492,10.72852 35.49124,26.41848 84.12473,42.54883 137.73243,42.54883 53.60764,0 102.24708,-16.13035 137.73828,-42.54883 4.57149,-3.40286 8.92259,-6.98392 13.04101,-10.72461 14.4196,4.74883 29.0106,11.61234 42.57422,21.48828 a 5.6698581,5.6698581 0 1 0 6.67383,-9.16211 c -12.92847,-9.41349 -26.6253,-16.25329 -40.21094,-21.20898 7.30987,-7.77211 13.65688,-16.11924 18.89649,-24.94141 21.70321,-0.35321 45.2954,1.39981 67.79101,6.26758 a 5.6698581,5.6698581 0 1 0 2.39844,-11.08008 c -21.20735,-4.58901 -43.04471,-6.59881 -63.57227,-6.70312 -0.18046,-9.2e-4 -0.35879,6.3e-4 -0.53906,0 4.02859,-8.69078 7.0068,-17.76405 8.81836,-27.13282 18.28845,-3.29681 36.31665,-3.42057 56.85156,-2.43945 a 5.6698581,5.6698581 0 1 0 0.53711,-11.32422 c -7.40206,-0.35365 -14.56601,-0.55348 -21.59765,-0.50586 -4.21899,0.0286 -8.3902,0.14657 -12.53516,0.37305 -7.25272,0.3963 -14.42549,1.13365 -21.63281,2.30078 0.28096,-3.22498 0.43948,-6.47544 0.43945,-9.75586 a 5.6698583,5.6698583 0 0 0 0,-0.008 c -0.0378,-32.06003 -14.24966,-62.98617 -39.52344,-88.25 0.4184,-2.35918 3.71003,-20.63996 5.89063,-42.306642 1.15842,-11.510105 1.92862,-23.284742 1.55078,-33.019531 -0.18898,-4.867393 -0.64613,-9.214221 -1.63281,-12.992188 -0.98669,-3.777966 -2.34717,-7.440427 -6.19922,-9.728515 -1.98894,-1.18142 -3.94933,-1.615103 -5.90625,-1.638672 z M 142.74414,49.244141 c 2.39386,-0.03402 10.41787,2.46925 19.30469,6.857421 8.88682,4.388172 19.18918,10.371959 28.90039,16.38086 19.1197,11.830496 35.41296,23.356736 35.93359,23.724609 a 5.6698583,5.6698583 0 0 0 5.33008,1.396485 c 19.31787,-4.987609 39.65065,-7.565998 60.13281,-7.625 20.49336,0.04981 40.83096,2.62521 60.16211,7.609375 a 5.6698583,5.6698583 0 0 0 5.28516,-1.34961 c 0.50105,-0.354028 19.19408,-13.578009 39.88476,-26.154297 10.48305,-6.37183 21.36374,-12.483038 30.12696,-16.410156 4.38157,-1.963563 8.25037,-3.370924 11.02734,-4.007812 1.82095,-0.417622 2.98437,-0.317593 3.41992,-0.314454 0.20349,0.352959 0.69249,1.154293 1.08985,2.675782 0.64286,2.461387 1.09941,6.187708 1.26953,10.570312 0.34016,8.765208 -0.36805,20.210946 -1.49805,31.439453 -2.22988,22.156211 -5.95899,42.918531 -6.06055,43.486331 a 5.6698583,5.6698583 0 0 0 1.5,5.72851 c 24.8798,23.87089 38.09871,52.82596 38.13477,82.48633 3.8e-4,36.99655 -20.08993,70.68606 -53.36523,95.45508 -33.27531,24.76902 -79.64175,40.30469 -130.96875,40.30469 -51.32704,0 -97.68759,-15.53567 -130.9629,-40.30469 -33.27084,-24.7657 -53.35828,-58.45071 -53.36328,-95.44141 v -0.006 -0.008 c 0.0828,-29.64735 13.33215,-58.57518 38.23047,-82.41992 a 5.6698583,5.6698583 0 0 0 1.34375,-6.20117 c -0.16872,-0.94538 -3.79292,-21.1309 -6.00195,-43.080081 -1.13007,-11.228507 -1.83827,-22.674245 -1.49805,-31.439453 0.17012,-4.382604 0.6267,-8.108925 1.26953,-10.570312 0.42944,-1.64427 0.97695,-2.46643 1.13672,-2.759766 0.0862,-0.0098 0.0992,-0.02151 0.23633,-0.02344 z"
       transform="matrix(0.26458333,0,0,0.26458333,31.882532,37.324288)"
       id="path5327" />
  </g>
</svg>
